<?xml version="1.0" encoding="UTF-8"?>
<svg id="Layer_2" data-name="Layer 2" xmlns="http://www.w3.org/2000/svg" viewBox="0 0 191.88 173.1">
  <defs>
    <style>
      .cls-1 {
        fill: #ff9720;
        stroke-width: 0px;
      }
    </style>
  </defs>
  <g id="Layer_1-2" data-name="Layer 1">
    <path class="cls-1" d="m179.75,59.88c-9.64-5.35-19.55-10.2-29.64-14.63-1.51-10.15-5.52-20.27-5.47-30.49.17-1.28-.42-2.4-1.29-3.27-4.63-21.23-42.9,7.54-54.45,10.6-8.74-1.17-16.03-8.14-23.45-12.5-6.43-3.17-26.91-16.84-29.45-4.55-.79,21.01-2.08,42.11-1.97,63.11-6.76,6.11-13.56,12.17-20.34,18.26C9.13,90.49-.71,96.23.04,103.33c3.73,13.58,21.71,16.17,33.55,18.89,9.41,1.54,25.64,2.74,23.32,16.1-.75,11.39,1.79,22.83,7.7,32.64,6.94,10.6,30.43-21.53,34.54-27.45,8.31-.33,16.67-.51,24.94.52,6.38.63,24.59,10.23,28.22,4.84,10.84-3.32,2.34-39.53,1.32-48.99,8.68-5.1,16.74-11.45,25.89-15.68,18.45-3.87,14.27-17.78.22-24.33Z"/>
  </g>
</svg>