<?xml version="1.0" encoding="UTF-8"?>
<svg id="Layer_1" data-name="Layer 1" xmlns="http://www.w3.org/2000/svg" viewBox="0 0 73.69 81.03">
  <defs>
    <style>
      .cls-1 {
        fill: #edae55;
        stroke-width: 0px;
      }
    </style>
  </defs>
  <g id="Layer_1-2" data-name="Layer 1-2">
    <g>
      <g>
        <g>
          <g>
            <path class="cls-1" d="m6.26,65.73c.19,0,.48-.8.89-2.41.23-.91.37-1.42.41-1.52.15-.35.33-.53.55-.53s.33.15.33.46c0,.16-.07.47-.19.92-.13.45-.31,1.13-.54,2.03-.23.9-.41,1.52-.54,1.85s-.3.58-.51.74c-.12.09-.22.14-.3.14-.27,0-.5-.17-.69-.5s-.45-.93-.76-1.8c-.32-.87-.49-1.3-.52-1.3s-.21.44-.56,1.33c-.34.88-.58,1.43-.7,1.65-.22.38-.45.56-.7.56-.08,0-.17-.03-.27-.1-.22-.16-.4-.41-.52-.74s-.37-1.17-.73-2.49-.54-2.04-.54-2.16v-.14c0-.25.1-.37.29-.37s.35.04.46.13.22.23.33.44c.04.07.24.74.61,1.99.37,1.26.6,1.89.7,1.89.11,0,.28-.43.51-1.28s.37-1.48.41-1.88.08-.62.1-.68c.1-.3.3-.45.6-.45.37,0,.62.15.75.46.07.17.14.44.21.8s.22.95.47,1.76.4,1.21.46,1.21h0Z"/>
            <path class="cls-1" d="m15.48,64.2v.34c0,.46-.07.92-.22,1.39-.28.88-.79,1.49-1.54,1.82-.4.18-.81.27-1.23.27h-.11c-.85,0-1.54-.32-2.08-.96-.22-.27-.4-.62-.54-1.04-.14-.43-.2-.86-.2-1.31v-.23c0-.48.07-.95.21-1.43.13-.48.35-.88.63-1.2.54-.62,1.24-.93,2.09-.93h.22c.34,0,.69.08,1.06.24.74.31,1.24.91,1.52,1.78.13.41.2.84.2,1.27h-.01Zm-4.85.17v.25c0,.73.14,1.33.42,1.8.16.28.37.49.61.63.24.15.47.22.68.22h.23c.25,0,.49-.07.7-.21.41-.26.69-.69.85-1.28.11-.41.16-.83.16-1.26v-.21c0-.34-.04-.69-.12-1.04-.15-.69-.44-1.16-.86-1.43-.24-.15-.49-.23-.75-.23h-.16c-.22,0-.45.07-.68.2-.43.24-.73.67-.92,1.29-.11.37-.17.79-.17,1.27h.01Z"/>
            <path class="cls-1" d="m17.13,62.58v-.42c0-.19-.02-.37-.05-.55-.03-.19-.05-.3-.05-.34,0-.13.13-.21.38-.26.26-.05.71-.07,1.35-.07h.3c1.25,0,2.04.38,2.35,1.14.08.2.12.45.12.74s-.06.56-.17.79-.29.47-.52.72c-.23.24-.35.45-.35.61s.14.49.42.99.49.82.63.96c.26.28.39.47.39.58v.09c0,.15-.12.23-.36.23h-.12c-.22,0-.43-.1-.61-.29-.11-.11-.34-.46-.69-1.05-.35-.59-.55-.9-.59-.94-.21-.23-.43-.34-.67-.34s-.43.13-.55.39c-.06.13-.09.32-.09.57s.02.49.06.72c.04.22.06.35.06.38,0,.19-.08.33-.23.42s-.34.13-.57.13-.38-.03-.47-.1c-.16-.12-.24-.29-.24-.5,0-.08.04-.21.12-.38s.12-.33.14-.48c.02-.15.03-.48.03-1.01v-2.41l-.02-.28s0-.04,0-.04Zm1.51,1.77h.12c.52,0,.93-.12,1.23-.36.3-.24.46-.56.46-.96v-.24c0-.35-.12-.64-.35-.85s-.55-.32-.96-.32h-.39c-.06,0-.1.02-.12.02-.28,0-.42.13-.42.4l-.02.13v1.66c0,.23.02.37.08.43s.18.09.37.09Z"/>
            <path class="cls-1" d="m23.35,67.39s.02-.13.07-.25c.05-.13.08-.25.11-.38s.04-.37.04-.73l.02-.75v-1.58c0-.76,0-1.21-.02-1.34-.01-.13-.05-.28-.13-.47s-.11-.34-.11-.46.06-.23.18-.32.28-.13.47-.13h.12c.25,0,.46.05.62.15.16.1.24.24.24.42,0,.07-.02.17-.07.3s-.09.27-.13.43-.06.89-.06,2.2.03,2.05.1,2.21c.07.17.18.27.33.31.16.04.41.06.75.06s.6-.03.77-.08c.16-.05.33-.11.5-.18s.29-.1.37-.1c.22,0,.33.15.33.45v.11c0,.25-.09.42-.28.52-.13.07-.39.1-.79.1h-1.25c-.97,0-1.58-.03-1.82-.08s-.36-.19-.36-.42h0Z"/>
            <path class="cls-1" d="m29.2,62.7v-.38c0-.18-.04-.37-.13-.58-.08-.2-.13-.32-.13-.35v-.08c0-.12.1-.2.31-.24.4-.07.94-.11,1.61-.11h.35c1.01,0,1.8.28,2.36.85.28.28.5.64.65,1.08s.22.89.22,1.37v.12c0,.55-.09,1.05-.26,1.51-.34.9-.96,1.5-1.86,1.79-.38.12-.87.19-1.45.19h-.23c-.6,0-1.06-.03-1.39-.09-.2-.04-.3-.11-.3-.24,0-.07.04-.2.11-.37.08-.17.12-.35.13-.55.01-.2.02-.87.02-2.02v-.91l-.02-.89v-.11h0Zm4.04,1.86v-.34c0-.38-.05-.74-.16-1.08-.31-1-.95-1.5-1.91-1.5h-.23c-.4,0-.62.09-.67.26-.03.09-.04.56-.04,1.42v3.38c0,.16.06.28.17.34.11.07.32.1.63.1h.07c.96,0,1.6-.46,1.92-1.36.14-.4.21-.81.21-1.23h.01Z"/>
          </g>
          <g>
            <path class="cls-1" d="m41.3,62.29l-.11-.78c0-.19.09-.33.26-.43.17-.09.38-.14.61-.14s.41.04.51.12c.1.08.15.16.15.25v.16l-.04.15-.06.14-.06.15c-.06.18-.08.77-.08,1.76v.82c0,.09,0,.23-.02.41l-.02.41v.89c0,.18,0,.32.04.42.02.1.07.22.13.37.06.14.09.25.09.31,0,.18-.06.3-.17.36-.11.06-.29.09-.52.09s-.43-.06-.57-.17-.22-.22-.22-.32,0-.23.04-.36c.03-.14.05-.27.07-.39s.03-.42.03-.89-.09-.76-.27-.88c-.13-.08-.42-.12-.88-.12-.9,0-1.43.09-1.59.26-.13.14-.19.55-.19,1.24,0,.26,0,.44.02.54l.02.16.03.14c.02.11.03.22.03.32s-.06.2-.19.28c-.13.09-.32.13-.57.13-.48,0-.71-.15-.71-.44,0,0,.06-.21.18-.61.07-.23.1-1.01.1-2.34v-1.38c0-.39,0-.63-.04-.76-.02-.13-.07-.26-.14-.42-.07-.15-.11-.28-.11-.36,0-.28.23-.42.68-.42.24,0,.42.04.56.13.14.09.21.2.21.32,0,.03-.02.14-.05.35-.03.2-.05.45-.05.74,0,.61.09.98.26,1.11s.72.19,1.63.19c.48,0,.77-.09.86-.27s.13-.6.13-1.26l.02.02h0Z"/>
            <path class="cls-1" d="m46.65,63.8l.73-.13c.35,0,.53.16.53.48,0,.19-.04.34-.12.45s-.18.17-.3.17-.28-.02-.48-.06-.36-.06-.49-.06c-.42,0-.69.06-.82.18-.12.12-.18.4-.18.85s.06.78.18,1,.36.33.71.33c.48,0,.91-.03,1.26-.1.36-.07.57-.1.63-.1.24,0,.36.09.36.28v.12c0,.28-.17.45-.53.52-.26.05-.87.08-1.82.08h-.19c-.78,0-1.31-.04-1.57-.11s-.39-.19-.39-.36v-.14l.03-.14.08-.27c.07-.28.11-.88.11-1.78l.08-2.18c0-.44,0-.7-.03-.8s-.05-.21-.1-.34-.07-.25-.07-.37c0-.28.78-.43,2.35-.43h1.08c.53,0,.8.18.8.55,0,.12-.04.21-.11.27s-.16.09-.27.09-.31,0-.6-.04c-.29-.03-.6-.04-.95-.04s-.59.08-.72.25c-.17.22-.26.62-.26,1.18,0,.25.07.42.22.52s.41.15.8.15l.05-.02h0Z"/>
            <path class="cls-1" d="m55.48,66.96v.1c0,.19-.08.36-.24.51-.09.08-.24.12-.47.12s-.39-.06-.48-.18c0-.01-.07-.24-.19-.67s-.25-.73-.39-.9c-.15-.17-.43-.25-.85-.25-.81,0-1.29.07-1.44.21s-.3.43-.44.88c-.05.16-.09.32-.11.47s-.04.25-.07.29c-.06.09-.17.13-.35.13s-.31-.07-.41-.21-.15-.3-.15-.48.06-.35.18-.53c.12-.17.21-.33.26-.47s.29-.83.72-2.08c.42-1.25.71-2.02.86-2.33s.27-.5.38-.59.25-.13.41-.13.31.06.44.17.27.33.42.66c0,0,.52,1.45,1.53,4.33.06.16.14.32.24.49s.16.32.16.44v.02h-.01Zm-2.72-1.96c.5,0,.75-.05.75-.14v-.03s-.02-.13-.06-.29-.07-.25-.07-.28-.02-.06-.02-.08c0-.03-.06-.23-.15-.6s-.2-.72-.34-1.04-.22-.48-.24-.48-.08.12-.17.35c-.55,1.38-.83,2.19-.83,2.44v.03c0,.08.17.12.51.12h.62Z"/>
            <path class="cls-1" d="m56.8,67.3s.02-.13.07-.25c.05-.13.08-.25.11-.38s.04-.37.04-.73l.02-.75v-1.58c0-.76,0-1.21-.02-1.34,0-.13-.05-.28-.13-.47s-.11-.34-.11-.46.06-.23.18-.32.28-.13.47-.13h.12c.25,0,.46.05.62.15.16.1.24.24.24.42,0,.07-.02.17-.07.3s-.09.27-.13.43-.06.89-.06,2.2.03,2.05.1,2.21c.07.17.18.27.33.31.16.04.41.06.75.06s.6-.03.77-.08c.16-.05.33-.11.5-.18s.29-.1.37-.1c.22,0,.33.15.33.45v.11c0,.25-.09.42-.28.52-.13.07-.39.1-.79.1h-1.25c-.97,0-1.58-.03-1.82-.08-.24-.05-.36-.19-.36-.42h0Z"/>
            <path class="cls-1" d="m66.64,61.47c0,.31-.1.47-.29.47-.07,0-.21-.03-.41-.08s-.4-.08-.59-.08c-.44,0-.69.16-.77.49-.07.28-.1,1.09-.1,2.44l-.02.96v.49c0,.19.01.34.04.44.02.1.06.22.11.36s.08.25.08.33c0,.16-.07.29-.21.38s-.33.13-.58.13h-.12c-.18,0-.34-.04-.48-.14-.14-.09-.21-.2-.21-.32s.02-.24.06-.35l.04-.1.04-.1c.03-.07.07-.17.11-.32.04-.14.06-.41.06-.8v-.7l.02-1.11c0-.93-.03-1.5-.08-1.7-.07-.26-.28-.39-.61-.39-.2,0-.43.04-.69.13s-.42.13-.48.13c-.16,0-.24-.17-.24-.5s.14-.52.43-.57c.4-.06,1.34-.09,2.83-.09h1.37c.25,0,.43.05.54.14s.16.24.16.44l-.02.02h0Z"/>
            <path class="cls-1" d="m71.9,62.29l-.11-.78c0-.19.09-.33.26-.43.17-.09.38-.14.61-.14s.41.04.51.12c.1.08.15.16.15.25v.16l-.04.15-.06.14-.06.15c-.06.18-.08.77-.08,1.76v.82c-.01.09-.01.23-.02.41l-.02.41c0,.41-.01.71-.01.89s.01.32.04.42c.02.1.07.22.13.37.06.14.09.25.09.31,0,.18-.06.3-.17.36s-.29.09-.52.09-.43-.06-.57-.17-.22-.22-.22-.32.01-.23.04-.36c.03-.14.05-.27.07-.39s.03-.42.03-.89-.09-.76-.27-.88c-.13-.08-.42-.12-.88-.12-.9,0-1.43.09-1.59.26-.13.14-.19.55-.19,1.24,0,.26,0,.44.02.54l.02.16.03.14c.02.11.03.22.03.32s-.06.2-.19.28c-.13.09-.32.13-.57.13-.48,0-.71-.15-.71-.44,0,0,.06-.21.18-.61.07-.23.1-1.01.1-2.34v-.2c0-.19.01-.33.01-.44v-.74c0-.39-.01-.63-.04-.76-.02-.13-.07-.26-.14-.42-.07-.15-.11-.28-.11-.36,0-.28.23-.42.68-.42.24,0,.42.04.56.13s.21.2.21.32c0,.03-.02.14-.05.35-.03.2-.05.45-.05.74,0,.61.09.98.26,1.11.17.13.72.19,1.63.19.48,0,.77-.09.86-.27s.13-.6.13-1.26l.02.02h0Z"/>
          </g>
        </g>
        <g>
          <path class="cls-1" d="m8.8,75.6v.48c0,.65-.11,1.31-.31,1.97-.4,1.25-1.13,2.12-2.2,2.59-.57.26-1.16.39-1.75.39h-.15c-1.21,0-2.19-.45-2.96-1.36-.32-.38-.57-.88-.77-1.48-.19-.61-.29-1.23-.29-1.87v-.32c0-.68.1-1.36.29-2.03.19-.68.49-1.25.9-1.71.77-.89,1.76-1.33,2.97-1.33h.31c.48,0,.98.11,1.5.34,1.05.44,1.77,1.29,2.16,2.54.19.59.28,1.19.28,1.8h.02Zm-6.9.25v.36c0,1.04.2,1.9.6,2.56.23.39.52.69.87.9s.67.31.96.31h.33c.36,0,.69-.1,1-.29.58-.37.99-.98,1.21-1.82.15-.58.23-1.18.23-1.8v-.29c0-.49-.06-.98-.17-1.48-.22-.98-.63-1.65-1.22-2.03-.34-.22-.7-.32-1.06-.32h-.22c-.32,0-.64.09-.97.28-.61.34-1.04.95-1.31,1.83-.16.53-.24,1.13-.24,1.8h-.01Z"/>
          <path class="cls-1" d="m11.76,71.22c.61,0,.92.25.92.74v.17l-.06.37c-.02.22-.03.52-.03.91v1.44c0,2.02.09,3.26.27,3.69.34.83.98,1.25,1.91,1.25.52,0,.94-.14,1.27-.42.33-.28.56-.62.7-1.02.21-.6.31-2.05.31-4.34,0-.84-.02-1.42-.05-1.73-.04-.31-.05-.52-.05-.6,0-.33.24-.5.72-.5h.21c.22,0,.39.08.51.22.2.26.3.49.3.7v.22c0,.1-.05.3-.16.6-.1.3-.17.59-.18.86-.02.28-.03.99-.03,2.15v.18c0,1.06-.04,1.81-.12,2.24-.08.46-.27.89-.56,1.28-.58.78-1.63,1.17-3.13,1.17-1.95,0-3.06-.9-3.34-2.71-.07-.45-.1-1.12-.1-2.02s-.01-1.58-.03-2.08c-.02-.49-.09-.89-.2-1.19s-.17-.52-.17-.66c0-.31.12-.57.36-.78.13-.11.37-.16.73-.16,0,0,0,.02,0,.02Z"/>
          <path class="cls-1" d="m27.7,71.83c0,.44-.14.66-.41.66-.1,0-.3-.04-.58-.12s-.57-.12-.85-.12c-.62,0-.99.23-1.1.7-.09.39-.14,1.55-.14,3.47l-.02,1.37v.7c0,.28.02.48.05.62.04.14.09.31.16.51s.11.36.11.48c0,.23-.1.41-.3.54-.2.13-.48.19-.83.19h-.17c-.26,0-.49-.06-.69-.19-.2-.13-.3-.28-.3-.46s.03-.34.08-.5l.06-.14.06-.14c.04-.1.09-.25.15-.45.06-.21.09-.58.09-1.13v-.2c.01-.13.02-.26.02-.39v-.4l.03-1.58c0-1.32-.04-2.13-.12-2.41-.1-.37-.4-.55-.87-.55-.28,0-.61.06-.98.18-.37.12-.6.18-.69.18-.23,0-.34-.24-.34-.71s.2-.75.61-.81c.57-.09,1.91-.13,4.02-.13h1.94c.36,0,.61.07.77.2.15.13.23.34.23.63,0,0,.01,0,.01,0Z"/>
          <path class="cls-1" d="m29.51,73.3v-.59c0-.26-.02-.52-.07-.79-.05-.27-.07-.43-.07-.49,0-.18.18-.3.54-.37s1-.1,1.92-.1h.43c1.78,0,2.9.54,3.34,1.62.12.28.17.64.17,1.05s-.08.79-.24,1.13-.41.67-.74,1.02-.49.64-.49.87.2.7.6,1.41c.4.71.7,1.16.89,1.37.37.39.56.67.56.82v.13c0,.22-.17.33-.52.33h-.17c-.32,0-.61-.14-.87-.42-.15-.16-.48-.66-.98-1.49-.5-.83-.78-1.28-.83-1.34-.29-.33-.61-.49-.96-.49s-.61.18-.78.55c-.09.18-.13.45-.13.82s.03.7.09,1.02c.06.31.09.49.09.54,0,.28-.11.48-.32.6-.22.13-.49.19-.81.19s-.54-.05-.67-.15c-.22-.17-.34-.41-.34-.71,0-.12.06-.3.16-.54s.18-.47.2-.68c.03-.21.04-.69.04-1.44v-2.2c-.01-.14-.01-.28-.01-.42l-.02-.83-.02-.41h.01Zm2.15,2.52h.17c.74,0,1.32-.17,1.76-.51.43-.34.65-.8.65-1.37v-.34c0-.5-.16-.91-.49-1.21-.33-.3-.79-.45-1.37-.45h-.31l-.24.02c-.08.01-.14.02-.17.02-.4,0-.59.19-.59.57l-.02.18v.26s-.01.08-.01.12v1.97c0,.32.03.53.11.62.08.09.26.13.53.13h-.02Z"/>
          <path class="cls-1" d="m41.85,75.15l1.04-.18c.5,0,.75.23.75.68,0,.27-.06.48-.17.64s-.26.25-.42.25-.39-.03-.68-.08c-.28-.06-.51-.08-.69-.08-.6,0-.99.08-1.16.25s-.26.57-.26,1.2.08,1.11.26,1.42c.17.31.51.47,1.01.47.69,0,1.29-.05,1.79-.15.51-.1.81-.15.9-.15.34,0,.51.13.51.39v.17c0,.39-.25.64-.75.74-.37.08-1.23.11-2.59.11h-.27c-1.11,0-1.86-.05-2.23-.15s-.56-.27-.56-.52v-.2l.05-.2.12-.38c.1-.4.15-1.25.15-2.54l.11-3.1c0-.62,0-1-.04-1.14s-.07-.3-.14-.48-.1-.36-.1-.52c0-.41,1.12-.61,3.35-.61h1.54c.76,0,1.14.26,1.14.78,0,.17-.05.29-.15.38-.1.09-.23.13-.39.13s-.44-.02-.85-.06-.86-.06-1.35-.06-.83.12-1.02.36c-.25.32-.37.88-.37,1.68,0,.35.1.6.31.74s.59.21,1.14.21c0,0,.02,0,.02,0Z"/>
          <path class="cls-1" d="m54.4,79.65v.14c0,.27-.11.51-.34.72-.12.12-.34.17-.67.17s-.55-.09-.69-.26c0-.02-.1-.33-.27-.95-.16-.62-.35-1.04-.56-1.28-.21-.24-.61-.35-1.21-.35-1.15,0-1.83.1-2.05.3s-.43.62-.63,1.26c-.08.23-.13.46-.15.67-.03.22-.06.35-.1.41-.08.12-.25.19-.49.19s-.44-.1-.59-.3-.22-.43-.22-.68.09-.5.26-.75.29-.47.37-.67c.08-.2.42-1.18,1.02-2.95.6-1.77,1.01-2.88,1.22-3.32.21-.44.39-.72.54-.84s.35-.18.58-.18.44.08.62.24.39.48.6.94c0,.01.73,2.06,2.18,6.15.08.22.19.46.34.7s.22.45.22.63h.02Zm-3.87-2.79c.71,0,1.06-.07,1.06-.2v-.04s-.03-.18-.09-.41-.09-.36-.1-.4-.02-.08-.04-.12c0-.04-.08-.32-.21-.85-.12-.53-.28-1.02-.48-1.48-.2-.46-.31-.69-.33-.69-.03,0-.11.17-.25.5-.78,1.96-1.18,3.12-1.18,3.48v.04c0,.11.24.17.72.17,0,0,.9,0,.9,0Z"/>
          <path class="cls-1" d="m58.94,72.52c-.93.54-1.4,1.71-1.4,3.5s.54,2.95,1.62,3.46c.34.16.78.24,1.34.24s1.23-.23,2.03-.69c.21-.12.39-.19.54-.19.19,0,.29.13.29.38,0,.13-.08.32-.25.54-.16.23-.39.42-.66.59-.66.38-1.41.57-2.27.57h-.22c-.6,0-1.17-.11-1.7-.34-1.03-.44-1.73-1.28-2.11-2.51-.17-.56-.25-1.15-.25-1.77v-.23c0-.67.1-1.33.29-1.99.38-1.27,1.13-2.17,2.23-2.69.59-.28,1.27-.41,2.06-.41,1.26,0,2.07.3,2.43.9.15.25.22.47.22.66,0,.41-.14.61-.43.61-.09,0-.29-.11-.6-.32-.31-.22-.63-.37-.94-.48s-.67-.16-1.07-.16-.78.11-1.16.33h0Z"/>
          <path class="cls-1" d="m71.3,73.01l-.16-1.1c0-.27.12-.47.37-.61.25-.13.54-.2.87-.2s.58.06.72.17c.14.12.21.23.21.35v.23l-.06.22-.09.2-.08.22c-.08.26-.12,1.1-.12,2.5l-.02,1.16c0,.13,0,.32-.01.58l-.02.59c-.01.59-.02,1.01-.02,1.26s.02.45.05.6c.04.14.1.32.18.52.09.21.13.35.13.45,0,.25-.08.42-.24.51-.16.09-.41.13-.74.13s-.61-.08-.82-.24-.31-.31-.31-.46.02-.32.06-.51.07-.38.1-.56.04-.6.04-1.27-.13-1.09-.38-1.25c-.18-.12-.59-.17-1.25-.17-1.28,0-2.03.13-2.26.38-.18.2-.27.79-.27,1.76,0,.36,0,.62.03.78l.04.22.04.2c.03.16.04.31.04.45s-.09.28-.27.4c-.18.13-.45.19-.81.19-.68,0-1.01-.21-1.01-.62,0-.01.09-.3.26-.87.1-.33.15-1.43.15-3.32v-.29c.01-.27.02-.47.02-.63v-1.05c0-.55-.02-.9-.05-1.08-.04-.18-.1-.38-.2-.6s-.15-.39-.15-.52c0-.4.32-.59.97-.59.34,0,.6.06.8.19.2.13.3.28.3.46,0,.04-.02.21-.07.49s-.07.64-.07,1.06c0,.87.12,1.4.37,1.58s1.02.27,2.33.27c.69,0,1.09-.13,1.22-.39s.19-.86.19-1.79h-.01Z"/>
        </g>
      </g>
      <path class="cls-1" d="m43.91,24.83c2.61-8.28,5.22-16.56,7.83-24.83h-20.18l8.05,22.06c1.43.93,2.86,1.85,4.3,2.78h0ZM58.6,0l-9.05,27.74,4.08,5.78,20.06-17.35V0s-15.09,0-15.09,0Zm-1.58,52.29h16.67v-24.25c-6.07,3.84-12.14,7.69-18.21,11.53.51,4.24,1.03,8.48,1.54,12.72ZM.03,30.94c6.97,3.08,13.94,6.17,20.91,9.25.66-1.96,1.32-3.93,1.97-5.89C15.29,27.6,7.66,20.89.03,14.19v16.75ZM.03,52.29h19.4v-5.86c-6.47-2.58-12.93-5.16-19.4-7.75,0,0,0,13.61,0,13.61Zm39.68-24.97c-4.18,2.24-8.35,4.47-12.53,6.71l-2.68,18.26h27.24l-.89-12.12c-3.71-4.28-7.42-8.56-11.13-12.85h0Zm-6.6-3.51c-2.97-7.94-5.94-15.88-8.91-23.81H0v5.11c8.82,7.67,17.65,15.34,26.47,23.01,2.21-1.43,4.42-2.86,6.63-4.29h0v-.02Z"/>
    </g>
  </g>
</svg>