<svg width="1150" height="1171" viewBox="0 0 1150 1171" fill="none" xmlns="http://www.w3.org/2000/svg">
<path d="M720.313 424.674C649.429 481.961 543.333 449.095 517.471 361.838L457.092 158.128C432.389 74.7808 496.467 -9.90144 582.592 1.53355C687.444 15.455 774.727 42.3738 870.887 91.0381C948.461 130.297 953.303 236.376 885.512 291.163L720.313 424.674Z" fill="black"/>
<path d="M776.597 686.232C699.615 637.884 696.445 526.68 770.537 473.624L943.514 349.757C1014.29 299.078 1114.96 332.012 1131.93 417.292C1152.6 521.116 1155.32 612.563 1140.36 719.533C1128.29 805.83 1029.63 845.149 956.011 798.911L776.597 686.232Z" fill="black"/>
<path d="M544.707 810.721C569.043 722.895 674.544 687.629 746.413 743.297L914.2 873.259C982.849 926.432 980.008 1032.5 903.244 1073.49C809.788 1123.4 723.063 1152.51 616.449 1169.16C530.44 1182.6 464.719 1099.4 487.993 1015.41L544.707 810.721Z" fill="black"/>
<path d="M336.969 638.7C427.918 635.874 492.416 726.313 460.282 811.608L385.261 1010.74C354.567 1092.21 252.485 1121.02 190.921 1059.77C115.97 985.209 62.8361 910.902 15.7776 813.868C-22.1858 735.587 38.0265 647.99 125.007 645.287L336.969 638.7Z" fill="black"/>
<path d="M455.04 384.406C490.616 468.143 429.858 561.463 338.88 562.822L126.479 565.994C39.5773 567.292 -24.2008 482.716 10.4673 402.848C52.6737 305.613 102.543 228.808 175.754 149.322C234.815 85.1994 338.106 109.167 372.129 189.251L455.04 384.406Z" fill="black"/>
</svg>
