<svg viewBox="0 0 645.82 185.11" xmlns="http://www.w3.org/2000/svg"><path d="m645.82 93.85c-.11.54-.25 1.07-.31 1.62-.53 4.83-4.05 8.27-8.88 8.67-1.31.11-2.62.27-3.94.29-9.16.12-18.33.22-27.49.29-6.43.05-12.86.01-19.29.1-1.19.02-2.42.3-3.54.72-1.65.61-2.25 1.93-1.92 3.66.28 1.49 1.1 2.71 2.04 3.85 2.64 3.19 6.08 5.16 9.99 6.3 5.62 1.64 11.21 1.25 16.75-.45 2.22-.68 4.41-1.48 6.64-2.15 2.38-.71 4.78-1.29 7.32-.78 5.07 1.03 9.84 5.5 10.84 10.18.55 2.59-.04 4.91-1.57 7.03-.99 1.38-2.3 2.4-3.73 3.3-6.68 4.17-13.96 6.61-21.76 7.54-11.94 1.42-23.34-.42-34.04-5.91-14.03-7.2-22.85-18.59-25.74-34.1-2.75-14.83.88-28.35 10.04-40.28 7.1-9.24 16.41-15.29 27.86-17.68 10.09-2.1 20.16-1.8 29.93 1.76 15.2 5.55 25.12 16.05 29.2 31.81.62 2.39.88 4.86 1.32 7.3.05.29.17.57.25.85v6.07zm-49.45-9.69c4.86 0 9.72.07 14.58-.05 1.54-.04 3.11-.4 4.57-.9 1.6-.55 2.13-1.77 1.71-3.41-.21-.82-.59-1.62-1.03-2.35-2.09-3.5-5.02-6.06-8.81-7.59-5.67-2.3-11.45-2.31-17.25-.61-4.83 1.42-8.99 3.92-12.09 7.96-.7.91-1.26 1.96-1.68 3.03-.45 1.13-.08 2.08.93 2.78.53.36 1.16.68 1.78.79 1.24.2 2.51.33 3.77.34 4.51.04 9.01.01 13.52.01z"/><path d="m527.91 0c.98.19 1.97.35 2.94.59.98.25 1.97.5 2.88.92 2.09.97 3.19 2.52 3.31 4.97.61 12.69.94 25.38.99 38.09.05 11.23.14 22.47.11 33.7-.03 10.83-.16 21.66-.3 32.48-.11 8.7-.36 17.4-.36 26.1 0 2.68-1.9 4.37-4.2 4.7-1.3.19-2.61.33-3.92.44-4.85.4-9.7.73-14.53-.17-.94-.17-1.87-.45-2.79-.73-2.14-.64-3.45-2.13-3.86-4.28-.31-1.63-.5-3.31-.51-4.97-.05-14.73-.06-29.45-.06-44.18 0-16.04.03-32.09.03-48.13 0-10.63-.05-21.25-.05-31.88 0-1.06.12-2.12.31-3.17.33-1.87 1.42-3.11 3.29-3.56 1.13-.27 2.29-.43 3.43-.65.39-.07.76-.19 1.14-.29h12.16z"/><path d="m267.47 0c.58.14 1.15.3 1.73.42 7.46 1.55 12.71 7.21 13.83 14.86.68 4.66-.26 8.99-2.87 12.87-4.02 5.98-9.75 8.25-16.81 7.25-3.25-.46-6.2-1.8-9.1-3.26-1.85-.93-3.7-1.88-5.57-2.76-3.94-1.84-7.92-1.92-11.87 0-2.78 1.34-5.5 2.79-8.3 4.09-1.97.91-3.97 1.79-6.04 2.44-7.65 2.4-17.85-.83-20.98-11.48-1.32-4.48-1.13-8.9.65-13.22 3.29-7.97 11.02-10.86 17.61-10.22 2.7.26 5.25.9 7.69 2.12 1.89.94 3.93 1.6 5.91 2.38 6.24 2.44 12.4 1.88 18.49-.51 1.45-.57 2.84-1.33 4.21-2.08 2.56-1.39 5.18-2.53 8.15-2.66.18 0 .35-.15.53-.24h2.74z"/><path d="m493.35 95.38c0 9.21-.01 18.42 0 27.64 0 2.98.22 5.97.16 8.95-.18 8.47-1.63 16.7-5.09 24.5-5.19 11.69-13.72 19.92-25.76 24.31-15.3 5.58-30.68 5.87-46.06.25-4.64-1.69-8.93-4.07-12.88-7.04-1.93-1.46-3.48-3.23-4.44-5.48-1.27-3-1.13-5.96.54-8.74 1.91-3.19 4.49-5.71 7.85-7.4 2.74-1.38 5.61-1.8 8.55-.94 2.27.67 4.5 1.53 6.68 2.45 3.42 1.44 6.86 2.74 10.55 3.29 5.73.86 11.31.43 16.65-1.98 4.33-1.95 7.46-5.15 9.53-9.4.83-1.71 1.29-3.51 1.14-5.43-.18-2.32-1.12-3.37-3.41-3.76-2.45-.41-4.85.04-7.23.53-4.73.99-9.48 1.62-14.32 1.42-14.01-.58-25.03-6.67-33.09-18.08-4.89-6.91-7.63-14.68-8.63-23.07-1.1-9.19 0-18.09 3.84-26.55 5.33-11.72 14.36-19.36 26.46-23.47 8.34-2.83 16.77-2.88 25.29-.8 3.98.98 8.01 1.9 12.15 1.63 2.97-.2 5.94-.61 8.9-1.01 3.72-.49 7.43-.97 11.19-.76 2.14.12 4.21.55 6.22 1.3 2.08.78 3.53 2.21 4.18 4.31.45 1.44.72 2.94.89 4.44.16 1.35.12 2.73.12 4.09v34.77zm-69.43-1.15c.1 5.04 2.92 10.67 8.63 14.61 14.03 9.67 29.5.09 31.72-12.16.56-3.08.52-6.15-.22-9.18-2.78-11.51-11.88-17.25-22.62-15.71-10.62 1.53-17.51 9.78-17.52 22.44z"/><path d="m293.76 94.81c0-10.73 0-21.46 0-32.19 0-2.63.04-5.26.12-7.89.03-.85.16-1.72.36-2.55.49-2.06 1.7-3.49 3.72-4.27 2.95-1.13 6.01-1.5 9.11-1.22 4.08.36 8.14.9 12.2 1.45 3.52.48 7.03.97 10.58.75 1.05-.07 2.12-.23 3.13-.51 5.93-1.61 11.93-2.73 18.1-2.79 15.19-.16 28.63 9.58 33.07 24.27 1.62 5.36 2.38 10.85 2.73 16.42.51 8.09.09 16.19.08 24.28 0 3.75.02 7.49.01 11.24 0 3.24.03 6.48-.09 9.72-.06 1.65-.33 3.32-.69 4.94-.5 2.2-1.94 3.73-3.95 4.73-2.03 1.01-4.22 1.39-6.46 1.52-3.86.24-7.7-.14-11.51-.67-3.93-.54-6.49-3.08-7.12-7.04-.29-1.84-.38-3.73-.39-5.59-.01-9.36.04-18.73.06-28.09.01-4.51-.16-9.01-.94-13.46-1.19-6.75-4.75-11.68-11.44-13.86-7.63-2.49-14.66 1.8-17.63 7.7-1.8 3.57-2.51 7.45-2.87 11.41-.45 5.01-.06 10.01-.01 15.02.03 3.34-.1 6.68-.1 10.02 0 3.69.15 7.39.05 11.08-.06 2.31-.38 4.63-.75 6.92-.4 2.51-2.01 4.12-4.31 5.1-2.17.93-4.46 1.31-6.8 1.45-4.42.25-8.8-.07-13.15-.9-2.48-.47-4.19-1.9-4.65-4.4-.37-2.03-.51-4.12-.54-6.18-.1-8.96-.13-17.92-.17-26.87-.02-3.19 0-6.38 0-9.57h.21z"/><path d="m248.91 93.53c0-12.95 0-25.91 0-38.86 0-1.01.05-2.03.21-3.02.34-1.99 1.52-3.32 3.52-3.7 1.98-.37 4-.77 6-.79 4.14-.05 8.3.09 12.44.27 1.19.05 2.39.42 3.53.81 2.37.81 3.74 2.54 4.07 5.01.19 1.4.3 2.82.31 4.23.04 8.15.03 16.29.07 24.44.05 11.99.17 23.98.18 35.97 0 5.51-.18 11.03-.29 16.54-.02.91-.11 1.82-.2 2.72-.2 1.93-1.2 3.38-3.01 4.03-1.36.49-2.84.86-4.27.9-4.55.12-9.11.12-13.66.04-1.39-.03-2.81-.36-4.17-.73-2.63-.71-4.07-2.56-4.39-5.22-.2-1.65-.3-3.33-.3-4.99-.03-10.32-.03-20.65-.04-30.97 0-2.23 0-4.45 0-6.68z"/><path d="m203.91 93.52c0-12.6 0-25.2 0-37.8 0-1.06-.02-2.13.06-3.19.19-2.62 1.41-4.11 3.97-4.67 1.53-.34 3.09-.55 4.65-.66 4.7-.31 9.41-.27 14.1.25.45.05.9.15 1.34.25 3.59.8 5.36 2.63 5.73 6.3.25 2.51.22 5.05.24 7.58.1 13.21.22 26.41.23 39.62 0 10.83-.15 21.65-.26 32.48-.01 1.11-.11 2.22-.21 3.33-.18 2.06-1.23 3.56-3.18 4.23-1.32.45-2.75.81-4.13.84-4.5.12-9.01.12-13.51.04-1.45-.03-2.91-.36-4.32-.74-2.56-.69-3.99-2.47-4.36-5.08-.16-1.15-.29-2.31-.29-3.47-.02-13.11-.01-26.21-.01-39.32-.02 0-.03 0-.05 0z"/><path d="m191.97 86.38c-.74-10.28-2-14.01-2.73-16.42-1.56-5.15-4.22-9.68-7.67-13.4-7.55-8.13-21.36-10.4-25.4-10.87-19.33-2.25-34.57 6.94-40.02 10.61-.5-.45-1.05-.92-1.66-1.4-.59-.46-1.16-.87-1.71-1.24 0 0-1.64-1.11-3.5-2.05-12.44-6.3-29.41-5.29-29.41-5.29-2.81.17-10 .77-17.93 3.4-30.71 10.18-55.26 45.08-61.3 79.76-.31 1.78-.52 3.24-.64 4.17v.03c0 .51.03 1.97.67 3.43 0 0 0 .01.01.02 1.05 2.89 3.36 4.73 6.64 5.18 3.81.52 7.65.9 11.51.67.62-.04 1.24-.1 1.85-.18h.04c3.28-.39 4.95-1.49 5.48-1.86.03-.02.05-.04.07-.05 1.06-.7 1.91-1.59 2.45-2.71.01-.02.03-.06.04-.07.56-1.12.69-2.14.73-2.6.03-.2.11-.74.23-1.41.56-7.27 2.89-24.13 15.48-39.5 5-6.1 13.6-17.54 28.6-20.18 7.44-1.31 13.82-.03 17.81 1.15-17.24 15.33-26.36 34.16-21.51 48.7.63 1.9 2.36 6.3 6.4 10.1 10.91 10.28 29.91 8.02 41.81 1.44 7.66-4.24 11.72-9.91 12.64-11.24 4.97-7.18 5.83-14.22 6.53-20.69 1.17-10.68-.5-20.06-2.72-27.23 1.06-.69 7.44-4.72 14.76-2.52 1.31.39 4.1 1.42 6.63 3.93 2.55 2.53 4.1 5.91 4.81 9.93.79 4.45.95 8.95.94 13.46-.02 9.36-.07 18.73-.06 28.09 0 1.87.09 3.75.39 5.59.63 3.96 3.18 6.5 7.12 7.04 3.81.52 7.65.9 11.51.67 2.24-.14 4.42-.52 6.46-1.52 2.01-1 3.45-2.53 3.95-4.73.37-1.62.63-3.29.69-4.94.12-3.24.32-6.49.09-9.72-.72-10.15 1.17-18.09-.09-35.52zm-85.67 27.2c-2.53 2.7-7.35 6.11-9.51 4.72-1.26-.81-1.22-3-1.19-4.6.02-.99.17-3.73 3.52-9.7 0 0 1.91-3.48 7.58-9.41.63-.66 1.65-1.67 2.72-1.45.85.17 1.36 1.05 1.6 1.54.43 3.47 1.09 12.69-4.73 18.89z"/></svg>