<svg width="1638" height="276" viewBox="0 0 1638 276" fill="none" xmlns="http://www.w3.org/2000/svg">
<g clip-path="url(#clip0_171_318)">
<path d="M107.964 118.028L96.3692 129.687H31.9213V18.2795L43.5912 6.69482H31.9213H17.4657H5.87109L17.4657 18.2795V130.59L5.87109 142.25H17.4657H31.9213H43.5912H106.082L107.964 118.028Z" fill="#F8F5E7"/>
<path d="M273.977 142.25L261.404 129.462L200.419 0L139.284 129.462L126.711 142.25H164.431L156.074 133.9L179.865 74.4726H220.823L244.614 133.9L236.257 142.25H273.977ZM183.253 66.2731L200.419 23.4702L217.585 66.2731H183.253Z" fill="#F8F5E7"/>
<path d="M398.735 33.3996C404.307 27.9834 410.857 23.6956 418.235 20.4609C425.689 17.2263 433.67 15.6465 442.177 15.6465C448.502 15.6465 454.6 16.6245 460.473 18.6555C466.345 20.6866 471.691 23.3947 476.585 26.855C481.479 30.3154 485.845 34.2271 489.61 38.7406C493.45 43.2541 496.461 47.9932 498.72 52.9581L496.838 17.7528H484.641C478.542 13.9164 471.917 10.9826 464.689 8.80107C457.461 6.61955 450.007 5.56641 442.102 5.56641C431.712 5.56641 421.924 7.3718 412.739 10.9826C403.629 14.5934 395.648 19.5582 388.797 25.8019C382.021 32.0456 376.6 39.4176 372.685 47.7676C368.77 56.1175 366.812 65.0693 366.812 74.6228C366.812 84.1764 368.77 93.1281 372.685 101.553C376.6 109.979 382.021 117.351 388.797 123.519C395.573 129.763 403.554 134.652 412.739 138.263C421.849 141.874 431.637 143.679 442.102 143.679C450.384 143.679 458.214 142.551 465.668 140.219C473.121 137.962 479.973 134.727 486.372 130.515H496.838L497.063 100.651C494.428 104.713 491.116 108.624 487.125 112.386C483.21 116.147 478.843 119.457 474.1 122.315C469.357 125.174 464.237 127.431 458.892 129.161C453.546 130.891 447.899 131.719 442.253 131.719C433.745 131.719 425.764 130.064 418.311 126.829C410.857 123.594 404.382 119.306 398.811 113.89C393.239 108.474 388.797 102.306 385.56 95.3097C382.322 88.3138 380.666 81.0922 380.666 73.5697C380.666 66.0472 382.322 58.8256 385.56 51.9049C388.797 44.9842 393.239 38.7406 398.811 33.3244L398.735 33.3996Z" fill="#F8F5E7"/>
<path d="M664.807 101.553C668.722 93.1281 670.68 84.1012 670.68 74.6228C670.68 65.1445 668.722 56.1175 664.807 47.7676C660.892 39.4176 655.471 32.0456 648.695 25.8019C641.919 19.5582 633.939 14.5934 624.904 10.9826C615.794 7.3718 606.081 5.56641 595.692 5.56641C585.302 5.56641 575.514 7.3718 566.479 10.9826C557.369 14.5934 549.464 19.5582 542.688 25.8019C535.912 32.0456 530.491 39.4176 526.576 47.7676C522.661 56.1175 520.703 65.0693 520.703 74.6228C520.703 84.1764 522.661 93.1281 526.576 101.553C530.491 109.979 535.912 117.351 542.688 123.519C549.464 129.763 557.444 134.652 566.479 138.263C575.589 141.874 585.302 143.679 595.692 143.679C606.081 143.679 615.869 141.874 624.904 138.263C634.014 134.652 641.919 129.763 648.695 123.519C655.471 117.275 660.892 109.979 664.807 101.553ZM619.558 126.904C612.105 130.139 604.124 131.794 595.616 131.794C587.109 131.794 579.128 130.139 571.674 126.904C564.22 123.669 557.746 119.382 552.249 113.965C546.753 108.549 542.311 102.381 539.074 95.3849C535.836 88.389 534.18 81.1674 534.18 73.6449C534.18 66.1224 535.761 58.9008 539.074 51.9801C542.311 44.9842 546.678 38.8158 552.249 33.3996C557.821 27.9834 564.22 23.6956 571.674 20.4609C579.128 17.2263 587.109 15.6465 595.616 15.6465C604.124 15.6465 612.105 17.2263 619.558 20.4609C627.012 23.6956 633.487 27.9834 638.983 33.3996C644.479 38.8158 648.921 44.9842 652.159 51.9801C655.396 58.9761 657.052 66.1976 657.052 73.6449C657.052 81.0922 655.471 88.389 652.159 95.3849C648.921 102.381 644.554 108.549 638.983 113.965C633.487 119.382 627.012 123.669 619.558 126.904Z" fill="#F8F5E7"/>
<path d="M829.012 15.797L839.854 6.69482H819.526L769.533 105.465L719.616 6.69482H699.288L710.13 15.797L696.427 131.719L685.887 142.25H695.223H697.557H712.012H723.682L712.765 131.342L719.616 32.7226L769.533 139.166L819.526 32.7226L826.377 131.342L815.46 142.25H827.13H841.435H843.92H853.255L842.564 131.719L829.012 15.797Z" fill="#F8F5E7"/>
<path d="M972.216 60.3302C974.399 55.5158 975.529 50.4005 975.529 44.9091C975.529 39.4177 974.399 34.3024 972.216 29.5632C969.957 24.824 966.945 20.6867 962.955 17.0759C959.04 13.5403 954.447 10.6818 949.252 8.57546C944.057 6.46916 938.486 5.41602 932.689 5.41602C926.891 5.41602 921.621 6.39394 916.577 8.34978C911.532 10.3056 907.09 12.9385 903.175 16.2484V14.3678L911.005 6.54439H877.125L888.945 18.129V130.44L877.125 142.024H915.071L903.25 130.44V73.4945C907.166 76.8044 911.683 79.4373 916.652 81.3931C921.696 83.349 927.042 84.3269 932.764 84.3269C938.486 84.3269 944.133 83.2737 949.328 81.1674C954.523 79.0611 959.115 76.2778 963.03 72.667C966.945 69.1315 970.032 64.9189 972.291 60.1045L972.216 60.3302ZM955.351 64.9941C952.415 67.627 949.027 69.658 945.187 71.0873C941.347 72.5166 937.131 73.2688 932.689 73.2688H930.204C925.988 73.0432 922.073 72.0652 918.384 70.4855C914.695 68.9058 911.457 66.7995 908.747 64.3171C906.036 61.7594 903.853 58.9009 902.272 55.591C900.691 52.2811 899.862 48.7455 899.862 44.9091C899.862 41.0726 900.691 37.537 902.347 34.1519C904.003 30.7668 906.262 27.833 909.123 25.2754C911.984 22.7177 915.297 20.6867 919.137 19.1822C922.976 17.6777 927.042 16.8502 931.333 16.6997H932.689C936.98 16.6997 941.046 17.3768 944.81 18.806C948.575 20.2353 951.888 22.1159 954.749 24.5231C957.61 26.9303 959.944 29.7889 961.675 33.0235C963.407 36.2582 964.461 39.7186 964.687 43.4046V44.3825C964.687 44.3825 964.687 44.6082 964.762 44.6834C964.762 44.6834 964.837 44.8338 964.837 44.9843C964.837 48.896 964.009 52.582 962.277 56.0423C960.546 59.5027 958.212 62.5117 955.351 65.0693V64.9941Z" fill="#F8F5E7"/>
<path d="M1043.97 0L982.831 129.462L970.258 142.25H1007.98L999.621 133.9L1023.41 74.4726H1064.37L1088.16 133.9L1079.8 142.25H1117.52L1104.95 129.462L1043.97 0ZM1026.8 66.2731L1043.97 23.4702L1061.13 66.2731H1026.8Z" fill="#F8F5E7"/>
<path d="M1231.66 88.5395L1243.48 100.124V107.195C1240.7 110.355 1237.54 113.439 1233.92 116.297C1230.38 119.231 1226.54 121.789 1222.48 124.121C1218.41 126.378 1214.12 128.258 1209.53 129.612C1204.94 130.966 1200.19 131.719 1195.22 131.719C1186.72 131.719 1178.74 130.064 1171.28 126.829C1163.83 123.594 1157.35 119.306 1151.86 113.89C1146.36 108.474 1141.92 102.306 1138.68 95.3097C1135.44 88.3138 1133.79 81.0922 1133.79 73.5697C1133.79 66.0472 1135.44 58.8256 1138.68 51.905C1141.92 44.9843 1146.29 38.7406 1151.86 33.3244C1157.43 27.9082 1163.83 23.6204 1171.28 20.3857C1178.74 17.1511 1186.72 15.5713 1195.22 15.5713C1201.55 15.5713 1207.65 16.5493 1213.52 18.5803C1219.39 20.6114 1224.74 23.3195 1229.71 26.7798C1234.68 30.2402 1239.04 34.1519 1242.88 38.6654C1246.72 43.1789 1249.73 47.918 1251.99 52.8829L1249.88 17.6776H1237.69C1231.59 13.8412 1224.96 10.9074 1217.89 8.72588C1210.73 6.54436 1203.2 5.49121 1195.22 5.49121C1184.83 5.49121 1175.05 7.29661 1165.94 10.9074C1156.83 14.5182 1148.92 19.483 1142.14 25.7267C1135.37 31.9704 1129.95 39.3424 1126.03 47.6924C1122.12 56.0423 1120.16 64.9941 1120.16 74.5476C1120.16 84.1012 1122.12 93.053 1126.03 101.478C1129.95 109.903 1135.37 117.275 1142.14 123.444C1148.92 129.687 1156.9 134.577 1165.94 138.188C1175.05 141.799 1184.76 143.604 1195.22 143.604C1204.48 143.604 1213.22 142.175 1221.42 139.316C1229.63 136.458 1237.01 132.471 1243.64 127.431H1256.21V99.0709L1257.71 88.389H1231.59L1231.66 88.5395Z" fill="#F8F5E7"/>
<path d="M1407.69 6.69482H1395.94H1381.64H1369.82L1381.64 18.5051V119.006L1294.15 6.69482H1272.84L1290.91 25.3506V130.966L1279.32 142.777H1290.91H1305.37H1317.19L1305.37 130.966V41.9001L1385.78 142.777H1407.69L1395.94 130.966V18.5051L1407.69 6.69482Z" fill="#F8F5E7"/>
<path d="M1468.67 6.69482H1457.08H1442.62H1430.95L1442.62 18.2795V130.59L1430.95 142.25H1442.62H1457.08H1468.67L1457.08 130.59V18.2795L1468.67 6.69482Z" fill="#F8F5E7"/>
<path d="M1595.76 142.25H1633.48L1620.91 129.462L1560 0L1498.87 129.462L1486.29 142.25H1524.01L1515.66 133.9L1539.45 74.4726H1580.4L1604.2 133.9L1595.84 142.25H1595.76ZM1542.76 66.2731L1559.93 23.4702L1577.09 66.2731H1542.76Z" fill="#F8F5E7"/>
<path d="M19.5 246.888C15.2838 245.083 12.4981 243.654 11.0676 242.6C8.80888 240.87 7.60425 238.839 7.60425 236.583C7.60425 234.326 8.35714 232.52 9.93822 231.242C11.444 229.963 13.4768 229.361 15.8861 229.361C18.2954 229.361 20.4788 230.038 22.4363 231.317C23.4151 231.994 24.6197 233.273 25.9749 235.153C27.3301 237.034 28.3089 238.012 28.9865 238.012C30.3417 238.012 30.944 236.357 30.944 232.972C30.944 229.587 30.2664 227.631 28.8359 227.029C28.4595 226.878 27.7066 226.728 26.7278 226.653H25.6737L24.5444 226.578C24.3938 226.578 23.6409 226.427 22.1351 226.126L20.9305 225.901C19.2741 225.6 17.9942 225.449 17.0907 225.449H15.8108C13.6274 225.449 11.5193 225.825 9.4112 226.502C7.30309 227.255 5.57143 228.233 4.21622 229.511C1.65637 231.843 0.451737 234.777 0.451737 238.313C0.451737 241.848 1.65637 244.857 3.99035 247.34C5.72201 249.145 8.80888 251.101 13.251 253.132C17.6931 255.163 20.4788 256.668 21.6081 257.42C24.2432 259.3 25.5232 261.708 25.5232 264.491C25.5232 266.522 24.695 268.252 23.1139 269.606C21.5328 270.96 19.4247 271.713 16.7896 271.713C14.1544 271.713 11.8958 271.111 10.0888 269.982C8.20656 268.854 6.62548 267.124 5.19498 264.942C3.76448 262.686 2.63514 261.557 1.80695 261.557C0.602317 261.557 0 263.287 0 266.823V268.026C0 270.96 0.828185 272.766 2.48456 273.443C6.17375 274.872 10.39 275.624 15.2838 275.624H16.5637C18.7471 275.624 20.8552 275.323 23.0386 274.646C25.222 273.969 26.9537 273.067 28.4595 271.938C31.5463 269.456 33.1274 266.296 33.1274 262.385V261.106C33.1274 257.946 31.5463 254.862 28.3842 252.004C26.7278 250.499 23.7915 248.769 19.5753 246.964L19.5 246.888Z" fill="#F8F5E7"/>
<path d="M121.594 232.219C121.745 231.843 122.799 231.016 124.681 229.737C125.509 229.135 125.961 228.458 125.961 227.781C125.961 226.803 123.702 226.352 119.26 226.352C114.818 226.352 111.882 226.427 110.602 226.577C109.322 226.728 108.644 227.254 108.644 228.157C108.644 228.383 109.021 228.909 109.774 229.737L110.527 230.564C111.054 231.241 111.43 232.069 111.656 233.047C111.882 234.025 112.032 236.357 112.032 239.967C112.032 243.578 111.731 245.684 111.129 246.286C110.301 247.114 106.988 247.49 101.115 247.49C95.2429 247.49 91.9301 247.114 91.1772 246.361C90.4243 245.609 89.9726 243.578 89.9726 240.268C89.9726 236.958 90.1232 234.551 90.4243 233.122C90.7255 231.693 91.3278 230.414 92.0807 229.436C92.8336 228.458 93.2854 227.856 93.2854 227.781C93.2854 226.653 91.629 226.126 88.3162 226.126H84.8529C78.9803 226.126 75.9688 226.577 75.9688 227.48C75.9688 228.157 76.6464 228.909 78.0769 229.737C79.5074 230.564 80.3355 231.768 80.712 233.348C81.0884 234.927 81.239 240.72 81.239 250.725C81.239 260.729 81.0884 266.446 80.8626 267.801C80.6367 269.155 79.8838 270.208 78.6792 271.035C76.8722 272.239 75.9688 273.142 75.9688 273.668C75.9688 274.721 78.3027 275.248 82.9707 275.248C87.6386 275.248 90.2738 275.248 90.9514 275.173C92.4572 275.022 93.2101 274.496 93.2101 273.668C93.2101 273.518 92.8336 273.066 92.0807 272.239L91.4031 271.411C90.8761 270.734 90.4996 269.681 90.1985 268.402C89.8973 267.124 89.7467 264.415 89.7467 260.353C89.7467 256.291 90.0479 253.884 90.7255 253.282C91.7043 252.379 95.0923 251.928 101.04 251.928C106.988 251.928 110.301 252.304 111.129 253.056C111.957 253.809 112.409 256.141 112.409 260.052C112.409 263.964 112.183 266.597 111.807 268.177C111.43 269.756 110.828 270.96 110 271.863C109.247 272.765 108.795 273.367 108.795 273.593C108.795 274.345 109.397 274.872 110.602 275.097C111.807 275.323 113.99 275.473 117.152 275.473H118.884H120.615C124.004 275.473 125.735 274.947 125.735 273.969C125.735 273.518 124.832 272.765 123.025 271.637C122.197 271.11 121.594 270.433 121.218 269.456C120.841 268.478 120.691 266.371 120.691 263.137L120.917 245.609C120.917 237.635 121.142 233.122 121.519 232.219H121.594Z" fill="#F8F5E7"/>
<path d="M215.479 271.261C214.048 270.509 213.069 269.531 212.467 268.327C212.091 267.65 210.434 263.287 207.498 255.238C204.562 247.189 202.529 241.848 201.55 239.14C200.571 236.357 199.818 234.476 199.291 233.348C197.861 230.038 196.43 227.856 195.075 226.803C194.397 226.276 193.87 226.051 193.419 226.051H192.44C190.633 226.051 189.278 227.179 188.299 229.511C187.847 230.564 187.094 232.971 185.89 236.733C184.685 240.569 183.104 244.857 181.147 249.671C179.114 254.486 177.533 258.473 176.403 261.557C175.274 264.716 174.37 266.898 173.693 268.101C173.091 269.305 172.036 270.283 170.681 271.11C169.326 271.863 168.648 272.54 168.648 273.142C168.648 273.969 169.477 274.496 171.133 274.721C172.789 274.947 175.048 275.022 177.909 275.022C180.77 275.022 182.276 274.571 182.276 273.743C182.276 273.743 181.824 273.142 180.996 272.088C180.168 271.035 179.716 269.832 179.716 268.478C179.716 267.124 180.168 265.318 180.996 263.212C181.899 261.03 182.652 259.676 183.405 259.225C184.158 258.698 186.793 258.473 191.311 258.473C195.828 258.473 198.388 258.774 198.99 259.3C199.592 259.827 200.345 261.256 201.249 263.513C202.152 265.77 202.604 267.575 202.604 268.779C202.604 269.982 202.303 271.035 201.776 271.863C201.249 272.69 200.948 273.142 200.948 273.367C200.948 274.571 203.131 275.173 207.498 275.173H209.531C212.768 275.173 214.801 275.022 215.629 274.872C216.834 274.646 217.436 274.044 217.436 273.066C217.436 272.615 216.758 272.013 215.328 271.261H215.479ZM198.313 254.26C198.313 254.26 196.129 254.711 191.762 254.711H191.536H189.052H186.266C186.266 254.711 185.739 254.636 185.363 254.636C184.911 254.636 184.76 254.411 184.76 254.11C184.76 252.154 186.718 246.587 190.633 237.485L191.687 235.078C191.687 235.078 192.064 235.83 192.741 237.41C196.581 246.286 198.463 251.853 198.463 254.034V254.26H198.313Z" fill="#F8F5E7"/>
<path d="M302.137 271.035C300.555 270.358 299.2 269.38 298.146 268.026C297.092 266.672 295.36 264.039 293.026 260.052C290.692 256.066 289.488 253.959 289.488 253.658C289.488 252.53 290.467 251.176 292.499 249.521C296.038 246.587 297.845 243.127 297.845 239.14C297.845 237.034 297.544 235.228 296.866 233.799C294.382 228.533 288.886 225.9 280.303 225.9H277.818L270.515 226.126C269.687 226.126 268.934 226.126 268.106 226.126H266.901C263.137 226.126 261.254 226.653 261.254 227.555C261.254 228.082 261.857 228.759 263.061 229.436C264.266 230.188 265.094 231.317 265.546 232.972C265.998 234.626 266.223 240.193 266.223 249.822V253.508C266.223 254.335 266.223 255.163 266.223 255.99V258.473L266.148 260.955C266.148 265.393 265.847 268.177 265.32 269.155C265.169 269.38 264.115 270.133 262.158 271.411C261.405 271.863 260.953 272.615 260.953 273.518C260.953 274.42 263.739 274.947 269.31 274.947C270.364 274.947 271.193 274.947 271.72 274.947H272.924L274.129 275.022C277.14 275.022 278.646 274.646 278.646 273.819C278.646 273.668 278.194 273.066 277.216 272.088C276.237 271.111 275.559 270.057 275.108 268.929C274.656 267.801 274.43 265.544 274.43 262.159C274.43 258.774 274.656 256.592 275.032 255.614C275.409 254.636 276.162 254.11 277.291 254.11C279.851 254.11 281.733 254.862 283.013 256.517C283.389 256.968 284.895 259.676 287.681 264.566C290.467 269.531 292.274 272.389 293.177 273.292C294.532 274.571 296.49 275.248 299.2 275.248C302.889 275.248 304.696 274.42 304.696 272.765C304.696 272.164 303.868 271.562 302.287 270.96L302.137 271.035ZM286.627 247.565C284.745 249.295 282.034 250.198 278.496 250.198H276.99C275.71 250.198 274.882 250.048 274.505 249.671C274.129 249.295 273.903 248.317 273.903 246.587V234.702C273.903 232.295 274.054 230.865 274.43 230.339C274.806 229.887 275.71 229.586 277.14 229.586H279.324C282.335 229.586 284.82 230.414 286.702 232.144C288.584 233.874 289.488 236.206 289.488 239.14V240.569C289.488 243.428 288.509 245.76 286.627 247.49V247.565Z" fill="#F8F5E7"/>
<path d="M384.956 265.318C384.956 265.318 384.354 265.544 383.752 266.07C383.074 266.597 382.472 267.048 381.794 267.5C381.116 267.951 380.288 268.327 379.234 268.703C375.394 269.907 372.082 270.509 369.221 270.509C366.36 270.509 364.553 270.057 363.8 269.079C362.445 267.349 361.767 264.566 361.767 260.805C361.767 257.043 362.068 254.787 362.67 254.034C363.574 252.906 365.381 252.304 368.091 252.304C369.672 252.304 371.178 252.906 372.609 254.034C374.039 255.163 374.943 255.765 375.394 255.765C377.051 255.765 377.879 253.959 377.879 250.273C377.879 248.167 377.653 246.662 377.201 245.76C376.75 244.857 375.997 244.406 374.792 244.406C374.792 244.406 373.964 244.932 372.458 245.91C370.877 246.963 369.371 247.415 367.865 247.415C366.36 247.415 365.004 247.039 363.875 246.211C362.746 245.384 362.143 244.105 362.143 242.45C362.143 237.711 362.821 234.476 364.176 232.671C365.155 231.392 366.962 230.79 369.522 230.79C372.082 230.79 375.093 231.392 378.481 232.52C379.234 232.746 380.213 233.272 381.342 233.949C382.472 234.626 383.224 235.003 383.526 235.003C384.053 235.003 384.354 234.401 384.354 233.122C384.354 228.383 382.246 225.976 378.03 225.976H365.908C356.497 225.976 351.452 226.051 350.85 226.126C349.344 226.352 348.516 226.953 348.516 227.931C348.516 228.458 349.118 228.985 350.323 229.662C351.528 230.263 352.28 230.865 352.506 231.392C353.109 232.445 353.335 235.303 353.335 239.817L353.184 253.658C353.184 262.234 352.958 267.124 352.582 268.327C352.205 269.606 351.377 270.584 350.097 271.411C348.817 272.239 348.215 272.916 348.215 273.442C348.215 274.27 348.892 274.797 350.248 275.022C351.603 275.248 356.723 275.323 365.682 275.323H367.263H371.931C378.632 275.323 382.547 275.022 383.45 274.42C383.977 274.119 384.58 273.367 385.182 272.164C385.784 270.96 386.085 269.531 386.085 267.65V266.522C386.085 265.694 385.709 265.318 384.881 265.318H384.956Z" fill="#F8F5E7"/>
<path d="M450.308 225.825H448.501C448.501 225.825 445.564 225.9 440.52 226.126H439.692L438.864 226.201H435.476C431.862 226.201 430.055 226.728 430.055 227.631C430.055 228.383 430.657 228.985 431.862 229.511C433.066 230.038 433.97 230.715 434.497 231.542C435.024 232.37 435.325 234.401 435.325 237.56V241.171L435.476 245.685V262.46C435.476 266.296 435.174 268.779 434.647 269.907C434.421 270.434 433.367 271.111 431.636 272.013C430.657 272.54 430.13 273.217 430.13 273.969C430.13 274.721 432.765 275.173 438.035 275.173H443.23C443.833 275.248 444.435 275.323 445.037 275.323H446.844H447.748H450.383C453.921 275.323 457.234 274.721 460.171 273.593C466.57 271.111 471.088 266.823 473.647 260.73C474.927 257.645 475.605 254.11 475.605 250.198V249.22C475.605 245.835 475.003 242.676 473.798 239.591C470.033 230.414 462.279 225.75 450.458 225.75L450.308 225.825ZM466.118 252.079C466.118 254.787 465.667 257.495 464.838 260.128C464.01 262.761 462.806 264.867 461.3 266.522C458.364 269.757 454.373 271.412 449.479 271.412H448.877C446.242 271.412 444.586 271.186 443.908 270.584C443.23 269.982 442.854 268.478 442.854 266.071V262.008C442.854 261.407 442.854 260.805 442.854 260.203V258.473C442.854 257.871 442.854 257.269 442.854 256.667V254.937V241.698C442.854 235.153 442.854 231.693 443.08 231.166C443.381 230.113 444.811 229.586 447.371 229.586H449.103C451.588 229.586 453.696 229.963 455.578 230.79C460.171 232.746 463.257 236.432 464.838 241.698C465.591 244.331 465.968 246.963 465.968 249.446V252.003L466.118 252.079Z" fill="#F8F5E7"/>
<path d="M591.778 271.938C590.422 271.186 589.594 270.057 589.218 268.553C588.841 267.048 588.615 261.106 588.615 250.725C588.615 240.344 588.766 234.401 589.067 232.896C589.368 231.392 590.196 230.188 591.627 229.361C592.982 228.458 593.66 227.856 593.66 227.405C593.66 226.502 592.982 226.051 591.552 226.051H585.378C578.075 226.051 574.461 226.577 574.461 227.48C574.461 228.007 575.44 228.834 577.397 229.887C578.376 230.414 579.054 231.467 579.505 233.197C579.957 234.852 580.183 240.644 580.183 250.574C580.183 260.504 579.957 266.296 579.581 267.876C579.204 269.531 578.225 270.734 576.72 271.637C575.214 272.54 574.461 273.217 574.461 273.668V274.195C574.461 274.872 576.418 275.248 580.258 275.248H586.583C587.11 275.248 587.637 275.323 588.239 275.323H589.895H590.648C592.832 275.323 593.886 274.872 593.886 274.044C593.886 273.442 593.208 272.69 591.853 271.938H591.778Z" fill="#F8F5E7"/>
<path d="M676.177 225.9H659.312C645.685 225.9 638.683 226.051 638.381 226.352C637.478 226.954 637.102 229.812 637.102 234.852V235.905C637.102 237.184 637.478 237.861 638.156 237.861C639.134 237.861 640.113 237.034 641.242 235.304C642.372 233.573 643.576 232.37 644.781 231.693C645.986 230.94 647.717 230.64 649.976 230.64C652.235 230.64 653.59 231.317 653.966 232.595C654.268 233.649 654.418 239.29 654.418 249.596C654.418 259.902 654.192 265.92 653.816 267.5C653.439 269.079 652.461 270.358 650.955 271.336C649.449 272.314 648.696 272.991 648.696 273.367C648.696 274.195 649.073 274.646 649.901 274.797C650.729 274.947 652.611 275.022 655.623 275.022H659.086C659.839 275.022 660.592 275.022 661.42 275.022H663.754H664.959C667.142 275.022 668.271 274.721 668.271 274.044C668.271 273.367 667.519 272.54 666.088 271.487C664.658 270.434 663.754 269.155 663.378 267.725C663.001 266.221 662.851 260.504 662.851 250.574C662.851 240.644 663.001 235.003 663.227 233.649C663.453 232.37 663.829 231.467 664.356 231.091C664.883 230.64 666.088 230.489 668.046 230.489C670.003 230.489 671.509 230.865 672.789 231.542C673.993 232.219 675.198 233.348 676.403 235.003C677.607 236.658 678.36 237.41 678.661 237.41C679.791 237.41 680.393 236.432 680.393 234.476V233.348C680.393 230.113 680.167 228.082 679.64 227.179C679.113 226.277 677.984 225.825 676.252 225.825L676.177 225.9Z" fill="#F8F5E7"/>
<path d="M763.061 271.261C761.63 270.509 760.651 269.531 760.049 268.327C759.673 267.65 758.016 263.287 755.08 255.238C752.144 247.189 750.111 241.848 749.132 239.14C748.153 236.357 747.4 234.476 746.873 233.348C745.443 230.038 744.012 227.856 742.657 226.803C741.98 226.276 741.452 226.051 741.001 226.051H740.022C738.215 226.051 736.86 227.179 735.881 229.511C735.429 230.564 734.676 232.971 733.472 236.733C732.267 240.569 730.686 244.857 728.729 249.671C726.696 254.486 725.115 258.473 723.985 261.557C722.856 264.716 721.953 266.898 721.275 268.101C720.673 269.305 719.619 270.283 718.263 271.11C716.908 271.938 716.23 272.54 716.23 273.142C716.23 273.969 717.059 274.496 718.715 274.721C720.371 274.947 722.63 275.022 725.491 275.022C728.352 275.022 729.858 274.571 729.858 273.743C729.858 273.743 729.406 273.142 728.578 272.088C727.75 271.035 727.298 269.832 727.298 268.478C727.298 267.124 727.75 265.318 728.578 263.212C729.481 261.03 730.234 259.676 730.987 259.225C731.74 258.698 734.375 258.473 738.893 258.473C743.41 258.473 745.97 258.774 746.572 259.3C747.175 259.827 747.927 261.256 748.831 263.513C749.734 265.77 750.186 267.575 750.186 268.779C750.186 269.982 749.885 271.035 749.358 271.863C748.831 272.69 748.53 273.142 748.53 273.367C748.53 274.571 750.713 275.173 755.08 275.173H757.113C760.35 275.173 762.383 275.022 763.211 274.872C764.416 274.646 765.018 274.044 765.018 273.066C765.018 272.615 764.341 272.013 762.91 271.261H763.061ZM745.895 254.26C745.895 254.26 743.711 254.711 739.344 254.711H739.119H736.634H733.848C733.848 254.711 733.321 254.636 732.945 254.636C732.493 254.636 732.342 254.411 732.342 254.11C732.342 252.154 734.3 246.587 738.215 237.485L739.269 235.078C739.269 235.078 739.646 235.83 740.323 237.41C744.163 246.286 746.045 251.853 746.045 254.034V254.26H745.895Z" fill="#F8F5E7"/>
<path d="M844.976 262.384C844.223 262.384 843.169 263.362 841.738 265.243C840.383 267.124 839.103 268.402 837.898 269.004C835.79 270.057 832.704 270.659 828.487 270.659C826.53 270.659 825.25 270.584 824.572 270.358C823.518 269.982 822.765 269.38 822.464 268.478C822.163 267.575 822.012 262.309 822.012 252.68C822.012 243.052 822.238 237.109 822.615 234.852C822.991 232.595 823.744 231.016 824.648 230.113C826.304 228.458 827.132 227.555 827.132 227.254C827.132 226.427 824.271 225.976 818.549 225.976H815.387H814.333H812.225C809.59 225.976 808.234 226.427 808.234 227.254C808.234 228.082 809.138 228.909 810.869 229.662C811.999 230.113 812.676 230.865 812.978 231.768C813.279 232.671 813.354 238.538 813.354 249.22C813.354 259.902 813.128 266.146 812.752 267.801C812.375 269.456 811.547 270.81 810.267 271.712C808.987 272.615 808.31 273.217 808.31 273.593C808.31 274.42 808.912 274.947 810.117 275.173C810.794 275.323 815.312 275.323 823.669 275.323H829.993H831.047C838.953 275.323 843.244 275.022 843.922 274.345C845.202 273.217 845.804 269.982 845.804 264.792V263.889C845.804 262.911 845.427 262.384 844.675 262.384H844.976Z" fill="#F8F5E7"/>
<path d="M906.637 271.938C905.282 271.186 904.454 270.057 904.077 268.553C903.701 267.048 903.475 261.106 903.475 250.725C903.475 240.344 903.625 234.401 903.926 232.896C904.228 231.392 905.056 230.188 906.486 229.361C907.842 228.458 908.519 227.856 908.519 227.405C908.519 226.502 907.842 226.051 906.411 226.051H900.237C892.934 226.051 889.32 226.577 889.32 227.48C889.32 228.007 890.299 228.834 892.257 229.887C893.235 230.414 893.913 231.467 894.365 233.197C894.816 234.852 895.042 240.644 895.042 250.574C895.042 260.504 894.816 266.296 894.44 267.876C894.064 269.456 893.085 270.734 891.579 271.637C890.073 272.54 889.32 273.217 889.32 273.668V274.195C889.32 274.872 891.278 275.248 895.118 275.248H901.442C901.969 275.248 902.496 275.323 903.098 275.323H904.755H905.508C907.691 275.323 908.745 274.872 908.745 274.044C908.745 273.442 908.067 272.69 906.712 271.938H906.637Z" fill="#F8F5E7"/>
<path d="M998.338 271.261C996.907 270.509 995.929 269.531 995.326 268.327C994.95 267.65 993.293 263.287 990.357 255.238C987.346 247.264 985.388 241.848 984.409 239.14C983.431 236.357 982.678 234.476 982.151 233.348C980.72 230.038 979.29 227.856 977.934 226.803C977.257 226.276 976.73 226.051 976.278 226.051H975.299C973.492 226.051 972.137 227.179 971.158 229.511C970.707 230.564 969.954 232.971 968.749 236.733C967.544 240.569 965.963 244.857 964.006 249.671C961.973 254.486 960.392 258.473 959.263 261.557C958.133 264.716 957.23 266.898 956.552 268.101C955.95 269.305 954.896 270.283 953.541 271.11C952.185 271.863 951.508 272.54 951.508 273.142C951.508 273.969 952.336 274.496 953.992 274.721C955.649 274.947 957.907 275.022 960.768 275.022C963.629 275.022 965.135 274.571 965.135 273.743C965.135 273.743 964.684 273.142 963.855 272.088C963.027 271.035 962.575 269.832 962.575 268.478C962.575 267.124 963.027 265.318 963.855 263.212C964.759 261.03 965.512 259.676 966.265 259.225C967.017 258.698 969.653 258.473 974.17 258.473C978.687 258.473 981.247 258.774 981.85 259.3C982.452 259.827 983.205 261.256 984.108 263.513C985.012 265.77 985.463 267.575 985.463 268.779C985.463 269.982 985.162 271.035 984.635 271.863C984.108 272.69 983.807 273.142 983.807 273.367C983.807 274.571 985.99 275.173 990.357 275.173H992.39C995.628 275.173 997.66 275.022 998.488 274.872C999.693 274.646 1000.3 274.044 1000.3 273.066C1000.3 272.615 999.618 272.013 998.187 271.261H998.338ZM981.172 254.26C981.172 254.26 978.989 254.711 974.622 254.711H974.396H971.911H969.126C969.126 254.711 968.599 254.636 968.222 254.636C967.77 254.636 967.62 254.411 967.62 254.11C967.62 252.154 969.577 246.587 973.492 237.485L974.546 235.078C974.546 235.078 974.923 235.83 975.601 237.41C979.44 246.286 981.322 251.853 981.322 254.034V254.26H981.172Z" fill="#F8F5E7"/>
<path d="M1086.35 226.201H1082.96C1080.4 226.201 1079.2 226.803 1079.2 227.931C1079.2 228.007 1079.73 228.608 1080.78 229.737C1081.84 230.865 1082.51 232.294 1082.81 233.949C1083.12 235.68 1083.27 240.644 1083.27 248.844C1083.27 257.043 1082.89 261.181 1082.14 261.181C1081.91 261.181 1079.95 258.698 1076.34 253.809L1073.33 249.671C1071.9 247.64 1069.19 244.03 1065.42 238.989C1061.58 233.949 1059.1 230.865 1057.97 229.737C1056.84 228.684 1055.48 227.781 1054.05 227.179C1052.55 226.577 1050.52 226.276 1047.96 226.276C1045.4 226.276 1044.12 226.878 1044.12 228.157C1044.12 228.308 1044.79 228.985 1046.15 229.962C1047.5 230.94 1048.33 231.843 1048.56 232.595C1049.16 234.175 1049.46 237.485 1049.46 242.45V247.64V252.906C1049.46 261.406 1049.24 266.371 1048.86 267.725C1048.48 269.155 1047.58 270.208 1046.15 271.035C1044.72 271.863 1043.96 272.69 1043.96 273.518C1043.96 274.345 1045.62 274.796 1049.01 274.796H1050.67C1055.48 274.796 1057.89 274.27 1057.89 273.292C1057.89 272.916 1057.52 272.088 1056.69 270.96C1055.86 269.756 1055.41 268.628 1055.11 267.349C1054.43 263.889 1054.05 258.097 1054.05 249.747C1054.05 241.397 1054.28 237.335 1054.81 237.335C1055.41 237.335 1059.4 242.375 1066.7 252.53C1067.46 253.658 1068.96 255.765 1071.07 258.849C1073.18 261.933 1075.36 264.942 1077.62 267.801L1078.67 269.079C1081.61 272.615 1084.09 274.42 1085.98 274.42C1086.88 274.42 1087.48 274.119 1087.71 273.442C1087.93 272.765 1088.08 270.433 1088.08 266.371V249.897C1088.08 241.171 1088.31 236.056 1088.61 234.626C1088.91 233.197 1089.59 231.994 1090.49 231.016C1092.3 229.21 1093.2 228.308 1093.2 228.232C1093.2 227.48 1092.9 226.953 1092.38 226.728C1091.4 226.276 1089.44 226.051 1086.43 226.051L1086.35 226.201Z" fill="#F8F5E7"/>
<path d="M1211.56 225.825H1209.75C1209.75 225.825 1206.82 225.9 1201.77 226.126H1200.95L1200.12 226.201H1196.73C1193.12 226.201 1191.31 226.728 1191.31 227.631C1191.31 228.383 1191.91 228.985 1193.12 229.511C1194.32 230.038 1195.22 230.715 1195.75 231.542C1196.28 232.37 1196.58 234.401 1196.58 237.56V241.171L1196.73 245.685V262.46C1196.73 266.296 1196.43 268.779 1195.9 269.907C1195.68 270.434 1194.62 271.111 1192.89 272.013C1191.91 272.54 1191.38 273.217 1191.38 273.969C1191.38 274.721 1194.02 275.173 1199.29 275.173H1204.48C1205.09 275.248 1205.69 275.323 1206.29 275.323H1208.1H1209H1211.64C1215.18 275.323 1218.49 274.721 1221.42 273.593C1227.82 271.111 1232.34 266.823 1234.9 260.73C1236.18 257.645 1236.86 254.11 1236.86 250.198V249.22C1236.86 245.835 1236.26 242.676 1235.05 239.591C1231.29 230.414 1223.53 225.75 1211.71 225.75L1211.56 225.825ZM1227.37 252.079C1227.37 254.787 1226.92 257.495 1226.09 260.128C1225.26 262.761 1224.06 264.867 1222.55 266.522C1219.62 269.757 1215.63 271.412 1210.73 271.412H1210.13C1207.5 271.412 1205.84 271.186 1205.16 270.584C1204.48 269.982 1204.11 268.478 1204.11 266.071V262.008C1204.11 261.407 1204.11 260.805 1204.11 260.203V258.473C1204.11 257.871 1204.11 257.269 1204.11 256.667V254.937V241.698C1204.11 235.153 1204.11 231.693 1204.33 231.166C1204.63 230.113 1206.07 229.586 1208.63 229.586H1210.36C1212.84 229.586 1214.95 229.963 1216.83 230.79C1221.42 232.746 1224.51 236.432 1226.09 241.698C1226.85 244.331 1227.22 246.963 1227.22 249.446V252.003L1227.37 252.079Z" fill="#F8F5E7"/>
<path d="M1297.39 271.938C1296.04 271.186 1295.21 270.057 1294.83 268.553C1294.45 267.048 1294.23 261.106 1294.23 250.725C1294.23 240.344 1294.38 234.401 1294.68 232.896C1294.98 231.392 1295.81 230.188 1297.24 229.361C1298.6 228.458 1299.27 227.856 1299.27 227.405C1299.27 226.502 1298.6 226.051 1297.16 226.051H1290.99C1283.69 226.051 1280.07 226.577 1280.07 227.48C1280.07 228.007 1281.05 228.834 1283.01 229.887C1283.99 230.414 1284.67 231.467 1285.12 233.197C1285.57 234.852 1285.8 240.644 1285.8 250.574C1285.8 260.504 1285.57 266.296 1285.19 267.876C1284.82 269.456 1283.84 270.734 1282.33 271.637C1280.83 272.54 1280.07 273.217 1280.07 273.668V274.195C1280.07 274.872 1282.03 275.248 1285.87 275.248H1292.2C1292.72 275.248 1293.25 275.323 1293.85 275.323H1295.51H1296.26C1298.44 275.323 1299.5 274.872 1299.5 274.044C1299.5 273.442 1298.82 272.69 1297.47 271.938H1297.39Z" fill="#F8F5E7"/>
<path d="M1386.38 226.201H1383C1380.44 226.201 1379.23 226.803 1379.23 227.931C1379.23 228.007 1379.76 228.608 1380.81 229.737C1381.87 230.865 1382.54 232.294 1382.85 233.949C1383.15 235.68 1383.3 240.644 1383.3 248.844C1383.3 257.043 1382.92 261.181 1382.17 261.181C1381.94 261.181 1379.98 258.698 1376.37 253.809L1373.36 249.671C1371.93 247.64 1369.22 244.03 1365.45 238.989C1361.61 233.949 1359.13 230.865 1358 229.737C1356.87 228.684 1355.52 227.781 1354.08 227.179C1352.58 226.577 1350.55 226.276 1347.99 226.276C1345.43 226.276 1344.15 226.878 1344.15 228.157C1344.15 228.308 1344.82 228.985 1346.18 229.962C1347.53 231.016 1348.36 231.843 1348.59 232.595C1349.19 234.175 1349.49 237.485 1349.49 242.45V247.64V252.906C1349.49 261.406 1349.27 266.371 1348.89 267.725C1348.51 269.155 1347.61 270.208 1346.18 271.035C1344.75 271.863 1344 272.69 1344 273.518C1344 274.345 1345.65 274.796 1349.04 274.796H1350.7C1355.52 274.796 1357.92 274.27 1357.92 273.292C1357.92 272.916 1357.55 272.088 1356.72 270.96C1355.89 269.756 1355.44 268.628 1355.14 267.349C1354.46 263.889 1354.08 258.097 1354.08 249.747C1354.08 241.397 1354.31 237.335 1354.84 237.335C1355.44 237.335 1359.43 242.375 1366.73 252.53C1367.49 253.658 1368.99 255.765 1371.1 258.849C1373.21 261.933 1375.39 264.942 1377.65 267.801L1378.7 269.079C1381.64 272.615 1384.13 274.42 1386.01 274.42C1386.91 274.42 1387.51 274.119 1387.74 273.442C1387.97 272.765 1388.12 270.433 1388.12 266.371V249.897C1388.12 241.171 1388.34 236.056 1388.64 234.626C1388.94 233.197 1389.62 231.994 1390.53 231.016C1392.33 229.21 1393.24 228.308 1393.24 228.232C1393.24 227.48 1392.93 226.953 1392.41 226.728C1391.43 226.276 1389.47 226.051 1386.46 226.051L1386.38 226.201Z" fill="#F8F5E7"/>
<path d="M1454.82 271.938C1453.47 271.186 1452.64 270.057 1452.26 268.553C1451.88 267.048 1451.66 261.106 1451.66 250.725C1451.66 240.344 1451.81 234.401 1452.11 232.896C1452.41 231.392 1453.24 230.188 1454.67 229.361C1456.03 228.458 1456.7 227.856 1456.7 227.405C1456.7 226.502 1456.03 226.051 1454.59 226.051H1448.42C1441.12 226.051 1437.5 226.577 1437.5 227.48C1437.5 228.007 1438.48 228.834 1440.44 229.887C1441.42 230.414 1442.1 231.467 1442.55 233.197C1443 234.852 1443.23 240.644 1443.23 250.574C1443.23 260.504 1443 266.296 1442.62 267.876C1442.25 269.531 1441.27 270.734 1439.76 271.637C1438.26 272.54 1437.5 273.217 1437.5 273.668V274.195C1437.5 274.872 1439.46 275.248 1443.3 275.248H1449.63C1450.15 275.248 1450.68 275.323 1451.28 275.323H1452.94H1453.69C1455.87 275.323 1456.93 274.872 1456.93 274.044C1456.93 273.442 1456.25 272.69 1454.9 271.938H1454.82Z" fill="#F8F5E7"/>
<path d="M1543.81 226.201H1540.43C1537.87 226.201 1536.66 226.803 1536.66 227.931C1536.66 228.007 1537.19 228.608 1538.24 229.737C1539.3 230.865 1539.97 232.294 1540.28 233.949C1540.58 235.68 1540.73 240.644 1540.73 248.844C1540.73 257.043 1540.35 261.181 1539.6 261.181C1539.37 261.181 1537.41 258.698 1533.8 253.809L1530.79 249.671C1529.36 247.64 1526.65 244.03 1522.88 238.989C1519.04 233.949 1516.56 230.865 1515.43 229.737C1514.3 228.684 1512.95 227.781 1511.51 227.179C1510.01 226.577 1507.98 226.276 1505.42 226.276C1502.86 226.276 1501.58 226.878 1501.58 228.157C1501.58 228.308 1502.25 228.985 1503.61 229.962C1504.96 230.94 1505.79 231.843 1506.02 232.595C1506.62 234.175 1506.92 237.485 1506.92 242.45V247.64V252.906C1506.92 261.406 1506.7 266.371 1506.32 267.725C1505.94 269.155 1505.04 270.208 1503.61 271.035C1502.18 271.863 1501.43 272.69 1501.43 273.518C1501.43 274.345 1503.08 274.796 1506.47 274.796H1508.13C1512.95 274.796 1515.35 274.27 1515.35 273.292C1515.35 272.916 1514.98 272.088 1514.15 270.96C1513.32 269.756 1512.87 268.628 1512.57 267.349C1511.89 263.889 1511.51 258.097 1511.51 249.747C1511.51 241.397 1511.74 237.335 1512.27 237.335C1512.87 237.335 1516.86 242.375 1524.16 252.53C1524.92 253.658 1526.42 255.765 1528.53 258.849C1530.64 261.933 1532.82 264.942 1535.08 267.801L1536.13 269.079C1539.07 272.615 1541.56 274.42 1543.44 274.42C1544.34 274.42 1544.94 274.119 1545.17 273.442C1545.39 272.765 1545.55 270.433 1545.55 266.371V249.897C1545.55 241.171 1545.77 236.056 1546.07 234.626C1546.37 233.197 1547.05 231.994 1547.95 231.016C1549.76 229.21 1550.67 228.308 1550.67 228.232C1550.67 227.48 1550.36 226.953 1549.84 226.728C1548.86 226.276 1546.9 226.051 1543.89 226.051L1543.81 226.201Z" fill="#F8F5E7"/>
<path d="M1636.49 253.358C1635.51 253.057 1633.56 252.906 1630.55 252.906C1625.88 252.906 1623.54 253.433 1623.54 254.411C1623.54 254.561 1623.92 255.088 1624.67 255.765C1625.43 256.517 1625.88 256.968 1626.1 257.269C1626.78 258.398 1627.16 259.752 1627.16 261.256C1627.16 265.168 1626.48 267.801 1625.05 269.155C1623.62 270.509 1621.36 271.111 1618.2 271.111C1613.38 271.111 1609.46 269.155 1606.45 265.243C1603.44 261.407 1602.01 256.367 1602.01 250.198C1602.01 244.03 1603.44 239.14 1606.23 235.379C1609.09 231.693 1612.93 229.812 1617.67 229.812C1622.41 229.812 1626.56 231.693 1629.94 235.454C1631.37 237.109 1632.43 237.937 1633.11 237.937L1633.78 237.56C1634.54 236.883 1634.99 235.529 1634.99 233.348C1634.99 231.166 1634.69 229.662 1634.08 228.834C1633.48 228.007 1632.8 227.405 1632.2 227.179C1629.19 226.051 1624.37 225.524 1617.6 225.524C1614.21 225.524 1610.9 226.201 1607.66 227.48C1601.86 229.812 1597.72 234.025 1595.23 240.118C1593.88 243.353 1593.28 246.663 1593.28 249.972V251.477C1593.28 254.862 1593.88 258.172 1595.16 261.407C1596.44 264.641 1598.1 267.274 1600.13 269.305C1602.16 271.336 1604.65 272.991 1607.58 274.12C1610.52 275.248 1613.61 275.85 1616.92 275.85H1618.35C1620.91 275.85 1624.82 275.022 1630.24 273.367C1632.35 272.766 1633.63 272.013 1634.16 271.261C1634.69 270.509 1635.14 268.252 1635.44 264.491C1635.74 260.73 1635.97 258.699 1636.04 258.398C1636.12 258.097 1636.49 257.495 1637.1 256.592C1637.7 255.69 1638 255.163 1638 255.013C1638 254.11 1637.55 253.508 1636.57 253.207L1636.49 253.358Z" fill="#F8F5E7"/>
</g>
<defs>
<clipPath id="clip0_171_318">
<rect width="1638" height="276" fill="white"/>
</clipPath>
</defs>
</svg>
