<?xml version="1.0" encoding="UTF-8"?>
<svg id="Layer_1" data-name="Layer 1" xmlns="http://www.w3.org/2000/svg" viewBox="0 0 1314.22 243.25">
  <defs>
    <style>
      .cls-1 {
        fill: #43b684;
      }

      .cls-1, .cls-2, .cls-3, .cls-4 {
        stroke-width: 0px;
      }

      .cls-2 {
        fill: #db8f3e;
      }

      .cls-3 {
        fill: #ebd771;
      }

      .cls-4 {
        fill: #ec6b72;
      }
    </style>
  </defs>
  <path class="cls-3" d="m1064.41,243.25c-8.4-.97-16.8-1.92-25.2-2.92-5.14-.61-10.13-1.86-15.1-3.32-15.46-4.55-22.23-18.79-21.06-33.83,1.85-23.84,14.33-41.1,33.93-54.03,9.43-6.22,18.52-12.95,25.35-22.25,8.88-12.08,12.25-26.01,13.96-40.48,1.03-8.72,1.54-17.5,2.39-26.24,2.51-25.72,17.82-40.89,41.17-49.31,16.92-6.1,34.61-8.17,52.39-9.59,21.6-1.72,43.26-1.37,64.89-.9,14.78.32,29.56,1.35,44.3,2.91,16.13,1.71,28.41,7.96,32.79,24.84v14.94c-2.74,12.93-11.29,21.83-20.86,30.07-14.98,12.9-29.59,26.21-43.87,39.87-10.16,9.72-14.67,21.81-15.24,35.66-.53,12.83,1.65,25.45,2.55,38.17,1.08,15.16-.3,29.68-12.41,40.8-7.71,7.08-17.6,9.16-27.52,10.6-23.59,3.42-47.37,3.99-71.16,4.13-2.47.01-5.02-.36-7.35.88h-53.96Z"/>
  <path class="cls-4" d="m865.72,4.07c24.97-.28,49.94-.23,74.65,4.08,9.85,1.72,19.59,4.01,28.53,8.73,18.15,9.59,22.57,26.25,12.13,44-9.15,15.55-23.68,20.45-40.48,21.04-7.31.26-14.65,0-21.97,0-2.33,0-4.67-.03-6.99.15-8.48.68-11.06,5.33-6.43,12.36,5.68,8.62,12.75,16.12,20.29,23.19,10.59,9.94,22.89,17.64,34.35,26.44,14.41,11.06,18.01,24.42,10.45,40.93-13.02,28.42-35.95,43.98-66.28,49.41-29.31,5.24-58.88,5.42-88.53,4.33-11.64-.43-23.31.02-34.95-.47-18.28-.77-36.56-1.78-54.35-6.7-6.14-1.7-12.03-3.95-17.48-7.2-15.57-9.3-22.28-23.32-20.86-41.06,1.18-14.81,11.88-25.92,27.62-29.6,8.45-1.97,17.04-2.98,25.71-3.12,7.15-.11,14.32.09,21.42-1.06,2.28-.37,4.65-.74,6.75-1.64,4.27-1.83,5-5.12,2.06-8.75-3.38-4.18-7.81-7.18-12.16-10.26-14.02-9.92-27.72-20.2-37.68-34.49-8.16-11.71-14.2-24.43-16.36-38.64-1.92-12.64,2.09-23.25,12.26-31.25,12.36-9.73,27.21-12.95,42.23-15.27,19.25-2.98,38.69-3.72,58.17-4.33,15.97-.51,31.94-.63,47.91-.81Z"/>
  <path class="cls-1" d="m575.64,235.34c-31.71-.3-56.44-14.11-75.77-38.66-7.39-9.38-13.67-19.64-22.33-28.03-10.25-9.93-20.21-9.12-28.32,2.53-1.99,2.86-3.76,5.87-5.6,8.83-15.03,24.22-37.86,34.9-65.4,37.11-4.59.37-9.31-.43-13.81-1.74-13.84-4.03-19.51-12.87-17.13-27.07,3.01-17.87,8.35-35.17,13.38-52.54,8.21-28.37,16.53-56.71,24.95-85.02,1.84-6.19,4.3-12.2,6.5-18.29,6.75-18.63,21.55-26.89,39.95-28,28.63-1.73,53.47,8.27,74.54,27.72,10.57,9.76,18.92,21.36,27.97,32.4,2.1,2.56,4.33,5.08,6.86,7.2,7.72,6.51,16.1,5.04,20.7-3.91,2.72-5.29,4.74-10.97,6.69-16.6,10.21-29.53,33.53-42.37,60.21-42.98,7.54-.17,14.96,1.44,21.82,4.63,12.58,5.85,19.29,15.74,19.93,29.71.62,13.56-1.65,26.82-4.38,39.96-6.55,31.51-12.98,63.05-21.69,94.06-2.33,8.31-5.3,16.4-9.09,24.2-11.06,22.72-30.41,32.3-54.5,34.47-1.82.16-3.66.02-5.49.02Z"/>
  <path class="cls-2" d="m161.7,238.46c-25.5.77-51.16-6.29-76.59-14.33-16.64-5.26-33.4-10.17-49.45-17.26C11.32,196.13.69,176.88.04,151.29c-1.05-41.75,18.3-72.65,51.87-95.81,19.04-13.14,40.04-22.41,61.79-29.95,21.99-7.62,43.81-15.83,66.95-19.68,41.37-6.88,77.79,4.67,110.38,29.62,22.36,17.12,36.11,39.79,39.35,67.95,4.97,43.21-11.62,85.95-53.81,109.83-22.1,12.51-46.1,18.75-71.02,22.14-14.02,1.9-28.1,3.11-43.85,3.07Zm18.27-69.85c7.72.17,15.27-.55,22.65-3.05,18.34-6.23,25.92-19.56,21.68-38.43-7.57-33.7-41.35-57.25-75.94-52.95-17.39,2.17-32.54,15.67-37.27,33.24-4.7,17.45.72,33.11,15.63,44.42,15.72,11.92,33.72,16.85,53.26,16.78Z"/>
</svg>