<?xml version="1.0" encoding="UTF-8"?>
<svg id="Layer_1" data-name="Layer 1" xmlns="http://www.w3.org/2000/svg" viewBox="0 0 1820.93 643.96">
  <defs>
    <style>
      .cls-1, .cls-2 {
        stroke-width: 0px;
      }

      .cls-2 {
        fill: #fff;
      }
    </style>
  </defs>
  <path class="cls-2" d="m1102.03,62c6.18-37.34,29.35-57.46,68.27-60.25,13.38-.98,26.79-.49,39.6,4.07,13.6,4.82,23.77,13.41,28.11,27.73,4.33,14.32-3.05,28.75-16.81,32.78-9.6,2.83-16.01-1.21-17.52-10.97-2.63-16.99-19.66-27.54-40.65-25.17-17.74,2-25.77,12.1-24.79,31.16,1.51,29.43,26.04,57.39,58.4,67.07,22,6.59,41.29,5.46,60.09-11,31.2-27.28,48.23-39.19,50.45-41.41,5.28-5.31,66.95-65.9,132.81-60.7,13.6,1.09,43.7,6.25,77.31,38.66,10.06,14.21,18.42,18.31,36.43,15.98,57.84-7.46,112.01,6.18,162.01,36.29,5.54,3.32,11.3,6.37,17.26,8.93,11.11,4.82,24.71.87,31.91-8.82,3.58-4.82,4.37-9.91,1.88-15.45-2.3-5.16-6.93-4.9-11.38-4.86-4.14.08-8.25-.3-12.09-1.96-6.93-3.05-10.78-8.55-11-15.98-.08-2.41.41-4.45,1.28-6.18,2.56-5.01,8.21-6.93,10.4-7.61,13.82-4.45,48.83,13.19,67.21,44.5,6.48,11.04,6.9,17.22,5.28,22.01-1.93,5.54-7.58,9.8-17.41,13.98-5.31,2.26-10.93,3.99-16.54,5.43-5.8,1.47-6.37,3.58-2.52,8.1,9.38,11,16.46,23.51,23.77,35.91,14.13,23.89,18.39,49.85,16.84,77.05-1.36,23.25-15.71,37.27-38.88,40.47-28.86,3.99-54.03-5.95-78.25-19.44-40.05-22.31-75.32-51.02-108.21-82.78-5.43-5.24-10.29-11.04-13.68-17.86-2.71-5.43-3.54-11.11-2.86-16.39,1.51-11.76,11.11-18.84,12.81-20.08,18.65-13.83,50.3-4.37,65.37,11.15,2.52,2.6,7.68,9.57,9.98,19.37,2.71,11.68-5.99,19.48-17.55,15.94-4.87-1.47-9.27-4.33-13.98-6.37-4.9-2.15-10.78-6.41-14.88-.83-3.96,5.31,1.01,10.21,4.63,14.36,21.25,24.38,47.09,42.62,75.84,57.01,9.08,4.56,18.54,6.71,28.71,6.52,24.79-.49,38.47-14.05,39.52-38.88,1.28-30.41-12.17-54.56-33-74.61-35.3-33.95-79.35-47.18-127.12-50.08-6.48-.41-13.07.3-19.52-.53-30.89-3.96-58.24,7.57-83.75,21.85-21.97,12.32-40.35,39.79-17.71,72.8,25.32,36.93,56.33,67.67,98.19,86.32,40.01,17.82,80.4,34.82,118.19,57.35,41.55,24.76,78.14,54.75,102.1,97.44,9.23,16.39,13.82,33.38,13.07,50.49-.75,17.82-7.01,30.82-10.51,37.87-18.01,36.47-51.09,53.39-61.98,58.78-9.12,4.52-37.49,17.26-93.17,14.88-85.37-3.62-111.86-37.6-191.36-41.9-34.85-1.88-71.58,0-71.58,0-17.97.91-33.31,2.37-45.21,3.77-.08.98-.31,2.26-.87,3.65-1.17,3.02-3.43,4.6-3.65,5.24-8.93,22.38-26.6,37.83-42.92,54.33-1.66,1.7-3.77,2.98-5.76,4.26-26.34,16.77-55.84,20.23-85.79,17.93-23.85-1.81-41.75-38.4-30.59-59.35,1.24-2.3,3.5-4.18,5.53-5.95,22.76-19.86,48.8-32.71,79.01-36.21,20.42-2.37,40.8-4.64,61.26-6.52,6.97-.64,11.23-2.79,12.7-10.36,1.73-8.7,4.78-17.14,7.2-25.7.52-1.88,2.26-4.18.6-5.73-2.15-2-4.45.19-6.48,1.17-9.84,4.82-19.29,10.25-30.48,11.79-11.34,1.55-22,2.41-28.33-10.06-2.42-4.75-4.26-.41-6.07.94-10.17,7.54-20.8,13.64-33.19,17.71-28.22,9.27-56.89-15.83-53.73-46.5,1.21-11.64,5.28-22.72,12.85-31.99,15.03-18.42,43.55-16.99,56.4,2.75,4.41,6.78.19,12.51-3.88,16.43-5.88,5.65-13.38,6.56-20.38.64-8.29-6.97-9.84-6.52-12.96,3.47-5.2,16.8-3.88,22.95,6.21,28.67,14.21,8.06,34.55,5.54,44.72-5.61,3.96-4.33,7.01-9.16,9.08-14.77,9.08-24.76,28.37-36.55,53.05-41.52,17.9-3.58,36.17-1.77,54.14-3.81,5.77-.64,5.96,2.45,5.8,6.74-.37,12.59-6.55,23.55-9.57,35.42-1.5,5.99-4.48,11.72,1.47,16.99,5.54,4.86,11.04,3.73,17.03.75,6.86-3.39,14.32-4.52,20.05-11.27,6.93-8.14,11.15-15.22,8.14-26.45-2.15-7.99,6.25-16.88,15.25-19.22,8.1-2.11,11.99,2.75,15.34,8.82,3.01,5.46,1.66,10.1-2.98,13.6-11.34,8.63-6.06,21.55-8.55,32.44-.6,2.71,2.67,3.43,5.31,3.2,6.22-.49,11.42-3.2,14.51-8.52,12.92-22.19,31.76-41.26,32.96-69.44.53-12.13,5.92-23.85,13.08-34.21,6.55-9.53,18.5-13.26,28.78-8.7,5.73,2.56.94,5.73-.19,8.03-11.71,23.96-23.28,48-35.79,71.59-5.8,10.93-5.61,22.35-6.18,33.91-.26,5.16,3.09,7.31,7.35,8.48,5.09,1.4,11.15,5.5,15.03-.57,13.68-21.29,32.89-39.71,35.27-67.11.6-6.74,2.67-13.41,4.74-19.93,6.22-19.67,8.18-20.8,28.79-21.67,7.57-.3,8.33,2.49,5.35,8.44-10.4,20.8-20.12,41.94-31.23,62.36-5.77,10.55-5.39,21.7-7.01,32.74-.57,3.88,1.17,5.88,5.27,5.27,5.73-.83,9.8,2.68,13.83,5.73,4.14,3.13,8.02,6.93,5.95,12.96-.49,1.39-1.17,2.52-1.99,3.43-2.91,3.13-7.92,3.58-9.54,3.69-25.73,1.85-28.18,3.02-32.02.04-7.73-5.95-10.06-10.02-10.06-10.02-2.9-5.46-5.28-4.18-8.21-1.58-2.94,2.56-6.86,3.73-10.29,5.65-6.74,3.81-21.78,7.01-30.25.64-7.28-5.43-9.5-9.5-9.5-9.5-2.86-5.84-5.16-4.22-9.23-2.41-8.36,3.73-15.79,9.68-25.35,10.74-6.79.75-12.48-.38-15.34-7.2-1.43-3.39-3.35-4.37-4.03-4.75-3.13-1.66-6.52,2.52-13.22,5.61-10.06,4.63-25.21,5.77-27.4,5.92-1.01.08-3.76.23-5.91,2.19-1.51,1.39-2.04,3.09-2.26,3.77-1.28,3.96-4.79,13.19-9.65,25.81,88.73-10.17,149.09-.19,188.38,11.3,8.78,2.56,48.42,14.54,99.02,13.68,17.97-.3,43.78-.64,69.55-15.11,12.62-7.08,25.2-13.11,34.36-24.83,16.39-20.95,13.71-44.65,11.68-68.8-4.71-56.07-43.86-84.22-87.45-108.14-24.26-13.3-49.88-24.27-76.44-32.56-30.22-9.42-59.31-21.93-86.28-38.09-31.8-19.07-56.63-45.71-68.95-81.5-13.52-39.45,1.88-78.3,39.94-105.01,10.96-7.69,11.34-11.57.98-20.76-15.26-13.53-33.69-15.86-53.01-13.56-11.12,1.32-28.03,4.11-56.52,20.54-19.33,11.15-32.96,21.55-36.58,24.34-36.89,28.52-55.31,42.8-69.1,65.41-3.8,6.25-28.44,47.82-16.8,83.76,1.96,6.1,6.14,18.8,17.89,24.49,5.96,2.86,13,3.5,20.76,1.81,13.38-2.94,16.09-8.74,9.61-20.35-5.73-10.32-8.51-21.06-3.13-32.37,4.64-9.76,11.72-11.83,21.06-6.52,19.41,11.04,26.3,42.92,13.3,61.38-25.05,35.53-70.94,30.94-93.88-9.23-16.39-28.71-16.02-58.22-4.26-88.06,3.54-8.97,3.16-11.38-7.54-11-38.65,1.32-68.57-17.29-92.57-45.4-31.27-36.59-69.43-63.08-114.5-78.41-23.92-8.14-49.43-11.04-74.48-1.21-9.95,3.88-10.55,4.45-2.68,11.04,14.47,12.13,17.67,27.36,12.4,44.5-5.65,18.31-12.24,36.47-25.73,50.87-4.79,5.12-3.62,9.16,1.02,12.96,21.48,17.63,43.29,34.51,69.17,45.67,26.14,11.27,53.35,11.61,79.64,5.39,24.23-5.76,27.28-16.54,15.34-36.66-14.21-23.96-38.54-35.08-62.77-45.71-2.6-1.13-13.41.04-15.64,5.28-1.54,3.69,1.51,8.93,3.62,12.51,2.07,3.54,5.58,7.72,7.2,9.95,2.56,3.58,6.25,6.97,2.18,11.72-3.92,4.56-8.4,8.55-14.92,7.16-12.02-2.64-22.79-8.06-30.06-18.24-10.44-14.54-2.22-36.81,16.31-44.61,13.6-5.73,27.84-4.94,41.26-.19,30.89,10.97,57.11,29.31,79.08,53.66,5.95,6.59,8.85,14.73,10.59,23.1,2.6,12.43-5.43,24.64-20.35,32.07-17.71,8.78-36.77,10.36-56.02,9.5-54.03-2.37-99.09-26.72-140.69-58.78-6.14-4.75-10.02-4.37-15.97-.23-38.13,26.53-79.95,43.82-126.78,45.29-23.85.75-47.92-.3-67.55-18.09-7.5-6.78-8.74-14.28-7.05-22.87,1.85-9.23,6.63-17.07,13.45-23.78,20.83-20.46,44.87-35.95,72.22-46.05,13.75-5.09,28.11-6.44,42.35-1.81,15.03,4.86,26.15,21.33,23.13,33.5-3.43,13.79-25.17,28.83-38.81,26.83-10.62-1.54-14.09-9.57-7.91-18.5,1.92-2.79,4.18-5.39,6.22-8.1,3.69-5.01,5.58-7.54,5.35-9.31-.6-4.48-10.02-7.31-16.24-8.06-31.76-3.88-58.7,36.4-61.07,39.64-16.39,22.12-10.36,34.29,17.18,39.41,52.63,9.72,96.71-9.87,136.05-43.3,4.07-3.43,3.58-6.4,1.24-10.62-6.93-12.62-12.47-25.89-16.8-39.64-6.63-21.1-2.6-39.04,15.26-53.32,8.89-7.12,8.18-10.25-2.67-14.13-35.49-12.66-70.12-6.97-102.48,8.93-34.02,16.73-65.78,36.85-91.44,66.43-23.89,27.54-55.31,43.63-93.4,41.6-9.23-.49-8.33,2.71-5.73,9.16,10.47,25.77,12.89,51.58-.07,77.51-7.84,15.67-19.71,27.09-35.04,34.85-16.92,8.59-38.77,3.99-55.05-10.85-14.01-12.81-18.12-30.11-10.96-48.68,3.35-8.74,10.74-14.24,18.65-18.24,10.1-5.09,19.06.72,21.21,13.07,1.73,10.02-.98,19.22-7.12,27.05-5.35,6.78-2.15,10.44,3.62,13.75,12.85,7.39,30.74,3.69,39.67-8.18,5.95-7.91,8.48-17.07,9.65-26.75,4.75-39.6-16.62-78.15-52.9-94.8-6.07-2.79-10.78-6.71-15.45-11.42-31.61-31.91-66.69-58.03-112.92-64.24-20.04-2.68-39.11-.15-54.89,13.9-9.19,8.21-8.48,11.23,1.7,18.12,28.56,19.41,47.77,44.2,44.8,80.94-1.77,21.74-12.96,39.26-26.11,55.92-23.62,29.88-56.1,46.38-90.27,60.29-38.01,15.41-77.95,25.85-115.02,43.9-22.98,11.19-43.89,24.94-62.47,42.65-7.95,7.61-14.09,15.68-18.69,24.19-5.05,9.35-25.73,45.1-10.25,81.12,2.34,5.43,11.68,27.17,33.31,35.95,0,0,35,14.21,111.33-60.74.53-.49,1.88-1.85,1.58-3.2-.23-1.05-1.47-1.85-3.35-2.45-21.02-6.9-28.26-23.4-29.27-43.45-.83-16.35,2.83-31.99,12.06-45.86,3.28-4.94,7.27-9.19,13.75-9.76,6.56-.57,10.55,1.77,10.51,9.08-.08,10.25-1.02,20.65.45,30.67,1.92,13.15,12.28,21.59,21.21,30.33,2.86,2.83,5.61-.72,7.57-3.01,6.03-7.01,12.58-13.68,17.75-21.29,25.17-37.04,56.02-68.88,88.43-99.55,27.95-26.45,57.91-50.19,88.43-73.4,4.9-3.73,9.04-8.4,13.98-12.02,6.82-4.97,14.05-1.51,14.36,6.93.23,6.93-1.36,13.56-6.07,19.14-5.95,7.08-11.15,14.88-17.71,21.33-29.76,29.28-44.31,66.13-53.01,105.81-2.79,12.66-4.11,25.66-5.88,38.51-.94,6.82,1.06,9.53,9.12,8.63,34.77-3.88,66.91-16.62,99.32-28.45,24.11-8.82,47.13-20.42,70.94-29.88,36.7-14.62,70.27-35.16,105.3-52.83,46.15-23.25,94.57-35.42,145.88-37.53,7.16-.3,14.28-1.54,21.36-2.6,19.74-2.98,38.96-.04,55.2,10.97,23.13,15.67,46.61,30.48,71.66,42.84,5.5,2.71,9.53,7.05,11.11,12.85,1.96,7.16,4.9,7.91,11.45,4.56,20.53-10.48,41.78-11.34,63.71-3.96,10.47,3.5,18.31,10.55,26.49,17.22,3.84,3.13,6.82,4.48,11.83,2.41,21.96-9.01,45.06-13.9,68.49-17.33,29.24-4.29,47.93,17.3,39.71,45.82-2.18,7.61-5.01,14.88-8.55,21.97-18.35,36.62-24.98,75.02-17.59,115.64,3.39,18.61-2.26,28.37-18.13,33.95-19.29,6.78-41.74-11.34-37.86-31.46,3.8-19.78,7.38-39.75,14.32-58.82,10.32-28.3,14.8-57.61,16.72-87.46.87-13.26-3.84-17.6-17.03-15.45-6.36,1.05-12.62,3.09-18.8,4.97-14.95,4.56-24.45,10.81-24.26,30.37.19,23.06-10.06,45.22-16.92,67.45-5.68,18.43-10.62,36.81-10.32,56.29.15,12.06-6.25,21.06-16.95,24.45-9.72,3.09-19.6-1.43-27.32-8.14-6.29-5.5-5.46-12.47-2.37-19.74,18.95-44.39,24.71-91.68,29.5-139.08,1.96-19.56-15.19-31.01-33.38-22.8-3.43,1.55-6.93,2.64-10.44,3.84-13.26,4.6-23.21,10.51-26.37,27.2-5.09,26.79-15.9,52.38-18.35,79.88-1.13,12.66-2.75,25.36-1.21,37.94,1.85,15.15-6.59,26.22-13.49,37.68-4.33,7.23-42.88,5.46-47.7-1.39-3.5-5.01-2.37-9.95.11-15.41,10.1-22.04,23.89-42.47,28.78-66.77,1.36-6.71,2.94-13.38,4.82-19.97,7.04-24.68,6.63-48.57-2.22-73.32-6.41-17.9-11.04-35.68-26.75-48.31-6.25-5.01-12.09-9.72-20.04-11.72-14.28-3.54-28.33-8.06-42.69-11.23-24.26-5.31-47.66.57-70.79,7.12-70.68,19.93-138.12,48.12-204.73,78.9-51.58,23.81-106.17,40.13-160.35,57.12-15.86,4.97-15.94,5.2-14.73,22.23,1.17,16.39,2.3,32.78,4.14,49.1,1.62,14.43-6.59,26.75-19.4,27.62-9.72.68-22.04-12.74-21.66-24.57.23-7.46,1.7-14.96,3.05-22.34,1.85-10.1,4.11-20.12,6.22-30.18,3.13-14.96,3.2-13.38-11.98-12.47-30.63,1.81-59.11,15-89.82,15.79-4.41.11-6.74,2.94-8.97,5.95-20.83,28.22-47.1,51.4-71.7,76.08-11.42,11.49-25.32,21.36-39.79,26.45-5.92,2.07-22.08,7.8-40.88,5.58-45.32-5.42-69.06-52.56-70.98-56.52-17.29-35.68-11.15-75.1,3.99-100.87,5.2-8.89,11.15-14.81,22.76-26.94,17.86-18.65,38.02-34.59,60.47-48.27,39.37-23.96,81.61-41.98,124.22-58.82,42.54-16.84,75.73-44.99,102.82-80.71,22.64-29.88,13.75-60.17-20.04-76.57-50.79-24.6-102.59-20.65-154.96-7.23-21.17,5.43-40.58,14.69-57.95,27.77-22.38,16.84-39.75,37.08-44.19,66.39-7.38,48.61,28.29,57.12,57.42,48.12,26.56-8.21,50-23.7,70.68-42.73,6.29-5.8,12.28-11.91,18.09-18.2,2.52-2.75,4.56-6.48,1.81-10.25-2.82-3.96-6.74-2.49-10.25-1.02-5.35,2.26-10.55,4.9-15.86,7.23-6.56,2.86-12.92,2.49-18.12-2.6-5.46-5.28-3.17-11.57-.64-17.22,4.79-10.81,12.7-18.69,24.11-22.38,12.17-3.92,24.87-5.39,37.52-4.75,20.12,1.05,31.27,22.76,20.91,39.98-2.26,3.77-4.97,7.5-8.14,10.51-40.31,38.06-83.75,71.63-135.37,93.33-18.35,7.73-37.15,10.78-57.19,7.8C14.47,280.58,1.74,266.68.23,242.9c-2.45-39.3,14.73-70.95,38.17-100.08,5.99-7.42,7.12-10.29-3.73-12.17-6.93-1.21-13.68-4.41-20.08-7.61-10.4-5.16-13-11.08-8.55-21.85,10.25-24.83,30.63-39.75,53.46-51.66,5.09-2.64,11.45-1.28,17.1.64,6.48,2.22,12.36,5.2,12.06,13.26-.3,8.59-5.31,13.9-13.45,16.01-3.24.83-6.78.75-10.21.75-4.67,0-9.16.49-10.93,5.65-1.62,4.79-1.17,9.42,2.03,13.6,6.59,8.74,21.14,13.23,31.31,8.78,9.68-4.22,19.33-8.74,28.52-13.94,41.11-23.21,85.86-30.6,132.24-31.31,11-.15,22.08.72,32.55,3.66,7.57,2.11,10.74-.15,14.85-6.03,21.74-31.16,49.02-52.64,89.93-48.12,18.46,2.03,36.24,7.01,53.88,12.7,22.15,7.12,41.67,18.88,59.64,33.5,25.24,20.5,50.64,40.85,77.5,59.23,3.69,2.52,7.46,4.63,11.94,5.61,39.52,8.67,87.22-23.06,94.08-62.7,3.35-19.25-5.54-31.35-24.75-33.72-20.38-2.49-34.81,7.12-40.73,27.43-1.81,6.25-6.55,7.46-11.87,7.61-14.39.41-26.03-14.39-22.72-28.9,2.98-13.08,11.72-21.36,23.43-26.87,28.07-13.19,77.42-5.09,99.46,16.47,5.88,5.73,10.32,11.98,11.23,21.06,1.36,13.83,2.07,13.53,14.05,6.67,26.22-15.03,53.12-28.45,83.42-33.38,32.63-5.35,64.12-2.52,94.04,12.28,3.47,1.7,6.03,1.88,9.49.34,45.32-19.82,90.05-16.32,134.16,3.99,17.11,7.88,33.54,16.96,50.23,28.18h.03ZM288.49,413.33c16.24,0,31.91-3.69,47.55-7.42,11.72-2.79,17.37-9.76,19.7-21.67,4.56-23.36,10.55-46.5,7.65-70.65-.3-2.64,1.36-6.44-.9-7.69-3.39-1.85-5.16,2.3-7.23,4.22-28.3,26-53.99,54.3-76.11,85.76-3.8,5.43-12.47,11.53-9.76,16.5,2.79,5.12,12.51.83,19.14.98l-.04-.04Zm967.3,204c2.15-.79,5.12-1.58,7.87-2.86,21.97-10.51,34.1-31.01,48.91-48.68,4.03-4.82-1.28-4.41-4.07-4.45-15.11-.15-30.03,1.21-44.61,5.54-12.24,3.65-24,8.21-32.89,17.9-8.4,9.19-4.75,24.72,6.89,28.64,5.47,1.85,11.34,2.53,17.9,3.88v.04ZM926.54,92.18c.49-8.33-2.86-15.22-7.42-21.89-4.11-6.07-7.2-6.41-12.4-.72-16.95,18.65-14.28,39.19-3.05,62.96,2.79,5.92,6.33,3.92,9.12-.23,8.14-12.13,13.15-25.4,13.75-40.13Zm387.8,386.15c15.67.15,35.9-14.05,40.88-28.3,1.88-5.39-.42-7.23-5.24-6.26-15.71,3.2-28.93,11.45-40.92,21.67-3.01,2.56-2.9,6.93-1.65,10.55,1.16,3.35,4.59,1.88,6.89,2.34h.04Z"/>
  <path class="cls-2" d="m482.19,451.69c9.79-7.08,18.05-14.28,29.24-16.77,18.65-4.11,29.8,6.22,25.81,24.53-1.88,8.67-4.41,17.22-6.14,25.92-1.36,6.82.49,10.59,8.74,8.36,18.2-4.94,28.03-18.84,25.73-37.23-1.05-8.67,5.16-17.56,14.09-20.27,8.21-2.49,12.89,1.73,16.5,8.4,3.32,6.07.94,10.36-3.62,14.39-10.1,8.93-4.71,21.25-6.63,31.95-.53,2.9,3.35,2.52,5.69,2.49,7.91-.15,12.36-5.54,15.98-11.42,7.84-12.85,15.18-26,22.76-39,4.11-7.08,4.41-15,5.2-22.8,1.92-19.26,8.63-36.55,21.14-51.43,4.56-5.43,18.61-5.5,22.76-.11,2.49,3.24-.15,5.8-1.36,8.44-11.79,25.43-23.4,50.98-35.6,76.19-5.39,11.15-4.07,22.68-4.15,34.25,0,4.86,3.35,6.74,7.46,6.52,5.43-.34,12.85,3.58,15.75-3.13,2.98-6.86,6.97-13.68,4.82-22.46-2.6-10.55,2.64-16.73,13.22-19.14,4.29-.98,8.44-1.51,10.78,3.01,2.11,4.11,5.31,8.59,1.21,13.26-6.1,6.97-3.16,15.79-5.09,23.63-.79,3.13,2.11,5.65,4.97,5.05,8.89-1.88,19.29-2.75,22.72-13.04,9.46-28.56,32.63-37.57,58.77-42.88,14.99-3.05,20.2,1.58,24.04,18.35,1.85,7.95,2.64,16.13,4.14,24.19,1.32,7.05,4.71,11.3,12.77,8.21,1.88-.72,3.96-1.13,5.99-1.36,6.29-.68,10.74,2.45,13.19,7.76,2.64,5.73-.79,9.76-5.24,13.04-15.52,11.42-34.06,6.18-41.63-12.7-3.35-8.33-5.09-9.68-10.85-1.81-4.82,6.56-10.7,12.51-16.84,17.9-12.62,11.08-34.36,8.59-44.01-4.94-2.75-3.84-4.94-3.81-8.29-1.28-4.9,3.69-10.02,7.08-15.03,10.66-10.32,7.31-22.53,5.09-28.6-5.95-2.79-5.09-5.09-3.96-8.7-1.55-6.86,4.56-13.83,8.97-22.57,8.82-9.87-.19-17.14-5.12-21.63-13.3-2.45-4.48-4.22-3.81-7.76-2.07-7.69,3.69-14.54,8.97-22.91,11.42-9.23,2.71-16.5.9-19.97-8.7-2-5.54-4.03-5.43-7.31-1.36-6.9,8.59-15.9,13.94-26.37,16.84-11.94,3.35-17.41-.68-18.84-12.96-.87-7.61,1.77-14.2,4.94-20.69,5.73-11.76,6.44-24.34,7.08-37,.3-5.61-1.77-5.39-5.99-3.73-16.01,6.18-30.74,29.96-29.05,47.29.68,6.9.23,13.75-3.09,19.97-3.66,6.9-9.95,10.36-17.11,7.16-6.67-2.98-9.57-8.52-6.52-16.92,5.31-14.47,8.59-29.5,7.72-45.25-.34-5.92-2.64-10.25-7.61-12.25-5.39-2.15-7.8,3.09-10.21,6.44-9.5,13.38-19.37,26.6-15.98,44.8,1.13,6.07-1.73,11.61-7.23,14.88-5.24,3.13-11.04,4.48-16.39.41-5.05-3.84-2.26-8.85-.83-13.19,3.09-9.42,7.16-18.54,9.76-28.11,2.52-9.42,2.75-19.18-5.01-26.79-3.16-3.09-5.91-5.95-4.22-10.55,1.88-5.01,6.03-7.46,11.19-7.57,4.33-.08,8.89-.34,11.49,4.75,2.75,5.35,3.32,13.94,8.55,15.18,3.65.87,8.93-6.29,13.83-9.27,15.37-9.35,27.09-3.99,30.29,14.51l.04-.04Zm293.61,6.52c-13.19,3.2-23.17,9.08-31.23,18.05-2.75,3.05-8.06,6.63-4.41,11,3.43,4.11,9.65,3.5,14.13.6,10.4-6.78,17.74-16.09,21.55-29.65h-.04Z"/>
  <path class="cls-1" d="m1442.1,417.17c-6.97-.53-14.02-1.62-15.11-10.4-1.09-8.82,5.09-11.79,12.36-13.34,12.17-2.6,21.32,1.62,24.45,10.74,2.19,6.44.11,9.91-6.29,11-5.05.83-10.14,1.36-15.37,2.04l-.04-.04Z"/>
  <path class="cls-2" d="m582.37,423.46c-3.28-.34-6.82-.15-9.98-1.17-6.59-2.11-9.72-10.36-5.88-15.86,5.2-7.42,13.3-7.31,21.29-6.82,7.08.45,12.09,3.43,14.39,10.78,1.85,5.88.53,9.31-5.54,10.51-4.67.94-9.38,1.7-14.24,2.56h-.04Z"/>
  <path class="cls-2" d="m689.71,434.5c-3.88-.6-7.76-1.09-11.64-1.66-2.64-.38-5.05-1.55-6.18-4.07-2.11-4.6-.83-12.06,3.8-14.58,6.93-3.77,16.35-3.13,23.4-.15,5.88,2.49,10.59,7.5,7.99,14.28-2.45,6.52-11.75,5.69-17.41,6.18h.04Z"/>
</svg>