<svg width="1821" height="644" viewBox="0 0 1821 644" fill="none" xmlns="http://www.w3.org/2000/svg">
<g clip-path="url(#clip0_159_302)">
<path d="M1102.06 61.9462C1108.24 24.6052 1131.41 4.48404 1170.33 1.69572C1183.71 0.716032 1197.12 1.20587 1209.93 5.76517C1223.53 10.5882 1233.7 19.1793 1238.04 33.4977C1242.37 47.8162 1234.99 62.2477 1221.23 66.2795C1211.63 69.1055 1205.22 65.0737 1203.71 55.3145C1201.08 38.3208 1184.05 27.7704 1163.06 30.1442C1145.32 32.1413 1137.29 42.2395 1138.27 61.3057C1139.78 90.7339 1164.31 118.693 1196.67 128.376C1218.67 134.97 1237.96 133.84 1256.76 117.374C1287.96 90.0933 1304.99 78.1864 1307.21 75.9632C1312.49 70.6503 1374.16 10.0607 1440.02 15.2606C1453.62 16.3533 1483.72 21.5155 1517.33 53.9204C1527.39 68.1258 1535.75 72.2329 1553.76 69.8967C1611.6 62.4361 1665.77 76.0763 1715.77 106.183C1721.31 109.499 1727.07 112.551 1733.03 115.113C1744.14 119.936 1757.74 115.98 1764.94 106.296C1768.52 101.473 1769.31 96.3859 1766.82 90.8469C1764.52 85.6847 1759.89 85.9485 1755.44 85.9862C1751.3 86.0615 1747.19 85.6847 1743.35 84.0268C1736.42 80.9747 1732.57 75.4734 1732.35 68.0504C1732.27 65.6389 1732.76 63.6042 1733.63 61.8709C1736.19 56.8594 1741.84 54.9377 1744.03 54.2595C1757.85 49.8132 1792.86 67.4475 1811.24 98.7597C1817.72 109.8 1818.14 115.98 1816.52 120.765C1814.59 126.304 1808.94 130.562 1799.11 134.744C1793.8 137.005 1788.18 138.738 1782.57 140.17C1776.77 141.64 1776.2 143.75 1780.05 148.271C1789.43 159.274 1796.51 171.784 1803.82 184.181C1817.95 208.07 1822.21 234.031 1820.66 261.236C1819.3 284.485 1804.95 298.502 1781.78 301.705C1752.92 305.699 1727.75 295.751 1703.53 282.262C1663.48 259.955 1628.21 231.243 1595.32 199.479C1589.89 194.241 1585.03 188.438 1581.64 181.618C1578.93 176.192 1578.1 170.503 1578.78 165.227C1580.29 153.471 1589.89 146.387 1591.59 145.144C1610.24 131.315 1641.89 140.773 1656.96 156.297C1659.48 158.897 1664.64 165.868 1666.94 175.665C1669.65 187.346 1660.95 195.145 1649.39 191.604C1644.52 190.134 1640.12 187.27 1635.41 185.236C1630.51 183.088 1624.63 178.83 1620.53 184.407C1616.57 189.72 1621.54 194.618 1625.16 198.763C1646.41 223.142 1672.25 241.379 1701 255.773C1710.08 260.332 1719.54 262.48 1729.71 262.291C1754.5 261.802 1768.18 248.237 1769.23 223.406C1770.51 192.998 1757.06 168.845 1736.23 148.799C1700.93 114.849 1656.88 101.623 1609.11 98.722C1602.63 98.3076 1596.04 99.0235 1589.59 98.1945C1558.7 94.2381 1531.35 105.768 1505.84 120.049C1483.87 132.37 1465.49 159.839 1488.13 192.847C1513.45 229.774 1544.46 260.52 1586.32 279.172C1626.33 296.995 1666.72 313.989 1704.51 336.521C1746.06 361.277 1782.65 391.271 1806.61 433.962C1815.84 450.353 1820.43 467.347 1819.68 484.454C1818.93 502.276 1812.67 515.276 1809.17 522.322C1791.16 558.796 1758.08 575.715 1747.19 581.103C1738.07 585.625 1709.7 598.361 1654.02 595.987C1568.65 592.369 1542.16 558.382 1462.66 554.086C1427.81 552.202 1391.08 554.086 1391.08 554.086C1373.11 554.991 1357.77 556.46 1345.87 557.854C1345.79 558.834 1345.56 560.115 1345 561.509C1343.83 564.524 1341.57 566.106 1341.35 566.747C1332.42 589.129 1314.75 604.578 1298.43 621.082C1296.77 622.777 1294.66 624.058 1292.67 625.34C1266.33 642.107 1236.83 645.574 1206.88 643.275C1183.03 641.467 1165.13 604.879 1176.29 583.929C1177.53 581.631 1179.79 579.747 1181.82 577.976C1204.58 558.118 1230.62 545.269 1260.83 541.765C1281.25 539.391 1301.63 537.13 1322.09 535.246C1329.06 534.606 1333.32 532.458 1334.79 524.884C1336.52 516.18 1339.57 507.74 1341.99 499.186C1342.51 497.302 1344.25 495.004 1342.59 493.459C1340.44 491.462 1338.14 493.648 1336.11 494.627C1326.27 499.45 1316.82 504.876 1305.63 506.421C1294.29 507.966 1283.63 508.833 1277.3 496.36C1274.88 491.613 1273.04 495.946 1271.23 497.302C1261.06 504.838 1250.43 510.943 1238.04 515.012C1209.82 524.281 1181.15 499.186 1184.31 468.515C1185.52 456.872 1189.59 445.794 1197.16 436.524C1212.19 418.099 1240.71 419.531 1253.56 439.275C1257.97 446.057 1253.75 451.785 1249.68 455.704C1243.8 461.356 1236.3 462.26 1229.3 456.344C1221.01 449.373 1219.46 449.825 1216.34 459.811C1211.14 476.616 1212.46 482.758 1222.55 488.485C1236.76 496.549 1257.1 494.024 1267.27 482.871C1271.23 478.538 1274.28 473.715 1276.35 468.1C1285.43 443.344 1304.72 431.551 1329.4 426.577C1347.3 422.997 1365.57 424.806 1383.54 422.771C1389.31 422.131 1389.5 425.22 1389.34 429.516C1388.97 442.101 1382.79 453.066 1379.77 464.935C1378.27 470.926 1375.29 476.654 1381.24 481.929C1386.78 486.79 1392.28 485.659 1398.27 482.683C1405.13 479.291 1412.59 478.161 1418.32 471.416C1425.25 463.277 1429.47 456.193 1426.46 444.965C1424.31 436.977 1432.71 428.084 1441.71 425.748C1449.81 423.638 1453.7 428.499 1457.05 434.565C1460.06 440.029 1458.71 444.663 1454.07 448.168C1442.73 456.796 1448.01 469.721 1445.52 480.61C1444.92 483.323 1448.19 484.039 1450.83 483.813C1457.05 483.323 1462.25 480.61 1465.34 475.297C1478.26 453.104 1497.1 434.037 1498.3 405.853C1498.83 393.72 1504.22 382.001 1511.38 371.639C1517.93 362.106 1529.88 358.376 1540.16 362.935C1545.89 365.497 1541.1 368.662 1539.97 370.961C1528.26 394.926 1516.69 418.965 1504.18 442.553C1498.38 453.48 1498.57 464.898 1498 476.465C1497.74 481.627 1501.09 483.775 1505.35 484.943C1510.44 486.338 1516.5 490.445 1520.38 484.378C1534.06 463.089 1553.27 444.663 1555.65 417.27C1556.25 410.525 1558.32 403.856 1560.39 397.337C1566.61 377.668 1568.57 376.538 1589.18 375.671C1596.75 375.37 1597.51 378.158 1594.53 384.111C1584.13 404.911 1574.41 426.049 1563.3 446.472C1557.53 457.022 1557.91 468.176 1556.29 479.216C1555.72 483.097 1557.46 485.094 1561.56 484.491C1567.29 483.662 1571.36 487.167 1575.39 490.219C1579.53 493.346 1583.41 497.152 1581.34 503.181C1580.85 504.575 1580.17 505.705 1579.35 506.609C1576.44 509.737 1571.43 510.189 1569.81 510.302C1544.08 512.148 1541.63 513.317 1537.79 510.34C1530.06 504.386 1527.73 500.317 1527.73 500.317C1524.83 494.853 1522.45 496.134 1519.52 498.734C1516.58 501.297 1512.66 502.465 1509.23 504.386C1502.49 508.192 1487.45 511.395 1478.98 505.027C1471.7 499.601 1469.48 495.531 1469.48 495.531C1466.62 489.691 1464.32 491.311 1460.25 493.12C1451.89 496.85 1444.46 502.804 1434.9 503.859C1428.11 504.612 1422.42 503.482 1419.56 496.662C1418.13 493.271 1416.21 492.291 1415.53 491.914C1412.4 490.256 1409.01 494.439 1402.31 497.529C1392.25 502.163 1377.1 503.294 1374.91 503.444C1373.9 503.52 1371.15 503.67 1369 505.63C1367.49 507.024 1366.96 508.72 1366.74 509.398C1365.46 513.354 1361.95 522.586 1357.09 535.209C1445.82 525.035 1506.18 535.02 1545.47 546.513C1554.25 549.075 1593.89 561.057 1644.49 560.191C1662.46 559.889 1688.27 559.55 1714.04 545.081C1726.66 537.997 1739.24 531.968 1748.4 520.25C1764.79 499.3 1762.11 475.599 1760.08 451.446C1755.37 395.378 1716.22 367.231 1672.63 343.304C1648.37 330.003 1622.75 319.038 1596.19 310.748C1565.97 301.328 1536.88 288.818 1509.91 272.654C1478.11 253.587 1453.28 226.948 1440.96 191.151C1427.44 151.7 1442.84 112.852 1480.9 86.1369C1491.86 78.4501 1492.24 74.5691 1481.88 65.3751C1466.62 51.848 1448.19 49.5118 1428.87 51.8103C1417.75 53.1291 1400.84 55.9174 1372.35 72.346C1353.02 83.4993 1339.39 93.899 1335.77 96.6873C1298.88 125.211 1280.46 139.492 1266.67 162.1C1262.87 168.355 1238.23 209.916 1249.87 245.863C1251.83 251.967 1256.01 264.665 1267.76 270.355C1273.72 273.219 1280.76 273.859 1288.52 272.164C1301.9 269.225 1304.61 263.422 1298.13 251.816C1292.4 241.492 1289.62 230.753 1295 219.449C1299.64 209.69 1306.72 207.618 1316.06 212.93C1335.47 223.971 1342.36 255.848 1329.36 274.311C1304.31 309.844 1258.42 305.247 1235.48 265.08C1219.09 236.368 1219.46 206.864 1231.22 177.021C1234.76 168.053 1234.38 165.642 1223.68 166.019C1185.03 167.338 1155.11 148.724 1131.11 120.614C1099.84 84.0268 1061.68 57.5377 1016.61 42.2019C992.69 34.0629 967.184 31.1616 942.129 40.9961C932.183 44.8771 931.58 45.4423 939.454 52.0364C953.922 64.1694 957.124 79.3921 951.85 96.5366C946.198 114.849 939.605 133.011 926.117 147.405C921.332 152.529 922.5 156.561 927.134 160.367C948.609 178.001 970.424 194.882 996.307 206.035C1022.45 217.301 1049.66 217.641 1075.95 211.423C1100.18 205.658 1103.23 194.882 1091.29 174.761C1077.08 150.796 1052.75 139.68 1028.52 129.055C1025.92 127.924 1015.11 129.092 1012.88 134.33C1011.34 138.022 1014.39 143.26 1016.5 146.84C1018.57 150.381 1022.08 154.564 1023.7 156.787C1026.26 160.367 1029.95 163.758 1025.88 168.506C1021.96 173.065 1017.48 177.059 1010.96 175.665C998.945 173.027 988.169 167.601 980.898 157.428C970.461 142.883 978.675 120.614 997.211 112.814C1010.81 107.087 1025.05 107.878 1038.47 112.626C1069.36 123.591 1095.58 141.941 1117.55 166.283C1123.5 172.877 1126.4 181.015 1128.14 189.38C1130.74 201.815 1122.71 214.023 1107.79 221.446C1090.08 230.226 1071.02 231.808 1051.77 230.942C997.739 228.568 952.678 204.226 911.084 172.161C904.943 167.413 901.062 167.79 895.109 171.935C856.981 198.461 815.161 215.757 768.329 217.226C744.48 217.98 720.405 216.925 700.776 199.14C693.278 192.357 692.035 184.859 693.73 176.268C695.577 167.036 700.361 159.199 707.181 152.492C728.016 132.031 752.053 116.545 779.406 106.446C793.158 101.36 807.512 100.003 821.754 104.638C836.787 109.499 847.901 125.965 844.887 138.135C841.458 151.926 819.719 166.961 806.081 164.964C795.456 163.419 791.99 155.393 798.169 146.463C800.09 143.674 802.351 141.075 804.385 138.362C808.077 133.35 809.961 130.826 809.735 129.055C809.132 124.571 799.713 121.745 793.497 120.991C761.736 117.11 734.797 157.39 732.424 160.63C716.035 182.749 722.063 194.919 749.604 200.044C802.238 209.765 846.319 190.172 885.653 156.749C889.722 153.321 889.232 150.344 886.896 146.124C879.963 133.501 874.425 120.237 870.092 106.484C863.461 85.3833 867.493 67.4475 885.351 53.1668C894.243 46.0452 893.527 42.9178 882.676 39.0367C847.185 26.3762 812.561 32.0659 780.197 47.9669C746.176 64.6969 714.415 84.8181 688.757 114.397C664.871 141.941 633.449 158.031 595.358 155.996C586.127 155.506 587.032 158.709 589.631 165.152C600.105 190.925 602.517 216.736 589.556 242.66C581.719 258.335 569.851 269.752 554.517 277.514C537.601 286.105 515.748 281.508 499.472 266.662C485.457 253.851 481.35 236.556 488.509 217.98C491.862 209.238 499.246 203.737 507.158 199.742C517.255 194.656 526.222 200.458 528.37 212.817C530.103 222.84 527.39 232.034 521.249 239.872C515.899 246.654 519.102 250.309 524.866 253.625C537.714 261.01 555.61 257.318 564.539 245.448C570.492 237.536 573.016 228.379 574.184 218.696C578.931 179.094 557.569 140.547 521.287 123.892C515.221 121.104 510.511 117.185 505.84 112.475C474.229 80.5602 439.153 54.4479 392.924 48.2307C372.881 45.5554 353.816 48.08 338.03 62.1346C328.837 70.3489 329.553 73.3633 339.726 80.2588C368.284 99.664 387.499 124.458 384.523 161.196C382.752 182.937 371.562 200.458 358.413 217.113C334.79 246.993 302.313 263.497 268.141 277.401C230.126 292.812 190.189 303.25 153.116 321.299C130.133 332.49 109.223 346.243 90.6488 363.952C82.6991 371.564 76.5579 379.627 71.9614 388.143C66.9128 397.488 46.2286 433.246 61.7135 469.268C64.0494 474.694 73.3931 496.436 95.0192 505.215C95.0192 505.215 130.02 519.421 206.352 444.475C206.88 443.985 208.236 442.629 207.935 441.272C207.708 440.217 206.465 439.426 204.581 438.823C183.558 431.927 176.324 415.424 175.307 395.378C174.478 379.025 178.133 363.387 187.363 349.521C190.641 344.585 194.635 340.327 201.115 339.762C207.671 339.197 211.664 341.533 211.627 348.843C211.551 359.092 210.61 369.491 212.079 379.514C214 392.665 224.361 401.105 233.291 409.847C236.154 412.673 238.904 409.131 240.863 406.832C246.892 399.824 253.447 393.155 258.609 385.543C283.777 348.504 314.633 316.664 347.035 285.992C374.99 259.541 404.943 235.802 435.461 212.591C440.359 208.861 444.503 204.189 449.438 200.571C456.258 195.598 463.492 199.064 463.793 207.505C464.019 214.438 462.437 221.069 457.727 226.646C451.774 233.73 446.575 241.53 440.019 247.973C410.255 277.25 395.712 314.102 387.009 353.779C384.221 366.439 382.902 379.439 381.132 392.288C380.19 399.108 382.187 401.821 390.249 400.917C425.024 397.036 457.162 384.3 489.564 372.468C513.676 363.651 536.696 352.046 560.508 342.588C597.204 327.968 630.774 307.432 665.812 289.76C711.966 266.512 760.379 254.341 811.694 252.231C818.853 251.929 825.974 250.686 833.057 249.631C852.799 246.654 872.014 249.593 888.252 260.596C911.385 276.271 934.858 291.079 959.912 303.438C965.413 306.151 969.444 310.484 971.027 316.287C972.986 323.446 975.924 324.2 982.48 320.846C1003.01 310.371 1024.26 309.505 1046.19 316.89C1056.66 320.394 1064.5 327.44 1072.68 334.11C1076.52 337.237 1079.5 338.594 1084.51 336.521C1106.47 327.516 1129.57 322.617 1153 319.188C1182.24 314.893 1200.93 336.484 1192.71 365.008C1190.53 372.619 1187.7 379.891 1184.16 386.975C1165.81 423.6 1159.18 461.996 1166.57 502.615C1169.96 521.229 1164.31 530.988 1148.44 536.565C1129.15 543.348 1106.7 525.223 1110.58 505.102C1114.38 485.32 1117.96 465.35 1124.9 446.284C1135.22 417.986 1139.7 388.671 1141.62 358.828C1142.49 345.565 1137.78 341.231 1124.59 343.379C1118.23 344.434 1111.97 346.469 1105.79 348.353C1090.84 352.912 1081.34 359.167 1081.53 378.723C1081.72 401.783 1071.47 423.939 1064.61 446.171C1058.93 464.596 1053.99 482.984 1054.29 502.465C1054.44 514.522 1048.04 523.528 1037.34 526.919C1027.62 530.009 1017.74 525.487 1010.02 518.78C1003.73 513.279 1004.56 506.308 1007.65 499.036C1026.6 454.649 1032.36 407.36 1037.15 359.958C1039.11 340.402 1021.96 328.948 1003.77 337.162C1000.34 338.707 996.835 339.799 993.331 341.005C980.069 345.602 970.122 351.518 966.958 368.21C961.871 395.001 951.058 420.586 948.609 448.092C947.479 460.753 945.859 473.451 947.404 486.036C949.25 501.184 940.81 512.261 933.916 523.716C929.583 530.951 891.04 529.18 886.218 522.322C882.714 517.311 883.844 512.375 886.331 506.911C896.428 484.868 910.217 464.445 915.115 440.142C916.472 433.435 918.054 426.765 919.938 420.171C926.983 395.491 926.569 371.602 917.715 346.846C911.31 328.948 906.676 311.163 890.965 298.54C884.711 293.528 878.871 288.818 870.921 286.821C856.642 283.279 842.589 278.758 828.234 275.593C803.971 270.28 780.574 276.158 757.441 282.714C686.76 302.647 619.32 330.832 552.709 361.616C501.13 385.43 446.537 401.746 392.359 418.739C376.497 423.713 376.422 423.939 377.628 440.971C378.796 457.361 379.926 473.752 381.772 490.068C383.392 504.499 375.179 516.821 362.369 517.687C352.649 518.366 340.328 504.952 340.705 493.12C340.931 485.659 342.401 478.161 343.757 470.776C345.603 460.677 347.864 450.654 349.974 440.594C353.101 425.635 353.176 427.217 337.993 428.122C307.362 429.93 278.879 443.118 248.173 443.91C243.765 444.023 241.429 446.849 239.206 449.863C218.371 478.086 192.111 501.259 167.508 525.939C156.092 537.432 142.19 547.304 127.722 552.391C121.807 554.463 105.644 560.191 86.8435 557.967C41.5191 552.542 17.7831 505.404 15.8617 501.447C-1.43167 465.764 4.70954 426.351 19.8553 400.578C25.0546 391.685 31.0075 385.769 42.6117 373.636C60.4702 354.985 80.6269 339.046 103.082 325.368C142.453 301.403 184.688 283.392 227.3 266.549C269.836 249.706 303.029 221.559 330.118 185.838C352.762 155.958 343.87 125.663 310.075 109.272C259.287 84.6674 207.482 88.6238 155.113 102.038C133.939 107.464 114.535 116.733 97.1667 129.808C74.7871 146.651 57.4184 166.885 52.9726 196.201C45.5881 244.808 81.2674 253.324 110.391 244.318C136.953 236.104 160.387 220.617 181.071 201.589C187.363 195.786 193.354 189.682 199.156 183.389C201.68 180.639 203.715 176.908 200.964 173.14C198.139 169.184 194.22 170.653 190.717 172.123C185.367 174.384 180.167 177.021 174.855 179.358C168.299 182.221 161.932 181.844 156.733 176.758C151.27 171.482 153.568 165.19 156.092 159.538C160.877 148.724 168.789 140.848 180.205 137.156C192.374 133.237 205.071 131.768 217.73 132.408C237.849 133.463 249.001 155.167 238.641 172.387C236.38 176.155 233.667 179.885 230.503 182.899C190.189 220.956 146.749 254.529 95.1322 276.233C76.784 283.958 57.9836 287.01 37.9399 284.033C14.5053 280.529 1.7708 266.625 0.263753 242.849C-2.18519 203.548 14.9951 171.897 38.4297 142.77C44.4202 135.347 45.5504 132.483 34.6997 130.599C27.7673 129.394 21.0233 126.191 14.6184 122.988C4.21975 117.826 1.62009 111.91 6.06588 101.134C16.3138 76.3024 36.6966 61.381 59.5283 49.4741C64.6146 46.8365 70.9818 48.193 76.6332 50.1147C83.1135 52.3378 88.991 55.3145 88.6896 63.3781C88.3882 71.9692 83.3773 77.2821 75.2392 79.3921C71.9991 80.2211 68.4575 80.1457 65.029 80.1457C60.3572 80.1457 55.8737 80.6356 54.1029 85.7978C52.4829 90.5831 52.935 95.2178 56.1374 99.4003C62.7308 108.142 77.2737 112.626 87.4463 108.18C97.1291 103.96 106.774 99.438 115.967 94.2381C157.072 71.0272 201.831 63.6418 248.21 62.9259C259.212 62.7752 270.289 63.6418 280.762 66.5809C288.335 68.691 291.5 66.4302 295.607 60.5521C317.346 29.3906 344.624 7.91294 385.54 12.4346C404.001 14.4693 421.784 19.4431 439.417 25.1328C461.57 32.2543 481.086 44.0105 499.058 58.6304C524.301 79.1284 549.695 99.4756 576.558 117.864C580.25 120.388 584.018 122.498 588.501 123.478C628.023 132.144 675.721 100.418 682.578 60.7782C685.931 41.5236 677.04 29.4283 657.825 27.0544C637.442 24.5676 623.012 34.176 617.097 54.4856C615.289 60.7405 610.542 61.9462 605.229 62.097C590.837 62.5114 579.195 47.7032 582.511 33.1963C585.487 20.1213 594.228 11.8317 605.945 6.33037C634.014 -6.85767 683.369 1.24356 705.41 22.7966C711.287 28.524 715.733 34.7789 716.638 43.8598C717.994 57.6884 718.71 57.3869 730.691 50.5292C756.913 35.4948 783.814 22.0807 814.106 17.1446C846.733 11.794 878.23 14.62 908.145 29.4283C911.611 31.1239 914.173 31.3123 917.64 29.7674C962.964 9.94766 1007.69 13.4519 1051.8 33.7615C1068.91 41.6367 1085.34 50.7176 1102.03 61.9462H1102.06ZM288.524 413.276C304.762 413.276 320.435 409.583 336.071 405.853C347.788 403.064 353.44 396.094 355.776 384.187C360.334 360.825 366.325 337.689 363.424 313.536C363.122 310.899 364.78 307.093 362.52 305.85C359.129 304.003 357.358 308.148 355.286 310.07C326.991 336.069 301.296 364.367 279.18 395.83C275.375 401.256 266.709 407.36 269.422 412.334C272.21 417.458 281.93 413.163 288.561 413.313L288.524 413.276ZM1255.82 617.276C1257.97 616.485 1260.94 615.693 1263.69 614.412C1285.66 603.9 1297.79 583.402 1312.6 565.73C1316.63 560.907 1311.32 561.321 1308.53 561.283C1293.42 561.133 1278.5 562.489 1263.92 566.822C1251.68 570.477 1239.92 575.037 1231.03 584.72C1222.63 593.914 1226.28 609.439 1237.92 613.357C1243.39 615.204 1249.26 615.882 1255.82 617.238V617.276ZM926.569 92.128C927.059 83.8007 923.705 76.9052 919.147 70.2359C915.04 64.1694 911.951 63.8302 906.751 69.5199C889.797 88.1716 892.472 108.707 903.699 132.483C906.487 138.399 910.029 136.402 912.817 132.257C920.955 120.124 925.966 106.861 926.569 92.128ZM1314.37 478.274C1330.04 478.425 1350.27 464.219 1355.25 449.976C1357.13 444.588 1354.83 442.742 1350.01 443.721C1334.3 446.924 1321.08 455.176 1309.09 465.387C1306.08 467.95 1306.19 472.32 1307.44 475.938C1308.6 479.291 1312.03 477.822 1314.33 478.274H1314.37Z" fill="#FFFEE4"/>
<path d="M482.216 451.634C492.011 444.55 500.262 437.353 511.452 434.866C530.102 430.759 541.254 441.083 537.26 459.396C535.377 468.062 532.852 476.616 531.119 485.32C529.763 492.14 531.609 495.908 539.86 493.685C558.058 488.749 567.891 474.845 565.593 456.457C564.538 447.79 570.755 438.898 579.684 436.185C587.897 433.698 592.569 437.918 596.186 444.588C599.501 450.654 597.128 454.95 592.569 458.981C582.472 467.912 587.86 480.233 585.938 490.934C585.411 493.836 589.291 493.459 591.627 493.421C599.539 493.27 603.985 487.882 607.602 482.004C615.438 469.155 622.785 456.005 630.358 443.005C634.465 435.921 634.766 428.008 635.557 420.209C637.479 400.954 644.185 383.659 656.694 368.775C661.253 363.349 675.306 363.274 679.45 368.662C681.937 371.903 679.299 374.465 678.094 377.103C666.301 402.537 654.697 428.084 642.49 453.292C637.102 464.445 638.421 475.975 638.345 487.543C638.345 492.404 641.699 494.288 645.805 494.062C651.231 493.723 658.653 497.641 661.554 490.934C664.53 484.076 668.524 477.256 666.377 468.477C663.777 457.926 669.014 451.747 679.601 449.335C683.896 448.356 688.04 447.828 690.376 452.35C692.486 456.457 695.689 460.941 691.582 465.613C685.478 472.584 688.417 481.401 686.496 489.239C685.704 492.366 688.605 494.891 691.469 494.288C700.36 492.404 710.759 491.537 714.188 481.25C723.644 452.689 746.815 443.683 772.962 438.37C787.957 435.318 793.157 439.953 797 456.721C798.846 464.671 799.637 472.848 801.144 480.911C802.463 487.957 805.854 492.215 813.916 489.126C815.8 488.41 817.872 487.995 819.907 487.769C826.199 487.091 830.644 490.218 833.093 495.531C835.731 501.259 832.302 505.29 827.856 508.569C812.334 519.986 793.797 514.748 786.224 495.87C782.871 487.543 781.138 486.187 775.374 494.062C770.551 500.618 764.674 506.571 758.532 511.96C745.911 523.038 724.172 520.551 714.527 507.024C711.776 503.18 709.591 503.218 706.238 505.743C701.34 509.435 696.216 512.826 691.205 516.406C680.882 523.716 668.675 521.493 662.609 510.453C659.821 505.366 657.523 506.496 653.906 508.908C647.049 513.467 640.079 517.875 631.338 517.725C621.467 517.536 614.195 512.6 609.712 504.424C607.263 499.94 605.492 500.618 601.95 502.351C594.264 506.044 587.407 511.319 579.043 513.768C569.813 516.481 562.541 514.673 559.075 505.064C557.078 499.525 555.044 499.638 551.766 503.708C544.871 512.299 535.866 517.649 525.392 520.551C513.449 523.904 507.986 519.873 506.554 507.589C505.688 499.977 508.325 493.383 511.49 486.902C517.217 475.146 517.933 462.561 518.573 449.901C518.874 444.286 516.802 444.512 512.583 446.17C496.57 452.35 481.839 476.126 483.534 493.459C484.212 500.354 483.76 507.212 480.445 513.429C476.79 520.325 470.498 523.791 463.34 520.588C456.671 517.612 453.77 512.073 456.822 503.67C462.134 489.201 465.412 474.167 464.546 458.416C464.206 452.5 461.908 448.167 456.935 446.17C451.547 444.022 449.136 449.26 446.725 452.614C437.23 465.99 427.359 479.216 430.75 497.415C431.88 503.482 429.017 509.021 423.516 512.299C418.279 515.426 412.477 516.783 407.127 512.713C402.079 508.87 404.867 503.859 406.298 499.525C409.388 490.105 413.457 480.987 416.056 471.416C418.581 461.996 418.807 452.237 411.045 444.625C407.881 441.536 405.13 438.672 406.826 434.075C408.71 429.063 412.854 426.614 418.016 426.501C422.348 426.426 426.907 426.162 429.507 431.249C432.257 436.599 432.822 445.191 438.059 446.434C441.714 447.301 446.988 440.141 451.886 437.165C467.258 427.82 478.975 433.171 482.178 451.672L482.216 451.634ZM775.826 458.152C762.639 461.355 752.655 467.233 744.592 476.201C741.842 479.253 736.53 482.833 740.184 487.204C743.613 491.311 749.829 490.708 754.313 487.807C764.711 481.024 772.058 471.717 775.863 458.152H775.826Z" fill="#FFFEE4"/>
<path d="M1442.13 417.119C1435.16 416.592 1428.11 415.499 1427.02 406.72C1425.93 397.902 1432.11 394.926 1439.38 393.381C1451.55 390.781 1460.7 395.001 1463.83 404.12C1466.02 410.563 1463.94 414.029 1457.54 415.122C1452.49 415.951 1447.4 416.479 1442.17 417.157L1442.13 417.119Z" fill="#FFFEE4"/>
<path d="M582.396 423.412C579.119 423.073 575.577 423.261 572.412 422.244C565.819 420.134 562.692 411.882 566.535 406.38C571.734 398.957 579.834 399.07 587.822 399.56C594.905 400.012 599.916 402.989 602.214 410.337C604.06 416.215 602.741 419.644 596.676 420.85C592.004 421.792 587.294 422.545 582.434 423.412H582.396Z" fill="#FFFEE4"/>
<path d="M689.736 434.452C685.856 433.849 681.975 433.359 678.094 432.794C675.457 432.417 673.046 431.249 671.915 428.724C669.806 424.127 671.087 416.667 675.721 414.142C682.653 410.374 692.072 411.015 699.118 413.991C704.995 416.478 709.705 421.49 707.105 428.272C704.656 434.791 695.35 433.962 689.699 434.452H689.736Z" fill="#FFFEE4"/>
</g>
<defs>
<clipPath id="clip0_159_302">
<rect width="1821" height="643.916" fill="white"/>
</clipPath>
</defs>
</svg>
