<?xml version="1.0" encoding="UTF-8"?>
<svg id="Layer_1" data-name="Layer 1" xmlns="http://www.w3.org/2000/svg" viewBox="0 0 282.27 52.88">
  <defs>
    <style>
      .cls-1 {
        fill: #f7e6ca;
        stroke-width: 0px;
      }
    </style>
  </defs>
  <path class="cls-1" d="m190.5,26.13c-2.72-.14-2.09,1.92-2.68,3.67-.33.97-.82.66-.37,1.38.18.29,1.93.93,2.3.93.91,0,1.64-.83,2.41-1.23,1.15-.59,2.7-.67,3.6-1.67.72-.81.85-2.1,1.51-3.01.67-.92,1.59-1.61,2.47-2.32.93-.75,1.34-.91,2.43-1.08,1.32-.2,2.59-.45,3.96-.74,3.08-.66,6.6-.74,9.76-.98.42-.03,1.54-.37,1.71.15.13.41-.61.4-.66.53-.28.74-.49,1.39-.71,2.23-.76,2.9-2.26,5.45-2.62,8.49,4.22-2.33,5.97-7.45,10.58-9.55,3.03-1.38,1.37,2.56.87,4.07-.61,1.83-1.25,4.39,1.59,4.41,1.79,0,3.94-2.12,5.17-3.33,1.55-1.53,2.27-3.6,3.19-5.52.99-2.06,1.69-4.7,3.51-6.19,1.77-1.45,4.81-3.04,7.05-3.55-.19,2.75-2.82,5.04-3.87,7.53-.49,1.16-.65,2.47-1.13,3.65-.55,1.35-.91,2.06-.51,3.56.98,3.65,3.3-1.2,4.17-2.6,1.78-2.83,3.67-5.56,5.56-8.31.72-1.06,1.3-2.03,2.47-2.64.7-.36,3.21-1.29,3.9-1.12,2.34.58-.6,4.86-1.33,6.22-1.32,2.47-3.3,5.75-3.6,8.57-.28,2.59,2.15,2.34,3.87,3.2-1.14,1.69-2.41,2.85-4.54,3.16-2.04.3-4.57-1.57-6.69-1.97-1.13-.21-2.28-.35-3.42-.54-.34-.06-1.01-.3-1.33-.23-.25.06-.14.7-.45.7-.48,0-.69-.57-1.1-.6-.79-.04-1.57.74-2.28,1.2-.25-.45-.41-.93-.49-1.44-.8.86-1.96,1.55-3.2,1.41-.9-.1-1.13-.79-2.21-.53-1.02.25-1.72.89-2.86,1.02-.65.07-1.32.11-1.97.02-.48-.07-1.53-.65-1.99-.61-.84.07-.67.56-1.4.92-1.16.57-2.62.61-3.86,1.23-2.29,1.14-5.49-.12-6.93,2.57,2.6.24,5.51-.64,8.08-1.02,2.75-.41,5.25.16,7.98.17,5.86,0,10.79,1.13,16.35,2.79,4.84,1.45,9.67,2.76,14.48,4.25,2.44.76,5.23,1.52,7.8,1.56,1.52.02,2.97-.38,4.43-.75,1.43-.36,1.69-.71,2.74-1.64.14.38.37.68.71.89,1.22-2.33,2.56-3.46.92-6-.68-1.05-1.58-2.05-2.52-2.85-.86-.74-2.64-1.49-2.71-2.78-.13-2.49,3.24-2.24,4.66-1.74,2.31.8,4.48,1.19,5.77,3.43,2.11,3.66,5.12,8.5,1.56,12.38-1.2,1.31-2.9,2.07-4.5,2.76-2.25.97-5.83,2.19-8.3,1.83-1.05-.15-2.1-.79-3.21-.95-1.24-.18-2.5-.18-3.74-.37-2.89-.44-5.76-1.3-8.4-2.57-2.52-1.21-4.94-2.65-7.53-3.71-1.01-.42-2.33-1.08-3.43-1.12-1.46-.06-2.6.41-4.15.07-2.65-.57-5.19-1.5-7.89-1.88-3.23-.46-6.57-.61-9.84-.65-2.73-.04-5.74-.16-8.41.47-1.12.26-2.27.67-3.17,1.4-1.36,1.1-1.06,1.96-1.66,3.29-.96,2.13-4.55,4.56-6.44,5.94-2.69,1.98-4.93,2.21-8.13,2.19-2.21-.01-4.5.69-6.7-.05-.98-.33-2.08-1.07-2.28-2.19-.27-1.49.54-1.19,1.49-1.93-.84-1.06-.79-.47-.7-1.78.03-.49.31-1.6.88-1.59,0,.44-.09.86-.25,1.26,1.23-1.01,1.85-2.57,3.2-3.52,1.59-1.11,3.49-1.08,5.31-1.55,2.12-.55,4.15-1.41,6.2-2.17.81-.3,1.63-.69,2.49-.8.85-.11,1.65.2,2.49-.16.92-.4,2.42-2.01,1.78-3.08-.28-.46-3.41-1.17-3.98-1.05-.42.08-.3.66-.76.77-.45.11-1.85-.5-2.26-.64-1.73-.59-3.05-1.95-4.99-1.74-1.54.17-2.95,1.09-4.42,1.55-2.06.64-4.04.39-6.12.63-1.37.16-2.29.69-3.57,1.1-1.54.5-3.55-.68-4.77.32-1.13.93-.67,2.33-2.27,1.57-1.03-.48-3.15-2.93-3.24-4.1-.13-1.68,1.65-3.78,2.29-5.3.62-1.48,1.49-2.51,2.1-3.95.72-1.69,1.76-3.11,2.46-4.83.42-1.01,1.62-5.42,2.63-5.64.9-.2.07.41.76.6.8.21.86.05,1.51-.59.79-.79,1.87-2.53.47-3.12.17-.38.51-.42,1.03-.12-.13.65,2.29.84.33,1.82.38.58,1.33,1.51,1.4,2.22.09.91-1.09,2.77-1.44,3.63-.98,2.41-1.9,4.83-2.81,7.27-.46,1.24-2.72,4.98-1.46,5.91.72.53,2.44-.02,3.13-.3,1.02-.42,1.29-.64,1.46-1.46.34-1.58-.8-2.75.55-4.27,1.33-1.5,4.07-1.85,5.91-2.25,1.6-.34,4.47-1.53,3.6,1.02-.51,1.5-1.3,2.14-2.81,2.06Zm5.09,18.27v.04c-.85,1.91-2.61,2.89-3.55,4.58,1.76.93,5.14-1,6.33-2.26,1.12-1.2,4.41-4.75,4.23-6.42-2.91.86-4.63,2.18-7.01,4.06Zm13.5-20.06c-.4.04-1.45-.08-1.8.02-.97.28-.34-.03-.86.73.3.32.33.55.09.7-.28.23-.55.48-.79.74-.46.63-1.21,1.14-1.77,1.69-1.13,1.12-1.72,2.43-2.72,3.62,1.12.29,2.4.34,3.53.57.96.19,1.73.42,2.54-.35.95-.91,1.19-2.82,1.63-4,.48-1.29.93-2.56,1.66-3.72-.33,0-.66,0-1.52,0Z"/>
  <path class="cls-1" d="m72.11,28.75c-2.11.49-4.13,1.4-5.35,3.26-.62.95-.87,2.05-1.55,2.96-.98,1.31-1.12,1.05-2.36.83-.22-.04-.25-.37-.57-.41-.42-.05-.75.61-1.34.35-.94-.42-.32-1.88-.1-2.74.43-1.66,1.92-6.06,3.75-6.43-.1.47-.17.94-.22,1.42,1.32-1.23,1.06-3.61,3-3.97-3.08-.94-5.75.04-7.72,2.73-.83,1.12-1.46,2.48-1.67,3.87-.14.93-.35,3.44,1.13,2.44.07,1.65.25,2.42-1.51,3.21-1.14.51-2.81.64-4.04.54-2.84-.22-2.09-4.47-1.65-6.69-3.64-.21-6.7,2.86-10.51,2.74-.93,1.47-2.85.28-4.01,1.4-.86.82-.8,2.55-1.38,3.18.01-.01-.55-.25-.73-.13-.34.23-.65.63-.95.92-.84.82-1.66,1.66-2.52,2.46-1.78,1.65-3.75,2.99-5.78,4.32-4.24,2.76-8.22,4.49-13.33,4.74-2.35.12-4.77.06-7.1-.31-2.45-.39-3.26-1.46-4.26-3.61-1.91-4.1-1.9-7.49.99-11.15,1.81-2.3,6.43-6.5,9.62-4.22,3.9,2.79-3.91,6.86-4.53,9.7-1.03,4.68,5.42,5,8.12,3.47,4.91-2.79,9.27-5.72,13.3-9.7.7-.69,3.2-2.19,3-2.87-.15-.52-1.7-1.05-2.11-1.56-.46-.56-.6-2.38-.91-2.58-.12.42-.31.81-.55,1.17-1.05-.88-1.03-2.38-1.24-3.71-.29-1.82-.32-2.27.79-3.68,1.12,1.02,1.69,2.41,2.86,3.37,1.37,1.12,3.11,1.61,4.52,2.74,1.15.91.96,1.04,2.08-.06.71-.7,1.22-1.65,1.87-2.41,1.3-1.54,2.84-2.69,4.32-4.03,1.69-1.52,3.12-3.34,4.64-5.03.51-.57,1.33-1.16,1.78-1.69.43-.51.4-1.02.77-1.57.68-.99,2.61-1.81,3.57-2.76,1.05-1.03,1.93-2.62,3.05-.99,2.12-1.71,3.45-4.4,5.92-5.71,1.35-.71,4.06-2.81,5.66-2.53.95.17,1.43,1.09,1.31,2.06-.14,1.11-1.11,1.52-1.85,2.22-1.74,1.67-2.53,4.03-3.44,6.2-1.11,2.63-2.25,5.36-3.09,8.1-.36,1.16-.56,1.37.68,1.54,1.21.17,3.03-.48,4.16-.79,2.75-.75,5.29-1.95,7.86-3.14,2.33-1.08,6-3.24,8.57-3.24-.59,1.39-2.91,1.76-4.02,2.85,3.11-.33,6.78-1.7,9.22-3.59,1.63-1.26,4.88-3.19,6.94-2.75-.74.48-1.41.8-2.21,1.15,1.44-.14,2.84-.6,4.29-.63-.43,2.02-5.26,2.38-7.13,3.17-2.78,1.17-5.03,2.82-7.91,3.84-2.74.97-5.03,2.94-7.75,3.86-1.16.39-2.64.24-3.68.91-.91.59-1.31,1.44-2.28,2.05,1.91.45,1.38.98,1.48,2.91.82-.23,1.65-.45,2.48-.66-.28.32-.45.69-.5,1.1,1.58.22-.04,1,.25,1.44-.04.05-.08.09-.12.12Zm-27.27-1.31c1.55-.58,3.1-1.16,4.64-1.77.86-.35,3.1-.91,3.51-1.68.45-.86-1.01-.05.08-1.03.43-.39,1.21-.29,1.59-.7.52-.55.31-1.1.54-1.73.35-1,1.32-2,1.83-2.96.69-1.3,1.3-2.64,1.94-3.96.29-.61,1.97-3.08,1.73-3.75-.31-.85-.65-.17-1.38.36-.97.71-1.98,1.37-2.96,2.08-1.94,1.41-3.31,3.35-4.82,5.18-.68.82-1.37,1.63-2.17,2.33-.7.62-2.2,1.23-2.71,1.89-.35.46-.25,1.28-.75,1.9-.95,1.2-1.96,2.13-2.75,3.46.5.12,1.01.23,1.67.39Z"/>
  <path class="cls-1" d="m148.72,11.35c1.89.57,1.62,2.08,1.38,3.62-.28,1.76-.14,3.53-.38,5.29,1.96-1.55,2.69-4.19,4.56-5.79,2.11-1.8,5.04-3.65,7.81-4.1,1.92-.31,4.73-.04,6.07,1.58,1.91,2.3-.11,4.6.03,6.96,1.16-.59,1.35-2.16,2.37-2.79.22-.13.67.31,1.07.1.37-.2.64-.75.99-1.01,1.23-.94,3.01-1.54,4.39-2.25,1.38-.7,2.91-1.98,4.43-1.52-1.3,1.6-3.45,2.47-5.17,3.6-2.23,1.47-4.22,3.2-6.18,5.01-1.56,1.44-2.34,2.71-3.46,4.44-1.47,2.25-2.93,3.9-3.93,6.47-.85,2.17-1.71,4.24-2.74,6.34-1.03,2.11-1.08,3.87-3.17,2.03-1.25-1.11-3.71-2.8-4.27-4.42-.66-1.92,2.53-4.74,3.68-6.22,1.21-1.56,2.54-2.99,3.32-4.82.53-1.24.94-2.53,1.4-3.79.31-.87,1.52-2.95,1.36-3.86-.2-1.1-.02-.51-.97-.64-.72-.1-1.82.1-2.5.34-1.91.68-2.56,2.45-3.98,3.69-.8.7-1.7.64-2.48,1.17-.68.46-.89,1.17-1.23,1.91-1.02,2.2-2.8,4.89-3.37,7.21-.16.65.22.58.14,1.08-.14.89-.76,1.83-1.14,2.64-.47,1-2.51,7.06-3.49,7.26-.28.06-3.62-2.76-4.2-3.17-2.3-1.61-2.71-2.56-1.11-4.96,1.44-2.16,2.83-3.61,3.56-6.2.65-2.32.91-5.61,2.59-7.38.05.36.2.66.46.89.57-1.77.28-5.05-.08-6.88-.39-1.98-2.2-2.86-3.72-4.03-1.4-1.07.19-.59-1.64-.45-1.22.09-1.99.02-3.2-.25-1.78-.4-4.2-.81-5.97-.42-.29-1.89-1.67-1.18-2.97-.97-2.26.37-4.62.38-6.9.61-2.28.24-4.56.46-6.83.77-2.19.3-4.6,1.17-6.75.56,3.57-1.75,8.09-.97,11.62-2.85-1.6-.48-3.71.21-5.35.49-1.4.24-3.84,1.29-4.88.29,1.21-.94,2.96-.83,4.46-1,1.95-.23,3.9-.46,5.84-.68,3.57-.42,7.14-.9,10.72-1.24,1.67-.16,3.01.21,4.64.32,1.47.1,2.34-.14,3.84.35,2.95.97,6.06,1.18,8.76,2.69-1.32-.37-1.86-.52-3.14-.08,1.74,1.5,3.45,3.44,5.69,4.03Zm-20.16-6.78c-.95.38-3.77,1.1-1.57,1.9.08-.61-.21-.73.22-1.1.13-.11,1.78.08,1.92.09,1.33.12,4.52,1.33,5.46-.09-1.91-.58-4.05-.6-6.03-.81Z"/>
  <path class="cls-1" d="m99.84,24.38c.17-1.23,1.68-4.65,2.79-5.31.48-.28,1.34-.27,1.88-.2,1.15.16,1.28-.31,1.38,1.02.06.87-1.05,1.97-1.42,2.71-.55,1.12-.79,2.17-.93,3.41-.26,2.33-.29,4.37.49,6.54.49-.92,1.21-3.21,2.16-3.77,1.32-.79,2.05.24.77-1.55,1.2.13,2.4.09,3.61.14-.21,1.16-1.81,2.19-1.74,3.33.02.26.68.28.76.63.15.65.14,1.4.22,2.07,1.85-.92,3.22-2.79,4.65-4.27.46-.47,3.01-3.84,3.15-2.27,1.28-.48,2.09-1.49,3.36-2.05,1.27-.56,2.66-.66,4.03-.72,1.1-.05,2.7-.36,3.78-.18.54.09,1.61,1.06,2.18.81.97-.42.19-1.77,1.75-.88.87.5,1.19,1.84,1.02,2.76-.45,2.41-2.82,5.11-4.05,7.18-1.02,1.72-1.15,5.58-3.93,4.76-.36-.11-2.34-1.19-2.52-1.51-.33-.6.47-1.72-.36-2.04-.76-.3-2.66,1.49-3.55,1.73-1.27.33-2.49.15-3.7-.33-1.34-.53-1.47-.46-2.79-.33-.97.1-1.88.13-2.05-1.18-.29.13-1.05.94-1.11.93-.55-.05-.28-.7-.76-.87-.93-.33-2.26.72-3.23.91-1.4.28-2.57-.06-3.94-.16-1.98-.15-4.03.29-5.99.49-1.92.2-9.42,1.39-9.16-1.66.14-1.59,1.49-3.38,2.2-4.78.75-1.48,1.21-3.18,2.83-3.8-.03,1.29-.52,2.5-.75,3.77.41-.56.92-1.9,1.47-2.28,1.26-.88,1.85-.04,1.88,1.03.03,1.26-.81,2.88-1.16,4.09-.56,1.92-.56,1.78,1.42,1.53-.43-.89.22-.59.55-1.02.48-.62,1.28-1.27,1.81-2.02,1.46-2.07,2.24-4.31,3.18-6.64-.06-.01-.11-.03-.17-.04Zm21.02,9.59c1.31-.7,3.25-1.07,4.13-2.32.47-.67,1.8-3.34,1.4-4.18-.64-1.37-3.47.83-4.22,1.36-1.59,1.14-2.37,2.86-3.26,4.54.61.19,1.22.38,1.94.6Z"/>
  <path class="cls-1" d="m72.24,28.62c.66-1.03,1.22-2.59,2.41-3.09,1.16-.49,2.92-.36,4.15-.33-.25,1.95-1.72,3.33-1.96,5.19,2.72-1.35,4.68-3.75,7.71-4.35-.03.42-.14.95,0,1.35.49-.18.41-.6.83-.89.69-.48,1.75-.67,2.53-.95-.99,2.37-2.21,4.63-3.38,6.91-.74,1.44-1.47,3.88-3.05,4.59-1.56.7-3.8-.31-3.7-2.19.11-1.9,2.84-4.41,3.83-6-1.54.05-3.47,2.31-4.69,3.25-.97.75-1.87,1.56-2.64,2.54-.52.65-.95,1.83-1.87,1.85-.76.01-1.32-1.08-1.93-1.38-.43-.21-1.16-.11-1.4-.54-.57-1.02,2.51-4.95,3.04-5.85.05-.04.09-.08.12-.12Z"/>
  <path class="cls-1" d="m91.98,24.73c-1.67-1.62-.97-2.13.37-3.95.7-.95,1.02-1.5,2.18-1.68.63-.1,2.81.09,3.28.54,1.96,1.89-4.15,5.14-5.82,5.08Z"/>
  <path class="cls-1" d="m110,25.14c-1.17-.44-2.85-.6-2.81-2.2.03-1.67,2.55-2.8,3.91-2.96,1.28-.15,3.54.58,3.3,2.11-.22,1.39-3.35,2.45-4.39,3.04Z"/>
  <path class="cls-1" d="m225.35,21.37c-1.4-.8-2.94-1.57-1.68-3.24.71-.94,2.88-2.05,4.02-1.96,1.24.1,2.71,1.39,2.33,2.76-.41,1.52-3.35,1.94-4.66,2.43Z"/>
  <path class="cls-1" d="m103.38,6.89c1.31.15,2.94.07,4.13.65-.53.47-1.2.56-1.9.7-.78.15-1.62-.17-2.24-.04-.6.12-1.22.98-1.87,1.22-1.21.45-2.33.44-3.49,1.08-.58-1.2.86-1.32,1.81-1.55,1.6-.39,2.36-.93,3.56-2.06Z"/>
</svg>