<?xml version="1.0" encoding="UTF-8"?>
<svg id="Layer_1" data-name="Layer 1" xmlns="http://www.w3.org/2000/svg" viewBox="0 0 743.66 238.42">
  <defs>
    <style>
      .cls-1 {
        stroke-width: 0px;
      }
    </style>
  </defs>
  <path class="cls-1" d="m486.56,79.74c2.36-3.17,4.38-6.67,7.17-9.41,3.08-3.03,5.35-6.51,7.96-9.82,3.52-4.46,7.06-9.19,13.82-10.64,6.38-1.36,11.38-6.17,16.38-10.45,5.36-4.59,11.09-8.27,18.66-8.99,4.15-.4,8.39-2.44,12.07-4.6,6.21-3.65,12.78-3.58,19.53-3.26,2.9.14,5.82-.09,8.71.13,5.98.46,11.97.95,17.9,1.75,2.66.36,4.78,1.88,5.94,4.61,1.06,2.51,2.72,4.77,3.8,7.27.41.96.27,2.47-.23,3.42-.88,1.69-.8,2.84.15,4.62,2.37,4.43,4.27,9.1,6.18,13.75.35.84.11,2.14-.31,3.02-1.99,4.26-4.13,8.44-6.24,12.7.89.38,1.2.63,1.34.55,3.04-1.63,6.68-2.72,8.92-5.1,3.34-3.55,7.48-4.9,11.63-6.84,2.88-1.35,6.64-2.58,7.78-6.52.2-.69,1.77-.96,2.66-1.5,1.44-.87,2.83-1.83,4.27-2.69,1.61-.97,3.21-1.94,4.89-2.78,1.51-.76,3.12-1.31,4.67-2.01,3.2-1.44,6.39-2.89,9.56-4.4,1.63-.77,3.17-1.72,4.79-2.5,2.65-1.28,5.34-2.47,7.99-3.75,2.03-.98,4.55-1.61,5.91-3.18,3.05-3.53,6.95-5.09,11.23-5.98,6.14-1.28,12.16-1,18.04,1.62,1.81.81,4.12.53,6.54.78.42-.78.92-1.72,1.73-3.22,2.39,1.7,4.57,3.24,6.74,4.81.19.14.38.44.38.66.15,4.4.46,8.81.32,13.2-.08,2.53-.12,2.8,3.13,2.65-.09-.88-.42-1.81-.18-2.58.18-.58,1.11-1.28,1.69-1.27.51.01,1.31.86,1.45,1.47.73,3.16-2.19,8.64-5.46,10.02.8.73,1.5,1.37,2.37,2.16-1.52,2.74-3.17,5.5-4.59,8.37-.69,1.4-.97,2.99-1.43,4.5q-1.28,4.24-5.44,4.22c-.65,1.36-1.31,2.73-2.11,4.41.93.05,1.73.09,2.69.14,0,.67.3,1.85-.05,2.08-3.25,2.16-3.32,5.81-4.62,8.91-.82,1.97-2.07,3.82-3.4,5.52-2.37,3.05-3.59,6.34-3.51,10.22.02.92-.92,2.09-1.75,2.74-2.21,1.73-4.17,3.41-4.73,6.42-.26,1.39-1.44,2.84-2.61,3.79-4.7,3.8-5.71,9.05-6.38,14.53-.48,3.97-1.14,7.92-1.77,11.87-.07.46-.42,1.17-.77,1.26-2.91.73-3.33,3.33-4.56,5.43-3.64,6.21-5.99,12.78-7.17,19.87-.83,4.96-1.82,10-3.63,14.67-3.53,9.13-4.72,18.85-7.93,28.05-.87,2.49.02,5.71-1.15,7.96-2.72,5.22-.62,10.64-1.34,15.82-4.08.94-9.03-1.93-10.96-5.69-1.32-2.57-3.26-4.83-4.84-7.27-.47-.73-.65-1.65-1.03-2.44-.63-1.28-1.14-2.66-2.01-3.76-2.59-3.28-5.32-6.46-8.03-9.66-1.06-1.26-2.21-2.45-3.31-3.68-1.72-1.92-3.43-3.84-5.14-5.76-1.04-1.17-1.9-2.58-3.15-3.45-3.97-2.76-5.84-6.14-3.89-10.95-.75-.81-1.41-1.63-2.18-2.33-1.8-1.64-1.88-3.37-.3-5.13,1.57-1.74,2.05-3.61,2.1-6.01.11-4.87,1.44-5.68,6.81-6.35,1.19-.15,2.46-1.36,3.21-2.42.31-.44-.63-1.76-1.17-3.08,1.4-.71,3.11-1.58,4.93-2.51.13-1.13.29-2.45.45-3.79q-3.48-.96-4.63,3.65c-2.36.13-2.09-1.46-1.74-2.83.71-2.83,3.24-3.84,7.51-2.99,1.07-2.51,4.04-4.23,1.69-8.08-.75-1.23,1.76-4.44,2.82-6.72.6-1.29,1.36-2.52,1.92-3.83.91-2.12,1.71-4.28,2.61-6.55,1.31.21,2.35.72,3.04.42,1.36-.59,2.88-1.4,3.63-2.56.54-.83.38-3.11-.25-3.49-3.57-2.16-2.06-4.55-.7-7.01.42-.77.96-1.47,1.47-2.25,1.78.79,3.35,1.49,4.92,2.19l.55-.87c-1.03-1.16-2.06-2.32-3.49-3.92,4.35-.28,5.3-2.6,6.05-6.08.69-3.15,1-7.1,4.68-9.03.39-.2.56-.86.78-1.33,2.23-4.64,4.41-9.31,6.7-13.93.57-1.14,1.53-2.09,2.25-3.17.64-.96,1.74-2.02,1.67-2.97-.25-3.72,1.9-6.58,4.28-8.43,3.9-3.04,3.32-7.25,4.78-10.91-.19-.25-.38-.49-.57-.74-5.3,2.52-10.73,4.81-15.88,7.62-7.06,3.84-13.02,9.35-20.4,12.84-5.11,2.41-9.67,6.02-14.38,9.21-5.82,3.94-11.55,8.01-17.33,12-.64.44-1.37.78-2.11,1.03-2.54.84-3.97,2.42-3.87,5.19.1,2.78-.93,4.3-4.13,4.39-1.47.04-3.32,1.11-4.25,2.29-1.94,2.47-3.7,5.18-4.93,8.04-1.77,4.11-4.36,7.36-8.19,9.66-1.68,1.02-3.31,2.3-5.15,2.86-3.24.98-3.97,3.32-4.55,6.14-.38,1.83-.95,4-2.23,5.19-3.86,3.62-6.6,7.73-8.55,12.66-2.65,6.68-5.95,13.11-8.95,19.66-.32.7-.64,1.47-.67,2.22-.23,7.82-4.42,13.73-9.2,19.5-2.3,2.78-3.99,6.09-5.69,9.29-2.91,5.45-5.54,11.05-8.45,16.5-1.26,2.36-2.87,4.56-4.44,6.75-2.28,3.18-4.39.2-6.6-.25-5.28,5.05-11.44,4.56-16.53-3.17-1.71-2.6-3.22-5.33-4.93-7.94-.46-.7-1.27-1.22-1.99-1.72-2.09-1.45-4.62-2.49-6.24-4.33-3.26-3.71-6.01-7.86-9-11.8-2.15-2.85-2.51-8.38-.06-11.02,4.79-5.15,9.96-9.95,14.92-14.95,2.45-2.47,4.84-5.01,7.17-7.6,2.24-2.49,4.84-4.83,6.41-7.71,3.26-5.98,6.75-11.65,12.4-15.76.67-.49,1.17-1.42,1.39-2.24,1.05-3.86,3.29-6.84,6.32-9.45,1.85-1.59,3.25-3.7,4.84-5.59,2.15-2.57,4.44-5.04,6.39-7.75,2.26-3.16,3.33-6.72,2.96-10.69-.23-2.46-.25-4.98.02-7.43.16-1.42.85-2.91,1.71-4.09,3.47-4.78,7.86-9.07,10.44-14.26,2.68-5.39,3.67-11.63,2.65-17.79-.18-1.07-1.56-2.33-2.68-2.76-1.41-.54-3.14-.49-4.7-.37-4.05.29-7.86-.21-11.42-2.33-1.94-1.16-3.64-.46-5.43.83-5.03,3.62-10.45,6.73-15.27,10.59-5.21,4.16-9.89,8.96-14.84,13.44-1.82,1.64-3.72,3.19-5.63,4.73-.91.74-2.14,1.18-2.87,2.04-4.1,4.81-9.23,6.97-15.63,7-1.38,0-3.59,2.15-3.97,3.67-2.05,8.02-6.62,14.25-11.98,20.51-3.78,4.42-7.45,9.51-8.97,15.66-1.78,7.19-4.83,13.97-8.39,20.53-.9,1.65-1.77,3.31-1.01,5.75,1.75,5.63-1.2,10.23-4.67,14.47-1.12,1.37-2.51,2.63-3.26,4.18-4.03,8.28-7.73,16.72-11.86,24.94-3.47,6.9-7.39,13.58-11.06,20.39-.36.67-.35,1.53-.63,2.25-1.16,2.97-3.07,3.7-6.34,3.2-2.58-.4-5.26-.16-7.89-.25-2.03-.07-3.43-.42-4.51-2.78-1.03-2.25-3.62-3.83-5.59-5.62-.86-.77-2.07-1.19-2.84-2.02-5.81-6.28-13.09-10.56-20.35-14.89-4.06-2.42-5.98-9.45-4.94-13.89,1.41-6.06,5.97-9.87,9.23-14.62,3.56-5.19,8.7-8.84,13.15-13.17,6.72-6.53,12.35-14.03,13.41-23.84,3.79-3.47,1.29-8.69,3.6-12.61.49-.83.6-2.03.5-3.02-.43-4.18,1.27-7.83,2.62-11.6,1.75-4.92,3.41-9.88,4.7-15.6-1.85.91-3.69,1.83-5.56,2.71-1.73.81-3.44,2.06-5.25,2.27-7.62.9-13.64,4.14-17.73,10.65-1.63,2.59-3.42,4.85-6.85,5.38-1.04.16-2.25,1.38-2.74,2.42-1.82,3.79-4.78,6.27-8.46,8.14-4.32,2.19-7.67,5.28-9.92,9.69-.99,1.93-2.85,4.3-4.74,4.75-4.91,1.17-8.22,4.56-12.18,7.06-3.86,2.44-7.94,4.54-11.83,6.93-1.66,1.02-3.11,2.38-5,3.85-.32-.1-1.28-.38-2.7-.8-.31,2.94-.7,5.59-.82,8.26-.09,2.05.23,4.11.24,6.17.02,3.58.08,7.16-.13,10.73-.38,6.42-.98,12.82-1.44,19.23-.16,2.31-.34,4.63-.25,6.94.29,7.41-.52,14.74-2.88,21.72-3.04,9-13.13,8.79-17.24,2.76-1.65-2.42-3.01-5.06-4.77-7.4-1.44-1.92-3.06-3.83-4.98-5.25-5.3-3.94-8.85-9.05-11.15-15.07-.84-2.19-1.62-3.68-4.53-3.95-5.16-.48-9.1-5.79-8.56-10.79.4-3.71.97-7.4,1.46-11.1.03-.25.18-.6.07-.74-4.71-6.18,1.86-9.18,4.01-13.3,1.47-2.8,1.33-3.98-1.76-4.47-4.43-.7-8.65-.39-12.5,2.15-.54.36-1.3.97-1.73.82-5.28-1.79-9.86,1.81-14.91,1.83-1.38,0-2.77.7-4.14,1.13-6.85,2.15-13.67,4.35-20.54,6.42-1.09.33-2.36.03-3.55.04-3.76.05-7.56-.2-11.27.29-1.79.23-3.38,1.86-5.08,2.83-4.67,2.67-9.76,1.82-14.68,1.36-3.49-.33-5.74.7-7.66,3.5-2.94,4.27-6.26,8.29-9.19,12.56-1,1.46-1.32,3.36-2.19,5.69-1.91,1.16-4.51,2.89-7.24,4.37-3.55,1.92-7.29,3.5-10.79,5.5-1.88,1.08-3.49,2.66-5.12,4.12-1.49,1.35-2.6,3.67-4.29,4.15-9.03,2.59-17.22,7.56-26.86,8.51-7.77.77-15.6,1.95-23.1,4.03-4.81,1.33-9.59,2.36-14.43,3.42-8.04,1.76-15.85,1.5-23.82.94-2.62-.19-5.4.08-7.85-.67-10.94-3.35-22.38-5.43-32.39-11.26-2.26-1.32-4.04-3.65-5.64-5.81-1.23-1.66-2.21-2.2-3.44-.76-5.13-4.72-4.86-11.26-6.48-16.99-1.46-5.19,1.44-10.27,3.01-15.25,2.3-7.24,6.71-13.41,11.07-19.54,4.86-6.83,11.03-12.49,17.66-17.58,3.25-2.5,6.95-.54,10.15.59,3.42,1.2,6.49,3.32,9.78,4.92,2.71,1.32,3.92,2.98,2.88,6.17-1.47,4.51-2.96,9.11-3.58,13.78-.99,7.47-1.29,15.04,3.01,21.87.81,1.29,1.83,2.44,2.78,3.64,1.6,2,3.64,3.77,4.77,6,2.81,5.5,7.48,7.58,13.29,8.06,1.56.13,3.15.23,4.67.59,8.87,2.13,15.66-2.89,22.67-6.64,5.81-3.11,10.86-7.78,16.87-10.33,7.66-3.26,13.29-9.19,20.36-13.11.96-.53,1.51-1.77,2.26-2.67,1.82-2.2,3.61-4.44,5.49-6.6,2.04-2.34,1.94-3.45-.47-5.51-1.24-1.06-2.33-2.27-3.88-3.8,1.51-.71,2.39-1.18,3.31-1.56,3.27-1.34,3.66-3.13,1.07-5.46-2.62-2.36-5.5-4.46-7.96-6.97-2.62-2.67-4.89-5.68-7.29-8.56-.25-.3-.29-.81-.58-1.01-5.95-4.02-6.65-10.54-8.22-16.66-.21-.81-.86-1.51-1.21-2.3-.34-.74-.87-1.58-.77-2.31.51-3.81,1.51-7.58,1.74-11.4.25-4.1,1.97-6.69,5.67-8.54,5.54-2.77,11.25-3.4,17.23-2.29.95.18,1.84.85,2.66,1.44,2,1.45,4.32,2.68,5.82,4.54,1.9,2.37,3.23,5.21,4.58,7.96,1.64,3.35,3.05,6.81,4.54,10.22.26.59.74,1.25.66,1.8-.93,6.03,4.14,8.03,7.59,11.11,1.27,1.13,2.66,2.14,3.81,3.38,3.39,3.64,6.18,4,10.52,1.36,2.01-1.22,4.06-2.39,6.2-3.36,5.04-2.3,7.08-7.1,9.8-11.31,1.9-2.94,2.8-6.89,7.57-6.56,2.6-4.55,8.53-2.76,11.9-6.26,3.8-3.94,8.05-7.55,12.48-10.79,3.49-2.55,7.65-4.17,11.34-6.47,2.21-1.38,6.47-1.42,4.78-6.06-.18-.51,1.18-1.81,2.06-2.4,1.64-1.11,3.5-1.89,5.17-2.96,1.46-.94,2.69-2.22,4.18-3.1,1.39-.82,3.05-1.2,4.47-1.99,1.6-.89,3.06-2,4.57-3.04.99-.68,1.97-1.38,3.32-2.34-.36-1.02-.8-2.27-1.23-3.52,2.58-2.42,2.22,1.66,3.86,1.52,2.96-2.63,6.01-5.34,9.29-8.25-.95-.48-1.91-.95-3.04-1.52,1.81-2.4,3.61-2.93,6.06.54.55-1.74,1.05-2.68,1.1-3.64.11-2.24,1.45-3.03,3.4-3.65,1.77-.56,3.7-1.27,5-2.49,3.08-2.89,6.13-5.66,10.42-6.63.5-.11,1.17-.19,1.45-.53,5.26-6.58,13.77-8.86,19.67-14.59.45-.43,1.1-.8,1.71-.91,6.87-1.26,13-4.3,19.33-7.1,7.51-3.33,13.99-7.91,20.9-13.61.66,1.08,1.26,2.07,2.01,3.31,2.25-1.19,4.32-2.29,6.39-3.39-.13-.4-.26-.8-.39-1.2-1.17.13-2.33.26-3.5.4-.05-.16-.11-.33-.16-.49.89-.37,1.8-1.11,2.65-1.04,6.74.58,11.93-4.17,18.2-5,3.58-.48,7.42-1.18,10.8-.39,6.07,1.43,7.56,8.57,2.87,12.78-3.78,3.4-7.93,6.41-11.98,9.51-3.11,2.38-6.73,4.27-9.35,7.07-2.4,2.56-3.17,6.72-5.75,8.96-2.82,2.46-3.96,5.87-5.25,8.63-1.6,3.41-4.79,5.6-5.86,9.44-.83,2.97-3.55,5.82-6.14,7.82-3.41,2.63-6.13,5.22-6.16,9.76,0,.88-.19,1.9-.66,2.63-4.72,7.25-6.23,15.61-8.49,23.71-.17.62-.15,1.52-.57,1.82-3.74,2.68-1.35,5.1.27,7.97,5.21-2.59,9.94-5.45,13.07-10.36.14-.22.15-.56.33-.7,2.13-1.62,5.22-2.8,6.19-4.93,1.29-2.84,2.92-3.86,5.62-5.11,2.7-1.25,4.95-4.14,6.56-6.8,3.98-6.55,10.81-10.01,16-15.22.72-.72,1.76-1.29,2.15-2.15,2.81-6.26,8.42-10,13.32-14.27,4.26-3.71,9.18-6.68,13.87-9.89,3.79-2.6,7.68-5.06,11.51-7.62.5-.33,1.05-.83,1.23-1.37,1.69-5.23,6.44-6.27,10.82-7.16,4.22-.86,8.72-1.22,12.99-.78,5.42.57,10.8,1.91,16.05,3.42,4.25,1.23,6.08,4.6,6.05,8.96-.03,4.68-.01,9.37.02,14.06.03,6.23.2,12.46.08,18.68-.03,1.77-.95,3.51-1.25,5.3-.28,1.66-.27,3.36-.39,5.05.42.05.83.1,1.25.15Zm-194.69,52.9v-8.57c2.66-1.14,5.1-2.08,7.44-3.22,1.8-.88,3.19-2.74,5.69-1.69.41.17,1.95-1.09,2.12-1.87.21-.95-.3-2.19-.82-3.13-.43-.77-1.34-1.27-2.46-2.26,4.2-2.52,7.84-4.7,10.13-6.08,2.18-4.24,3.72-7.28,5.3-10.3,1.61-3.08,3.23-6.15,4.89-9.2.35-.64.79-1.36,1.38-1.74,5.52-3.43,9.3-8.3,11.85-14.11,1.63-3.71,2.7-7.67,6.5-10.02.64-.4.88-1.48,1.2-2.28.43-1.08.44-2.53,1.19-3.25,1.91-1.81,2.78-3.74,1.96-6.38-1.13-.42-2.3-.85-3.71-1.37-.21,2.81-1.39,4.63-4.18,4.4-3.16-.26-5.33.67-5.89,3.94-.94,0-1.75.25-2.22-.04-2.3-1.41-4.19-.8-5.87.98-1.37,1.45-2.42,3.32-4.03,4.41-5.69,3.86-11.56,7.46-17.37,11.16-2.97,1.89-6.17,3.51-8.89,5.71-4.45,3.6-6.91,9.5-13.14,11.09-.24.06-.44.28-.63.45-3.95,3.7-7.89,7.42-11.87,11.09-.45.42-1.15.82-1.73.82-2.98-.03-3.82,1.67-4.67,4.22-.54,1.62-2.6,3.08-4.33,3.87-1.11.51-2.85-.39-4.32-.55-4.11-.45-7.15,3.69-5.64,7.62.26.67.45,1.36.74,2.24-.97.33-1.72.49-2.38.83-1.88.97-4.01,1.7-5.53,3.07-4.39,3.98-8.52,8.24-12.76,12.39-.09.09-.2.17-.32.23q-4.16,2.36-2.98,7.79c1.3.1,2.71.22,4.13.3,3.03.17,6.45-.51,9.01.66,4.07,1.87,6.45,1.24,8.85-2.3.72-1.05,2.94-1.94,4.18-1.66,5.09,1.14,9.53-1,14.17-2.17,4.13-1.04,8.17-2.76,12.36-3.2,3.85-.41,7.05-1.46,9.75-4.33.87.74,1.58,1.34,2.91,2.46Zm254.22,53.68c7.39-3.65,9.24-9.9,11.28-15.99.2-.58-.35-1.41-.56-2.12-.32-.04-.65-.07-.97-.11-1.8,6.51-9.36,9.94-9.75,18.22Z"/>
</svg>