<svg width="108" height="124" viewBox="0 0 108 124" fill="none" xmlns="http://www.w3.org/2000/svg">
<path d="M107.256 47.2089C106.754 29.9467 95.1583 29.2812 83.4223 35.3109C77.8652 38.1745 72.8297 42.0262 68.1955 46.3216C67.052 47.3904 65.5875 48.1365 63.6014 49.4877C64.4439 41.9455 66.5504 35.5529 67.0119 28.8376C67.7943 17.847 65.7279 8.32861 56.319 1.55279C53.9919 1.02847 51.6446 0.524319 49.3175 0C44.6832 0.0403323 42.2157 2.86359 41.1324 6.93715C39.5074 13.0273 37.9225 19.1377 37.3808 25.4698C37.2203 27.3251 37.4611 29.3216 36.0969 31.1365C31.1617 28.0511 26.0259 25.974 20.4889 25.4093C13.2467 24.6833 9.27444 27.7889 7.3084 34.6656C5.46273 41.1591 6.10474 47.0879 10.0368 52.6336C12.2035 55.6787 13.8686 59.1069 16.4967 61.8092C18.7636 64.1283 18.3022 66.0037 16.4967 68.464C9.77602 77.5791 4.55997 87.521 0.988999 98.3099C-0.274884 102.141 -0.355148 105.913 0.908736 109.805C5.02137 122.63 23.458 126.805 31.8237 120.614C37.3607 116.52 42.9178 112.446 46.6693 106.417C48.836 102.948 49.0968 102.928 51.0227 106.82C53.2897 111.378 56.4594 115.088 60.7326 117.77C67.072 121.723 73.1908 121.38 78.5874 116.984C83.5627 112.95 85.3081 106.538 82.9207 99.8223C80.5535 93.1675 76.501 87.6622 70.9239 83.3063C69.8406 82.4593 68.3159 81.9753 67.6939 80.2612C75.1368 78.4462 82.3991 76.7321 89.3806 74.0299C96.6028 71.2469 102.661 67.3145 105.169 59.4094C106.012 55.598 106.834 51.7665 107.677 47.9551C107.536 47.6929 107.276 47.4307 107.256 47.1686V47.2089ZM21.0506 40.5138C22.0738 39.6063 23.5584 40.5944 24.7621 41.2599C31.3423 44.9906 34.1309 51.7463 38.7651 58.5221C32.9472 57.5541 29.4565 55.1544 26.8284 51.5446C25.063 49.1247 23.5182 46.5434 21.9935 43.9622C21.3716 42.9135 19.7065 41.7036 21.0707 40.5138H21.0506ZM38.083 89.4368C36.8993 97.3822 31.8037 103.291 24.8022 107.929C21.813 109.905 19.205 109.3 16.4967 107.667C13.7282 105.973 14.7112 103.472 15.3732 101.234C17.7004 93.4095 21.7327 86.4119 26.1864 79.6965C28.6339 76.0061 32.0043 78.4462 34.7126 79.2125C37.2604 79.9385 39.1864 82.1165 38.9456 85.2422C38.8654 86.432 38.4642 87.5815 38.0629 89.4368H38.083ZM56.1384 28.6964C55.7974 32.0238 54.8745 37.0048 52.1261 42.8127C51.5644 41.8649 50.802 40.5137 50.1199 38.7795C48.2341 34.1009 48.1539 30.1685 48.1138 26.6798C48.0536 21.1744 48.0135 17.8672 50.1199 16.5967C51.2835 15.8909 52.9486 15.9111 54.1323 16.5967C57.2017 18.3915 56.5597 24.5825 56.1384 28.6964ZM70.1816 101.294C71.4053 102.988 73.0103 105.207 72.2279 106.88C71.8066 107.768 70.7634 108.433 69.7402 108.474C67.1121 108.574 65.0659 104.481 63.7217 101.758C62.6183 99.5602 61.2341 96.0916 60.6523 91.3929C61.3745 92.26 62.5782 93.6515 64.1832 95.2446C67.0319 98.0679 68.4162 98.8342 70.2017 101.294H70.1816ZM93.6136 49.4675C93.1522 55.0334 90.2031 58.3406 84.947 60.1959C78.2263 62.5755 71.5859 65.0963 64.1431 65.4391C73.7726 60.579 80.2926 51.3631 90.1228 46.7854C91.1661 46.3014 92.1692 45.2125 93.3729 46.1199C94.5966 47.0476 93.6939 48.318 93.6136 49.4675Z" fill="#BF7DD2"/>
</svg>
