<svg width="1418" height="267" viewBox="0 0 1418 267" fill="none" xmlns="http://www.w3.org/2000/svg">
<path d="M205.499 262.054V265.245C205.499 265.423 204.02 265.671 201.098 265.99C198.176 266.274 194.621 266.486 190.396 266.557C186.172 266.664 181.701 266.664 176.914 266.557C172.161 266.451 168.042 266.132 164.592 265.529V246.31C164.592 230.176 164.381 214.077 163.959 197.979C163.536 181.845 163.149 165.994 162.832 150.357C162.515 134.719 162.304 119.401 162.199 104.33C162.093 89.2957 162.234 74.7573 162.691 60.7863C169.38 60.7863 176.773 60.6445 184.764 60.3608C192.755 60.0771 200.007 60.3253 206.52 61.1054C206.731 61.4955 206.836 62.1692 206.836 63.1621C206.836 65.1124 206.872 66.6726 207.012 67.8073C207.118 68.9774 207.188 70.6086 207.188 72.7716C207.611 73.729 208.104 74.4736 208.632 74.9701C209.16 75.4665 209.758 75.1119 210.427 73.9417C213.666 68.1264 217.996 64.3677 223.417 62.7366C228.839 61.1054 234.577 60.6445 240.632 61.4246C252.953 62.2047 262.704 65.0769 269.851 70.0058C276.997 74.9346 282.348 81.2819 285.903 88.9411C289.459 96.6003 291.782 105.217 292.874 114.72C293.965 124.223 294.704 133.833 295.127 143.549C295.127 150.357 294.634 156.952 293.683 163.335C292.698 169.753 291.184 175.604 289.142 180.958C287.1 186.313 284.39 190.851 281.045 194.646C277.701 198.44 273.617 201.099 268.865 202.659C263.021 204.61 256.579 205.815 249.538 206.312C242.497 206.808 235.844 206.808 229.578 206.312C223.312 205.815 217.996 204.893 213.666 203.546C209.336 202.198 206.942 200.638 206.52 198.901C206.731 208.014 206.836 215.389 206.836 221.027V234.573C206.836 237.977 206.766 240.601 206.66 242.445C206.555 244.289 206.449 246.026 206.344 247.693C206.238 249.324 206.132 251.203 206.027 253.225C205.921 255.281 205.745 258.224 205.534 262.125L205.499 262.054ZM255.804 152.236C256.896 149.506 257.529 146.704 257.741 143.797C257.952 140.889 258.057 138.088 258.057 135.357C258.057 130.5 257.424 125.783 256.121 121.245C254.819 116.67 252.882 112.593 250.277 109.011C247.672 105.43 244.539 102.557 240.878 100.43C237.182 98.3024 233.098 97.2386 228.557 97.2386C222.924 97.2386 218.594 98.3024 215.567 100.43C212.539 102.557 210.216 105.465 208.597 109.153C206.977 112.841 205.992 117.309 205.675 122.557C205.358 127.805 205.182 133.443 205.182 139.435C205.182 147.024 205.358 152.981 205.675 157.342C205.992 161.704 206.801 165.072 208.104 167.377C209.406 169.682 211.413 171.207 214.124 171.881C216.834 172.554 220.46 172.909 225.001 172.909C233.873 172.909 240.949 171.171 246.264 167.661C251.58 164.15 254.748 159.009 255.84 152.236H255.804ZM393.098 190.39C392.006 190.958 390.669 191.667 389.049 192.447C387.43 193.227 386.057 194.007 385.001 194.787C380.46 197.695 375.355 200.035 369.758 201.773C364.125 203.51 358.352 204.503 352.402 204.681C346.453 204.858 340.68 204.291 335.047 202.943C329.415 201.596 324.345 199.149 319.804 195.674C317.622 193.936 315.967 190.284 314.77 184.752C313.573 179.221 312.834 172.554 312.482 164.789C312.165 157.023 312.059 148.513 312.165 139.293C312.271 130.074 312.447 120.748 312.658 111.316C312.869 101.884 313.08 92.8062 313.292 84.0831C313.503 75.3601 313.397 67.6654 312.975 61.07C320.543 60.1126 327.302 59.6516 333.252 59.758C339.201 59.8644 345.96 59.8998 353.529 59.8998C353.951 64.3677 354.163 69.4029 354.163 75.041C354.163 80.679 354.092 86.4944 353.987 92.5225C353.881 98.5506 353.881 104.579 353.987 110.571C354.092 116.599 354.374 122.237 354.796 127.45C355.008 129.79 355.219 132.343 355.43 135.18C355.641 137.981 356.028 140.747 356.556 143.478C357.085 146.208 357.859 148.619 358.845 150.747C359.83 152.874 361.168 154.541 362.893 155.711C363.104 155.888 363.316 155.995 363.527 155.995C363.738 155.995 363.949 156.101 364.16 156.279C365.885 157.059 368.42 157.697 371.8 158.158C375.144 158.654 378.453 158.442 381.692 157.591C384.93 156.704 387.852 154.967 390.457 152.343C393.062 149.719 394.576 145.783 394.999 140.535C395.421 133.939 395.527 127.344 395.315 120.713C395.104 114.117 394.823 107.557 394.506 101.068C394.189 94.5791 393.978 88.0901 393.872 81.7074C393.766 75.2892 394.259 68.9065 395.351 62.4884V61.3182C399.012 60.3608 402.215 59.758 404.926 59.5807C407.637 59.4034 410.382 59.3325 413.199 59.4389C416.015 59.5452 419.148 59.6871 422.598 59.8644C426.048 60.0417 430.378 59.9707 435.588 59.5807C435.588 83.4803 435.87 107.345 436.398 131.244C436.926 155.144 436.785 179.894 435.905 205.532C433.3 205.354 431.152 205.213 429.427 205.106C427.703 205 426.083 204.964 424.569 204.964C423.056 204.964 421.436 205 419.711 205.106C417.986 205.213 415.804 205.354 413.234 205.532C412.354 205.532 410.84 205.673 408.693 205.957C406.51 206.241 404.363 206.489 402.215 206.702C400.033 206.879 398.096 206.95 396.372 206.844C394.647 206.737 393.766 206.418 393.766 205.815C393.344 202.518 393.168 199.787 393.274 197.66C393.379 195.532 393.309 193.085 393.098 190.39ZM544.331 4.58313V1.39178C544.331 1.21448 545.81 0.966269 548.732 0.647134C551.654 0.363459 555.209 0.150703 559.434 0.0797837C563.658 -0.0265946 568.129 -0.0265946 572.917 0.0797837C577.669 0.186162 581.788 0.505297 585.238 1.10811V20.3271C585.238 52.7725 585.766 84.7923 586.857 116.458C587.948 148.123 588.054 177.909 587.174 205.886C580.45 205.886 573.093 206.028 565.101 206.312C557.11 206.595 549.858 206.347 543.346 205.567C543.134 205.177 543.029 204.503 543.029 203.51C543.029 201.56 542.958 200 542.853 198.865C542.747 197.695 542.677 196.064 542.677 193.901C542.254 192.944 541.762 192.199 541.198 191.702C540.67 191.206 540.072 191.561 539.403 192.731C536.164 198.546 531.834 202.305 526.413 203.936C520.992 205.603 515.253 206.028 509.198 205.248C496.877 204.468 487.126 201.596 479.98 196.667C472.833 191.738 467.482 185.391 463.927 177.731C460.371 170.072 457.977 161.456 456.781 151.952C455.584 142.449 454.88 132.84 454.668 123.124C454.668 116.316 455.161 109.72 456.112 103.302C457.097 96.884 458.611 91.0332 460.653 85.6788C462.695 80.3244 465.405 75.7856 468.75 71.9915C472.094 68.1973 476.142 65.5379 480.93 63.9777C486.774 62.0274 493.216 60.8218 500.257 60.3253C507.297 59.8289 513.951 59.8289 520.217 60.3253C526.483 60.8218 531.799 61.7437 536.129 63.0912C540.459 64.4386 542.818 65.9988 543.275 67.7364C543.064 58.6233 542.958 51.2477 542.958 45.6097V32.0642C542.958 28.6601 542.994 26.0361 543.134 24.1922C543.24 22.3483 543.346 20.6108 543.451 18.9442C543.557 17.3131 543.663 15.4337 543.768 13.4125C543.874 11.3559 544.05 8.41275 544.261 4.54767L544.331 4.58313ZM494.026 114.401C492.934 117.131 492.301 119.933 492.09 122.84C491.878 125.748 491.773 128.585 491.773 131.28C491.773 136.138 492.406 140.854 493.709 145.392C495.011 149.967 496.948 154.045 499.553 157.626C502.158 161.207 505.291 164.08 508.952 166.207C512.613 168.335 516.732 169.398 521.273 169.398C526.695 169.398 530.954 168.335 534.087 166.207C537.22 164.08 539.614 161.172 541.234 157.484C542.853 153.796 543.839 149.364 544.155 144.222C544.472 139.081 544.648 133.407 544.648 127.166C544.648 119.578 544.472 113.621 544.155 109.259C543.839 104.898 543.029 101.529 541.726 99.2243C540.424 96.884 538.417 95.3947 535.707 94.721C532.996 94.0472 529.37 93.6926 524.829 93.6926C515.957 93.6926 508.882 95.4302 503.566 98.9406C498.25 102.451 495.082 107.593 493.991 114.365L494.026 114.401ZM652.406 1.39178V4.58313C652.617 8.48367 652.793 11.4268 652.899 13.448C653.004 15.5046 653.11 17.3485 653.215 18.9797C653.321 20.6462 653.427 22.3838 653.532 24.2276C653.638 26.0715 653.708 28.6955 653.708 32.0996V45.6451C653.708 51.2832 653.603 58.6587 653.392 67.7718C653.814 66.0343 656.208 64.4741 660.538 63.1266C664.868 61.7792 670.148 60.8572 676.45 60.3608C682.716 59.8644 689.369 59.8644 696.41 60.3608C703.451 60.8572 709.893 62.0628 715.737 64.0131C720.489 65.5733 724.538 68.2328 727.917 72.0269C731.261 75.8211 733.972 80.3954 736.014 85.7143C738.056 91.0686 739.569 96.9194 740.555 103.338C741.541 109.756 741.998 116.351 741.998 123.159C741.576 132.875 740.802 142.485 739.745 151.988C738.654 161.491 736.331 170.108 732.775 177.767C729.22 185.426 723.833 191.738 716.722 196.702C708.203 202.589 697.853 204.326 687.504 205.283C669.691 206.95 660.503 205.461 640.894 205.177C631.389 205.035 620.934 205.177 609.599 205.851C609.176 191.88 609 177.341 609.106 162.307C609.211 147.272 609.422 131.918 609.739 116.28C610.056 100.643 610.443 84.7923 610.866 68.6583C611.288 52.5597 611.499 36.4257 611.499 20.3271V1.10811C614.949 0.540756 619.068 0.186162 623.821 0.0797837C628.573 -0.0265946 633.079 -0.0265946 637.304 0.0797837C641.528 0.186162 645.084 0.363459 648.005 0.647134C650.927 0.93081 652.406 1.17903 652.406 1.39178ZM702.711 114.401C701.62 107.593 698.452 102.451 693.136 98.9761C687.82 95.5011 680.745 93.7281 671.873 93.7281C667.332 93.7281 663.706 94.0827 660.995 94.7564C658.285 95.4302 656.278 96.9549 654.976 99.2598C653.673 101.6 652.863 104.933 652.547 109.295C652.23 113.656 652.054 119.649 652.054 127.202C652.054 133.407 652.23 139.081 652.547 144.258C652.863 149.399 653.849 153.832 655.469 157.52C657.088 161.207 659.411 164.115 662.439 166.243C665.466 168.37 669.796 169.434 675.429 169.434C679.97 169.434 684.089 168.37 687.75 166.243C691.411 164.115 694.579 161.243 697.149 157.661C699.754 154.08 701.691 150.002 702.993 145.428C704.296 140.854 704.929 136.173 704.929 131.315C704.929 128.585 704.824 125.783 704.612 122.876C704.401 119.968 703.732 117.167 702.676 114.436L702.711 114.401ZM840.005 190.426C838.913 190.993 837.576 191.702 835.956 192.483C834.337 193.263 832.964 194.043 831.908 194.823C827.367 197.731 822.262 200.071 816.665 201.808C811.032 203.546 805.259 204.539 799.31 204.716C793.36 204.893 787.587 204.326 781.954 202.979C776.322 201.631 771.252 199.184 766.711 195.709C764.529 193.972 762.874 190.32 761.677 184.788C760.48 179.256 759.741 172.59 759.389 164.824C759.072 157.059 758.966 148.548 759.072 139.329C759.178 130.109 759.354 120.784 759.565 111.351C759.776 101.919 759.987 92.8416 760.199 84.1186C760.41 75.3956 760.304 67.7009 759.882 61.1054C767.451 60.148 774.21 59.6871 780.159 59.7934C786.108 59.8998 792.867 59.9353 800.436 59.9353C800.859 64.4032 801.07 69.4384 801.07 75.0765C801.07 80.7145 800.999 86.5298 800.894 92.5579C800.788 98.586 800.788 104.614 800.894 110.607C800.999 116.635 801.281 122.273 801.703 127.485C801.915 129.826 802.126 132.379 802.337 135.216C802.548 138.017 802.936 140.783 803.464 143.513C803.992 146.243 804.766 148.655 805.752 150.782C806.737 152.91 808.075 154.576 809.8 155.747C810.011 155.924 810.223 156.03 810.434 156.03C810.645 156.03 810.856 156.137 811.068 156.314C812.792 157.094 815.327 157.732 818.707 158.193C822.051 158.69 825.36 158.477 828.599 157.626C831.838 156.739 834.759 155.002 837.364 152.378C839.97 149.754 841.483 145.818 841.906 140.57C842.328 133.975 842.434 127.379 842.222 120.748C842.011 114.153 841.73 107.593 841.413 101.104C841.096 94.6146 840.885 88.1255 840.779 81.7428C840.674 75.3247 841.166 68.942 842.258 62.5238V61.3537C845.919 60.3963 849.122 59.7934 851.833 59.6161C854.544 59.4388 857.29 59.3679 860.106 59.4743C862.922 59.5807 866.055 59.7225 869.505 59.8998C872.955 60.0771 877.285 60.0062 882.495 59.6161C882.495 83.5158 882.777 107.38 883.305 131.28C883.833 155.179 883.692 179.93 882.812 205.567C880.207 205.39 878.06 205.248 876.335 205.142C874.61 205.035 872.99 205 871.477 205C869.963 205 868.343 205.035 866.618 205.142C864.893 205.248 862.711 205.39 860.141 205.567C859.261 205.567 857.747 205.709 855.6 205.993C853.417 206.276 851.27 206.524 849.122 206.737C846.94 206.915 845.004 206.985 843.279 206.879C841.554 206.773 840.674 206.454 840.674 205.851C840.251 202.553 840.075 199.823 840.181 197.695C840.286 195.568 840.216 193.121 840.005 190.426ZM991.238 4.58313V1.39178C991.238 1.21448 992.717 0.966269 995.639 0.647134C998.561 0.363459 1002.12 0.150703 1006.34 0.0797837C1010.57 -0.0265946 1015.04 -0.0265946 1019.82 0.0797837C1024.58 0.186162 1028.69 0.505297 1032.14 1.10811V20.3271C1032.14 52.7725 1032.67 84.7923 1033.76 116.458C1034.86 148.123 1034.96 177.909 1034.08 205.886C1027.36 205.886 1020 206.028 1012.01 206.312C1004.02 206.595 996.765 206.347 990.253 205.567C990.042 205.177 989.936 204.503 989.936 203.51C989.936 201.56 989.865 200 989.76 198.865C989.654 197.695 989.584 196.064 989.584 193.901C989.161 192.944 988.669 192.199 988.105 191.702C987.577 191.206 986.979 191.561 986.31 192.731C983.071 198.546 978.741 202.305 973.32 203.936C967.899 205.603 962.16 206.028 956.105 205.248C943.784 204.468 934.033 201.596 926.887 196.667C919.74 191.738 914.39 185.391 910.834 177.731C907.278 170.072 904.885 161.456 903.688 151.952C902.491 142.449 901.787 132.84 901.576 123.124C901.576 116.316 902.068 109.72 903.019 103.302C904.005 96.884 905.518 91.0332 907.56 85.6788C909.602 80.3244 912.312 75.7856 915.657 71.9915C919.001 68.1973 923.049 65.5379 927.837 63.9777C933.681 62.0274 940.123 60.8218 947.164 60.3253C954.204 59.8289 960.858 59.8289 967.124 60.3253C973.39 60.8218 978.706 61.7437 983.036 63.0912C987.366 64.4386 989.725 65.9988 990.182 67.7364C989.971 58.6233 989.866 51.2477 989.866 45.6097V32.0642C989.866 28.6601 989.901 26.0361 990.042 24.1922C990.147 22.3483 990.253 20.6108 990.358 18.9442C990.464 17.3131 990.57 15.4337 990.675 13.4125C990.781 11.3559 990.957 8.41275 991.168 4.54767L991.238 4.58313ZM940.933 114.401C939.841 117.131 939.208 119.933 938.997 122.84C938.785 125.748 938.68 128.585 938.68 131.28C938.68 136.138 939.313 140.854 940.616 145.392C941.919 149.967 943.855 154.045 946.46 157.626C949.065 161.207 952.198 164.08 955.859 166.207C959.52 168.335 963.639 169.398 968.18 169.398C973.602 169.398 977.861 168.335 980.994 166.207C984.127 164.08 986.521 161.172 988.141 157.484C989.76 153.796 990.746 149.364 991.062 144.222C991.379 139.081 991.555 133.407 991.555 127.166C991.555 119.578 991.379 113.621 991.062 109.259C990.746 104.898 989.936 101.529 988.633 99.2243C987.331 96.884 985.324 95.3947 982.614 94.721C979.903 94.0472 976.277 93.6926 971.736 93.6926C962.865 93.6926 955.789 95.4302 950.473 98.9406C945.157 102.451 941.989 107.593 940.898 114.365L940.933 114.401ZM1186.62 105.359C1179.68 106.316 1172.08 106.919 1163.74 107.096C1155.39 107.309 1147.58 106.706 1140.22 105.359C1140.85 103.018 1140.61 100.714 1139.41 98.3733C1138.21 96.033 1136.49 94.0118 1134.2 92.2743C1131.91 90.5368 1129.34 89.2248 1126.42 88.3383C1123.5 87.4518 1120.65 87.1327 1117.83 87.31C1112.83 88.0901 1109.13 89.7921 1106.64 92.4161C1104.14 95.0401 1102.9 97.9123 1102.9 100.997C1102.9 104.082 1104.21 107.203 1106.81 110.323C1109.42 113.444 1113.18 115.748 1118.18 117.309C1130.29 118.869 1141.66 120.961 1152.26 123.585C1162.85 126.209 1170.64 130.429 1175.63 136.244C1180.39 143.229 1183.31 150.357 1184.4 157.661C1185.49 164.931 1183.98 173.937 1179.86 184.611C1174.89 194.114 1167.08 200.922 1156.48 205C1145.89 209.078 1134.31 211.028 1121.77 210.815C1110.75 211.205 1100.79 210.319 1091.92 208.191C1083.05 206.064 1075.41 202.837 1069.04 198.582C1062.67 194.326 1057.67 189.078 1054.11 182.873C1050.56 176.668 1048.76 169.682 1048.76 161.917V160.463C1055.91 159.683 1064 159.434 1073.12 159.718C1082.2 160.002 1090.09 160.144 1096.81 160.144C1097.02 164.611 1099.35 168.264 1103.78 171.065C1108.22 173.866 1112.94 175.533 1117.9 176.029C1122.86 176.526 1127.41 175.71 1131.52 173.547C1135.64 171.42 1137.58 167.519 1137.37 161.881C1138 157.236 1136.84 153.725 1133.81 151.385C1130.78 149.045 1126.77 147.272 1121.81 145.995C1116.81 144.754 1111.21 143.619 1104.95 142.662C1098.68 141.705 1092.48 140.038 1086.43 137.698C1074.32 134.01 1065.48 128.23 1059.99 120.358C1054.46 112.486 1051.89 104.33 1052.21 95.8911C1052.53 87.4518 1055.56 79.6153 1061.29 72.4525C1067.03 65.2542 1075.2 60.4317 1085.79 57.8786C1089.91 56.9212 1094.95 56.1411 1100.9 55.5383C1106.85 54.971 1113.18 54.6518 1119.87 54.6518C1126.56 54.6518 1133.28 55.0064 1140.01 55.6801C1146.7 56.3539 1152.89 57.2758 1158.49 58.446C1168.66 62.3465 1175.92 68.481 1180.25 76.9558C1184.58 85.3951 1186.72 94.8628 1186.72 105.359H1186.62ZM146.498 77.5232H146.181C138.612 78.6224 130.48 79.2961 121.855 79.5443C113.195 79.828 105.099 79.0479 97.4947 77.2395C98.7972 72.3815 97.6003 68.3037 93.9392 65.0414C90.2428 61.7792 85.8424 59.7225 80.6323 58.8006C75.4222 57.9141 70.4233 58.3396 65.53 60.148C60.672 61.9565 57.7853 65.396 56.9404 70.4313C56.518 71.7078 56.342 72.9134 56.4476 74.0836C56.5532 75.2537 56.7292 76.4948 56.9404 77.7359C58.6654 82.062 61.4816 84.9696 65.3892 86.388C69.2968 87.8418 73.486 88.8347 78.0624 89.3666C89.5388 90.4304 100.17 93.5153 110.027 98.586C119.849 103.621 127.91 110.039 134.212 117.805C138.119 121.954 141.041 126.422 142.977 131.209C144.914 135.996 146.075 140.925 146.392 145.96C146.709 151.031 146.287 156.101 145.09 161.243C143.893 166.384 141.992 171.313 139.422 175.994C136.817 181.597 133.367 186.384 129.037 190.355C124.707 194.326 119.778 197.589 114.252 200.106C108.725 202.624 102.775 204.468 96.4034 205.673C90.0316 206.844 83.4838 207.34 76.7599 207.163C67.2198 206.985 57.7853 205.603 48.3508 202.979C38.9515 200.355 30.5379 196.702 23.1804 192.022C15.8228 187.341 9.97908 181.597 5.64906 174.824C1.31905 168.051 -0.51153 160.356 0.122131 151.669V150.038C7.69086 149.151 16.0341 148.903 25.1165 149.364C34.199 149.825 42.4366 149.967 49.7941 149.754C50.2166 155.534 52.9976 159.86 58.0669 162.732C63.1362 165.604 68.5575 167.023 74.2957 166.916C80.0338 166.81 84.9975 165.25 89.2219 162.165C93.4463 159.08 94.8897 154.399 93.5871 148.087C92.9535 143.761 90.9821 140.286 87.7434 137.662C84.5047 135.038 80.6675 132.911 76.2319 131.315C71.7962 129.684 66.9734 128.478 61.7985 127.663C56.6236 126.847 51.7303 126.103 47.1891 125.358C42.859 124.649 38.8459 123.479 35.1847 121.847C31.4884 120.216 28.144 118.337 25.1165 116.174C15.154 108.231 8.71176 99.4725 5.78988 89.934C2.868 80.3954 2.69198 71.0695 5.29703 62.0628C7.90208 53.0562 12.7954 44.8296 20.0473 37.4185C27.2992 30.0075 36.1 24.5113 46.485 20.8945C51.6951 19.086 57.3981 17.8804 63.6995 17.2421C69.9657 16.6039 76.3023 16.4266 82.6741 16.7103C89.0459 16.9939 95.3473 17.7386 101.508 19.0151C107.668 20.2917 113.336 21.8873 118.546 23.8731C128.931 28.3764 136.923 35.0782 142.555 43.9076C148.188 52.737 149.455 63.9422 146.463 77.4522L146.498 77.5232Z" fill="#BF7DD2"/>
<path d="M1417.27 96.3533C1416.39 66 1396.04 64.8298 1375.44 75.4322C1365.69 80.4675 1356.86 87.2402 1348.73 94.7931C1346.72 96.6724 1344.15 97.9844 1340.66 100.36C1342.14 87.0984 1345.84 75.8577 1346.65 64.0497C1348.02 44.7244 1344.4 27.9875 1327.89 16.0731C1323.8 15.1512 1319.68 14.2647 1315.6 13.3428C1307.47 13.4137 1303.14 18.378 1301.24 25.5408C1298.38 36.2496 1295.6 46.9938 1294.65 58.128C1294.37 61.3903 1294.79 64.9008 1292.4 68.0921C1283.74 62.6668 1274.73 59.0145 1265.01 58.0216C1252.3 56.7451 1245.33 62.2059 1241.88 74.2975C1238.64 85.7154 1239.77 96.1405 1246.67 105.892C1250.47 111.246 1253.39 117.274 1258.01 122.026C1261.98 126.104 1261.17 129.401 1258.01 133.728C1246.21 149.755 1237.06 167.237 1230.79 186.207C1228.58 192.945 1228.44 199.576 1230.65 206.419C1237.87 228.971 1270.22 236.312 1284.9 225.426C1294.62 218.227 1304.37 211.064 1310.95 200.462C1314.75 194.363 1315.21 194.328 1318.59 201.171C1322.57 209.185 1328.13 215.71 1335.63 220.426C1346.75 227.376 1357.49 226.773 1366.96 219.043C1375.69 211.951 1378.75 200.675 1374.56 188.867C1370.41 177.165 1363.3 167.485 1353.51 159.826C1351.61 158.336 1348.94 157.485 1347.85 154.471C1360.91 151.28 1373.65 148.266 1385.9 143.514C1398.57 138.621 1409.2 131.706 1413.61 117.806C1415.08 111.104 1416.53 104.367 1418.01 97.6653C1417.76 97.2043 1417.3 96.7433 1417.27 96.2824V96.3533ZM1266 84.5807C1267.79 82.9851 1270.4 84.7226 1272.51 85.8927C1284.06 92.4527 1288.95 104.332 1297.08 116.246C1286.87 114.544 1280.75 110.324 1276.14 103.977C1273.04 99.7219 1270.33 95.1831 1267.65 90.6443C1266.56 88.8004 1263.64 86.6729 1266.03 84.5807H1266ZM1295.89 170.605C1293.81 184.576 1284.87 194.966 1272.58 203.122C1267.34 206.597 1262.76 205.533 1258.01 202.661C1253.15 199.682 1254.87 195.285 1256.03 191.349C1260.12 177.591 1267.19 165.286 1275.01 153.478C1279.3 146.989 1285.22 151.28 1289.97 152.627C1294.44 153.904 1297.82 157.734 1297.4 163.23C1297.26 165.322 1296.55 167.343 1295.85 170.605H1295.89ZM1327.57 63.8015C1326.97 69.6523 1325.35 78.4108 1320.53 88.6231C1319.54 86.9565 1318.2 84.5807 1317.01 81.5312C1313.7 73.3046 1313.56 66.3901 1313.49 60.2556C1313.38 50.5752 1313.31 44.7598 1317.01 42.5259C1319.05 41.2848 1321.97 41.3203 1324.05 42.5259C1329.43 45.6818 1328.31 56.5678 1327.57 63.8015ZM1352.21 191.455C1354.36 194.434 1357.17 198.335 1355.8 201.278C1355.06 202.838 1353.23 204.008 1351.44 204.079C1346.82 204.256 1343.23 197.058 1340.88 192.271C1338.94 188.406 1336.51 182.307 1335.49 174.045C1336.76 175.57 1338.87 178.016 1341.68 180.818C1346.68 185.782 1349.11 187.129 1352.25 191.455H1352.21ZM1393.33 100.325C1392.52 110.112 1387.34 115.927 1378.12 119.189C1366.33 123.373 1354.67 127.806 1341.61 128.409C1358.51 119.863 1369.95 103.658 1387.2 95.6086C1389.03 94.7576 1390.79 92.8428 1392.91 94.4385C1395.05 96.0696 1393.47 98.3035 1393.33 100.325Z" fill="#BF7DD2"/>
</svg>
