<svg width="339" height="64" viewBox="0 0 339 64" fill="none" xmlns="http://www.w3.org/2000/svg">
<path d="M49.0532 62.5531V63.3149C49.0532 63.3572 48.7003 63.4165 48.0028 63.4927C47.3054 63.5604 46.4566 63.6112 45.4483 63.6281C44.4399 63.6535 43.3727 63.6535 42.2298 63.6281C41.0954 63.6027 40.1122 63.5265 39.2887 63.3826V58.795C39.2887 54.9437 39.2383 51.101 39.1375 47.2582C39.0366 43.4069 38.9442 39.6234 38.8686 35.8907C38.7929 32.1579 38.7425 28.5013 38.7173 24.904C38.6921 21.3152 38.7257 17.8448 38.835 14.5099C40.4316 14.5099 42.1962 14.476 44.1037 14.4083C46.0113 14.3406 47.7423 14.3999 49.2969 14.5861C49.3473 14.6792 49.3725 14.84 49.3725 15.077C49.3725 15.5425 49.3809 15.915 49.4145 16.1858C49.4398 16.4651 49.4566 16.8545 49.4566 17.3708C49.5574 17.5993 49.675 17.7771 49.8011 17.8956C49.9271 18.0141 50.07 17.9295 50.2297 17.6501C51.0027 16.262 52.0363 15.3648 53.3304 14.9754C54.6245 14.5861 55.9942 14.476 57.4396 14.6622C60.3807 14.8485 62.7084 15.5341 64.4142 16.7106C66.12 17.8871 67.3973 19.4022 68.246 21.2305C69.0948 23.0588 69.6494 25.1156 69.9099 27.3841C70.1704 29.6525 70.3468 31.9463 70.4477 34.2655C70.4477 35.8906 70.33 37.465 70.1031 38.9886C69.8678 40.5206 69.5065 41.9172 69.0191 43.1953C68.5317 44.4734 67.8847 45.5569 67.0864 46.4625C66.2881 47.3682 65.3133 48.003 64.1789 48.3755C62.784 48.841 61.2462 49.1288 59.5656 49.2473C57.8849 49.3658 56.2967 49.3658 54.801 49.2473C53.3052 49.1288 52.0363 48.9087 51.0027 48.5871C49.9691 48.2654 49.3977 47.893 49.2969 47.4782C49.3473 49.6536 49.3725 51.4141 49.3725 52.76V55.9933C49.3725 56.8059 49.3557 57.4322 49.3305 57.8724C49.3053 58.3125 49.2801 58.7273 49.2549 59.1251C49.2297 59.5144 49.2045 59.9631 49.1793 60.4455C49.1541 60.9365 49.112 61.639 49.0616 62.5701L49.0532 62.5531ZM61.0613 36.3393C61.3218 35.6875 61.4731 35.0188 61.5235 34.3248C61.5739 33.6307 61.5991 32.962 61.5991 32.3103C61.5991 31.1507 61.4479 30.0249 61.137 28.9415C60.826 27.8496 60.3639 26.8762 59.742 26.0213C59.1202 25.1664 58.3723 24.4808 57.4984 23.9729C56.6161 23.4651 55.6413 23.2112 54.5573 23.2112C53.2128 23.2112 52.1792 23.4651 51.4565 23.9729C50.7338 24.4808 50.1792 25.1749 49.7927 26.0552C49.4061 26.9354 49.1709 28.0019 49.0952 29.2547C49.0196 30.5074 48.9776 31.8532 48.9776 33.2837C48.9776 35.095 49.0196 36.517 49.0952 37.5581C49.1709 38.5992 49.3641 39.4033 49.675 39.9535C49.986 40.5037 50.4649 40.8676 51.112 41.0285C51.759 41.1893 52.6246 41.2739 53.7086 41.2739C55.8262 41.2739 57.5152 40.8592 58.7841 40.0212C60.053 39.1833 60.8092 37.9559 61.0697 36.3393H61.0613ZM93.8337 45.4468C93.5732 45.5822 93.2538 45.7515 92.8673 45.9378C92.4808 46.124 92.153 46.3102 91.9009 46.4964C90.8169 47.1905 89.5985 47.7491 88.2624 48.1639C86.9179 48.5786 85.5397 48.8156 84.1196 48.8579C82.6995 48.9002 81.3214 48.7648 79.9768 48.4432C78.6323 48.1215 77.4223 47.5375 76.3383 46.708C75.8173 46.2932 75.4223 45.4214 75.1366 44.101C74.8509 42.7806 74.6745 41.1893 74.5904 39.3356C74.5148 37.4819 74.4896 35.4505 74.5148 33.2498C74.54 31.0491 74.582 28.823 74.6324 26.5715C74.6829 24.32 74.7333 22.1531 74.7837 20.0709C74.8341 17.9887 74.8089 16.152 74.7081 14.5776C76.5147 14.3491 78.1282 14.239 79.5483 14.2644C80.9684 14.2898 82.5818 14.2983 84.3885 14.2983C84.4893 15.3648 84.5398 16.5667 84.5398 17.9125C84.5398 19.2583 84.523 20.6465 84.4978 22.0854C84.4725 23.5243 84.4725 24.9633 84.4978 26.3937C84.523 27.8327 84.5902 29.1785 84.691 30.4227C84.7414 30.9814 84.7919 31.5908 84.8423 32.2679C84.8927 32.9366 84.9851 33.5968 85.1112 34.2486C85.2372 34.9003 85.4221 35.4759 85.6574 35.9838C85.8927 36.4916 86.212 36.8894 86.6237 37.1688C86.6742 37.2111 86.7246 37.2365 86.775 37.2365C86.8254 37.2365 86.8759 37.2619 86.9263 37.3042C87.338 37.4904 87.9431 37.6428 88.7498 37.7528C89.5481 37.8713 90.338 37.8205 91.111 37.6174C91.8841 37.4058 92.5816 36.991 93.2034 36.3647C93.8253 35.7383 94.1866 34.7988 94.2874 33.546C94.3883 31.9717 94.4135 30.3973 94.3631 28.8145C94.3127 27.2402 94.2454 25.6743 94.1698 24.1253C94.0942 22.5763 94.0437 21.0274 94.0185 19.5038C93.9933 17.9718 94.111 16.4482 94.3715 14.9162V14.6369C95.2454 14.4083 96.0101 14.2644 96.6571 14.2221C97.3042 14.1798 97.9596 14.1629 98.6319 14.1882C99.3041 14.2136 100.052 14.2475 100.876 14.2898C101.699 14.3321 102.733 14.3152 103.976 14.2221C103.976 19.927 104.044 25.6235 104.17 31.3284C104.296 37.0333 104.262 42.9414 104.052 49.0611C103.43 49.0187 102.917 48.9849 102.506 48.9595C102.094 48.9341 101.707 48.9256 101.346 48.9256C100.985 48.9256 100.598 48.9341 100.186 48.9595C99.7747 48.9849 99.2537 49.0187 98.6403 49.0611C98.4302 49.0611 98.0689 49.0949 97.5563 49.1626C97.0353 49.2304 96.5227 49.2896 96.0101 49.3404C95.4891 49.3827 95.0269 49.3996 94.6152 49.3742C94.2034 49.3489 93.9933 49.2727 93.9933 49.1288C93.8925 48.3416 93.8505 47.6899 93.8757 47.182C93.9009 46.6741 93.8841 46.0901 93.8337 45.4468ZM129.934 1.09401V0.332223C129.934 0.289901 130.287 0.230652 130.984 0.154473C131.682 0.0867588 132.53 0.0359732 133.539 0.0190446C134.547 -0.00634821 135.614 -0.00634821 136.757 0.0190446C137.891 0.0444375 138.875 0.120616 139.698 0.264509V4.85215C139.698 12.597 139.824 20.2402 140.085 27.7988C140.345 35.3574 140.37 42.4674 140.16 49.1457C138.555 49.1457 136.799 49.1796 134.892 49.2473C132.984 49.315 131.253 49.2557 129.698 49.0695C129.648 48.9764 129.623 48.8156 129.623 48.5786C129.623 48.1131 129.606 47.7406 129.581 47.4698C129.556 47.1905 129.539 46.8011 129.539 46.2848C129.438 46.0562 129.32 45.8785 129.186 45.76C129.06 45.6415 128.917 45.7261 128.757 46.0055C127.984 47.3936 126.951 48.2908 125.656 48.6802C124.362 49.078 122.993 49.1796 121.547 48.9934C118.606 48.8071 116.279 48.1215 114.573 46.945C112.867 45.7685 111.59 44.2534 110.741 42.4251C109.892 40.5968 109.321 38.54 109.035 36.2715C108.749 34.0031 108.581 31.7093 108.531 29.3901C108.531 27.7649 108.648 26.1906 108.875 24.6586C109.111 23.1265 109.472 21.7299 109.959 20.4518C110.447 19.1737 111.094 18.0903 111.892 17.1846C112.69 16.2789 113.657 15.6441 114.8 15.2717C116.194 14.8061 117.732 14.5184 119.413 14.3999C121.094 14.2814 122.682 14.2814 124.178 14.3999C125.673 14.5184 126.942 14.7384 127.976 15.0601C129.009 15.3817 129.572 15.7541 129.682 16.1689C129.631 13.9936 129.606 12.233 129.606 10.8872V7.65382C129.606 6.84125 129.614 6.2149 129.648 5.77475C129.673 5.33461 129.698 4.91986 129.724 4.52204C129.749 4.13268 129.774 3.68408 129.799 3.20161C129.824 2.71068 129.866 2.00815 129.917 1.08554L129.934 1.09401ZM117.926 27.3079C117.665 27.9596 117.514 28.6283 117.463 29.3224C117.413 30.0164 117.388 30.6936 117.388 31.3369C117.388 32.4965 117.539 33.6222 117.85 34.7057C118.161 35.7975 118.623 36.7709 119.245 37.6258C119.867 38.4807 120.615 39.1663 121.488 39.6742C122.362 40.182 123.346 40.436 124.43 40.436C125.724 40.436 126.74 40.182 127.488 39.6742C128.236 39.1663 128.808 38.4723 129.194 37.592C129.581 36.7117 129.816 35.6537 129.892 34.4263C129.967 33.199 130.009 31.8447 130.009 30.355C130.009 28.5437 129.967 27.1217 129.892 26.0806C129.816 25.0394 129.623 24.2353 129.312 23.6852C129.001 23.1265 128.522 22.771 127.875 22.6102C127.228 22.4494 126.362 22.3647 125.278 22.3647C123.161 22.3647 121.472 22.7795 120.203 23.6174C118.934 24.4554 118.178 25.6827 117.917 27.2994L117.926 27.3079ZM155.731 0.332223V1.09401C155.782 2.02508 155.824 2.72761 155.849 3.21008C155.874 3.70101 155.899 4.14115 155.925 4.5305C155.95 4.92833 155.975 5.34308 156 5.78322C156.025 6.22336 156.042 6.84972 156.042 7.66229V10.8956C156.042 12.2415 156.017 14.002 155.967 16.1774C156.068 15.7626 156.639 15.3902 157.673 15.0685C158.706 14.7469 159.967 14.5268 161.471 14.4083C162.966 14.2898 164.555 14.2898 166.235 14.4083C167.916 14.5268 169.454 14.8146 170.849 15.2801C171.983 15.6526 172.949 16.2874 173.756 17.1931C174.554 18.0987 175.202 19.1906 175.689 20.4603C176.176 21.7384 176.538 23.135 176.773 24.667C177.008 26.1991 177.117 27.7734 177.117 29.3986C177.017 31.7178 176.832 34.0116 176.58 36.28C176.319 38.5484 175.765 40.6053 174.916 42.4335C174.067 44.2618 172.781 45.7685 171.084 46.9535C169.05 48.3585 166.58 48.7733 164.109 49.0018C159.857 49.3996 157.664 49.0441 152.984 48.9764C150.715 48.9426 148.219 48.9764 145.513 49.1372C145.412 45.8023 145.37 42.332 145.395 38.7431C145.421 35.1543 145.471 31.4892 145.547 27.7565C145.622 24.0237 145.715 20.2402 145.816 16.389C145.916 12.5462 145.967 8.69493 145.967 4.85215V0.264509C146.79 0.12908 147.774 0.0444375 148.908 0.0190446C150.042 -0.00634821 151.118 -0.00634821 152.126 0.0190446C153.135 0.0444375 153.984 0.0867588 154.681 0.154473C155.378 0.222187 155.731 0.281437 155.731 0.332223ZM167.74 27.3079C167.479 25.6827 166.723 24.4554 165.454 23.6259C164.185 22.7964 162.496 22.3732 160.378 22.3732C159.294 22.3732 158.429 22.4578 157.782 22.6187C157.135 22.7795 156.656 23.1435 156.345 23.6936C156.034 24.2523 155.841 25.0479 155.765 26.089C155.689 27.1301 155.647 28.5606 155.647 30.3635C155.647 31.8447 155.689 33.199 155.765 34.4348C155.841 35.6621 156.076 36.7201 156.462 37.6004C156.849 38.4807 157.404 39.1748 158.126 39.6827C158.849 40.1905 159.883 40.4444 161.227 40.4444C162.311 40.4444 163.294 40.1905 164.168 39.6827C165.042 39.1748 165.798 38.4892 166.412 37.6343C167.034 36.7794 167.496 35.806 167.807 34.7141C168.118 33.6222 168.269 32.5049 168.269 31.3453C168.269 30.6936 168.244 30.0249 168.193 29.3308C168.143 28.6368 167.983 27.9681 167.731 27.3163L167.74 27.3079ZM200.512 45.4553C200.251 45.5907 199.932 45.76 199.545 45.9462C199.159 46.1324 198.831 46.3186 198.579 46.5049C197.495 47.1989 196.277 47.7576 194.941 48.1723C193.596 48.5871 192.218 48.8241 190.798 48.8664C189.378 48.9087 188 48.7733 186.655 48.4516C185.311 48.13 184.1 47.546 183.016 46.7165C182.495 46.3017 182.101 45.4299 181.815 44.1095C181.529 42.789 181.353 41.1978 181.269 39.3441C181.193 37.4904 181.168 35.459 181.193 33.2583C181.218 31.0576 181.26 28.8314 181.311 26.5799C181.361 24.3284 181.411 22.1616 181.462 20.0794C181.512 17.9972 181.487 16.1604 181.386 14.5861C183.193 14.3575 184.806 14.2475 186.226 14.2729C187.647 14.2983 189.26 14.3067 191.067 14.3067C191.168 15.3732 191.218 16.5752 191.218 17.921C191.218 19.2668 191.201 20.655 191.176 22.0939C191.151 23.5328 191.151 24.9717 191.176 26.4022C191.201 27.8411 191.268 29.1869 191.369 30.4312C191.42 30.9898 191.47 31.5993 191.52 32.2764C191.571 32.9451 191.663 33.6053 191.789 34.257C191.915 34.9088 192.1 35.4844 192.336 35.9922C192.571 36.5001 192.89 36.8979 193.302 37.1772C193.352 37.2195 193.403 37.2449 193.453 37.2449C193.504 37.2449 193.554 37.2703 193.604 37.3126C194.016 37.4989 194.621 37.6512 195.428 37.7613C196.226 37.8798 197.016 37.829 197.789 37.6258C198.562 37.4142 199.26 36.9995 199.882 36.3731C200.503 35.7468 200.865 34.8072 200.966 33.5545C201.066 31.9802 201.092 30.4058 201.041 28.823C200.991 27.2486 200.924 25.6827 200.848 24.1338C200.772 22.5848 200.722 21.0358 200.697 19.5123C200.672 17.9802 200.789 16.4567 201.05 14.9246V14.6453C201.924 14.4168 202.688 14.2729 203.335 14.2306C203.982 14.1882 204.638 14.1713 205.31 14.1967C205.982 14.2221 206.73 14.256 207.554 14.2983C208.377 14.3406 209.411 14.3237 210.654 14.2306C210.654 19.9355 210.722 25.6319 210.848 31.3369C210.974 37.0418 210.94 42.9499 210.73 49.0695C210.108 49.0272 209.596 48.9934 209.184 48.968C208.772 48.9426 208.386 48.9341 208.024 48.9341C207.663 48.9341 207.276 48.9426 206.865 48.968C206.453 48.9934 205.932 49.0272 205.318 49.0695C205.108 49.0695 204.747 49.1034 204.234 49.1711C203.713 49.2388 203.201 49.2981 202.688 49.3488C202.167 49.3912 201.705 49.4081 201.293 49.3827C200.882 49.3573 200.671 49.2811 200.671 49.1372C200.571 48.3501 200.529 47.6983 200.554 47.1905C200.579 46.6826 200.562 46.0986 200.512 45.4553ZM236.612 1.09401V0.332223C236.612 0.289901 236.965 0.230652 237.662 0.154473C238.36 0.0867588 239.208 0.0359732 240.217 0.0190446C241.225 -0.00634821 242.292 -0.00634821 243.435 0.0190446C244.57 0.0444375 245.553 0.120616 246.376 0.264509V4.85215C246.376 12.597 246.502 20.2402 246.763 27.7988C247.023 35.3574 247.049 42.4674 246.838 49.1457C245.233 49.1457 243.477 49.1796 241.57 49.2473C239.662 49.315 237.931 49.2557 236.377 49.0695C236.326 48.9764 236.301 48.8156 236.301 48.5786C236.301 48.1131 236.284 47.7406 236.259 47.4698C236.234 47.1905 236.217 46.8011 236.217 46.2848C236.116 46.0562 235.998 45.8785 235.864 45.76C235.738 45.6415 235.595 45.7261 235.435 46.0055C234.662 47.3936 233.629 48.2908 232.335 48.6802C231.041 49.078 229.671 49.1796 228.225 48.9934C225.284 48.8071 222.957 48.1215 221.251 46.945C219.545 45.7685 218.268 44.2534 217.419 42.4251C216.57 40.5968 215.999 38.54 215.713 36.2715C215.427 34.0031 215.259 31.7093 215.209 29.3901C215.209 27.7649 215.327 26.1906 215.554 24.6586C215.789 23.1265 216.15 21.7299 216.638 20.4518C217.125 19.1737 217.772 18.0903 218.57 17.1846C219.369 16.2789 220.335 15.6441 221.478 15.2717C222.873 14.8061 224.41 14.5184 226.091 14.3999C227.772 14.2814 229.36 14.2814 230.856 14.3999C232.351 14.5184 233.62 14.7384 234.654 15.0601C235.687 15.3817 236.25 15.7541 236.36 16.1689C236.309 13.9936 236.284 12.233 236.284 10.8872V7.65382C236.284 6.84125 236.293 6.2149 236.326 5.77475C236.351 5.33461 236.377 4.91986 236.402 4.52204C236.427 4.13268 236.452 3.68408 236.477 3.20161C236.503 2.71068 236.545 2.00815 236.595 1.08554L236.612 1.09401ZM224.604 27.3079C224.343 27.9596 224.192 28.6283 224.142 29.3224C224.091 30.0164 224.066 30.6936 224.066 31.3369C224.066 32.4965 224.217 33.6222 224.528 34.7057C224.839 35.7975 225.301 36.7709 225.923 37.6258C226.545 38.4807 227.293 39.1663 228.167 39.6742C229.041 40.182 230.024 40.436 231.108 40.436C232.402 40.436 233.419 40.182 234.167 39.6742C234.914 39.1663 235.486 38.4723 235.872 37.592C236.259 36.7117 236.494 35.6537 236.57 34.4263C236.645 33.199 236.687 31.8447 236.687 30.355C236.687 28.5437 236.645 27.1217 236.57 26.0806C236.494 25.0394 236.301 24.2353 235.99 23.6852C235.679 23.1265 235.2 22.771 234.553 22.6102C233.906 22.4494 233.04 22.3647 231.956 22.3647C229.839 22.3647 228.15 22.7795 226.881 23.6174C225.612 24.4554 224.856 25.6827 224.595 27.2994L224.604 27.3079ZM283.249 25.1495C281.594 25.378 279.779 25.5219 277.787 25.5642C275.796 25.615 273.93 25.4711 272.174 25.1495C272.325 24.5908 272.266 24.0407 271.981 23.482C271.695 22.9234 271.283 22.4409 270.737 22.0262C270.191 21.6114 269.577 21.2982 268.88 21.0866C268.183 20.875 267.502 20.7988 266.83 20.8412C265.636 21.0274 264.754 21.4337 264.157 22.06C263.561 22.6864 263.267 23.372 263.267 24.1084C263.267 24.8448 263.578 25.5896 264.199 26.3345C264.821 27.0793 265.72 27.6295 266.914 28.0019C269.804 28.3744 272.519 28.8738 275.048 29.5001C277.577 30.1265 279.434 31.1337 280.628 32.5219C281.762 34.1893 282.46 35.8907 282.72 37.6343C282.98 39.3695 282.619 41.5194 281.636 44.0671C280.451 46.3356 278.586 47.9607 276.056 48.9341C273.527 49.9075 270.762 50.373 267.771 50.3222C265.141 50.4154 262.762 50.2037 260.645 49.6959C258.527 49.188 256.704 48.4178 255.183 47.4021C253.662 46.3864 252.469 45.1336 251.62 43.6524C250.771 42.1711 250.343 40.5037 250.343 38.65V38.303C252.048 38.1168 253.981 38.0575 256.158 38.1252C258.326 38.1929 260.208 38.2268 261.813 38.2268C261.863 39.2933 262.418 40.1651 263.477 40.8338C264.536 41.5025 265.662 41.9003 266.846 42.0188C268.031 42.1373 269.115 41.9426 270.098 41.4263C271.082 40.9184 271.544 39.9874 271.493 38.6415C271.645 37.5327 271.367 36.6948 270.645 36.1361C269.922 35.5775 268.964 35.1543 267.779 34.8495C266.586 34.5533 265.25 34.2824 263.754 34.0539C262.258 33.8254 260.779 33.4275 259.334 32.8689C256.443 31.9886 254.334 30.6089 253.023 28.7299C251.704 26.8508 251.09 24.904 251.166 22.8895C251.242 20.875 251.964 19.0044 253.334 17.2946C254.704 15.5764 256.653 14.4252 259.183 13.8158C260.166 13.5873 261.368 13.4011 262.788 13.2572C264.208 13.1217 265.72 13.0456 267.317 13.0456C268.914 13.0456 270.519 13.1302 272.124 13.291C273.72 13.4519 275.199 13.6719 276.535 13.9512C278.964 14.8823 280.695 16.3466 281.728 18.3696C282.762 20.3841 283.275 22.6441 283.275 25.1495H283.249ZM34.9695 18.505H34.8939C33.0872 18.7674 31.1461 18.9282 29.0873 18.9875C27.0201 19.0552 25.0874 18.869 23.2723 18.4373C23.5832 17.2777 23.2975 16.3043 22.4236 15.5256C21.5413 14.7469 20.4909 14.256 19.2472 14.0359C18.0035 13.8243 16.8103 13.9259 15.6422 14.3575C14.4826 14.7892 13.7935 15.6102 13.5919 16.8122C13.491 17.1169 13.449 17.4047 13.4742 17.684C13.4994 17.9633 13.5414 18.2596 13.5919 18.5558C14.0036 19.5885 14.6759 20.2825 15.6086 20.6211C16.5414 20.9681 17.5413 21.2051 18.6338 21.3321C21.3732 21.586 23.9109 22.3224 26.2638 23.5328C28.6083 24.7347 30.5326 26.2668 32.0368 28.1204C32.9696 29.1108 33.667 30.1773 34.1292 31.3199C34.5914 32.4626 34.8687 33.6392 34.9443 34.8411C35.0199 36.0515 34.9191 37.2619 34.6334 38.4892C34.3477 39.7165 33.8939 40.893 33.2805 42.0103C32.6586 43.3477 31.8351 44.4904 30.8015 45.4384C29.7679 46.3864 28.5915 47.1651 27.2722 47.766C25.9529 48.367 24.5328 48.8071 23.0118 49.0949C21.4908 49.3742 19.9278 49.4927 18.3228 49.4504C16.0456 49.4081 13.7935 49.078 11.5415 48.4516C9.29784 47.8253 7.28949 46.9535 5.53323 45.8362C3.77696 44.7189 2.38204 43.3477 1.34845 41.731C0.314861 40.1143 -0.122104 38.2776 0.0291531 36.2038V35.8145C1.83583 35.6029 3.82738 35.5436 5.9954 35.6537C8.16342 35.7637 10.1298 35.7975 11.886 35.7468C11.9869 37.1264 12.6507 38.1591 13.8608 38.8447C15.0708 39.5303 16.3649 39.8689 17.7346 39.8435C19.1043 39.8181 20.2892 39.4456 21.2976 38.7093C22.3059 37.9729 22.6505 36.8556 22.3396 35.3489C22.1883 34.3163 21.7177 33.4868 20.9446 32.8604C20.1715 32.2341 19.2556 31.7262 18.1968 31.3453C17.138 30.956 15.9868 30.6682 14.7515 30.4735C13.5162 30.2788 12.3482 30.1011 11.2642 29.9233C10.2306 29.754 9.27263 29.4747 8.3987 29.0854C7.51637 28.696 6.71807 28.2474 5.9954 27.7311C3.6173 25.8351 2.07953 23.7444 1.38206 21.4675C0.6846 19.1906 0.642584 16.9645 1.26442 14.8146C1.88625 12.6647 3.05429 10.701 4.78534 8.93193C6.5164 7.16289 8.61719 5.85093 11.0961 4.98757C12.3398 4.5559 13.7011 4.26811 15.2053 4.11576C16.701 3.9634 18.2136 3.92108 19.7346 3.98879C21.2555 4.0565 22.7597 4.23425 24.2303 4.53897C25.7008 4.84368 27.0537 5.22458 28.2974 5.69857C30.7763 6.77354 32.6838 8.37329 34.0284 10.4809C35.3729 12.5885 35.6754 15.2632 34.9611 18.4881L34.9695 18.505Z" fill="#F1F0EC"/>
<path d="M338.309 22.9994C338.099 15.754 333.242 15.4747 328.326 18.0055C325.998 19.2074 323.889 20.8241 321.948 22.627C321.469 23.0756 320.855 23.3888 320.023 23.9559C320.376 20.7903 321.259 18.1071 321.452 15.2885C321.78 10.6755 320.914 6.68032 316.973 3.83632C315.998 3.61625 315.015 3.40464 314.04 3.18457C312.099 3.2015 311.066 4.3865 310.612 6.09628C309.931 8.65249 309.267 11.2172 309.04 13.875C308.973 14.6537 309.074 15.4916 308.503 16.2534C306.435 14.9584 304.284 14.0866 301.965 13.8496C298.931 13.5448 297.268 14.8483 296.444 17.7347C295.671 20.4602 295.94 22.9487 297.587 25.2763C298.494 26.5544 299.192 27.9934 300.293 29.1276C301.242 30.101 301.049 30.8882 300.293 31.9208C297.478 35.7467 295.293 39.9195 293.797 44.4479C293.268 46.0561 293.234 47.639 293.763 49.2726C295.486 54.6558 303.209 56.408 306.713 53.8094C309.032 52.0912 311.36 50.3814 312.931 47.8506C313.839 46.3947 313.948 46.3862 314.755 48.0199C315.704 49.9328 317.032 51.4902 318.822 52.616C321.477 54.275 324.04 54.1311 326.301 52.2859C328.384 50.593 329.116 47.9014 328.116 45.0827C327.124 42.2895 325.427 39.9788 323.091 38.1505C322.637 37.795 321.998 37.5919 321.738 36.8724C324.855 36.1106 327.897 35.3911 330.821 34.2569C333.847 33.0889 336.384 31.4383 337.435 28.1203C337.788 26.5206 338.132 24.9124 338.485 23.3126C338.426 23.2026 338.317 23.0926 338.309 22.9825V22.9994ZM302.2 20.1893C302.629 19.8084 303.251 20.2232 303.755 20.5025C306.511 22.0684 307.679 24.9039 309.62 27.7479C307.183 27.3416 305.721 26.3344 304.62 24.8193C303.881 23.8036 303.234 22.7201 302.595 21.6367C302.335 21.1966 301.637 20.6887 302.209 20.1893H302.2ZM309.335 40.7236C308.839 44.0586 306.704 46.5386 303.772 48.4854C302.52 49.3149 301.427 49.061 300.293 48.3754C299.133 47.6644 299.545 46.6148 299.822 45.6752C300.797 42.3911 302.486 39.454 304.351 36.6354C305.377 35.0864 306.788 36.1106 307.923 36.4323C308.99 36.737 309.797 37.6511 309.696 38.9631C309.662 39.4625 309.494 39.9449 309.326 40.7236H309.335ZM316.897 15.2292C316.755 16.6258 316.368 18.7165 315.217 21.1542C314.981 20.7564 314.662 20.1893 314.376 19.4614C313.587 17.4977 313.553 15.8471 313.536 14.3828C313.511 12.0721 313.494 10.6839 314.376 10.1507C314.864 9.85442 315.561 9.86289 316.057 10.1507C317.343 10.904 317.074 13.5025 316.897 15.2292ZM322.78 45.7006C323.292 46.4116 323.964 47.3427 323.637 48.0452C323.46 48.4177 323.023 48.697 322.595 48.7139C321.494 48.7562 320.637 47.038 320.074 45.8953C319.612 44.9727 319.032 43.5169 318.788 41.5447C319.091 41.9086 319.595 42.4927 320.267 43.1614C321.46 44.3464 322.04 44.668 322.788 45.7006H322.78ZM332.594 23.9474C332.401 26.2836 331.166 27.6717 328.964 28.4504C326.149 29.4492 323.368 30.5073 320.25 30.6512C324.284 28.6113 327.015 24.7431 331.132 22.8217C331.569 22.6186 331.989 22.1615 332.494 22.5424C333.006 22.9317 332.628 23.465 332.594 23.9474Z" fill="#F1F0EC"/>
</svg>
