<svg width="242" height="55" viewBox="0 0 242 55" fill="none" xmlns="http://www.w3.org/2000/svg">
<path d="M41.8839 53.4107V54.0612C41.8839 54.0973 41.5825 54.1479 40.987 54.213C40.3915 54.2708 39.6668 54.3141 38.8058 54.3286C37.9448 54.3503 37.0336 54.3503 36.0578 54.3286C35.0892 54.3069 34.2497 54.2419 33.5465 54.119V50.2019C33.5465 46.9135 33.5035 43.6324 33.4174 40.3512C33.3313 37.0628 33.2524 33.8323 33.1878 30.6451C33.1232 27.4579 33.0802 24.3358 33.0586 21.2642C33.0371 18.1999 33.0658 15.2367 33.1591 12.3892C34.5223 12.3892 36.0291 12.3603 37.6578 12.3025C39.2865 12.2447 40.7646 12.2953 42.092 12.4543C42.135 12.5338 42.1565 12.6711 42.1565 12.8734C42.1565 13.2709 42.1637 13.5889 42.1924 13.8202C42.2139 14.0587 42.2283 14.3911 42.2283 14.832C42.3144 15.0271 42.4148 15.1789 42.5225 15.2801C42.6301 15.3813 42.7521 15.309 42.8884 15.0705C43.5485 13.8852 44.431 13.1192 45.536 12.7867C46.6409 12.4543 47.8105 12.3603 49.0446 12.5193C51.5558 12.6783 53.5433 13.2637 54.9998 14.2683C56.4563 15.2729 57.5469 16.5665 58.2716 18.1276C58.9963 19.6887 59.4698 21.4449 59.6923 23.3818C59.9147 25.3187 60.0654 27.2772 60.1515 29.2575C60.1515 30.6451 60.051 31.9894 59.8573 33.2902C59.6564 34.5984 59.3479 35.7909 58.9317 36.8822C58.5156 37.9735 57.9631 38.8985 57.2815 39.6719C56.5998 40.4452 55.7675 40.9872 54.7989 41.3052C53.6079 41.7027 52.2948 41.9484 50.8598 42.0496C49.4248 42.1508 48.0688 42.1508 46.7916 42.0496C45.5144 41.9484 44.431 41.7605 43.5485 41.4859C42.666 41.2112 42.1781 40.8933 42.092 40.5391C42.135 42.3965 42.1565 43.8998 42.1565 45.0489V47.8097C42.1565 48.5035 42.1422 49.0383 42.1207 49.4141C42.0991 49.7899 42.0776 50.1441 42.0561 50.4837C42.0346 50.8162 42.013 51.1992 41.9915 51.6112C41.97 52.0304 41.9341 52.6302 41.8911 53.4252L41.8839 53.4107ZM52.137 31.0281C52.3594 30.4716 52.4886 29.9007 52.5316 29.3081C52.5747 28.7154 52.5962 28.1445 52.5962 27.588C52.5962 26.5979 52.467 25.6367 52.2016 24.7116C51.9361 23.7793 51.5415 22.9481 51.0105 22.2182C50.4796 21.4882 49.841 20.9028 49.0948 20.4692C48.3414 20.0356 47.5091 19.8188 46.5835 19.8188C45.4355 19.8188 44.553 20.0356 43.9359 20.4692C43.3189 20.9028 42.8453 21.4955 42.5153 22.2471C42.1852 22.9987 41.9843 23.9094 41.9198 24.979C41.8552 26.0486 41.8193 27.1977 41.8193 28.4191C41.8193 29.9657 41.8552 31.1799 41.9198 32.0689C41.9843 32.9578 42.1494 33.6444 42.4148 34.1141C42.6803 34.5839 43.0893 34.8947 43.6418 35.032C44.1942 35.1693 44.9333 35.2416 45.8589 35.2416C47.667 35.2416 49.1091 34.8875 50.1926 34.172C51.276 33.4565 51.9217 32.4085 52.1442 31.0281H52.137ZM80.1195 38.8046C79.8971 38.9202 79.6244 39.0648 79.2944 39.2238C78.9643 39.3828 78.6845 39.5418 78.4693 39.7008C77.5437 40.2934 76.5033 40.7704 75.3625 41.1245C74.2145 41.4787 73.0378 41.681 71.8252 41.7172C70.6126 41.7533 69.4359 41.6377 68.2879 41.363C67.1399 41.0884 66.1067 40.5897 65.1811 39.8814C64.7363 39.5273 64.3991 38.7829 64.1551 37.6555C63.9112 36.528 63.7605 35.1693 63.6887 33.5866C63.6242 32.0038 63.6026 30.2693 63.6242 28.3902C63.6457 26.5111 63.6816 24.6104 63.7246 22.688C63.7677 20.7655 63.8107 18.9154 63.8538 17.1375C63.8968 15.3596 63.8753 13.7913 63.7892 12.447C65.3318 12.2519 66.7094 12.1579 67.922 12.1796C69.1346 12.2013 70.5122 12.2085 72.0548 12.2085C72.1409 13.1192 72.184 14.1454 72.184 15.2945C72.184 16.4437 72.1696 17.6289 72.1481 18.8575C72.1266 20.0862 72.1266 21.3148 72.1481 22.5362C72.1696 23.7648 72.227 24.9139 72.3131 25.9763C72.3562 26.4533 72.3992 26.9737 72.4423 27.5519C72.4853 28.1228 72.5642 28.6865 72.6719 29.243C72.7795 29.7995 72.9373 30.291 73.1382 30.7246C73.3391 31.1582 73.6118 31.4979 73.9634 31.7364C74.0064 31.7725 74.0495 31.7942 74.0925 31.7942C74.1356 31.7942 74.1786 31.8159 74.2217 31.852C74.5732 32.011 75.0898 32.1411 75.7786 32.2351C76.4603 32.3363 77.1347 32.2929 77.7948 32.1194C78.4549 31.9388 79.0504 31.5846 79.5814 31.0498C80.1124 30.515 80.4209 29.7128 80.507 28.6432C80.5931 27.2989 80.6146 25.9546 80.5716 24.6032C80.5285 23.2589 80.4711 21.9219 80.4065 20.5993C80.3419 19.2767 80.2989 17.9541 80.2774 16.6533C80.2558 15.3451 80.3563 14.0442 80.5787 12.7361V12.4976C81.3249 12.3025 81.9778 12.1796 82.5303 12.1435C83.0828 12.1074 83.6424 12.0929 84.2165 12.1146C84.7905 12.1363 85.429 12.1652 86.1322 12.2013C86.8353 12.2374 87.7179 12.223 88.7798 12.1435C88.7798 17.0146 88.8372 21.8785 88.9448 26.7496C89.0524 31.6208 89.0237 36.6653 88.8443 41.8906C88.3134 41.8545 87.8757 41.8256 87.5241 41.8039C87.1726 41.7822 86.8425 41.775 86.534 41.775C86.2254 41.775 85.8954 41.7822 85.5438 41.8039C85.1922 41.8256 84.7474 41.8545 84.2236 41.8906C84.0442 41.8906 83.7357 41.9195 83.298 41.9773C82.8532 42.0352 82.4155 42.0857 81.9778 42.1291C81.533 42.1652 81.1384 42.1797 80.7868 42.158C80.4352 42.1363 80.2558 42.0713 80.2558 41.9484C80.1697 41.2763 80.1339 40.7198 80.1554 40.2862C80.1769 39.8525 80.1626 39.3539 80.1195 38.8046ZM110.943 0.934114V0.283667C110.943 0.247531 111.245 0.196941 111.84 0.131896C112.436 0.0740787 113.16 0.0307156 114.021 0.0162612C114.882 -0.00542039 115.794 -0.00542039 116.769 0.0162612C117.738 0.0379428 118.578 0.102987 119.281 0.22585V4.14299C119.281 10.7559 119.388 17.282 119.611 23.7359C119.833 30.1898 119.855 36.2606 119.675 41.9629C118.305 41.9629 116.805 41.9918 115.177 42.0496C113.548 42.1074 112.07 42.0568 110.742 41.8978C110.699 41.8183 110.678 41.681 110.678 41.4787C110.678 41.0812 110.664 40.7632 110.642 40.5319C110.62 40.2934 110.606 39.9609 110.606 39.5201C110.52 39.3249 110.42 39.1732 110.305 39.072C110.197 38.9708 110.075 39.0431 109.939 39.2816C109.279 40.4668 108.396 41.2329 107.291 41.5654C106.186 41.9051 105.017 41.9918 103.783 41.8328C101.271 41.6738 99.284 41.0884 97.8274 40.0838C96.3709 39.0792 95.2803 37.7856 94.5556 36.2245C93.831 34.6634 93.3431 32.9072 93.0991 30.9703C92.8552 29.0334 92.7117 27.0749 92.6686 25.0946C92.6686 23.707 92.7691 22.3627 92.9628 21.0546C93.1637 19.7465 93.4722 18.554 93.8884 17.4627C94.3045 16.3714 94.857 15.4463 95.5386 14.673C96.2202 13.8997 97.0454 13.3577 98.0212 13.0397C99.2122 12.6422 100.525 12.3964 101.96 12.2953C103.395 12.1941 104.751 12.1941 106.028 12.2953C107.306 12.3964 108.389 12.5843 109.272 12.859C110.154 13.1336 110.635 13.4516 110.728 13.8057C110.685 11.9484 110.664 10.4451 110.664 9.29597V6.53519C110.664 5.84138 110.671 5.30656 110.699 4.93075C110.721 4.55494 110.742 4.2008 110.764 3.86113C110.786 3.52868 110.807 3.14563 110.829 2.73369C110.85 2.31451 110.886 1.71465 110.929 0.926887L110.943 0.934114ZM100.69 23.3167C100.468 23.8732 100.339 24.4442 100.296 25.0368C100.253 25.6294 100.231 26.2076 100.231 26.7569C100.231 27.747 100.36 28.7082 100.626 29.6333C100.891 30.5656 101.286 31.3967 101.817 32.1267C102.348 32.8566 102.986 33.442 103.732 33.8756C104.479 34.3093 105.318 34.5261 106.244 34.5261C107.349 34.5261 108.217 34.3093 108.855 33.8756C109.494 33.442 109.982 32.8494 110.312 32.0978C110.642 31.3461 110.843 30.4427 110.908 29.3948C110.972 28.3468 111.008 27.1905 111.008 25.9185C111.008 24.3719 110.972 23.1577 110.908 22.2688C110.843 21.3798 110.678 20.6933 110.412 20.2235C110.147 19.7465 109.738 19.4429 109.185 19.3056C108.633 19.1683 107.894 19.096 106.968 19.096C105.16 19.096 103.718 19.4502 102.635 20.1657C101.551 20.8812 100.906 21.9291 100.683 23.3095L100.69 23.3167ZM132.971 0.283667V0.934114C133.014 1.72911 133.05 2.32896 133.071 2.74091C133.093 3.16009 133.114 3.5359 133.136 3.86835C133.157 4.20803 133.179 4.56216 133.2 4.93798C133.222 5.31379 133.236 5.8486 133.236 6.54241V9.3032C133.236 10.4523 133.215 11.9556 133.172 13.813C133.258 13.4588 133.746 13.1408 134.628 12.8662C135.511 12.5916 136.587 12.4037 137.871 12.3025C139.148 12.2013 140.504 12.2013 141.939 12.3025C143.374 12.4037 144.687 12.6494 145.878 13.0469C146.847 13.3649 147.672 13.9069 148.361 14.6802C149.043 15.4535 149.595 16.3858 150.011 17.4699C150.427 18.5612 150.736 19.7537 150.937 21.0618C151.138 22.37 151.231 23.7142 151.231 25.1018C151.145 27.0821 150.987 29.0407 150.772 30.9775C150.549 32.9144 150.076 34.6706 149.351 36.2317C148.627 37.7928 147.529 39.0792 146.079 40.091C144.343 41.2907 142.234 41.6449 140.124 41.84C136.494 42.1797 134.621 41.8761 130.624 41.8183C128.687 41.7894 126.556 41.8183 124.246 41.9556C124.16 39.1081 124.124 36.145 124.145 33.0807C124.167 30.0163 124.21 26.887 124.275 23.6998C124.339 20.5126 124.418 17.282 124.504 13.9936C124.59 10.7125 124.633 7.42413 124.633 4.14299V0.22585C125.336 0.110215 126.176 0.0379428 127.145 0.0162612C128.113 -0.00542039 129.032 -0.00542039 129.893 0.0162612C130.754 0.0379428 131.478 0.0740787 132.074 0.131896C132.669 0.189714 132.971 0.240304 132.971 0.283667ZM143.224 23.3167C143.001 21.9291 142.356 20.8812 141.272 20.1729C140.189 19.4646 138.747 19.1033 136.938 19.1033C136.013 19.1033 135.274 19.1755 134.721 19.3129C134.169 19.4502 133.76 19.7609 133.494 20.2307C133.229 20.7077 133.064 21.3871 132.999 22.276C132.935 23.165 132.899 24.3863 132.899 25.9257C132.899 27.1905 132.935 28.3468 132.999 29.402C133.064 30.45 133.265 31.3534 133.595 32.105C133.925 32.8566 134.398 33.4492 135.016 33.8829C135.633 34.3165 136.515 34.5333 137.663 34.5333C138.589 34.5333 139.428 34.3165 140.174 33.8829C140.921 33.4492 141.566 32.8638 142.09 32.1339C142.621 31.4039 143.016 30.5728 143.281 29.6405C143.547 28.7082 143.676 27.7542 143.676 26.7641C143.676 26.2076 143.654 25.6367 143.611 25.044C143.568 24.4514 143.432 23.8804 143.217 23.324L143.224 23.3167ZM171.206 38.8118C170.984 38.9275 170.711 39.072 170.381 39.231C170.051 39.39 169.771 39.549 169.556 39.708C168.63 40.3006 167.59 40.7776 166.449 41.1318C165.301 41.4859 164.125 41.6882 162.912 41.7244C161.699 41.7605 160.523 41.6449 159.375 41.3702C158.227 41.0956 157.193 40.5969 156.268 39.8887C155.823 39.5345 155.486 38.7901 155.242 37.6627C154.998 36.5353 154.847 35.1765 154.775 33.5938C154.711 32.011 154.689 30.2765 154.711 28.3974C154.732 26.5184 154.768 24.6176 154.811 22.6952C154.854 20.7728 154.897 18.9226 154.941 17.1447C154.984 15.3668 154.962 13.7985 154.876 12.4543C156.419 12.2591 157.796 12.1652 159.009 12.1869C160.221 12.2085 161.599 12.2158 163.142 12.2158C163.228 13.1264 163.271 14.1526 163.271 15.3018C163.271 16.4509 163.256 17.6362 163.235 18.8648C163.213 20.0934 163.213 21.322 163.235 22.5434C163.256 23.772 163.314 24.9212 163.4 25.9836C163.443 26.4606 163.486 26.9809 163.529 27.5591C163.572 28.13 163.651 28.6938 163.759 29.2502C163.866 29.8067 164.024 30.2982 164.225 30.7318C164.426 31.1655 164.699 31.5051 165.05 31.7436C165.093 31.7798 165.136 31.8014 165.179 31.8014C165.222 31.8014 165.265 31.8231 165.308 31.8593C165.66 32.0183 166.177 32.1484 166.865 32.2423C167.547 32.3435 168.221 32.3001 168.882 32.1267C169.542 31.946 170.137 31.5919 170.668 31.057C171.199 30.5222 171.508 29.72 171.594 28.6504C171.68 27.3061 171.701 25.9619 171.658 24.6104C171.615 23.2661 171.558 21.9291 171.493 20.6065C171.429 19.284 171.386 17.9614 171.364 16.6605C171.343 15.3524 171.443 14.0515 171.665 12.7433V12.5048C172.412 12.3097 173.065 12.1869 173.617 12.1507C174.17 12.1146 174.729 12.1001 175.303 12.1218C175.877 12.1435 176.516 12.1724 177.219 12.2085C177.922 12.2447 178.805 12.2302 179.866 12.1507C179.866 17.0218 179.924 21.8857 180.032 26.7569C180.139 31.628 180.11 36.6726 179.931 41.8978C179.4 41.8617 178.962 41.8328 178.611 41.8111C178.259 41.7894 177.929 41.7822 177.621 41.7822C177.312 41.7822 176.982 41.7894 176.631 41.8111C176.279 41.8328 175.834 41.8617 175.31 41.8978C175.131 41.8978 174.822 41.9267 174.385 41.9846C173.94 42.0424 173.502 42.093 173.065 42.1363C172.62 42.1725 172.225 42.1869 171.874 42.1652C171.522 42.1436 171.343 42.0785 171.343 41.9556C171.256 41.2835 171.221 40.727 171.242 40.2934C171.264 39.8598 171.249 39.3611 171.206 38.8118ZM202.03 0.934114V0.283667C202.03 0.247531 202.331 0.196941 202.927 0.131896C203.523 0.0740787 204.247 0.0307156 205.108 0.0162612C205.969 -0.00542039 206.88 -0.00542039 207.856 0.0162612C208.825 0.0379428 209.664 0.102987 210.367 0.22585V4.14299C210.367 10.7559 210.475 17.282 210.698 23.7359C210.92 30.1898 210.941 36.2606 210.762 41.9629C209.392 41.9629 207.892 41.9918 206.263 42.0496C204.635 42.1074 203.157 42.0568 201.829 41.8978C201.786 41.8183 201.765 41.681 201.765 41.4787C201.765 41.0812 201.75 40.7632 201.729 40.5319C201.707 40.2934 201.693 39.9609 201.693 39.5201C201.607 39.3249 201.506 39.1732 201.392 39.072C201.284 38.9708 201.162 39.0431 201.026 39.2816C200.366 40.4668 199.483 41.2329 198.378 41.5654C197.273 41.9051 196.104 41.9918 194.869 41.8328C192.358 41.6738 190.371 41.0884 188.914 40.0838C187.458 39.0792 186.367 37.7856 185.642 36.2245C184.918 34.6634 184.43 32.9072 184.186 30.9703C183.942 29.0334 183.798 27.0749 183.755 25.0946C183.755 23.707 183.856 22.3627 184.05 21.0546C184.25 19.7465 184.559 18.554 184.975 17.4627C185.391 16.3714 185.944 15.4463 186.625 14.673C187.307 13.8997 188.132 13.3577 189.108 13.0397C190.299 12.6422 191.612 12.3964 193.047 12.2953C194.482 12.1941 195.838 12.1941 197.115 12.2953C198.392 12.3964 199.476 12.5843 200.358 12.859C201.241 13.1336 201.722 13.4516 201.815 13.8057C201.772 11.9484 201.75 10.4451 201.75 9.29597V6.53519C201.75 5.84138 201.757 5.30656 201.786 4.93075C201.808 4.55494 201.829 4.2008 201.851 3.86113C201.872 3.52868 201.894 3.14563 201.915 2.73369C201.937 2.31451 201.973 1.71465 202.016 0.926887L202.03 0.934114ZM191.777 23.3167C191.555 23.8732 191.425 24.4442 191.382 25.0368C191.339 25.6294 191.318 26.2076 191.318 26.7569C191.318 27.747 191.447 28.7082 191.712 29.6333C191.978 30.5656 192.373 31.3967 192.903 32.1267C193.434 32.8566 194.073 33.442 194.819 33.8756C195.565 34.3093 196.405 34.5261 197.33 34.5261C198.435 34.5261 199.304 34.3093 199.942 33.8756C200.581 33.442 201.069 32.8494 201.399 32.0978C201.729 31.3461 201.93 30.4427 201.994 29.3948C202.059 28.3468 202.095 27.1905 202.095 25.9185C202.095 24.3719 202.059 23.1577 201.994 22.2688C201.93 21.3798 201.765 20.6933 201.499 20.2235C201.234 19.7465 200.825 19.4429 200.272 19.3056C199.72 19.1683 198.981 19.096 198.055 19.096C196.247 19.096 194.805 19.4502 193.721 20.1657C192.638 20.8812 191.992 21.9291 191.77 23.3095L191.777 23.3167ZM241.851 21.4738C240.438 21.6689 238.888 21.7918 237.188 21.8279C235.487 21.8713 233.894 21.7484 232.395 21.4738C232.524 20.9968 232.474 20.527 232.23 20.05C231.986 19.573 231.634 19.1611 231.168 18.807C230.701 18.4528 230.178 18.1854 229.582 18.0047C228.987 17.8241 228.405 17.759 227.831 17.7952C226.813 17.9542 226.059 18.3011 225.55 18.8359C225.04 19.3707 224.789 19.9561 224.789 20.5848C224.789 21.2136 225.055 21.8496 225.586 22.4856C226.117 23.1216 226.884 23.5914 227.903 23.9094C230.371 24.2274 232.689 24.6538 234.849 25.1886C237.008 25.7234 238.594 26.5834 239.613 27.7687C240.581 29.1924 241.177 30.6451 241.399 32.1339C241.622 33.6155 241.313 35.4512 240.474 37.6266C239.462 39.5635 237.869 40.9511 235.71 41.7822C233.55 42.6133 231.189 43.0108 228.635 42.9675C226.389 43.047 224.359 42.8663 222.551 42.4326C220.743 41.999 219.186 41.3413 217.887 40.4741C216.588 39.6068 215.569 38.5372 214.845 37.2724C214.12 36.0077 213.754 34.5839 213.754 33.0012V32.7048C215.211 32.5458 216.861 32.4953 218.719 32.5531C220.57 32.6109 222.178 32.6398 223.548 32.6398C223.591 33.5504 224.065 34.2948 224.969 34.8658C225.873 35.4367 226.834 35.7764 227.846 35.8776C228.857 35.9788 229.783 35.8125 230.623 35.3717C231.462 34.938 231.857 34.1431 231.814 32.9939C231.943 32.0472 231.706 31.3317 231.089 30.8547C230.472 30.3777 229.654 30.0163 228.642 29.7562C227.623 29.5032 226.483 29.2719 225.205 29.0768C223.928 28.8817 222.665 28.542 221.431 28.065C218.963 27.3134 217.162 26.1353 216.043 24.5309C214.916 22.9265 214.393 21.2642 214.457 19.5441C214.522 17.8241 215.139 16.2269 216.308 14.767C217.478 13.2998 219.142 12.3169 221.302 11.7966C222.142 11.6014 223.168 11.4424 224.38 11.3196C225.593 11.204 226.884 11.1389 228.248 11.1389C229.611 11.1389 230.981 11.2112 232.352 11.3485C233.715 11.4858 234.978 11.6737 236.119 11.9122C238.192 12.7072 239.67 13.9575 240.553 15.6848C241.435 17.4049 241.873 19.3345 241.873 21.4738H241.851ZM29.8586 15.8004H29.794C28.2514 16.0245 26.594 16.1618 24.8361 16.2124C23.071 16.2702 21.4208 16.1112 19.871 15.7426C20.1364 14.7525 19.8925 13.9214 19.1463 13.2565C18.3929 12.5916 17.496 12.1724 16.4341 11.9845C15.3722 11.8038 14.3534 11.8905 13.3561 12.2591C12.3659 12.6277 11.7776 13.3287 11.6054 14.355C11.5193 14.6152 11.4834 14.8609 11.5049 15.0994C11.5264 15.3379 11.5623 15.5909 11.6054 15.8438C11.9569 16.7255 12.5309 17.3182 13.3274 17.6072C14.1238 17.9036 14.9776 18.1059 15.9104 18.2143C18.2494 18.4311 20.4163 19.0599 22.4253 20.0934C24.4271 21.1197 26.0702 22.4278 27.3545 24.0105C28.1509 24.8561 28.7465 25.7667 29.1411 26.7424C29.5357 27.7181 29.7725 28.7227 29.8371 29.7489C29.9016 30.7824 29.8155 31.8159 29.5716 32.8638C29.3276 33.9118 28.9402 34.9164 28.4164 35.8704C27.8855 37.0123 27.1823 37.9879 26.2998 38.7974C25.4173 39.6068 24.4128 40.2717 23.2863 40.7848C22.1598 41.298 20.9472 41.6738 19.6485 41.9195C18.3499 42.158 17.0153 42.2592 15.6449 42.2231C13.7005 42.1869 11.7776 41.9051 9.85465 41.3702C7.93893 40.8354 6.2241 40.091 4.72452 39.137C3.22495 38.1831 2.03389 37.0122 1.15137 35.6319C0.268843 34.2515 -0.104258 32.6832 0.0248923 30.9125V30.58C1.56752 30.3994 3.268 30.3488 5.11915 30.4427C6.9703 30.5367 8.64925 30.5656 10.1488 30.5222C10.2349 31.7003 10.8018 32.582 11.835 33.1674C12.8682 33.7528 13.9731 34.0419 15.1426 34.0202C16.3122 33.9985 17.3238 33.6805 18.1848 33.0517C19.0458 32.423 19.34 31.469 19.0745 30.1826C18.9454 29.3008 18.5436 28.5926 17.8835 28.0578C17.2234 27.5229 16.4413 27.0893 15.5373 26.7641C14.6332 26.4316 13.6502 26.1859 12.5955 26.0197C11.5408 25.8535 10.5435 25.7017 9.61788 25.5499C8.73535 25.4054 7.9174 25.1669 7.1712 24.8344C6.41783 24.502 5.7362 24.1189 5.11915 23.6781C3.08862 22.0592 1.77559 20.2741 1.18007 18.33C0.584543 16.3858 0.548668 14.4851 1.07962 12.6494C1.61057 10.8137 2.6079 9.13698 4.08595 7.62649C5.564 6.11601 7.35775 4.9958 9.47438 4.25862C10.5363 3.89004 11.6986 3.64431 12.983 3.51422C14.2601 3.38413 15.5516 3.348 16.8503 3.40581C18.149 3.46363 19.4333 3.6154 20.6889 3.87558C21.9445 4.13576 23.0997 4.46098 24.1616 4.86571C26.2782 5.78356 27.907 7.1495 29.055 8.94907C30.203 10.7486 30.4613 13.0324 29.8514 15.786L29.8586 15.8004Z" fill="#F1F0EC"/>
</svg>
