<?xml version="1.0" encoding="UTF-8"?>
<svg id="Layer_2" data-name="Layer 2" xmlns="http://www.w3.org/2000/svg" viewBox="0 0 330.65 262.65">
  <defs>
    <style>
      .cls-1 {
        fill: #bb7bce;
        stroke-width: 0px;
      }
    </style>
  </defs>
  <g id="Layer_1-2" data-name="Layer 1">
    <path class="cls-1" d="m28.02,144.78v1.8c.12,2.19.22,3.85.28,4.99.06,1.16.12,2.19.18,3.11.06.94.12,1.92.18,2.95.06,1.04.1,2.51.1,4.43v7.62c0,3.17-.06,7.32-.18,12.45.24-.98,1.58-1.86,4.02-2.61,2.44-.76,5.41-1.28,8.95-1.56,3.52-.28,7.27-.28,11.23,0,3.96.28,7.58.96,10.87,2.05,2.67.88,4.95,2.37,6.85,4.51,1.88,2.13,3.41,4.71,4.55,7.7,1.15,3.01,2,6.3,2.56,9.91.55,3.61.81,7.32.81,11.15-.24,5.47-.67,10.87-1.27,16.22-.62,5.35-1.92,10.19-3.92,14.5-2,4.31-5.03,7.86-9.03,10.65-4.79,3.31-10.61,4.29-16.44,4.83-10.02.94-15.19.1-26.22-.06-5.35-.08-11.23,0-17.6.38-.24-7.86-.34-16.04-.28-24.5.06-8.46.18-17.1.36-25.89.18-8.8.39-17.71.63-26.79.24-9.06.36-18.13.36-27.19v-10.81c1.94-.32,4.26-.52,6.93-.58,2.67-.06,5.21-.06,7.58,0,2.38.06,4.37.16,6.02.32,1.64.16,2.48.3,2.48.42Zm28.3,63.57c-.62-3.83-2.4-6.72-5.39-8.68-2.99-1.96-6.97-2.95-11.96-2.95-2.55,0-4.59.2-6.12.58-1.52.38-2.65,1.24-3.39,2.53-.73,1.32-1.19,3.19-1.37,5.65-.18,2.45-.28,5.82-.28,10.07,0,3.49.1,6.68.28,9.6.18,2.89.73,5.39,1.65,7.46.91,2.07,2.22,3.71,3.92,4.91,1.7,1.2,4.14,1.8,7.31,1.8,2.56,0,4.87-.6,6.93-1.8,2.06-1.2,3.84-2.81,5.29-4.83,1.47-2.01,2.56-4.31,3.29-6.88.73-2.57,1.09-5.21,1.09-7.94,0-1.54-.06-3.11-.18-4.75-.12-1.64-.49-3.21-1.09-4.75l.02-.02Zm77.23,42.77c-.61.32-1.37.72-2.28,1.16s-1.68.88-2.28,1.32c-2.56,1.64-5.43,2.95-8.58,3.93-3.17.98-6.41,1.54-9.76,1.64-3.35.1-6.59-.22-9.76-.98-3.17-.76-6.02-2.13-8.58-4.09-1.23-.98-2.16-3.03-2.83-6.14-.67-3.11-1.09-6.86-1.29-11.23-.18-4.37-.24-9.16-.18-14.34.06-5.19.16-10.43.28-15.74.12-5.31.24-10.41.36-15.32.12-4.91.06-9.24-.18-12.95,4.26-.54,8.06-.8,11.41-.74,3.35.06,7.15.08,11.41.08.24,2.51.36,5.35.36,8.52s-.04,6.44-.1,9.83c-.06,3.39-.06,6.78,0,10.15.06,3.39.22,6.56.46,9.5.12,1.32.24,2.75.36,4.35.12,1.58.34,3.13.63,4.67.3,1.54.73,2.89,1.29,4.09.55,1.2,1.31,2.13,2.28,2.79.12.1.24.16.36.16s.24.06.36.16c.97.44,2.4.8,4.3,1.06,1.88.28,3.74.16,5.57-.32,1.82-.5,3.46-1.48,4.93-2.95,1.47-1.48,2.32-3.69,2.56-6.64.24-3.71.3-7.42.18-11.15-.12-3.71-.28-7.4-.46-11.05-.18-3.65-.3-7.3-.36-10.89-.06-3.61.22-7.2.83-10.81v-.66c2.06-.54,3.86-.88,5.39-.98,1.53-.1,3.07-.14,4.65-.08,1.58.06,3.35.14,5.29.24,1.94.1,4.38.06,7.31-.16,0,13.44.16,26.87.46,40.32.3,13.44.22,27.37-.28,41.79-1.47-.1-2.67-.18-3.64-.24-.97-.06-1.88-.08-2.73-.08s-1.76.02-2.73.08c-.97.06-2.2.14-3.65.24-.49,0-1.35.08-2.55.24-1.23.16-2.44.3-3.64.42-1.23.1-2.32.14-3.29.08-.97-.06-1.47-.24-1.47-.58-.24-1.86-.34-3.39-.28-4.59.06-1.2.02-2.57-.1-4.09Zm85.08-104.55v-1.8c0-.1.83-.24,2.48-.42,1.65-.16,3.64-.28,6.02-.32,2.38-.06,4.89-.06,7.58,0,2.67.06,4.99.24,6.93.58v10.81c0,18.25.3,36.27.91,54.08.61,17.81.67,34.57.18,50.31-3.78,0-7.92.08-12.42.24-4.49.16-8.57.02-12.24-.42-.12-.22-.18-.6-.18-1.16,0-1.1-.04-1.97-.1-2.61-.06-.66-.1-1.58-.1-2.79-.24-.54-.52-.96-.83-1.24-.3-.28-.63-.08-1.01.58-1.82,3.27-4.26,5.39-7.31,6.3-3.05.94-6.28,1.18-9.69.74-6.93-.44-12.42-2.05-16.44-4.83-4.02-2.77-7.03-6.34-9.03-10.65-2-4.31-3.35-9.16-4.02-14.5-.67-5.35-1.07-10.75-1.19-16.22,0-3.83.28-7.54.81-11.15.55-3.61,1.4-6.9,2.55-9.91,1.15-3.01,2.67-5.57,4.55-7.7,1.88-2.13,4.16-3.63,6.85-4.51,3.29-1.1,6.91-1.78,10.87-2.05,3.96-.28,7.7-.28,11.23,0,3.52.28,6.52.8,8.95,1.56,2.44.76,3.76,1.64,4.02,2.61-.12-5.13-.18-9.28-.18-12.45v-7.62c0-1.92.02-3.39.1-4.43.06-1.04.12-2.01.18-2.95.06-.92.12-1.97.18-3.11.06-1.16.16-2.81.28-4.99l.04.02Zm-28.3,61.78c-.61,1.54-.97,3.11-1.09,4.75s-.18,3.23-.18,4.75c0,2.73.36,5.39,1.09,7.94.73,2.57,1.82,4.87,3.29,6.88,1.47,2.01,3.23,3.63,5.29,4.83,2.06,1.2,4.38,1.8,6.93,1.8,3.05,0,5.45-.6,7.21-1.8,1.76-1.2,3.11-2.83,4.02-4.91.91-2.07,1.47-4.57,1.64-7.46.18-2.89.28-6.08.28-9.6,0-4.27-.1-7.62-.28-10.07-.18-2.45-.63-4.35-1.37-5.65-.73-1.32-1.86-2.15-3.39-2.53-1.52-.38-3.56-.58-6.12-.58-4.99,0-8.97.98-11.96,2.95-2.99,1.97-4.77,4.87-5.39,8.68l.02.02Zm138.21-5.09c-3.9.54-8.18.88-12.87.98-4.7.12-9.09-.22-13.23-.98.36-1.32.22-2.61-.46-3.93-.67-1.32-1.65-2.45-2.93-3.43-1.29-.98-2.73-1.72-4.38-2.21-1.64-.5-3.25-.68-4.83-.58-2.81.44-4.89,1.4-6.3,2.87-1.41,1.48-2.1,3.09-2.1,4.83s.73,3.49,2.2,5.25,3.58,3.05,6.4,3.93c6.81.88,13.21,2.05,19.17,3.53,5.96,1.48,10.34,3.85,13.15,7.12,2.67,3.93,4.32,7.94,4.93,12.05.62,4.09-.24,9.16-2.55,15.16-2.79,5.35-7.19,9.18-13.15,11.47-5.96,2.29-12.48,3.39-19.53,3.27-6.2.22-11.8-.28-16.79-1.48-4.99-1.2-9.29-3.01-12.87-5.41-3.59-2.39-6.4-5.35-8.4-8.84-2-3.49-3.01-7.42-3.01-11.79v-.82c4.02-.44,8.58-.58,13.7-.42,5.11.16,9.55.24,13.33.24.12,2.51,1.43,4.57,3.92,6.14,2.5,1.58,5.15,2.51,7.94,2.79,2.79.28,5.35-.18,7.66-1.4,2.32-1.2,3.41-3.39,3.29-6.56.36-2.61-.3-4.59-2-5.9-1.7-1.32-3.96-2.31-6.75-3.03-2.81-.7-5.96-1.34-9.49-1.88-3.52-.54-7.01-1.48-10.42-2.79-6.81-2.07-11.78-5.33-14.87-9.75-3.11-4.43-4.55-9.02-4.38-13.76.18-4.75,1.88-9.16,5.11-13.19,3.23-4.05,7.82-6.76,13.78-8.2,2.32-.54,5.15-.98,8.5-1.32,3.35-.32,6.91-.5,10.68-.5s7.54.2,11.33.58c3.76.38,7.25.9,10.4,1.56,5.72,2.19,9.8,5.65,12.24,10.41,2.43,4.75,3.64,10.07,3.64,15.98h-.06Zm-212.94-55.85v1.8c0,.1-.83.24-2.48.42-1.64.16-3.64.28-6.02.32-2.38.06-4.89.06-7.58,0-2.67-.06-4.99-.24-6.93-.58v-10.81c0-9.08-.12-18.13-.36-27.19-.24-9.08-.46-17.99-.63-26.79-.18-8.8-.3-17.41-.36-25.89-.06-8.46.02-16.64.28-24.5,3.76,0,7.92-.08,12.42-.24,4.5-.16,8.58-.02,12.24.42.12.22.18.6.18,1.16,0,1.1.02,1.97.1,2.61.06.66.1,1.58.1,2.79.24.54.51.96.81,1.24.3.28.63.08,1.01-.58,1.82-3.27,4.26-5.39,7.31-6.3,3.05-.92,6.28-1.18,9.68-.74,6.93.44,12.42,2.05,16.44,4.83,4.02,2.77,7.03,6.34,9.03,10.65,2,4.31,3.31,9.16,3.92,14.5.61,5.35,1.03,10.75,1.27,16.22,0,3.83-.28,7.54-.81,11.13-.55,3.61-1.41,6.9-2.55,9.91-1.15,3.01-2.67,5.57-4.55,7.7-1.88,2.13-4.18,3.63-6.85,4.51-3.29,1.1-6.91,1.78-10.87,2.05-3.96.28-7.7.28-11.23,0-3.53-.28-6.52-.8-8.95-1.56-2.44-.76-3.78-1.64-4.02-2.61.12,5.13.18,9.28.18,12.45v7.62c0,1.91-.04,3.39-.1,4.43-.06,1.04-.12,2.01-.18,2.95-.06.92-.12,1.97-.18,3.11-.06,1.16-.16,2.81-.28,5.01l-.02-.04Zm28.3-61.78c.61-1.54.97-3.11,1.09-4.75.12-1.64.18-3.21.18-4.75,0-2.73-.36-5.39-1.09-7.94-.73-2.57-1.82-4.87-3.29-6.88-1.47-2.01-3.23-3.63-5.29-4.83-2.08-1.2-4.38-1.8-6.93-1.8-3.17,0-5.6.6-7.31,1.8-1.7,1.2-3.01,2.83-3.92,4.91-.91,2.07-1.47,4.59-1.64,7.54-.18,2.95-.28,6.12-.28,9.5,0,4.27.1,7.62.28,10.07.18,2.45.63,4.35,1.37,5.65.73,1.3,1.86,2.15,3.39,2.53,1.52.38,3.56.58,6.12.58,4.99,0,8.97-.98,11.96-2.95,2.99-1.97,4.77-4.87,5.39-8.68h-.02Zm77.24,21.46c-.61.32-1.37.72-2.28,1.16-.91.44-1.68.88-2.28,1.32-2.55,1.64-5.43,2.95-8.58,3.93-3.17.98-6.42,1.54-9.76,1.64-3.35.1-6.59-.22-9.76-.98-3.17-.76-6.02-2.13-8.58-4.09-1.23-.98-2.16-3.03-2.83-6.14-.67-3.11-1.09-6.86-1.29-11.23-.18-4.37-.24-9.16-.18-14.34.06-5.19.16-10.43.28-15.74.12-5.31.24-10.41.36-15.32.12-4.91.06-9.24-.18-12.95,4.26-.54,8.06-.8,11.41-.74s7.15.08,11.41.08c.24,2.51.36,5.35.36,8.52s-.04,6.44-.1,9.83c-.06,3.39-.06,6.78,0,10.15.06,3.39.22,6.56.46,9.5.12,1.32.24,2.75.36,4.35.12,1.58.34,3.13.63,4.67.3,1.54.73,2.89,1.29,4.09.55,1.2,1.31,2.13,2.28,2.79.12.1.24.16.36.16s.24.06.36.16c.97.44,2.4.8,4.3,1.06,1.88.28,3.74.16,5.57-.32,1.82-.5,3.47-1.48,4.93-2.95,1.47-1.48,2.32-3.69,2.55-6.64.24-3.71.3-7.42.18-11.15-.12-3.71-.28-7.4-.46-11.05-.18-3.65-.3-7.3-.36-10.89-.06-3.61.22-7.2.83-10.81v-.66c2.06-.54,3.86-.88,5.39-.98,1.52-.1,3.07-.14,4.65-.08,1.58.06,3.35.14,5.29.24,1.94.1,4.38.06,7.31-.16,0,13.44.16,26.87.46,40.32.3,13.45.22,27.37-.28,41.79-1.47-.1-2.67-.18-3.64-.24-.97-.06-1.88-.08-2.73-.08s-1.76.02-2.73.08c-.97.06-2.2.14-3.64.24-.5,0-1.35.08-2.55.24-1.23.16-2.44.3-3.64.42-1.23.1-2.32.14-3.29.08-.97-.06-1.47-.24-1.47-.58-.24-1.86-.34-3.39-.28-4.59.06-1.2.02-2.57-.1-4.09ZM306.22,2.58V.78c0-.1.83-.24,2.48-.42,1.65-.16,3.64-.28,6.02-.32,2.38-.06,4.89-.06,7.58,0,2.67.06,4.99.24,6.93.58v10.81c0,18.25.3,36.27.91,54.08.61,17.81.67,34.57.18,50.31-3.78,0-7.92.08-12.42.24-4.5.16-8.58.02-12.24-.42-.12-.22-.18-.6-.18-1.16,0-1.1-.04-1.97-.1-2.61-.06-.66-.1-1.58-.1-2.79-.24-.54-.51-.96-.83-1.24-.3-.28-.63-.08-1.01.58-1.82,3.27-4.26,5.39-7.31,6.3-3.05.94-6.28,1.18-9.68.74-6.93-.44-12.42-2.05-16.44-4.83-4.02-2.77-7.03-6.34-9.03-10.65-2-4.31-3.35-9.16-4.02-14.5-.67-5.35-1.07-10.75-1.19-16.22,0-3.83.28-7.54.81-11.15.55-3.61,1.41-6.9,2.55-9.91,1.15-3.01,2.67-5.57,4.55-7.7,1.88-2.13,4.16-3.63,6.85-4.51,3.29-1.1,6.91-1.78,10.87-2.05,3.96-.28,7.7-.28,11.23,0,3.53.28,6.52.8,8.95,1.56,2.43.76,3.76,1.64,4.02,2.61-.12-5.13-.18-9.28-.18-12.45v-7.62c0-1.92.02-3.39.1-4.43.06-1.04.12-2.01.18-2.95.06-.92.12-1.97.18-3.11.06-1.16.16-2.81.28-4.99l.04.02Zm-28.3,61.78c-.61,1.54-.97,3.11-1.09,4.75s-.18,3.23-.18,4.75c0,2.73.36,5.39,1.09,7.94.73,2.57,1.82,4.87,3.29,6.88,1.47,2.01,3.23,3.63,5.29,4.83,2.06,1.2,4.38,1.8,6.93,1.8,3.05,0,5.45-.6,7.21-1.8,1.76-1.2,3.11-2.83,4.02-4.91.91-2.07,1.47-4.57,1.65-7.46.18-2.89.28-6.08.28-9.6,0-4.27-.1-7.62-.28-10.07-.18-2.45-.63-4.35-1.37-5.65-.73-1.32-1.86-2.15-3.39-2.53-1.52-.38-3.56-.58-6.12-.58-4.99,0-8.97.98-11.96,2.95-2.99,1.97-4.77,4.87-5.39,8.68l.02.02Zm-195.51-20.75h-.18c-4.26.62-8.83,1-13.68,1.14-4.87.16-9.43-.28-13.7-1.3.73-2.73.06-5.03-2-6.86-2.08-1.84-4.56-2.99-7.49-3.51-2.93-.5-5.74-.26-8.5.76-2.73,1.02-4.36,2.95-4.83,5.78-.24.72-.34,1.4-.28,2.05.06.66.16,1.36.28,2.05.97,2.43,2.55,4.07,4.75,4.87,2.2.82,4.55,1.38,7.13,1.68,6.46.6,12.44,2.33,17.98,5.19,5.53,2.83,10.06,6.44,13.61,10.81,2.2,2.33,3.84,4.85,4.93,7.54,1.09,2.69,1.74,5.47,1.92,8.3.18,2.85-.06,5.71-.73,8.6-.67,2.89-1.74,5.67-3.19,8.3-1.47,3.15-3.41,5.84-5.84,8.08-2.44,2.23-5.21,4.07-8.32,5.49-3.11,1.42-6.46,2.45-10.04,3.13-3.58.66-7.27.94-11.05.84-5.37-.1-10.67-.88-15.98-2.35-5.29-1.48-10.02-3.53-14.16-6.16-4.14-2.63-7.43-5.86-9.86-9.67-2.44-3.81-3.47-8.14-3.11-13.03v-.92c4.26-.5,8.95-.64,14.06-.38,5.11.26,9.74.34,13.88.22.24,3.25,1.8,5.69,4.65,7.3s5.9,2.41,9.13,2.35c3.23-.06,6.02-.94,8.4-2.67,2.38-1.74,3.19-4.37,2.46-7.92-.36-2.43-1.47-4.39-3.29-5.86-1.82-1.48-3.98-2.67-6.48-3.57-2.5-.92-5.21-1.6-8.12-2.05-2.91-.46-5.66-.88-8.22-1.3-2.44-.4-4.69-1.06-6.75-1.97-2.08-.92-3.96-1.97-5.66-3.19-5.6-4.47-9.23-9.4-10.87-14.76-1.64-5.37-1.74-10.61-.28-15.68,1.47-5.07,4.22-9.69,8.3-13.86,4.08-4.17,9.03-7.26,14.87-9.3,2.93-1.02,6.14-1.7,9.68-2.05,3.52-.36,7.09-.46,10.67-.3,3.58.16,7.13.58,10.6,1.3,3.47.72,6.65,1.62,9.59,2.73,5.84,2.53,10.34,6.3,13.51,11.27,3.17,4.97,3.88,11.27,2.2,18.87l.02.04Z"/>
  </g>
</svg>