<?xml version="1.0" encoding="UTF-8"?>
<svg id="Layer_2" data-name="Layer 2" xmlns="http://www.w3.org/2000/svg" viewBox="0 0 148.25 144.69">
  <defs>
    <style>
      .cls-1 {
        fill: #5c6888;
      }

      .cls-1, .cls-2, .cls-3, .cls-4 {
        stroke-width: 0px;
      }

      .cls-2 {
        fill: #ba4a30;
      }

      .cls-3 {
        fill: #737e43;
      }

      .cls-4 {
        fill: #e3b75e;
      }
    </style>
  </defs>
  <g id="Layer_1-2" data-name="Layer 1">
    <path class="cls-4" d="m53.52,114.17c-1.37-2.69-3.3-5.05-5.22-7.43-1.99-2.47-3.83-5.01-5.47-7.69-3.29-5.39-5.86-11.11-8.4-16.83-.61-1.36-1.98-2.33-3.66-1.9-.05.01-.09.05-.14.07-1.11.04-2.14.63-2.43,1.95-.78,3.52-3.08,6.39-5.03,9.44-2.2,3.43-4.09,6.99-5.75,10.66-1.61,3.56-2.95,7.21-4.01,10.94-.43,1.51-1.37,3.69-1.05,5.29,2.29,2.89,4.68,5.72,7.08,8.53.68.57,1.36,1.14,2,1.75,1.83,1.75,3.26,3.79,5.05,5.57,1.45,1.44,3.11,2.69,4.63,4.05.38.34.75.68,1.11,1.04.21.21.41.43.62.64.07.07.13.15.2.22-.11-.14-.11-.14,0,0,.31.38.59.77.84,1.18.13.21.25.41.36.63.06.11.09.16.1.18-.01-.02-.02-.01.07.23.54,1.39,2.03,2.31,3.66,1.9,1.17-.29,2.1-1.37,2.17-2.5.86-4.39,3.61-8.06,6.01-11.85,2.7-4.27,5.1-8.69,7.2-13.23.05-.12.06-.24.11-.35.35-.77.34-1.67-.08-2.48Z"/>
    <g>
      <path class="cls-2" d="m60.36,1.1C32.49-.67-21.84-3.34,32.13,25.11c4.65-.89,38.02-21.3,28.24-24.01Z"/>
      <path class="cls-2" d="m66.61,17.71c-.09-1.13-.42-2.13-1.12-2.92-.22-.06-.46-.03-.69-.06,7.72-14.32-32.84,18.81-28.83,21.42,8.97,2.94,12.42,21.14,22.23,16.73,9.26-1.59,7.81-9.65,5.94-16.53-.84-6.12,4.67-13.3,2.47-18.64Z"/>
      <path class="cls-2" d="m44.79,53.67c-12.23-23.88-23.84-13.51-33.99,6.35,8.06-.37,30.84,2.17,33.99-6.35Z"/>
      <path class="cls-2" d="m25.13,29.33C19.01,25.98.26-.64,0,15.46c-.04,33.6.2,58.18,25.13,13.88Z"/>
    </g>
    <path class="cls-3" d="m118.83,11.63c-1.97-4.02-4.63-7.62-7.38-11.19-1.34-1.74-5.42,2.14-5.52,4.45-1.76.97-3.2,2.77-3.92,4.49-.54,1.28-.59,2.58-.57,3.89-1.08,2.5-2.16,5-3.26,7.49-1.11,1.27-1.85,2.83-2.01,4.56-1.03,2.32-2.07,4.65-3.11,6.96-.8,1.77-1.54,3.95-2.49,5.88-1.71,2.63-3.42,5.27-5.12,7.91-1.51,2.35-3.89,7.32-.76,9.08.07.74.43,1.34,1.43,1.17,10.28-1.73,20.57-1.79,30.89-.34,9.25,1.29,18.41,2.86,27.58.25,1.85-.52,4.77-3.95,3.2-5.85-10.3-12.43-19.96-25.37-28.97-38.76Z"/>
    <path class="cls-1" d="m129.97,113.94c-.13-.27-.26-.54-.4-.81-.05-3.42-2.05-6.34-4.95-8.45-1.52-1.74-3.38-3.2-5.45-4.26-4.04-2.08-9.38-3.48-13.77-1.8-.12,0-.24-.01-.37-.02-1.52-.02-2.48.86-2.86,1.97-3.83,3.16-7.17,8.51-8.18,13.13-1.26,5.77.83,10.82,5.12,14.7,4.06,3.67,9.28,7.31,14.96,7.41,5.3.1,9.45-3.06,12.36-7.24,2.98-4.29,5.93-9.47,3.53-14.62Z"/>
  </g>
</svg>