<?xml version="1.0" encoding="UTF-8"?>
<svg id="Layer_1" data-name="Layer 1" xmlns="http://www.w3.org/2000/svg" viewBox="0 0 78.76 97.34">
  <defs>
    <style>
      .cls-1, .cls-2, .cls-3, .cls-4 {
        stroke-width: 0px;
      }

      .cls-2 {
        fill: #f9faf5;
      }

      .cls-3 {
        fill: #5c6888;
      }

      .cls-4 {
        fill: #ba4a30;
      }
    </style>
  </defs>
  <polygon class="cls-2" points="2.78 84.46 1.08 83.03 2.99 80.95 1.6 79.54 5.02 78.46 7.45 78.03 6.33 77.05 4.29 75.78 2.42 72.52 1.64 68.93 1.08 65.96 4.13 65.98 13.21 66.44 14.6 67.33 14.6 70.02 14.23 72.57 11.26 74.54 9.03 76.52 9.3 78.44 13.67 78.44 19.37 70.62 27.28 60.21 35.58 51.24 34.52 48.38 26.12 51.19 24.32 47.93 29.33 45.77 32.38 42.49 34.32 39.03 28.08 42.27 25.67 42.89 22.07 42.8 20.12 41.76 16.47 42.51 15.61 38.11 16.52 32.4 20.55 23.54 26.98 15.71 34.71 8.18 39.11 5.03 37.67 1.64 39.92 0 42.41 1.45 42.41 4.03 39.92 5.39 40.6 8.79 41.94 18.79 42.09 23.85 54.91 40.4 70.65 67.33 75.11 76.52 77.98 93.43 78.76 96.09 4.86 97.18 7.92 92.04 3.3 90.81 1.64 89.51 1.24 87.76 2.78 84.46"/>
  <path class="cls-3" d="m40.84,15.38c-.46-2.75-1.41-5.41-1.59-8.21-.03-.46-.8-.58-1.11-.57-.58,0-1.1.22-1.53.61-3.53,3.14-7.41,5.94-11.12,8.86-.45.36-.78.94-.19,1.35.04.03.09.05.13.07-.36.35-.73.7-1.1,1.06-.41.4-.82.8-1.18,1.24-.15.19-.29.38-.42.59-.07.1-.13.21-.19.31-.02.03-.03.04-.04.07-.81.38-1.58,1.31-.4,1.69,2,.66,4.07,1.05,6.16,1.21.17.2.48.33.78.36,2.92.28,5.7,1.37,8.68,1.02.11-.01.25-.05.4-.09.42.05.84.09,1.27.15.55.07,1.99-.31,1.99-1.1-.03-2.88-.06-5.77-.54-8.62Z"/>
  <path class="cls-3" d="m74.79,81c-.09-.49-1.04-.34-1.35.06-.77.15-1.6.7-1.36,1.58-.57.19-1.14.38-1.71.57-.53.18-1.06.35-1.6.47-.55.04-1.1.07-1.65.11-1.98-.26-3.93-1.08-5.61-2.23-.6-1.6-1.24-3.19-1.92-4.75-.14-.39-.3-.77-.47-1.14.08-.11.12-.24.09-.39-.83-3.6-3.03-6.72-3.65-10.38-.08-.35-.46-.43-.82-.34-.18-.56-.37-1.11-.55-1.67,0-.02,0-.04,0-.06-.32-1.21-.71-2.39-1.19-3.55-.08-.19-.25-.27-.45-.31-.02-.12-.03-.24-.04-.37-.01-.28,0-.55.02-.83.02-.27-.21-.39-.45-.42-.36-1.17-.72-2.33-1.08-3.5-.13-.43-.73-.44-1.12-.23l1.75-4c1.03-1.22,1.94-2.52,2.71-3.92.62-1.12-2.26-.75-2.68.01-.08.14-.16.27-.24.41-.54.12-1.12.37-1.36.87-.12.25-.24.51-.35.76-1.62,1.05-3.07,2.33-4.6,3.51-1.76,1.36-3.64,2.56-5.51,3.76-.11.07-.23.17-.32.28-.84.22-1.75.72-1.65.85.02.02.03.04.04.06-.37.17-.73.35-1.1.52-.29.11-.56.24-.76.37-.05.03-.1.05-.15.08-.06-.05-.13-.11-.19-.17.54-.16.95-.37.84-.63-.38-.84-.68-1.71-.95-2.59.07-.06.11-.13.11-.22-.13-.22-.25-.44-.38-.66-.32-.56-3.05.21-2.9.78.06.23.14.46.21.69-.25.26-.4.56-.51.88-.32.15-.57.31-.65.43-.55.81-1.1,1.63-1.66,2.44-.16.11-.32.21-.47.33-.64.48-1.78,1.22-1.74,2.15.02.52.31.77.68.88-.11.04-.23.09-.33.14-.12.06-.89.44-.55.63.02.01.05.02.07.03-.03.02-.07.03-.1.05-.09.05-.16.11-.23.19-.02.03-.03.07-.05.1-.02.07,0,.13.05.18.07.07.16.13.24.18.02.01.04.02.06.03-.29.17-.81.55-.25.62.1.01.19.03.29.04,2.04,1.33,4.45,1.5,6.84,1.11.08,0,.16.02.25.01.18,0,.84-.09,1.43-.26.4.07.91-.03,1.13-.09,2.81-.75,5.47-2.13,7.57-4.15,1.7-1.64,3.13-3.6,4.4-5.62.05-.02.1-.05.15-.07.43,1.14.96,2.24,1.55,3.31.19.64.39,1.27.61,1.9.03.15.04.31.09.46.03.09.08.15.15.2.36.94.77,1.84,1.28,2.7.95,2.88,1.9,5.75,2.85,8.63-.04.12-.05.25.04.39.44.71.87,1.41,1.31,2.12-.17.1-.3.23-.31.39-.06,1.15.51,2.15.99,3.15.53,1.1,1.07,2.19,1.62,3.27.1.2.37.28.65.26.02.04.03.09.05.13-.15.16-.17.35.05.52.06.05.13.09.2.13.08.22.17.43.25.65,0,.03.03.04.05.06-.05.09-.06.19-.01.28-.19.13-.33.32-.31.57,0,.02,0,.03,0,.05,0,0,0,0,0,0-.65.37-.99.91-1.43,1.49-.42.53-.94.97-1.54,1.28-1.37.7-2.95.54-4.44.37-.82-1.01-1.34-2.21-1.86-3.4-.26-.59-.49-1.2-.67-1.82-.02-.15-.04-.3-.05-.45,0,0,0,0-.01-.01,0,0,0-.02,0-.03-.04-.1-.08-.21-.12-.32-.08-.42-.12-.84-.11-1.27.33-.1.61-.27.56-.43-.71-2.7-1.72-5.31-3-7.79,0-.01-.02-.02-.03-.03-.02-.38-.03-.76-.02-1.15,0-.06-.09-.1-.23-.11-.31-1.47-.7-2.93-1.19-4.35-.22-.65-.46-1.28-.72-1.91.25-.1.53-.3.46-.59-.11-.49-.51-.81-.75-1.22-.05-.1-.08-.2-.09-.3,0-.05,0-.1.02-.15.03-.13-.07-.27-.17-.33-.13-.09-.34-.11-.49-.09-.25.03-.53.13-.69.33-.28.09-.52.24-.52.43,0,.41.13.8.29,1.18.03.16.07.32.12.47,0,.1,0,.21.02.31.01.11.12.2.22.25.01.02.02.04.03.05.03.05.07.08.11.1.25.62.49,1.25.71,1.88.44,1.29.79,2.61,1.09,3.94-.14.12-.23.28-.19.47.71,3.68,1.77,7.29,3.15,10.78.05.23.09.47.16.7.12,1.04.29,2.06.71,3.04.11.25.24.49.36.73-.12.07-.24.16-.31.25-2.34,3.17-7.19,2.7-10.62,2.19-.11-.02-.31.03-.49.1-.22-.18-.46-.34-.69-.5.06-3.81-.15-7.62-.64-11.4-.48-3.75-.79-7.45-.64-11.23.01-.29-1.43-.09-1.45.39-.15,3.78.16,7.49.64,11.23.45,3.52.65,7.05.63,10.59-.07.01-.13.03-.2.05-.09.03-.18.06-.26.1-.07.03-.13.06-.19.11-.05.03-.08.06-.11.11,0,.02,0,.04-.01.06.03.05.07.08.13.08.04,0,.08,0,.12.01.07,0,.13-.01.19-.02-.01.06-.02.12,0,.18-.41.02-.8.17-1.14.41-.22-.18-.81-.09-.97-.02-.87.36-1.8.53-2.74.5-.35,0-1.09.18-.99.68.14.69.86.89,1.57.94.01.05.02.1.05.15.11.13.25.19.42.22.15.03.29.03.44.03.09,0,.17,0,.25-.02.3-.04.58-.11.85-.25.06-.03.13-.08.19-.13.88-.28,1.74-.61,2.58-.98.76.43,1.57.72,2.45.85.22.04.81-.16.97-.44,1.4.56,2.94.77,4.45.63,2.21-.21,4.07-1.26,5.82-2.53.3.06.6.08.9.04.03.05.05.09.08.14.12.23.62.17,1,.02.61.61,1.51.84,2.41.94,1.17.12,2.39.16,3.51-.25,1.13-.42,1.95-1.3,2.59-2.29.47-.73.77-1.52.88-2.36.06,0,.12,0,.18-.01.09-.01.17-.04.25-.07,1.09.7,2.23,1.25,3.57,1.42,2.02.26,4.13.11,6.17.11.32,0,.8-.09.95-.42.09-.2,0-.36-.15-.46.7-.17,1.38-.42,1.99-.81.1-.06.25-.23.27-.38.28-.12.5-.33.46-.59-.14-.73-.28-1.46-.41-2.19Z"/>
  <path class="cls-3" d="m18.92,72.74c-1.19-.2-1.91.9-2.51,1.72-.64.88-1.23,1.79-1.83,2.7-.06.1-.06.19-.02.27-.06.04-.13.07-.17.12-.11.12-.21.37-.06.51.14.13.29.27.44.39.06.13.18.21.33.24.38.24.8.36,1.27.13.42-.21.48-.55.61-.96.09-.3.21-.59.34-.88.57-1.27,1.34-2.46,2.04-3.67.19-.32-.17-.53-.43-.58Z"/>
  <path class="cls-3" d="m25.86,72.05c-.17-.03-.37,0-.54.05-.23.07-.64.2-.64.5v2.7c0,.1.21.15.27.16.17.03.37,0,.54-.05.23-.07.64-.2.64-.5v-2.7c0-.1-.21-.15-.27-.16Z"/>
  <path class="cls-3" d="m27.55,69.28c-.03-.95-.58-1.86-1.4-2.33-.19-.11-.42-.1-.63-.05,0,0,0,0,.01-.02.08-.29-.48-.24-.6-.22-.15.02-.3.06-.44.1-.3.04-.59.14-.81.29-.09.06-.16.12-.22.19-.65.45-1.11,1.12-1.07,1.98.02.56.3,1.18.77,1.51.12.08.25.13.38.17,0,.01.02.02.02.03-.06.1-.08.22.08.26.64.17,1.3.24,1.95.18.25-.02.5-.07.73-.2.11-.06.33-.18.29-.34,0-.02-.01-.03-.02-.05.24-.06.56-.17.65-.4.1-.26.11-.53.07-.8.14-.09.23-.19.23-.32Z"/>
  <path class="cls-3" d="m27.91,76.91c-.34-.69-1.04-.98-1.75-1.14-.23-.1-.49-.14-.8-.06-.26.07-.57.28-.6.57,0,.1.02.18.07.25-.17.07-.31.17-.44.3-.41-.02-.87.2-.9.6,0,.06,0,.11,0,.17-.02.02-.04.04-.06.06-.34.34-.72.7-.92,1.15-.2.46-.13.96.18,1.35.29.38.69.62,1.11.83.51.26,1.08.55,1.67.55.43,0,.9-.19,1.17-.54.42-.09.83-.32,1.07-.68.25-.37.34-.8.39-1.24.09-.72.14-1.49-.2-2.16Z"/>
  <path class="cls-3" d="m18.2,90.89c-.02-2.02-.18-4.04-.28-6.06-.06-1.16.19-2.94-.83-3.78-.33-.27-.75-.4-1.18-.42-.03-.08-.06-.16-.08-.24,0-.02,0-.04,0-.06,0-.03-.02-.05-.05-.07-.05-.13-.09-.27-.14-.4-.14-.41-1.58,0-1.45.39.06.18.13.36.19.54,0,.1,0,.19,0,.29-.06.04-.12.08-.17.12-.05.05-.2.16-.16.26.12.29.23.59.34.89.03,3.22-.04,6.45-.15,9.67-.05,1.38-.25,3.13.87,4.16.89.82,2.25.8,3.24.2.13-.08.3-.17.29-.34-.04-1.73-.2-3.45-.46-5.15Z"/>
  <path class="cls-3" d="m26.08,39.36c-.06-.1-.13-.2-.19-.3-.15-.37-.32-.73-.53-1.08-.06-.1-.25-.06-.36-.04,0,0,0,0,0,0-.03.38-.19.74-.35,1.08-.01.02-.03.03-.04.05-.02.13-.11.25-.27.27h0c-.19.44-.34.88-.01,1.31.14.18.35.28.56.32.12.06.24.09.38.09.3-.01.59-.14.79-.35.07-.05.14-.11.17-.19.03-.06.03-.12.03-.18.02-.08.06-.17.05-.26-.01-.26-.12-.5-.24-.73Z"/>
  <path class="cls-4" d="m12.59,71.63c-.58-.39-1.45-.36-2.13-.43-.72-.07-1.44-.13-2.16-.16-1.73-.09-3.47-.06-5.19.04-.57.03-1.52.41-1.63,1.05-.04.26.06.43.23.54-.06.26,0,.52.21.71-.06.31.16.58.56.72.08.02.16.06.24.08.35.55.38,1.26.86,1.74.35.34.86.32,1.31.4.06.01.11.02.17.04,0,0,0,0,.01,0,0,0,0,0,0,0,.09.05.19.09.28.14.16.1.3.23.43.37.25.32.42.7.44,1.11,0,.16.44.17.5.17.34,0,.73-.06,1.06-.16.34-.1.7-.2.99-.39.15-.1.34-.2.35-.4.03-.49-.09-.93-.3-1.33.64-.21,1.25-.53,1.79-.94.68-.51,3.29-2.43,1.96-3.33Z"/>
  <path class="cls-1" d="m59.42,96.78c-5.44,0-10.87-.12-16.3.03-6.35.17-12.71-.02-19.06.21-6.31.22-12.63.18-18.94.26-.32,0-.64.03-.96.05-.32.02-.66.05-.86-.25-.23-.35.06-.57.25-.82.7-.97,1.41-1.94,2.07-2.94.25-.37.25-.76-.35-.83-.24-.03-.48-.03-.71-.08-1.1-.2-2.23-.35-3.09-1.16-.97-.92-.12-2.36-.92-3.35.77-1.4,1.19-2.78-.25-4.06-.1-.09-.05-.52.08-.67.9-1.07.86-2.18.52-3.49-.23-.88.67-1.4,1.53-1.49.95-.1,1.92-.06,2.87-.09.22,0,.48,0,.58-.29.09-.27-.05-.47-.24-.61-.32-.24-.65-.47-.99-.67C1.08,74.47.35,70.98,0,67.31c-.08-.88.35-1.51,1.31-1.72,1.18-.26,2.35-.5,3.56-.36,2.15.25,4.3.31,6.46.4,2.8.12,3.33.79,3.01,3.6-.32,2.84-1.43,5.23-4.05,6.68-.42.23-.83.48-1.08.92-.45.78-.16,1.39.78,1.44,1.79.1,3.27-.06,4.47-1.92,4.44-6.85,9.58-13.18,14.98-19.3,1.37-1.56,2.58-3.26,3.91-4.85.66-.8.65-1.55.19-2.42-.49-.93-1.12-1.31-2.13-.77-1.27.67-2.54,1.35-3.84,1.96-1.9.9-1.95.86-3.08-.81-.22-.33-.42-.68-.65-1.01-.55-.8-.41-1.34.58-1.53,1.51-.29,2.9-.87,4.19-1.7,1.53-.99,2.6-2.35,3.26-4.03.08-.19.08-.5-.03-.65-.17-.23-.42-.04-.6.08-.68.41-1.34.87-2.05,1.24-2.55,1.37-5.22,1.6-7.84.4-1.48-.68-2.86-.93-4.33-.25-1.01.46-1.47-.09-1.87-.87-.3-.6-.25-1.24-.27-1.88-.18-5.98,1.86-11.27,4.95-16.26,4.19-6.76,9.75-12.19,16.13-16.85.45-.33.9-.66,1.36-.98.55-.38.73-.81.25-1.39-.2-.24-.38-.52-.5-.82-.54-1.43-.11-2.69,1.1-3.27,1.2-.58,2.67-.07,3.51,1.21.79,1.21.79,2.94-.33,3.41-2.08.87-1.7,2.35-1.48,3.93.67,4.66,1.71,9.28,1.82,14.01.03,1.49.86,2.59,1.77,3.57,3.62,3.87,6.5,8.3,9.64,12.53,7.54,10.18,14.02,20.99,19.28,32.52,1.8,3.95,3.07,8.06,3.84,12.32.65,3.61,1.7,7.15,2.11,10.81.17,1.55.19,1.61-1.43,1.61-5.83.02-11.67,0-17.5,0,0,.15,0,.31,0,.46Zm-41.72-22.97c-1.53.84-2.04,2.52-3.06,3.78-.39.49-.02.87.42,1.14.47.29.97.37,1.14-.26.43-1.58,1.52-2.96,1.46-4.7.33.05.41-.13.38-.4,0-.06-.14-.15-.16-.14-.22.14-.32.33-.17.58Zm21.22-44.86l-.04.15.09-.1c-.77-.63-1.07-1.53-1.47-2.39-.32-.69-2.91-1.11-3.37-.57-.09.11-.1.29-.11.45-.05,1.36,1.27,2.86,2.6,2.8.76-.04,1.59.18,2.3-.33Zm-15.96,37.65c-1.27.77-2.18,1.91-2.55,3.28-.46,1.71-1.23,3.27-1.83,4.91-.5,1.34-.99,2.69-1.51,4.03-.21.56-.33,1.09.24,1.5,2.52,1.81,5.04,3.63,7.59,5.41.53.37.92.12.9-.53-.02-.87.04-1.78-.17-2.61-.21-.82-1.2-.62-1.82-.94-1.69-.88-2.13-2.01-1.35-3.72.47-1.03,1.03-2.12,2.08-2.53,1.27-.5,1.43-1.36,1.28-2.45-.15-1.11-1.13-.63-1.73-.81-1.95-.58-2.56-1.66-1.93-3.6.22-.67.89-1.15.78-1.95.77.1,1.27-.53,1.94-.74,1.32-.42,1.57-.87,1.31-2.11-.13-.62-.46-.84-.93-.31-.86.99-1.95,1.81-2.3,3.18Zm20.06-3.92c.87.35,1.02,1.18,1.26,1.93.41,1.29.78,2.6,1.15,3.91,1.39,4.92,2.77,9.84,4.15,14.76.72,2.55.24,3.66-2.2,4.78-1.77.81-3.66,1.13-5.59,1.18-3.61.09-4.28-.55-4.47-4.23-.17-3.35-.37-6.7-.56-10.05-.16-2.87-.31-5.75-.48-8.62-.02-.39-.08-.86-.66-.75-.39.08-.36.44-.33.77.12,1.67.29,3.35.34,5.02.18,5.03.83,10.03.68,15.08-.04,1.28-.49,1.94-1.64,2.25-1,.27-2.01.5-3.01.77-.22.06-.55.2-.57.34-.05.35.3.51.57.62,1.22.51,2.46.23,3.44-.43,1.31-.89,2.48-.84,3.8-.17.41.21.92.26,1.37.38,3.34.92,6.32-.23,9.18-1.75,1.05-.56,1.89-.9,3.11-.39,1.16.49,2.5.64,3.78.49,2.1-.24,4.11-.61,4.75-3.22.32-1.29.78-1.37,2.19-.89,2.95,1.02,5.93,1.17,8.97.41.96-.24,1.77-.72,2.48-1.38.4-.37.37-2.1-.09-2.42-.69-.49-.9.36-1.32.61-.27.16-.48.43-.74.61-2.48,1.68-5.15,1.86-8.02,1.22-2.68-.59-3.6-2.67-4.56-4.79-.16-.36-.25-.76-.39-1.13-3.03-8.08-6.05-16.16-9.08-24.23.98.29,1.26,1.16,1.57,1.97.99,2.52,1.97,5.05,2.93,7.59,2.13,5.59,4.07,11.25,6.45,16.73.37.86.65,1.76,1.59,2.3,2.61,1.52,6.69,1.36,9.08-.45,1.96-1.48,2.17-2.13,1.44-4.47-1.24-3.98-3.18-7.65-5-11.38-3.54-7.26-7.82-14.08-12.34-20.76-.25-.37-.45-.97-.99-.81-.27.09-.45.62-.59.98-1.11,2.91-2.39,5.72-4.1,8.33-1.03,2.47-2.77,4.44-4.48,6.43-.54.63-.96,1.09-.61,2.08,2.54,7.32,3.98,14.97,6.53,22.29.7,2.01.93,2.25,3.01,2.02,1.48-.17,2.75-.76,3.84-1.79.68-.64.84-1.33.38-2.14-.47-.83-.96-1.65-1.28-2.57-2.42-6.86-4.87-13.7-7.31-20.55-.24-.68-.43-1.37-.62-2.06-.04-.13,0-.39.09-.43.25-.13.41.09.51.28.18.36.33.73.48,1.1,3.12,7.86,5.22,16.11,9.07,23.69.6,1.18.33,2.29-.67,3.26-1.8,1.76-3.96,2.3-6.38,2.06-.97-.09-1.51-.63-1.89-1.57-.72-1.8-.94-3.71-1.46-5.55-1.6-5.61-3.15-11.23-4.73-16.84-.14-.51-.04-1.25-.72-1.37-.65-.12-.89.57-1.24.98-1.38.6-2.75,1.23-4.16,1.79-1.78.71-1.8.68-1.71,2.47.22,4.54.42,9.07.69,13.6.13,2.14.28,4.29.74,6.4.18.85.57,1.24,1.41,1.3,2.67.18,5.24-.1,7.64-1.41,1.05-.58,1.5-1.35,1.16-2.55-.37-1.3-.67-2.62-1.03-3.93-1.63-5.91-3.44-11.76-4.8-17.74Zm15.06,33.23c0-.08,0-.15,0-.23.56,0,1.12,0,1.68,0,5.27-.08,10.54-.15,15.8-.24,1.9-.03,1.86-.06,1.72-1.87-.22-2.8-1.25-5.44-1.63-8.21-.08-.61-.47-.77-1.04-.49-3.73,1.81-7.55,1.76-11.41.5-.95-.31-1.3.11-1.54.93-.51,1.75-1.92,2.46-3.52,2.89-1.82.49-3.69.39-5.44-.15-1.2-.37-2.08-.2-3.13.38-3.49,1.93-7.19,2.55-11.08,1.33-.38-.12-.77-.22-1.16-.28-.76-.12-3.52.78-3.46,1.18.14,1.06,1.28,1.24,1.95,1.84.59.53,1.31.91,1.93,1.42.98.82,2.07,1.04,3.33,1.03,5.67-.04,11.34-.02,17-.02ZM15.77,38.83c0,.56-.02,1.12,0,1.68.08,1.45.18,1.62,1.54,1.14,1.49-.52,2.71-.22,4.1.39,3.51,1.53,6.71.72,9.54-1.75.6-.52,1.16-1.1,1.77-1.61.16-.13.5-.21.64-.13.15.09.27.43.23.62-.57,2.71-1.5,5.22-3.82,6.98-1.22.92-2.57,1.65-4.01,2.1-1.06.33-1,.77-.5,1.53.45.68.93.72,1.61.36,1.9-1.02,3.84-1.96,5.73-3,2.8-1.54,5.57-3.13,8.19-4.96,1-.7.98-1.13-.07-1.4-4.56-1.2-7.16-4.9-10.22-7.98-1.01-1.02-1.47-2.45-1.96-3.81-.27-.74-.71-.95-1.47-.59-1.53.72-3.03,1.47-4.15,2.77-1.2,1.38-1.14,1.77.29,2.84,1.3.98,2.73,1.64,4.36,1.84.33.04.65.19.56.59-.04.19-.27.39-.46.48-.28.13-.61.2-.92.23-3.42.41-5.87-1.8-5.81-5.23.09-4.93,1.04-5.84,5.52-5.3,1.1.13,1.43-.32,1.03-1.37-.18-.49-.48-.77-.99-.94-1.29-.42-2.58-.85-3.84-1.34-.81-.32-1.3-.13-1.77.62-2.93,4.67-5.12,9.58-5.14,15.23Zm21.35-14.12c.67-.05,1.22-.11,1.78-.14,1.97-.12,1.97-.11,1.91-1.95-.17-5.21-1.46-10.27-2-15.43-.07-.63-.42-.82-.98-.54-.29.14-.56.31-.82.49-5.37,3.71-9.9,8.3-13.99,13.36-.86,1.07-.8,1.24.38,1.69,4.45,1.72,9.08,2.42,13.72,2.52Zm-1.86,54.53s-.05,0-.08,0c-.23-4.06-.5-8.12-.65-12.19-.04-1.12-.32-1.61-1.49-1.54-1.53.09-3.01-.26-4.5-.55-.44-.09-.97-.47-1.27.1-.29.55-.5,1.19.03,1.78,1.48,1.6,1.1,3.11-.1,4.71-.86,1.15-.63,3.05.29,4.15,1.77,2.12,1.74,4-.21,5.84-.52.49-.8.89-.69,1.61.1.71.11,1.44.08,2.15-.07,1.53.81,2.35,2.08,2.87,1.82.75,3.59.34,5.38-.19,1.08-.32,1.56-.82,1.45-2.04-.2-2.22-.22-4.46-.32-6.69Zm18.94-36.87c-.27-1.04-1.05-1.68-1.54-2.49-.47-.77-1.03-.85-1.78-.29-1.37,1.02-2.96,1.87-4.63,1.73-2.38-.2-4.07.83-5.82,2.17-1.26.97-2.71,1.68-4.08,2.51-.75.46-1.51.9-2.25,1.37-.46.29-.67.6-.29,1.16,1.26,1.9,1.66,4.13,2.34,6.25.35,1.09.75,1.21,1.64.6,4.35-2.97,8.76-5.87,12.77-9.3,1.03-.88,1.98-1.86,2.94-2.81.28-.27.48-.62.7-.9Zm-21.27,22.28c4.96.04,9.72-2.07,13.07-6.04,3.17-3.76,5.46-8.06,7.35-12.58.12-.29.38-.66.14-.87-.43-.39-.69.14-.94.36-5.98,5.22-12.54,9.63-19.35,13.68-1.78,1.06-3.5,2.24-5.24,3.36-.27.17-.56.36-.58.71-.02.56.49.57.83.67,1.54.45,3.11.74,4.72.72Zm-19.05,20.64c-.06,0-.12,0-.17,0,0-1.51.03-3.03,0-4.54-.05-1.6-.08-1.6-1.63-1.62-2.23-.03-4.46-.09-6.69-.12-.88-.01-1.76-.03-2.63.04-.79.07-1.23.56-.76,1.3.6.94.31,1.66-.3,2.37-.7.82-.55,1.44.39,1.88,1.07.5.96,1.14.25,1.83-.71.69-1.02,1.38-.29,2.27.27.33.05.76-.07,1.14-.18.58.16.92.63,1.1.59.23,1.21.5,1.82.52,2.71.08,5.42.11,8.12-.13.98-.09,1.39-.51,1.36-1.52-.06-1.51-.01-3.03-.01-4.54Zm14.66,10.93c0-.08,0-.17,0-.25,2.39,0,4.79,0,7.18-.01.36,0,.89.15,1.02-.33.12-.45-.38-.64-.68-.85-4.21-3.02-8.43-6.04-12.65-9.05-.91-.65-1.82-1.3-2.76-1.9-.87-.55-1.11-.43-1.06.65.15,3.43.37,6.85.56,10.28.06,1.09.61,1.52,1.7,1.49,2.23-.05,4.47-.02,6.7-.02Zm-13.94-8.5h.17c0,.64-.01,1.27,0,1.91.04,1.75.02,3.5.14,5.24.1,1.39.57,1.57,2.38,1.42,1.21-.1.86-.86.81-1.54-.25-3.97-.55-7.93-.73-11.9-.05-1.18-.52-1.92-1.5-2.48-.97-.55-1.24-.46-1.26.67-.04,2.23-.01,4.45-.01,6.68Zm-7.39-16.02c0-.09,0-.19,0-.28-.79,0-1.59-.05-2.38.01-.96.07-2.38-.66-2.78.38-.38.99.77,1.97,1.48,2.81.35.41.85.71,1.32.99.89.52,1.82.95,2.23,2.03.24.62.84.62.94,0,.24-1.56,1.37-2.23,2.53-2.94.76-.46,1.35-1.1,1.78-1.89.37-.68.16-1.08-.61-1.1-1.51-.03-3.01,0-4.52,0Zm-.06-1.03c0,.08,0,.16,0,.24,1.51,0,3.02.04,4.52-.01,1.49-.05,1.95-.7,1.84-2.37-.1-1.51-1.2-.99-1.95-.87-2.06.35-4.12.39-6.18.27-1.11-.06-2.2-.29-3.3-.44-.4-.06-.83-.09-1.03.35-.45.95.49,2.52,1.57,2.59,1.51.11,3.02.15,4.52.23Zm38.49-30.13c1.19.02,2.93-.47,4.5-1.51.45-.3,1.03-.61.74-1.3-.31-.75-.88-.42-1.42-.26-3.54,1.07-6.92.43-10.24-.94-.37-.15-.69-.47-1.06-.53-.82-.13-1.68.13-2.02.85-.26.55.54.87.96,1.19,2.31,1.76,5.02,2.3,8.53,2.5Zm-6.46-8.32c.04-1.28-.63-2.08-1.77-2.09-1.17-.01-2.4,1.11-2.42,2.22,0,.36.2.61.54.68.4.08.57-.12.55-.52-.05-.89.46-.96,1.05-.62.62.35.58.9.18,1.43-.74.98-2.09,1.04-2.89.1-.46-.54-.71-1.21-1.21-1.76-1.37-1.48-2.43-3.17-2.78-5.21-.05-.31-.11-.64-.27-.9-.23-.36-.68-.45-1.07-.4-.54.07-.52.55-.43.92.57,2.42,1.31,4.78,2.96,6.73.72.86,1.49,1.68,2.47,2.25,2.08,1.21,5.01-.43,5.09-2.82ZM9.32,96.38s0-.03,0-.05c1.11,0,2.23-.03,3.34,0,1,.04,1.51-.32,1.37-1.39-.06-.47-.09-.95-.08-1.43.02-1.01-.38-1.46-1.45-1.31-.86.12-1.76.26-2.61.14-2.06-.28-3.26.73-4.2,2.4-.83,1.47-.83,1.57.77,1.62.95.03,1.91,0,2.86,0Zm26.26-40.46c-.21-.69-.38-1.38-.63-2.05-.47-1.26-.69-1.3-1.51-.31-.87,1.05-1.71,2.11-2.57,3.16-.96,1.17-1.95,2.33-2.9,3.51-.2.25-.31.59,0,.85.21.18.43.03.63-.09,2.05-1.24,4.1-2.48,6.15-3.73.49-.3.94-.64.85-1.34Zm-10.11,25.18c1.49.03,2.36-.85,2.37-2.37.01-1.55-.7-2.55-1.87-2.61-1.27-.07-2.9,1.55-3,2.98-.08,1.11,1,1.98,2.49,2.01Zm20.31-43.98c1.03.01,2.06-.09,3.05-.39.43-.13.93-.36.72-.99-.17-.49-.51-.81-1.07-.74-.39.05-.77.22-1.16.26-2.14.22-4.27.27-6.29-.69-.29-.14-.57-.3-.87-.38-.56-.16-.9.2-1.11.64-.23.49.19.72.52.89,1.94,1.01,4.06,1.27,6.21,1.4Zm-20.74,34.17c1.42-.01,2.28-.83,2.31-2.19.03-1.19-1.13-2.3-2.31-2.22-1.03.07-2.17,1.53-2.18,2.81-.01,1.05.75,1.61,2.19,1.6Zm20.01-36.74c.71-.06,1.42-.09,2.13-.18.4-.05.85-.22.79-.7-.04-.33-.45-.34-.77-.37-2.03-.17-3.78-1.11-5.56-1.98-.53-.26-.9-1-1.61-.68-.33.15.08,2.29.52,2.63.37.29.8.52,1.24.69,1.05.4,2.14.59,3.27.6Zm-6.37-8.61c-.2.14-.34.34-.26.59.29.94.83,1.73,1.54,2.4,1.3,1.22,2.81,2.11,4.47,2.72.7.26,1.72,1.05,2.09.27.33-.7-.78-1.42-1.41-2.02-.11-.1-.29-.15-.44-.17-2.43-.22-4.14-1.51-5.39-3.53-.12-.2-.33-.34-.61-.26Zm2.62-22.73c0-1.11-1.02-2.16-2.09-2.15-.82,0-1.44.67-1.44,1.54,0,1.08,1.07,2.16,2.1,2.14.85-.02,1.43-.64,1.43-1.53Zm-9.98,23.11c.34,1.8,1.17,3.21,2.28,4.47.22.25.54.33.83.09.24-.2.58-.54.38-.78-1.04-1.23-1.44-2.75-2.05-4.18-.13-.32-.69-.38-1.08-.24-.34.12-.41.43-.35.65ZM7.12,67.03c.88,0,1.75,0,2.63,0,.15,0,.3-.1.44-.16-.11-.1-.22-.28-.34-.29-2.15-.1-4.27-.58-6.44-.45-.19.01-.52-.03-.42.33.03.12.2.24.33.29,1.23.45,2.52.32,3.79.27ZM43.54,28.16c-.01-.46-2-2.69-2.49-2.72-.2-.01-.5.13-.59.29-.09.16-.06.48.05.65.6.99,1.51,1.6,2.56,2.02.24.1.43.08.48-.23Zm-25.11,55.26l-.02-.24-.04.14.06.09Z"/>
</svg>