<?xml version="1.0" encoding="UTF-8"?>
<svg id="Layer_1" data-name="Layer 1" xmlns="http://www.w3.org/2000/svg" viewBox="0 0 82.68 96.87">
  <defs>
    <style>
      .cls-1 {
        stroke: #737e43;
      }

      .cls-1, .cls-2, .cls-3 {
        stroke-miterlimit: 10;
        stroke-width: .25px;
      }

      .cls-1, .cls-4 {
        fill: #737e43;
      }

      .cls-2 {
        fill: #e7b54e;
        stroke: #231f20;
      }

      .cls-3 {
        stroke: #000;
      }

      .cls-5, .cls-6, .cls-4 {
        stroke-width: 0px;
      }

      .cls-6 {
        fill: #f9faf5;
      }
    </style>
  </defs>
  <path class="cls-6" d="m80.98,96.21l.87-.62.46-11.77s-1.89-17.3-1.75-19.82-6.62-22.82-6.62-22.82l-5.34-9.67-.33-1.89,5.67-2.41,3.13-2.46-5.65-6.09-.45-1.74-1.5-4.94-3.15-5.78-4.06-2.77-4.75-1.9-9.26-.54-2.82,1.43-11.02-1.87,4.24,10.31c-5.97,4.65-7.85,17.69-7.85,17.69h4.45l.5,2.26c4.94,1.33,10.34-4.36,10.34-4.36.61,7.16-8.4,9.7-8.4,9.7l1.17,1.8,5.68-1.13v1.13c-.38,11.29-20.08,21.33-20.08,21.33l-4.16-19.05,1.49-7.29-2.13-1.26-2.5,3.44-1.57.72-9.2-11.08-2.17,1.7,1.65,3.18,4.27,6.76-5.3,4.4-.51,2.87,5.81,4.76.79,1.85,1.86,13.45L0,94.8l2.54,1.22,78.44.19Z"/>
  <path class="cls-1" d="m51.49,5.35s-.02.03-.02.04c-.21-.48-1.02-.58-1.16.05-.14.65-.51,1.18-.86,1.74-.36.59-.71,1.18-1.05,1.79-.69,1.26-1.3,2.56-1.85,3.89-.13.31.14.69.44.77.08.02.16.02.23.02-.13.57.77,1,1.17.41.85-1.24,1.4-2.64,1.99-4.01.3-.69.61-1.37.98-2.03.39-.69.83-1.35,1.2-2.05.38-.71-.7-1.34-1.08-.63Z"/>
  <path class="cls-4" d="m55.2,7.28c.08-.66-.98-.91-1.22-.2-.27.78-.57,1.54-.89,2.3-.27.53-.57,1.05-.85,1.58-.32.57-.62,1.15-.89,1.74-.09.2-.16.4-.24.59-.28.47-.56.94-.86,1.4-.37.57.33,1.09.82.85.27.17.65.17.86-.19,1.34-2.35,2.63-4.73,3.88-7.14.25-.49-.18-.93-.59-.93Z"/>
  <path class="cls-4" d="m58.55,9.29s.01-.06.02-.1c.04-.34-.32-.62-.62-.62-.37,0-.58.29-.62.62-.01.09-.04.18-.06.28-.19.05-.35.17-.43.4-.46,1.31-1.03,2.57-1.72,3.78-.35.61-.72,1.19-1.12,1.77-.41.59-.81,1.17-.62,1.92.08.31.45.51.75.45,0,0,.01.01.02.02.27.16.71.08.86-.22.3-.65.61-1.31.91-1.96,1.28-1.77,2.47-3.61,3.56-5.51.35-.62-.45-1.18-.92-.82Z"/>
  <path class="cls-4" d="m47.11,3.39c-.2,0-.35.08-.45.21-.14-.55-1.04-.7-1.2-.03-.31,1.31-.75,2.59-1.35,3.8-.61,1.25-1.24,2.45-1.58,3.82-.17.71.79,1.04,1.12.52.04.03.08.05.12.06.06.64,1.06.87,1.2.14.28-1.4.68-2.76,1.22-4.08.51-1.26,1.37-2.45,1.54-3.82.04-.34-.32-.62-.62-.62Z"/>
  <path class="cls-4" d="m69.5,12.73c-.51-1.29-1.07-2.58-1.74-3.8-.63-1.15-1.37-2.25-2.24-3.24-.95-1.1-1.94-1.68-3.27-2.25-1.23-.52-2.45-1.11-3.72-1.54-1.42-.48-2.91-.62-4.39-.74-2.76-.23-5.65-.48-8.26.63-.62.26-.24,1.13.32,1.16.51.03,1.01.09,1.51.16,3.96,1.46,7.61,3.5,11.17,5.76.9.57,1.82,1.14,2.72,1.72-.32-.06-.59.15-.71.44-.56,1.41-1.35,2.72-2.08,4.05l-2.3,4.19c-.27.49.18.94.6.93.1.21.31.39.55.36.48-.06.68-.3.92-.7.22-.36.43-.73.65-1.09.46-.77.92-1.55,1.39-2.32.45-.75.9-1.5,1.35-2.26.41-.7.82-1.41.96-2.22.09-.54-.43-.85-.82-.76,0-.13-.05-.25-.12-.35.83.54,1.65,1.09,2.44,1.68-.13.14-.21.32-.15.56.07.27.19.49.34.68-.94,1.15-1.85,2.34-2.65,3.59-.82,1.29-1.53,2.65-2.27,3.99-.24.45.1.86.48.93-.09.64.79,1,1.15.41.8-1.31,1.67-2.58,2.6-3.8.45-.6.93-1.18,1.41-1.75.49-.58,1-1.13,1.39-1.79.01-.02.01-.04.02-.06.68.42,1.36.84,2.03,1.25.18.11.35.12.5.06.33.23.84.18.94-.32.24-1.28-.27-2.4-.73-3.57Z"/>
  <path class="cls-4" d="m69.65,17.6c-.09-.11-.2-.18-.33-.22.01-.51-.62-.97-1.03-.49-1.9,2.19-3.79,4.38-5.69,6.57-.41.47.04,1.11.5,1.08.21.22.58.31.88.02,2.06-1.95,3.7-4.44,6.22-5.86.67-.38.12-1.37-.54-1.11Z"/>
  <path class="cls-4" d="m73.51,20.54c-.22-.07-.44-.05-.67.02.06-.16.06-.34-.04-.51-.16-.27-.58-.43-.86-.22-2.49,1.85-4.89,3.83-7.18,5.93-.42.39-.1.93.33,1.03.14.31.49.54.88.35,1.39-.69,2.59-1.68,3.76-2.69.57-.49,1.13-.99,1.72-1.46.3-.24.6-.47.92-.69.15-.11.31-.21.46-.31.07-.04.14-.09.21-.13.05-.03.1-.06.15-.09,0,0,0,0,0,0,.74.19,1.05-.97.3-1.21Z"/>
  <path class="cls-4" d="m75.94,23.75c.31-.51-.24-1.3-.81-.89-2.74,1.95-5.44,4.05-8.49,5.5-.73.35-.09,1.42.63,1.08.11-.05.21-.11.32-.16.12.23.36.4.69.34.89-.17,1.73-.48,2.56-.82.75-.31,1.5-.62,2.22-.98.66-.34,1.3-.74,1.85-1.24.44-.4.92-.92.97-1.49.07-.03.15-.07.22-.1.69-.25.47-1.27-.15-1.23Z"/>
  <path class="cls-4" d="m42.29,63c-1.98-.17-3.97-.38-5.96-.44-.48-.01-.96-.02-1.45,0-.46.01-.95,0-1.37.2-.76.35-.94,1.16-1.04,1.91-.06.44.44.66.79.6.32-.05.65-.08.98-.13.63.17,1.28.31,1.94.31.73,0,1.45-.19,2.17-.24.74-.05,1.47-.02,2.21-.01.62.01,1.43.14,1.88-.39.17-.19.2-.41.14-.61.1-.07.18-.15.24-.27.21-.45-.05-.9-.54-.94Z"/>
  <path class="cls-4" d="m55.91,71.33c-1.64-1.34-3.27-2.68-4.91-4.02-.09-.07-.18-.13-.27-.17-.03-.21-.06-.42-.1-.62-.04-.22-.13-.38-.24-.52-.09-.03-.17-.09-.2-.22-.59-2.34-.28-4.72-.27-7.1,0-.02,0-.03.01-.05-.17-.09-.36-.15-.56-.14-.68.03-1.25.55-1.25,1.25v.05c-.16-.02-.32-.01-.47.04-.3.1-.53.29-.68.52-.13.02-.26.05-.39.09-.49.16-.89.5-1.17.93-.49.76-.43,1.68-.24,2.52.14.59.44,1.12,1.06,1.31.39.12.83.09,1.23.11.17,0,.34.01.5.02.08,0,.16,0,.24,0,.09.25.26.47.47.62-.33.27-.54.7-.45,1.22.39,2.28.64,4.58.77,6.89-.07.15-.13.31-.15.5-.11.98-.37,2.15-.48,3.31-.09-.09-.21-.16-.37-.18-3.38-.39-6.78-.67-10.18-.85.03-.11.03-.22,0-.33-.02-.05-.04-.1-.06-.15-.06-.09-.13-.17-.22-.22-.13-.06-.27-.11-.41-.14-.07-.47-.6-.61-.94-.41-.16-.04-.32-.09-.45-.12-.22-.05-.44-.1-.66-.14-.49-.09-.99-.17-1.49-.22-.96-.11-1.93-.14-2.9-.09-.02,0-.03,0-.05.01.1-.12.18-.27.22-.44.06-.32.1-.64.15-.95,1.76.02,3.52.14,5.26.35.34.04.62-.32.62-.62,0-.37-.29-.58-.62-.62-.13-.02-.26-.02-.39-.04.12,0,.23,0,.35.02.34.03.62-.31.62-.62,0-.36-.29-.59-.62-.62-1.62-.15-3.25-.19-4.87-.11.07-.55.11-1.1.15-1.65.08-.14.14-.3.15-.48,0,0,0-.02,0-.03.11.1.25.17.41.16.79-.05,1.58-.05,2.38.01.37.03.73.07,1.07.12.22.03.43.09.65.02.32-.1.5-.36.51-.68,0-.19-.1-.37-.25-.49.07-.07.13-.15.16-.26.07-.31-.09-.7-.44-.77-1.25-.26-2.53-.34-3.8-.2-.2.02-.39.12-.51.28.23-2.02.56-4.02,1.27-5.93.17-.45.37-.89.58-1.32-.1.36.08.82.57.81,2.04-.04,4.07-.02,6.11.06.56.02.81-.69.44-1.07-.22-.23-.45-.46-.67-.69-.12-.13-.26-.17-.39-.18-.12-.14-.28-.22-.48-.24-1.46-.13-2.92-.18-4.39-.15-.34,0-.62.28-.62.62,0,.14.06.28.15.39-.05,0-.1,0-.14,0-.23,0-.39.12-.49.27.47-.95,1.01-1.87,1.5-2.81.11.18.29.31.52.31h1.02c.17,0,.33,0,.5,0,.2,0,.42.02.61-.03.34-.08.55-.43.52-.76-.02-.24-.1-.46-.25-.65-.21-.27-.5-.45-.81-.58-.02,0-.04-.01-.06-.02,0-.17-.07-.34-.2-.47-.13-.12-.3-.19-.47-.19-.11,0-.24.04-.34.1-.02,0-.03,0-.05,0,.03-.08.06-.16.09-.25.47-1.54-1.95-2.2-2.41-.66-.01.03-.02.07-.04.1-.3-.1-.64-.09-.99.09-2.25,1.17-2.76,3.81-3.23,6.07-.11.54-.21,1.07-.3,1.61-.11.12-.2.26-.27.43-.83,1.97-1.15,4.09-.97,6.22,0,.08.04.13.06.2-.16.19-.26.44-.26.78.04,1.72.22,3.42.5,5.12.13.8,1.05,1.05,1.72.78-.13.27-.07.62.16.79-.66.18-.63,1.26.13,1.22,1.16-.07,2.34-.05,3.49.13,1.18.18,2.33.51,3.52.61.06,0,.11-.01.17-.03,3.47.18,6.93.47,10.37.86.13.01.23-.01.31-.06,0,.61.08,1.2.26,1.74-.1.09-.2.19-.26.32-.26-.34-.91-.21-1.08.23-.46-.12-3.55-.97-3.89-1.04-1.36-.27-2.73-.48-4.11-.62-.49-.05-.98-.08-1.47-.11-2.56-.36-5.14-.53-7.72-.51-.79,0-.8,1.19-.05,1.24,0,.09.02.18.06.27-.25.37.08,1.07.7.99,1.43-.2,2.86.07,4.26.3,1.35.22,2.7.44,4.05.66,2.7.44,5.4.88,8.1,1.31.59.1.93-.56.72-.95.11-.01.21-.07.29-.13,0,.96,0,1.93-.02,2.89,0,0,0,0-.01,0-5.58-1.11-11.21-1.94-16.87-2.47-.8-.08-.8,1.17,0,1.25.09,0,.17.02.26.03-.63.16-.58,1.21.16,1.22,5.27.07,10.52.62,15.69,1.66.4.08.68-.19.76-.5,0,0,0,0,0,0-.02.93-.05,1.87-.08,2.8-.1-.13-.24-.22-.4-.24-.17-.21-.42-.37-.78-.43-1.45-.23-2.97-.23-4.43-.35-2.99-.23-5.99-.46-8.98-.69-.27-.02-.44.11-.53.3-.11,0-.21,0-.32,0-.78.01-.8,1.19-.05,1.24-.02.17-.01.35.04.54.07.28.33.44.6.46,4.11.27,8.22.53,12.32.8.19.04.37.09.56.13.34.07.71.06,1.04-.03.04,0,.07,0,.11,0,.23.01.45-.15.55-.35.08-.08.15-.17.21-.27-.04,1.01-.07,2.02-.12,3.03-4.64-.39-9.28-.78-13.92-1.16-.58-.05-.73.48-.47.81-.28.18-.37.51-.08.77.15.14.31.34.48.52-.48.13-.73.71-.17.92.89.34,2.12.23,3.09.28,1.17.06,2.35.12,3.52.17,1.13.06,2.25.11,3.38.17,1.14.06,2.34.22,3.48.03.25-.04.42-.24.45-.44.24.02.49-.07.61-.25.57.84,2.26.61,2.32-.71.17-3.91,3.21-7.1,2.76-11.14-.01-.11-.04-.21-.08-.31.16-.14.3-.34.38-.61.81-2.73,1.79-5.95,1.57-8.86.23-.22.46-.45.69-.67.46-.42.51-1.35,0-1.77Z"/>
  <path class="cls-4" d="m22.99,54.26c-.28-.79-.57-1.59-.85-2.38-.22-.63-.4-1.45-.81-2.01.21-.53.41-1.06.58-1.6.48-1.54-1.93-2.2-2.41-.66-.45,1.43-1.06,2.77-1.83,4.05-.32.53-.22,1.02.07,1.36-.14.31-.22.65-.24.99-.32.19-.55.53-.55,1.02,0,.06,0,.12,0,.17-.59.72-.55,1.75-1.01,2.59-.61,1.1-1.35,2.14-2.03,3.19-.3.46-.24.91,0,1.25,0,0,0,0-.01,0-1.06.98-1.65,2.43-1.68,3.87-.36.89-.63,1.81-.75,2.76-.53-.04-1.06.22-1.22.88-.81,3.26-2.48,6.19-3.75,9.28-1.31,3.18-1.46,6.76-3.46,9.62-.19.28-.25.55-.21.8-.35.55-.7,1.11-1.02,1.68-.3.54-.56,1.12-.68,1.72-.06.32-.08.65-.09.97-.11.26-.22.52-.32.79-.35.99.96,2.04,1.84,1.41.61-.44.9-.97.96-1.71.64-1.49,1.49-2.87,2.56-4.09.41-.47.39-1.03.15-1.46.79-1.26,1.59-2.52,2.38-3.78.56-.9,1.05-1.81,1.31-2.81.22-.1.4-.26.5-.48,1.58-3.66,3.3-7.26,5.18-10.78.91-1.7,1.85-3.39,2.83-5.05.79-1.35,1.54-2.68,1.82-4.19.32-.26.46-.69.43-1.1.37-.59.74-1.18,1.14-1.75.45-.64.91-1.27,1.38-1.89.67-.87.13-1.76-.2-2.67Z"/>
  <path class="cls-4" d="m69.75,33.32c-1.21-1.67-3.03-.41-4.41.41-.92.23-1.86.4-2.8.46-2.04.11-3.75-1.04-5.75-1.17-.87-.05-1.82.11-2.56.6-.11.07-.2.15-.29.24-1.81.95-3.19,2.71-3.57,4.73-.23.17-.42.41-.53.7-.26.66-.53,1.32-.79,1.98-.14.28-.27.57-.38.87-.22.36-.39.76-.5,1.18-.06.24-.15.47-.23.71-.17.43-.34.86-.52,1.29-.07.13-.14.27-.21.4-.16.28-.26.58-.3.88-.17.43-.35.87-.52,1.3-.29.73.45,1.64,1.21,1.58.42-.03.87-.04,1.32-.07.57.11,1.17.03,1.68-.26.49-.15.96-.37,1.34-.75.47-.45.81-1.05,1.16-1.59.36-.54.72-1.08,1.09-1.61,1.33-1.92,2.82-3.78,4.84-4.99.27-.16.54-.33.82-.49,1.43-.83,2.87-1.64,4.31-2.45.7-.4,1.41-.8,2.11-1.2.93-.26,1.85-.57,2.72-.92.68-.27,1.27-1.12.75-1.84Z"/>
  <path class="cls-2" d="m49.88,55.82c-1.9.04-3.8-.09-5.68-.42-.27-.05-.53,0-.77.08-.39-.06-.79-.09-1.19-.08-.81-.05-1.59-.24-2.37-.53-.02.06-.04.12-.08.16-.06.06-.16.1-.25.1h-.72c-.13,0-.23-.07-.29-.18-.48.38-.72,1.12-.36,1.66.43.66,1,1.12,1.65,1.54,0,.05-.02.09-.02.14.03,1.39,1.07,2.17,1.98,2.89.87.7,1.26,1.59,1.18,2.67-.05.61.51,1.16,1.08,1.23.64.08,1.16-.29,1.37-.9.22-.62.14-1.27,0-1.9-.04-.21-.11-.51-.14-.66-.02-.09-.03-.09.07-.22.71-.85,1.79-1.2,2.8-1.51.68-.21,1.29-.69,1.37-1.43,0-.03,0-.06,0-.1.2-.03.39-.06.59-.1,0-.04-.03-.09-.02-.13.03-.1.09-.15.16-.21-.11.08-.03.03,0,0,.02-.02.04-.03.05-.05.04-.04.07-.08.11-.12.02-.02.04-.04.06-.07,0,0,.01-.01.02-.02.04-.05.07-.1.11-.15.14-.21.28-.42.39-.65.01-.03.05-.03.07-.05-.11-.55-.52-1.04-1.19-1.03Z"/>
  <path class="cls-4" d="m42.26,2.17c-.05-.33-.47-.52-.77-.44-.11.03-.19.08-.25.15-.25-.53-1.21-.44-1.19.26.06,2.62-1.2,5.06-1.2,7.68,0,.41.33.61.65.6.17.52,1.03.66,1.19,0,.32-1.38.64-2.75.96-4.13.31-1.32.84-2.75.62-4.12Z"/>
  <path class="cls-4" d="m38.16,1.3c-.06-.33-.47-.52-.77-.44-.1.03-.18.08-.25.14-.12-.55-.92-.59-1.16-.12-.03-.03-.04-.07-.08-.1-.4-.37-1.05-.11-1.07.44-.01.45.23.84.41,1.24.16.37.31.74.45,1.11.01.03.02.06.03.09.21.87.42,1.75.64,2.62.21.72,1.23.48,1.21-.19.03-.05.06-.09.08-.15.13-.4.13-.82.13-1.24,0-.36.04-.7.12-1.05.19-.79.4-1.54.25-2.35Z"/>
  <path class="cls-5" d="m41.04,96.28c-12.15,0-24.3,0-36.45,0-.56,0-1.12,0-1.68-.01-3.04-.07-3.46-.66-2.35-3.41,1.23-3.04,2.47-6.07,3.71-9.1,2.39-5.84,4.78-11.68,7.2-17.51.44-1.06.63-2.04.35-3.22-.31-1.31-.27-2.7-.38-4.05-.11-1.43-.15-2.88-.31-4.3-.38-3.43-1.04-6.4-4.6-8.48-3.72-2.17-3.49-3.6-.4-6.71,1.06-1.06,2.79-1.87,2.86-3.38.06-1.35-1.34-2.46-2.12-3.66-1.09-1.67-2.18-3.34-2.86-5.24-.39-1.09-.16-1.84.84-2.41,1.13-.65,1.88-.6,2.72.45,1.89,2.37,3.69,4.82,5.58,7.2.79.99,1.62,2.5,2.61,2.65,1.2.19,1.61-1.69,2.45-2.59,1.02-1.1,1.39-1.23,2.66-.59,1.27.64,1.6,1.06,1.01,2.48-1.67,4-1.05,7.97-.28,12,.71,3.69,1.66,7.32,2.63,10.95.23.85.54,1.54,1.64.94,7.97-4.37,14.78-9.84,17.81-18.87.51-1.52.36-1.7-1.17-1.45-.87.14-1.72.34-2.59.46-1.04.14-1.92-.03-2.21-1.26-.25-1.07-.02-1.5,1.49-1.95,3.2-.94,5.13-3.09,6.21-6.14.15-.43.58-.95.11-1.3-.29-.21-.66.3-.98.51-1.22.75-2.42,1.56-3.68,2.24-1.27.69-2.64,1.13-4.12,1.14-1.09,0-2.18.1-1.95-1.56.09-.62-.39-.79-.92-.83-.32-.02-.64-.02-.96-.04-2.71-.19-3.05-.55-2.36-3.25,1.34-5.22,3.24-10.22,6.85-14.36.63-.73.71-1.31.26-2.12-1.36-2.45-2.35-5.08-3.36-7.68-.59-1.51-.25-2.01,1.34-1.74,2.44.41,4.86.96,7.25,1.58,1.07.28,1.96.3,2.95-.29,1.1-.66,2.38-.87,3.68-.96,4.41-.28,8.57.63,12.56,2.48,4.72,2.18,7.57,5.97,8.45,10.93.55,3.11,1.68,5.54,4.15,7.45.87.68,1.53,1.63,2.31,2.43.71.73.7,1.27-.18,1.91-2.19,1.61-4.45,3.1-6.9,4.31-1.42.7-1.39.73-.56,2.13,6.18,10.45,9.95,21.72,11.46,33.75.55,4.36,1.01,8.73,1.51,13.1.51,4.47.46,8.93.03,13.4-.07.71-.02,1.44.02,2.15.12,2.02-.19,2.4-2.24,2.42-3.2.02-6.4-.04-9.59-.04-9.83,0-19.66,0-29.49,0,0-.18,0-.36,0-.54Zm-2.82-40.99c.95-.55,2-.48,3.04-.44,2.16.09,4.31.21,6.47.28.8.03,1.61.03,2.39-.11.8-.14,1.13-1.21.9-2.41-.17-.89-.76-.58-1.29-.52-3.36.41-6.7.2-10.04-.28-.66-.09-1.43-.81-1.97-.15-.52.63-.21,1.54-.02,2.31.12.45.38.87.58,1.3.46,1.48,1.36,2.69,2.35,3.85,1.28,1.5,2.9,2.8,3.01,5.02,0,.15.32.29.5.43.1-.12.25-.23.28-.36.09-.39.19-.78.2-1.18.06-1.7.89-2.8,2.44-3.49,1.18-.53,2.13-1.41,2.89-2.46.43-.6.33-1.03-.52-1.09-3.73-.23-7.47-.47-11.2-.71Zm12.35-18.84c-1.55-.15-2.97.49-4.45.75-.61.1-.99.4-1.15,1.03-.97,3.68-2.72,6.97-4.98,10.01-.41.55-.46,1.11.44,1.11,1.59,0,3.19-.09,4.78-.15.67-.03.97-.4,1.02-1.06.29-3.77,1.98-7.03,3.79-10.24.26-.47.74-.88.52-1.52l.08.03-.05.03Zm31.15,48.17s.09,0,.13,0c-.12-1.75-.17-3.51-.36-5.26-.5-4.6-1.15-9.19-1.59-13.8-.69-7.23-3.02-14.02-5.31-20.84-.33-.98-.95-1.43-1.92-1.49-2.82-.2-5.4.4-7.59,2.28-1.36,1.17-2.35,2.59-3.08,4.22-2.96,6.66-4.07,13.55-3.01,20.81.24,1.64.86,2.71,2.11,3.75,5.52,4.61,11.17,9.05,16.91,13.38.83.62,1.63,1.29,2.48,1.88.73.51,1.22.29,1.24-.63.03-1.44,0-2.88,0-4.31Zm-60.86,10.76s0,.09,0,.13c3.83,0,7.67.02,11.5,0,1.49-.01,1.57-.13,1.16-1.49-3.27-10.6-6.01-21.35-8.88-32.06-.12-.46-.28-.91-.47-1.36-.09-.21-.26-.42-.54-.35-.24.07-.42.23-.38.51.04.31.12.62.17.94.35,2.62-.21,3.58-2.8,4.37-.94.29-.54.69-.4,1.21.74,2.73.11,4.16-2.43,5.06-.79.28-.98.45-.75,1.28.78,2.79.24,3.86-2.42,4.67-.95.29-1.32.49-.95,1.59.9,2.66.67,3.34-1.7,4.68-.9.51-.86.9-.46,1.67.56,1.09.4,2.14-.39,3.12-.58.73-1.78.71-2.12,1.44-.38.8.13,1.88-.32,2.79-.07.14-.16.28-.21.43-.46,1.24-.44,1.34.9,1.35,3.83.04,7.67.01,11.5.01Zm26.81-8.81c.05,0,.1,0,.15,0,0-2.32,0-4.63,0-6.95,0-2-.02-2.01-1.94-2-2.23,0-4.47.1-6.7.03-1.64-.05-2.23-.6-2.35-2.11-.24-2.89-.98-5.74-.53-8.69.22-1.42.61-2,2.05-2.1.95-.07,1.92-.02,2.87-.08,1.21-.08,1.56-.58,1.2-1.69-.14-.44-.38-.9-.69-1.24-1.75-1.98-3.5-3.93-4.56-6.4-.31-.71-.71-.44-.98.08-.19.35-.33.73-.47,1.1-2.02,5.31-3.63,10.73-4.74,16.3-.5,2.5-1.13,5.07-.46,7.59,1.25,4.7,2.73,9.34,4.06,14.02.25.86.7,1.13,1.53,1.13,3.27,0,6.55.06,9.82.04,1.64-.01,1.7-.1,1.73-1.82.04-2.39.01-4.79.01-7.19ZM36.25,1.03c-.84-.12-1.22.14-.88,1.05.8,2.09,1.66,4.15,2.59,6.18.62,1.36,1.45,2.21,2.99,2.36.62.06,1.23.35,1.81.6,9.45,3.92,17.69,9.54,24.23,17.48.77.94,1.43,1.06,2.43.53,1.84-.97,3.63-2.01,5.32-3.22,1.9-1.36,1.91-1.41.28-3.18-.22-.24-.45-.46-.67-.68-5.67-5.68-11.96-10.58-18.93-14.57-5.96-3.42-12.47-5.27-19.18-6.53Zm30.14,94.7v.23c4.15,0,8.3,0,12.45,0q2.57,0,2.57-2.46c0-.4-.04-.81.05-1.19.23-1.02-.27-1.54-1.07-2.12-6.68-4.8-13.27-9.72-19.57-15-.42-.35-.85-1-1.36-.86-.77.21-.19.95-.22,1.44-.07,1.16-.84,1.66-1.76,2.04-.83.34-.8.64-.26,1.36,1.58,2.09,1.46,2.62-.69,4.08-.63.43-.31.69-.06,1.12,1.13,1.94,1.15,2.91-.26,3.97-.81.61-.99,1.08-.67,1.95.16.44.19.94.2,1.41.02,2.06-.75,2.86-2.83,2.97-.24.01-.48-.01-.72-.01-.33,0-.69.05-.74.43-.07.61.46.53.81.57.63.06,1.28.08,1.91.08,4.07,0,8.14,0,12.21,0Zm-17.46-14.46c-.12,0-.25,0-.37,0,0,3.68,0,7.36,0,11.03,0,.72-.03,1.44-.02,2.16,0,.48.02.99.64,1.11.69.13,1.03-.27,1.18-.89.2-.85.37-1.72.59-2.57,1.66-6.26,3.01-12.58,4.24-18.94.3-1.58,0-2.55-1.32-3.43-1.32-.89-2.53-1.95-3.73-3-.83-.72-1.74-1.09-2.83-1.1-2.56-.01-5.11-.04-7.67-.05-.56,0-1.13.02-1.67.14-.52.12-.94.72-.68,1.06.86,1.1.19,1.86-.32,2.74-.14.24-.18.69-.04.91.83,1.38.47,2.95.74,4.41.32,1.73.3,1.93,1.99,1.96,2.16.04,4.32-.03,6.47-.12,1.61-.07,1.66-.13,1.76-1.86.14-2.31.2-4.63.3-6.95.01-.28-.07-.76.25-.78.38-.03.37.45.39.75.05.96.08,1.92.09,2.88,0,3.51,0,7.03,0,10.54Zm21.79-41.35c1.91.14,1.92.14,1.35-1.08-.4-.87-.86-1.71-1.25-2.59-.47-1.05-1.06-1.42-2.24-.89-5.24,2.35-9.98,5.39-13.69,9.85-1.89,2.28-3.18,4.75-2.97,7.85.21,3.11-1.3,5.35-3.89,6.93-.27.17-.53.37-.83.48-1.48.55-1.61,1.84-1.76,3.13-.1.82.3,1.25,1.1,1.14,2.14-.29,3.64.87,5.12,2.14.79.68,1.64,1.27,2.45,1.93.68.55,1.15.76,1.51-.35.24-.74.32-1.24-.17-1.95-.84-1.23-.8-2.6.15-3.79.48-.6.51-.98.07-1.65-.75-1.16-.87-2.5.26-3.49.8-.7.77-1.28.64-2.25-.24-1.72.15-3.4,1.98-4.21.85-.38.69-.69.35-1.41-1.16-2.47.02-4.7,2.67-4.76,1.3-.03,1.62-.53,1.88-1.54.24-.94.63-1.82,1.67-2.18,1-.34,1.88.35,2.78.36.95.01,1.07-1.56,2.17-1.66.39-.03.79,0,.64,0Zm-47.79,16.08c-.38-1.55-.78-3.1-1.15-4.65-.3-1.24-.57-2.49-.88-3.73-.05-.2-.23-.36-.35-.54-.16.16-.38.29-.48.49-.18.35-.29.74-.44,1.11-5.28,12.86-10.56,25.72-15.83,38.59-.94,2.29-1.89,4.58-2.79,6.89-.35.9.05,1.29,1.01,1.16.62-.09,1.01-.4,1.29-.93.41-.78.87-1.53,1.28-2.31,6-11.65,12-23.3,18.01-34.94.19-.36.38-.7.33-1.13ZM5.83,25.35c-.81.08-1.23.82-.87,1.75.96,2.48,2.53,4.61,3.96,6.82.67,1.03,1.52,1.8,2.61,2.39,1.98,1.06,3.84,2.31,5.53,3.79,1.04.9,1.2,1.56.22,2.4-1.42,1.21-1.4,3.46-3.29,4.27-.14.06-.19.43-.21.67-.11.97-.74,1.68-1.5,2.06-.94.47-.98,1.04-.81,1.91.55,2.83.81,5.69.91,8.57.02.48.05.96.12,1.43.03.21.15.5.31.56.25.1.43-.17.52-.38.29-.66.56-1.32.84-1.99,1.82-4.35,3.56-8.73,5.5-13.02.49-1.09.74-2.01.5-3.17-.51-2.52-.68-5.05.39-7.51.22-.51.27-1.08.46-1.61.25-.73.06-1.23-.61-1.59-.73-.39-1.22-.07-1.62.51-.69.98-1.39,1.96-2.02,2.97-.48.76-.86.75-1.45.09-2.29-2.57-4.56-5.14-6.53-7.97-.55-.79-1.15-1.54-1.73-2.3-.3-.38-.62-.75-1.23-.64Zm34.3-2.37c-1,.04-2.08-.21-3.1-.73-.6-.3-1-.75-1.15-1.44-.49-2.22,1.2-5.51,3.32-6.36,1.29-.52,2.6-.73,3.97-.2.64.25,1.43.73,1.79-.32.37-1.09-.72-1.04-1.26-1.34-.69-.39-1.45-.67-2.2-.93-2.26-.76-2.37-.73-3.89,1.06-2.96,3.5-4.51,7.69-5.8,11.99-1,3.36-.94,3.37,2.45,3.64.24.02.48.01.72.03.57.05.78.4.9.93.34,1.53.47,1.68,1.83,1.34,3.35-.83,6.15-2.59,8.42-5.2.7-.8.38-1.43-.11-2.12-1.32-1.87-2.23-3.88-2.1-6.23.05-.91-.36-1.04-1.16-.96-2.12.23-3.69,1.41-5.17,2.79-.11.1-.22.33-.18.42.13.24.37.12.57.07.62-.12,1.25-.29,1.88-.35,1.46-.13,2.66.51,3.66,1.47.83.79.61,1.56-.44,2-.91.38-1.86.43-2.96.43Zm6.95,25.02c-.15.95.21,1.36,1.19,1.23.71-.09,1.43-.19,2.14-.17.74.02,1.18-.29,1.51-.92,2.68-5.05,6.96-8.42,11.75-11.28,1.58-.95,3.23-1.72,4.92-2.44.47-.2.84-.5.5-1.09-.25-.45-.56-.78-1.14-.52-.29.13-.59.25-.89.35-3.33,1.14-6.71,1.45-10.07.2-1.48-.55-2.54.06-3.38,1.05-2.92,3.45-5.06,7.33-6.22,11.72-.16.61-.21,1.25-.32,1.88ZM50.94,1.22c-.37.02-1.24.06-2.11.13-.39.03-.8.1-1.17.23-.43.15-1.08.16-1.16.67-.1.66.6.62,1.01.76,7.29,2.46,13.5,6.73,19.46,11.46.81.65,1.69,2.16,2.56,1.56.73-.51-.08-2.1-.45-3.1-1.04-2.81-1.86-5.76-4.61-7.6-3.96-2.66-8.29-3.98-13.54-4.11Zm-10.41,36.25c2.29-.48,5.09-1.15,7.91-1.65,2.2-.39,4.02-1.33,5.57-2.93.47-.48.49-.71-.03-1.08-.65-.46-1.28-.95-1.91-1.44-1.52-1.19-2.79-2.62-4-4.11-.54-.67-.9-.49-1.04.31-.08.47-.18.94-.31,1.4-1.13,3.78-3.1,6.82-7.15,8-.15.04-.3.1-.45.16-.32.14-.51.39-.48.74.03.36.28.55.63.58.24.02.48,0,1.25,0Zm-12.43,32.75c-.18,1.54.48,3.03.86,4.57.05.21.1.49.42.38.13-.04.25-.2.31-.33.09-.22.15-.46.19-.69,1.1-6.64,3.11-13.01,5.53-19.27.25-.65.83-1.66.45-1.93-.64-.46-1.12.54-1.66.92-.85.6-1.64,1.27-2.48,1.88-.54.39-.87.87-1.08,1.51-1.4,4.18-2.27,8.46-2.53,12.96Zm22.89-44.34c.06.84-.38,1.94.52,2.78.22.21.52.44.79.45.33,0,.5-.34.55-.68.47-3.07.93-6.15,1.4-9.22.1-.65-.23-1.05-.73-1.38-1.98-1.35-4.05-2.54-6.21-3.57-.84-.4-1.36-.2-1.75.57-1.1,2.18-1.04,4.3.32,6.35,1.02,1.53,1.99,1.94,3.4,1.52,1.52-.45,2.25-1.49,2.35-3.2.03-.46-.47-1.1.16-1.33.15-.06.59.85.65,1.43.07.65.09,1.35-.35,1.84-1.12,1.26-1,2.79-1.1,4.45ZM12.79,47.33c-.08-.2-.12-.54-.31-.77-1.67-2.05-3.75-3.65-5.86-5.22-.49-.36-.88-.08-1.24.3-.84.89-.85,1.68.18,2.69,1.48,1.45,3.16,2.66,4.98,3.67.34.19.72.39,1.09.41.62.04,1.04-.3,1.16-1.08Zm45.93-23.34c-.3-.7.54-1.74-.37-2.53-.23-.2-.52-.45-.8-.46-.34-.02-.49.35-.53.67-.4,3.12-.4,6.21.92,9.14.5,1.11,1.31,2.02,2.56,2.34.44.11,1.05.2,1.31-.24.22-.37-.26-.69-.5-.99-1.81-2.27-2.74-4.82-2.58-7.93Zm-2.59-2.59c.24-1.13.24-1.79-.45-1.88-.82-.11-.67.7-.75,1.19-.4,2.51-.78,5.02-1.14,7.53-.33,2.27-.28,2.4,1.86,3.47.54.27,1.2,1.01,1.66.64.59-.47-.28-1.06-.41-1.63-.18-.77-.45-1.52-.6-2.3-.48-2.52-.55-5.04-.16-7.02Zm-1.68,66.24c.66.19,1.3.17,1.67-.5.43-.78.28-1.55-.28-2.21-.25-.3-.58-.54-.88-.79-.71-.58-1.13-.34-1.33.49-.67,2.77-1.34,5.54-2,8.32-.07.28-.14.6.27.77,1.43.63,2.79-.12,2.97-1.67.15-1.26-.28-2.34-1.06-3.31-.24-.3-.58-.61-.24-1.02.24-.29.58-.15.88-.07Zm5.78-64.49c-.44-.04-.55.23-.62.56-.55,2.67,1.31,7.23,3.54,8.75.72.5,1.44.62,2.24.27.39-.17.81-.34.22-.75-2.54-1.77-3.66-4.34-4.11-7.28-.13-.83-.66-1.22-1.28-1.55ZM13.55,45.58c.64.02,1.07-.31,1.32-.86.23-.49.11-.95-.32-1.28-1.91-1.45-3.8-2.92-5.75-4.32-.72-.52-1.18.17-1.59.62-.48.52-.03.87.35,1.16,1.65,1.26,3.24,2.6,4.72,4.06.34.34.73.63,1.25.62Zm15.31,12.06c-1.16.68-2.39,1.38-3.59,2.13-.13.08-.18.46-.12.66.57,2.06,1.16,4.11,1.76,6.16.04.13.2.31.31.32.3.02.31-.26.34-.46.39-2.67.93-5.3,1.75-7.87.11-.34.25-.76-.45-.93Zm-12.04-16.1c-.03-.14-.02-.34-.11-.44-1.78-1.87-3.96-3.19-6.29-4.25-.35-.16-.69.29-.93.63-.28.39-.24.77.12,1.05,1.78,1.36,3.54,2.73,5.37,4.02.59.42,1.74-.29,1.84-1Zm27.35,8.64s0,.06,0,.09c-1.2,0-2.4-.02-3.59.01-.42.01-1.16-.25-1.18.29-.01.47.79.38,1.23.44,2.7.4,5.41.51,8.12.28.47-.04.95-.16,1.4-.3.28-.09.64-.26.53-.67-.1-.37-.45-.41-.77-.4-1.91.08-3.83.17-5.74.26ZM8.02,92.09c-.02-.13-.02-.37-.08-.6-.15-.53-.31-1.13-.94-1.22-.59-.09-.72.52-.93.9-.56,1.04-1.08,2.1-1.6,3.16-.37.76.06,1,.72,1.03,1.41.07,2.82-1.53,2.83-3.28ZM63.05,25.64c-.39-.16-.37.18-.37.36.05,1.9,2.32,4.96,4.07,5.45.21.06.51.08.67-.03.39-.26.06-.57-.08-.78-1.11-1.74-2.43-3.31-3.9-4.74-.11-.11-.26-.17-.39-.26ZM9.55,85.05c-.18.13-.42.22-.52.4-.43.75-.86,1.52-1.22,2.31-.52,1.13-.05,1.8,1.18,1.76,1.17-.04,2.21-1.36,1.88-2.5-.21-.76-.59-1.47-1.32-1.96Zm53.35-38.72c-.16-.34-.44-.49-.76-.56-1.06-.22-1.89.19-2.45,1.07-.51.79-.58,1.63.01,2.46.57.81,1.01.8,1.55-.09.46-.75.89-1.51,1.33-2.27.12-.21.22-.42.31-.61Zm-6.1,26.75c-.8-.09-.88.18-.92.38-.19.92-.36,1.85-.49,2.78-.13.89.36,1.14,1.13.91.45-.13.9-.31,1.29-.57.74-.49.62-1.23.32-1.9-.36-.79-.85-1.5-1.32-1.61Zm-40.27,1.91c-.04-.15-.08-.47-.21-.75-.15-.35-.27-.79-.69-.9-.52-.13-.65.36-.83.68-.45.83-.86,1.69-1.28,2.54-.29.59-.07.92.56.92,1.41.01,2.49-1.04,2.44-2.5Zm3.13-6.09c-.06-.67-.03-1.58-.76-1.82-.76-.25-.81.7-1.09,1.18-.32.54-.62,1.1-.87,1.68-.2.46-.79.95-.22,1.44.47.4,1.06.11,1.55-.13.95-.47,1.3-1.32,1.39-2.35Zm-6.46,12.47c-.06-.57-.14-1.54-.75-1.74-.7-.23-.83.79-1.13,1.29-.41.67-.76,1.39-1.08,2.11-.23.54-.06.94.61.92,1.37-.03,2.4-1.11,2.36-2.59Zm42.13,1.09c1.39-.06,2.05-.57,1.97-1.39-.08-.82-1.41-2.32-1.96-2.06-.93.45-.83,1.54-.98,2.41-.15.86.43,1.07.97,1.03Zm-32.65-19.77c-.26-.6,0-1.71-.81-1.89-.58-.13-.7.93-1.02,1.45-.25.4-.44.85-.65,1.27-.23.48-.72,1-.08,1.46.61.43,1.25.15,1.74-.28.56-.49.81-1.16.81-2.01Zm35.4-6.73c.57.01.78-.24.89-.53.32-.89.59-1.8.89-2.69.11-.32.16-.68-.17-.81-.26-.1-.64-.06-.9.06-.93.44-1.67,2.28-1.35,3.28.13.4.4.67.64.7Zm-.33,8.69h.02c0-.16.02-.32,0-.48-.09-.5.31-1.26-.43-1.42-.72-.15-1.17.48-1.38,1.1-.15.43-.15.95-.08,1.41.1.69.55,1.24,1.28,1.19.84-.06.5-.83.59-1.33.03-.15,0-.32,0-.48Zm.52-5.95c-.04-.42.16-.92-.37-1.04-.27-.06-.63.07-.89.22-.79.44-1.05,1.15-.85,2.03.11.5.36.88.91.98.67.12.8-.4.93-.84.14-.45.19-.93.27-1.35Zm9.09-16.12c-.34-.56-.99-.65-1.6-.57-1.05.14-1.23,1.09-1.5,1.9-.07.22-.13.55.14.61.61.12.95-.46,1.44-.67.43-.19.84-.42,1.26-.65.2-.11.43-.22.27-.61Zm-9.12,28.33c-.11-.6-.17-1.15-.31-1.69-.13-.47.22-1.31-.58-1.29-.71.02-.91.77-1.03,1.42-.16.93.38,1.5,1.05,1.97.18.13.49.25.65.18.14-.07.16-.4.22-.59Zm-8.06-45.9c-.16-.39.31-1.15-.41-1.35-.58-.16-1.39-.12-1.79.38-.46.57.3.94.57,1.38.21.33.47.65.78.9.28.22.61.17.71-.24.07-.31.08-.63.14-1.06Zm20.45,17.31c.29,0,.53,0,.77,0,.39-.01.95.06,1.05-.33.13-.55-.44-.77-.86-.99-.21-.11-.45-.18-.68-.21-.73-.08-1.36.23-1.43.95-.1.97.75.47,1.15.58Zm-32.25-21.12c-.04-.3-.14-.54-.41-.55-.36-.02-.61.2-.52.56.04.15.33.3.52.34.26.05.4-.15.41-.36Zm4.54.03c-.18-.28-.44-.57-.75-.5-.34.08-.38.49-.34.81.03.28.26.38.51.3.3-.09.59-.22.58-.61Zm-19.34,37.46c.01-.31-.12-.5-.4-.47-.13.01-.3.13-.35.25-.11.25.02.46.26.53.27.08.43-.09.49-.31Z"/>
  <path class="cls-3" d="m46.66,19.24c.13-1.06.74-1.83,1.74-2.31.11-.05.28.02.43.03-.05.12-.07.27-.15.34-.56.48-.98,1.04-1.07,1.79-.06.55-.1,1.16.59,1.37.54.17.91-.09,1.05-.64.11-.42.3-.82.77-.48.43.31.47.82.12,1.26-.6.75-1.42,1.03-2.32.77-1.02-.29-1.2-1.14-1.15-2.14Z"/>
  <path class="cls-5" d="m48.17,17.63c.3.06.51-.1.68-.33.14-.18.28-.35.42-.53.32-.39.61-.86.55-1.38l-.61.08s0,.07-.02.11c-.03.08-.09.15-.13.22-.1.15-.2.3-.31.44-.2.27-.43.53-.66.78s.07.67.38.49c.21-.12.39-.29.55-.47s.35-.38.41-.62c.03-.12.03-.23.07-.35s.08-.23.11-.34c.06-.26.08-.52.05-.78-.02-.17-.13-.31-.31-.31-.15,0-.33.14-.31.31.02.2.02.4-.02.6-.03.11-.07.22-.1.32-.04.12-.05.23-.07.35-.02.15-.14.25-.25.37-.13.15-.26.29-.44.39l.38.49c.29-.31.56-.64.81-.98s.59-.74.48-1.19c-.04-.15-.19-.25-.34-.22-.14.02-.29.15-.27.31.04.34-.13.64-.34.91-.12.14-.24.28-.35.43-.05.07-.13.18-.17.22-.02.03-.05.05-.07.08.02-.01.01,0-.02.01.03-.02.05-.02.09-.01-.17-.03-.34.05-.38.22-.04.15.05.35.22.38h0Z"/>
  <path class="cls-5" d="m48.19,65.61c.06.72.02,1.43-.13,2.14-.03.17.05.34.22.38.15.04.35-.05.38-.22.16-.76.21-1.53.15-2.3-.01-.17-.13-.31-.31-.31-.16,0-.33.14-.31.31h0Z"/>
</svg>