<?xml version="1.0" encoding="UTF-8"?>
<svg id="Layer_1" data-name="Layer 1" xmlns="http://www.w3.org/2000/svg" viewBox="0 0 81 105.36">
  <defs>
    <style>
      .cls-1, .cls-2, .cls-3, .cls-4 {
        stroke-width: 0px;
      }

      .cls-2 {
        fill: #f9faf5;
      }

      .cls-3 {
        fill: #232629;
      }

      .cls-4 {
        fill: #e3b75e;
      }
    </style>
  </defs>
  <path class="cls-2" d="m5.81,104.08l-2.44-18.39s3.38-35.86,5.1-38.39c1.73-2.53.46-1.22.46-1.22,0,0,1.4-.76-4.86-4.18l-3-4.72v-2.16l4.15.95,6.25,3.22s4.92-21.46,23.41-24.51l2.89-1.47,3.36-2.16s2.22-.81,5.7-.68l3.14-7.11,1.48,7.47,1.06-1.02,1.4-8.37s7.86,9.26-1.4,23.6c0,0-2.28,7.63,3.56,13.3l-1.03.61h-3.15l-.84.44-.67,1.53-4.27-1.36-1.96-2.22v1.46l.63,3.02,3.48,3.35-.62,2.91-1.04.29-11.32-4.55s.82,7.73,6.27,8.51l6.46,3.32s6.23,3.5,1.16,7.48c-5.07,3.98-2.29,2.26-2.29,2.26l17.05,16.61s2.31.82,2.68,1.35,11.1,11.86,11.1,11.86c0,0,3.26,4.06,2.9,9.36l-2.11.41H7.03l-1.22-.8Z"/>
  <path class="cls-4" d="m55.51,100.25c-.75-2.07-1.55-4.13-2.37-6.17-.96-1.29-1.23-3-1.24-4.57-.19.08-.38.19-.52.37-.25-.57-.49-1.14-.75-1.7-.87-1.93-1.78-3.85-2.72-5.75-.97-1.95-2.26-3.91-2.77-6.05-.02-.1-.05-.18-.09-.27.05-.06.09-.12.13-.2.3-.56,2.54.1,3.05.19.71.12,1.68-.32,1.58-1.21-.19-1.7-.87-3.19-1.71-4.67-.39-.67-.79-1.34-1.14-2.03-.38-.74-.63-1.56-1.24-2.17-.58-.57-1.35-.88-2.09-1.19-.89-.38-1.77-.72-2.72-.92-1.89-.39-3.84-.57-5.76-.83-.25-.03-.49,0-.72.07-.43-.87-1.01-1.66-1.91-1.98-.72-.26-1.53-.29-2.28-.4-.9-.14-1.81-.27-2.71-.41-.12-.02-.25-.02-.37,0-.13-.1-.26-.2-.39-.3-1.57-1.22-3.15-2.44-4.72-3.66-.17-.13-.34-.2-.52-.25-.04-.04-.07-.08-.11-.12.01-.62-.39-1.23-1.2-1.23-.71,0-1.42,0-2.13,0-.6-.04-1.2-.1-1.79-.22-.59-.11-1.11-.16-1.49-.63-.3-.38-.55-.77-.89-1.12-1.13-1.16-3.22-1.94-3.81-3.54-.57-1.48-2.98-.85-2.41.66.92,2.39-.43,4.77-1.61,6.81-.6,1.03.38,1.99,1.41,1.84,1.62-.24,3.24.26,4.75.8,1.53.55,3.04,1.18,4.52,1.85,1.15.52,2.28,1.08,3.4,1.66.09.22.24.42.48.58,2.65,1.77,5.27,3.58,7.86,5.43.12.09.25.14.37.17l5.06,11.23c.18.4.67.6,1.08.62,1.35.06,2.7.06,4.05,0,1.27-.06,2.64-.09,3.89-.37.39-.09.68-.31.87-.59.48.98,1.02,1.94,1.51,2.9.2.4.39.81.59,1.22-.04.06-.08.12-.12.19-.3.08-.57.26-.71.55-.31.68-.61,1.36-.93,2.03-.03-.32-.22-.61-.6-.6-3.55.07-7.1.13-10.65.2-.06,0-.11.01-.16.03-.52-.26-1.16.49-.69,1.03,2.17,2.46,3.92,5.25,5.23,8.26.24.55.97.28,1.14-.15.58-1.45,1.4-2.79,2.4-3.99-.57.86-1.09,1.74-1.55,2.66-.03.07-.04.14-.06.21-.49.87-.42,1.89.2,2.74.08.1.17.19.25.28,0,0,0,0,0,0,.08-.16.33-.23.48-.13.39.28.74.6,1.08.93.33.33.68.69.9,1.11.09.17.04.37-.13.48-.05.03-.1.04-.16.04.34.73.44,1.48.43,2.31-.01,1.08.22,2.22,1.27,2.77,1.07.56,2.47.19,3.6.07,1.32-.13,2.64-.26,3.96-.4,1.2-.12,2.42-.16,3.17-1.25.39-.56.44-1.2.58-1.81.54-.2.92-.72.67-1.42Z"/>
  <path class="cls-4" d="m49.38,21.5c-1.46-2.72-2.45-5.64-3.02-8.66.02-.03.03-.07.05-.1.25.03.5-.04.63-.29.14-.27.1-.72-.22-.86-.19-.08-.38-.15-.57-.23-.23-.28-.56-.46-.92-.42-.07,0-.13,0-.2.01-.75-.24-1.51-.44-2.28-.58-.32-.06-.69.09-.77.44,0,.04,0,.08,0,.13-.31.01-.62.04-.94.11-1.35.28-2.4,1.22-3.36,2.16-.71.71-.3,1.77.55,2.09,1.3.48,2.29,1.84,3.34,2.8,1.32,1.23,2.81,2.29,4.4,3.14.16.09.32.14.47.16.22.46.45.92.69,1.37.32.59,1.14.78,1.71.45.6-.35.77-1.11.45-1.71Z"/>
  <path class="cls-4" d="m11.66,64.58c0-.8-1.24-.81-1.25,0l-.03,3.31c0,.53,0,1.06-.01,1.59,0,.26,0,.53,0,.79,0,.15,0,.31,0,.46,0,.02,0,.03,0,.05-.2.18-.3.45-.14.75.18.32.53.44.87.33.36-.12.5-.45.51-.8.04-.72.01-1.46.02-2.18.01-1.43.02-2.87.03-4.3Z"/>
  <path class="cls-4" d="m18.01,70.63c-.42-1.52-.64-3.08-.67-4.66-.01-.8-1.26-.81-1.25,0,.02,1.01.12,2.01.28,3-.07.1-.12.22-.14.36-.09.92-.02,1.84.19,2.74.07.32.46.54.77.44.33-.11.52-.43.44-.77-.03-.12-.05-.24-.07-.36.3-.08.55-.36.44-.75Z"/>
  <path class="cls-4" d="m23.68,70.85c-.37-1.47-.48-2.97-.35-4.48.03-.34-.31-.62-.62-.62-.36,0-.6.29-.62.62-.14,1.61,0,3.24.39,4.81.08.33.45.52.77.44.33-.09.52-.44.44-.77Z"/>
  <path class="cls-4" d="m6.55,65.8s-.04-.05-.06-.08c-.01-.45-.03-.89-.04-1.34-.02-.8-1.27-.81-1.25,0,.03.9.05,1.8.08,2.7-.29,2-.98,4.07.25,5.89.33.49,1.18.34,1.16-.32-.02-.65-.04-1.3-.06-1.95.38.25,1.01.1.98-.48-.09-1.54-.45-3.01-1.07-4.42Z"/>
  <path class="cls-4" d="m7.76,84.45c.01-.3.02-.6.06-.9.05-.33-.08-.67-.44-.77-.29-.08-.72.1-.77.44-.28,1.98-.08,3.99.64,5.86.29.75,1.33.46,1.21-.33-.23-1.43-.47-2.86-.7-4.3Z"/>
  <path class="cls-4" d="m15.72,84.52c-.25-.58-.58-1.11-.94-1.62,0-.4.02-.8.06-1.2.07-.8-1.18-.8-1.25,0-.01.13-.01.26-.02.39-.07.03-.13.07-.18.12-.83.79-.69,2.23-.61,3.27.09,1.22.66,2.3.77,3.5.04.5.19.99.67,1.23.53.27,1.16-.02,1.44-.51.33-.58.1-1.2-.09-1.78-.16-.49-.3-.98-.41-1.48.41.09.78-.2.88-.6.1-.45-.14-.91-.31-1.31Z"/>
  <path class="cls-4" d="m21.62,87.27c-.5-1.1-.69-2.35-.58-3.61.03-.33-.31-.64-.62-.62-.36.02-.59.28-.62.62-.13,1.46.15,2.91.75,4.24.13.3.59.39.86.22.31-.2.37-.54.22-.86Z"/>
  <path class="cls-4" d="m27.83,87.64c-.21-1.21-.41-2.42-.62-3.64,0-.03-.03-.05-.03-.08.02-.71.05-1.43.12-2.13.03-.34-.31-.62-.62-.62-.36,0-.6.29-.62.62-.1,1.13-.16,2.28-.13,3.42.03,1.01.18,2.06.78,2.91.41.59,1.26.22,1.14-.48Z"/>
  <path class="cls-4" d="m22.12,100.78c-.08-.72-.4-1.34-.77-1.94,0-.05,0-.09,0-.14.03-.33-.31-.64-.62-.62-.09,0-.18.02-.25.06-.08,0-.17.03-.24.08-.27.17-.42.56-.22.86.02.03.04.07.07.11-.07,1.14.01,2.29.23,3.42.04.21.24.38.44.44.23.06.43-.02.61-.16.6-.49.85-1.34.76-2.09Z"/>
  <path class="cls-4" d="m16.19,103.26c-.33-.99-.67-1.97-1.02-2.94-.06-.17-.19-.31-.35-.39,0-.04,0-.09,0-.13.04-.33-.32-.64-.62-.62-.37.02-.58.28-.62.62-.1.84,0,1.72.27,2.53.13.39.3.81.54,1.14.31.42.83.78,1.37.58.3-.12.55-.42.44-.77Z"/>
  <path class="cls-4" d="m10.3,103.2c-.13-.45-.28-.89-.42-1.34-.3-.95-.59-1.9-.89-2.86-.1-.32-.44-.53-.77-.44-.32.09-.54.45-.44.77v.04c-.14.11-.24.29-.26.5-.06.98,0,1.99.17,2.96.17.9.87,1.87,1.91,1.65.62-.13.84-.71.68-1.28Z"/>
  <path class="cls-4" d="m53.84,73.02c-.03-.11-.08-.2-.16-.28l-.1-.1c-.06-.06-.12-.1-.2-.13-.07-.04-.15-.06-.24-.05-.09,0-.17.01-.24.05-.08.03-.14.07-.2.13-.03.04-.07.08-.1.13-.06.1-.09.2-.09.32,0,.06.01.11.02.17.03.11.08.2.16.28l.1.1c.06.06.12.1.2.13.07.04.15.06.24.05.09,0,.17-.01.24-.05.08-.03.14-.07.2-.13.03-.04.07-.08.1-.13.06-.1.09-.2.09-.32,0-.06-.01-.11-.02-.17Z"/>
  <path class="cls-4" d="m58.55,81.69c-.44-.67-1.52-.04-1.08.63,1.02,1.56,2.14,3.23,2.3,5.13.03.34.27.62.62.62.32,0,.65-.29.62-.62-.18-2.15-1.31-4-2.47-5.76Z"/>
  <path class="cls-4" d="m64.62,85.08c-.07-.22-.11-.45-.15-.68-.02-.18-.04-.36-.04-.54,0-.16-.07-.33-.18-.44s-.29-.19-.44-.18c-.16,0-.33.06-.44.18-.11.12-.18.27-.18.44,0,.52.08,1.05.23,1.55.05.15.15.29.29.37.13.08.33.11.48.06.15-.05.3-.14.37-.29.08-.15.11-.32.06-.48Z"/>
  <path class="cls-4" d="m73.93,95.18c-.15-.35-.46-.67-.85-.73-.05,0-.09,0-.14,0,0-.07,0-.13,0-.2.01-.15-.08-.34-.18-.44s-.29-.19-.44-.18c-.16,0-.33.06-.44.18-.12.13-.17.27-.18.44-.07.92.48,1.88,1.3,2.29.15.07.32.12.48.06.16-.05.27-.15.37-.29.24-.32.23-.77.08-1.13Z"/>
  <path class="cls-4" d="m30.21,98.96c0-.47-.08-.88-.26-1.26.02-.12.04-.24.07-.36.09-.42-.18-.76-.6-.79,0,0,.01,0,.02,0-.18-.16-.46-.2-.69-.12-.35-.27-.71-.51-1.08-.74-.31-.19-.66-.05-.86.22-.06.09-.12.18-.19.27-.24.34-.06.67.23.82,0,.02,0,.03,0,.05-.06.03-.13.04-.19.08-.62.36-.99,1.02-1.39,1.59-.46.66-.95,1.3-1.48,1.91-.51.6-1.06,1.17-1.63,1.71-.48.46-1.43.99-1.32,1.77.12.9,1.17.97,1.88.93.79-.04,1.55-.21,2.31-.44.15,0,.3-.03.42-.12.05-.02.11-.03.16-.05.08-.03.12-.09.18-.14.06.06.13.11.22.15.28.12.52.22.82.08.04-.02.07-.05.11-.08.7-.03,1.41-.05,2.11-.08.39-.01.73-.39.6-.79-.24-.75.1-1.5.27-2.23.19-.78.28-1.58.27-2.38Zm-4.42,4.4s-.02-.01-.02-.02c.08-.53.23-1.05.42-1.55,0,.27-.01.54-.02.81,0,.21,0,.42-.01.63-.15.01-.27.06-.37.14Z"/>
  <path class="cls-4" d="m64.5,97.34c-.17-.95-.39-2-.97-2.8-.1-.14-.22-.26-.34-.38.25-.23.28-.58.03-.89-.56-.68-1.46-1.07-2.34-1-.21.02-.4.13-.51.29-.38-.07-.76-.06-1.05.25-.27.29-.4.75-.49,1.12-.18.76-.17,1.55-.34,2.31-.02.09-.06.17-.08.26-.17.24-.34.48-.52.71-.18.24-.17.5-.06.72-.07.12-.11.25-.19.36-.03.05-.04.09-.05.14,0,.02-.02.03-.03.05-.96,1.79-1.84,3.61-2.67,5.45-.19.42.03.94.54.94,2.92,0,5.83-.18,8.72-.56.34-.04.62-.25.62-.62.06-2.12.1-4.26-.29-6.36Z"/>
  <path class="cls-3" d="m43.14,105.36c-11.67,0-23.34,0-35.01,0-1.96,0-3.11-.92-3.33-2.86-1.09-9.69-2.05-19.37-1.2-29.17.72-8.31,2.65-16.39,4.07-24.57.05-.31.15-.62.25-.93.73-2.15.6-2.77-1.39-3.82-2.74-1.44-4.69-3.55-5.99-6.31-.3-.63-.82-1.28-.34-2.01.58-.86,1.51-.88,2.38-.69,2.43.53,4.72,1.48,6.93,2.6,1.71.86,1.7.85,2.23-.87,3.37-10.94,10.47-18.28,21.33-21.91,1.68-.56,3.23-1.17,4.6-2.4,2.16-1.95,4.75-3,7.71-2.5,1.31.22,1.71-.39,1.95-1.44.43-1.88,1.23-3.63,2.13-5.33.26-.5.35-1.44,1.17-1.2.65.19.34.97.28,1.49-.18,1.62.17,3.18.41,4.76.05.32.24.64.6.61.11,0,.23-.39.28-.62.45-2.43,1.14-4.83.96-7.34-.02-.3-.09-.69.27-.82.53-.2.64.3.82.62,4.49,7.92,4.28,15.68-.84,23.25-.47.69-.77,1.36-.76,2.21,0,.96-.1,1.91-.13,2.87-.11,3.4.98,6.28,3.71,8.43.36.28.93.55.77,1.1-.19.64-.85.64-1.4.66-.72.03-1.44.05-2.16,0-1.19-.07-2.21-.02-2.45,1.52-.11.68-.74.67-1.36.54-1.51-.32-2.88-.92-4.15-1.8-.19-.13-.5-.31-.63-.24-.35.19-.2.56-.1.85.59,1.73,1.7,3.06,3.17,4.11.52.37,1.18.72.88,1.5-.37.95-.18,2.14-1.07,2.85-.55.43-1.23.18-1.83-.06-1.93-.76-3.86-1.53-5.78-2.31-1.04-.42-2.05-.89-3.08-1.33-.28-.12-.58-.32-.88-.1-.32.24-.2.6-.09.88.92,2.24,1.98,4.34,4.22,5.63,2.22,1.28,4.58,2.27,6.9,3.35,1.46.68,2.83,1.47,3.7,2.93,1.15,1.94,1.03,3.37-.47,5.01-.27.29-.61.53-.86.84-.53.66-1.8.87-1.72,1.75.06.64.94,1.21,1.49,1.79,4.11,4.35,8.24,8.68,12.98,12.4,5.49,4.3,10.18,9.43,14.91,14.54,2.73,2.95,3.56,6.27,3.77,10.01.06,1-.33,1.28-1.17,1.32-1.04.05-2.07.13-3.11.13-11.19,0-22.38,0-33.57,0,0,.02,0,.04,0,.06Zm5.12-48.79l.09-.09-.04.05c.67,1.34,1.25,2.71,1.4,4.22.02.23.13.51.37.46.18-.04.4-.27.47-.47.6-1.58-.36-3.31-2.29-4.18ZM14.29,32.87c-.86,1.45-1.36,3.05-1.81,4.66-.23.82-.23,1.59.63,2.08.37.21.91.36.82-.27-.32-2.17.41-4.27.33-6.42l.1-.06h-.07Zm7.78-10.24c-.44-.23-.76.04-1.05.3-4.77,4.35-6.18,9.99-6.12,16.16,0,.61.2,1.3.51,1.81.36.58.97,1.19,1.73.96.64-.19.38-.96.45-1.48.05-.39.05-.8.04-1.19-.24-6,1.61-11.44,4.46-16.6l-.05-.13.02.17Zm7.87-5.74c-5.1,1.89-7.5,6.05-9.4,10.8-1.83,4.56-2.17,9.28-2.25,14.08,0,.38.09.8.25,1.15.2.45.61.84,1.1.79.69-.08.44-.73.45-1.15.03-2.64.41-5.24.94-7.83,1.19-5.84,3.72-10.99,7.61-15.52.56-.65,1.68-1.1,1.28-2.32l.12.12-.09-.13Zm-6.98,29.01c0,.22.05.25.14.09-.06-.01-.13-.03-.19-.04,0-.63.04-1.27-.01-1.9-.42-5.4.62-10.49,3.2-15.25,2.56-4.73,5.58-9.12,9.62-12.75.22-.2.63-.38.45-.74-.16-.31-.55-.22-.86-.16-1.67.32-2.81,1.48-3.96,2.57-5.55,5.25-8.67,11.76-9.86,19.25-.34,2.13-.63,4.27-.48,6.44.09,1.26.39,2.38,1.95,2.5Zm41.26,36.49c-.1-.16-.14-.18-.11-.03,0,0,.1-.01.15-.02-.26.78.34,1.36.48,2.05.21,1.01.53,2,.74,3.01.07.36.11.84-.35,1.04-.45.19-.74-.19-1.02-.44-.61-.54-1-1.25-1.28-2-.52-1.42-1.08-2.86-1.06-4.4.02-1.14-.38-1.95-1.27-2.67-1.68-1.35-3.31-2.76-4.9-4.21-.71-.64-1.02-.39-1.42.29-.42.74-.41,1.29.33,1.8.66.46,1.09,1.15,1.56,1.8.52.72.5,2.36,2.16,1.33.2-.12.49.31.65.59,1.27,2.16,2.12,4.46,2.48,6.94.1.66-.01,1.27-.28,1.86-.77,1.73-.73,1.87.84,2.71.56.3,1.13.62,1.74.79.88.25,1.74,1.28,2.59.71.65-.44-.05-1.49.05-2.28.02-.16-.01-.32,0-.48.03-.33.1-.68.45-.77.35-.09.58.16.71.47.5,1.17,1.02,2.34,1.48,3.53.27.7.6,1.26,1.37,1.53.9.32,1.22.14,1.07-.8-.12-.79-.36-1.55-.53-2.33-.13-.59-.68-1.36-.02-1.75.78-.46,1,.53,1.37.96,1.15,1.33,2.12,2.8,2.82,4.43.29.67.51,1.42,1.29,1.62.8.2,1.68,1.26,2.35.47.47-.55-.36-1.43-.85-2.06-3.64-4.68-7.75-8.91-12.21-12.81-.41-.36-.79-.81-1.38-.89Zm-11.57-5.25c.01-.23-.14-.25-.12-.1.04.31-.14-.03.17.05-.19.56.23.88.48,1.27.57.86,1.17,1.72,1.72,2.59.15.24.47.59.19.82-.32.26-.54-.15-.72-.37-.98-1.26-1.93-2.54-2.91-3.8-.43-.55-.95-1.48-1.63-.96-.53.4.46.96.72,1.48.51,1.03,1.47,1.83,1.52,3.09-.92-.67-1.51-1.63-2.16-2.52-.78-1.05-1.61-1.98-2.91-2.38-.39-.12-.84-.26-1.07.14-.12.21-.02.63.12.89.9,1.78,1.8,3.56,2.77,5.3,1.24,2.23,2.43,4.45,2.94,7.02.59,2.92,2.02,5.54,3.56,8.06.59.97.96.97,1.51-.04.92-1.67,1.75-3.4,2.6-5.12.25-.51.27-1.04.21-1.62-.47-4.57-2.56-8.52-4.77-12.41-.44-.78-1.01-1.7-2.23-1.39Zm-48.59,5.26c.11,6.25.78,12.45,1.42,18.65.13,1.23.89,1.99,1.38,2.95.12.23.38.3.61.21.1-.04.17-.28.16-.43-.05-.72-.11-1.44-.22-2.14-.21-1.28-.19-2.55.06-3.81.1-.52-.03-1.27.68-1.38.86-.13.97.72,1.16,1.28.53,1.59.99,3.2,1.46,4.82.11.38.09.8.2,1.18.32,1.13,1.26.76,1.99.74.86-.02.7-.6.55-1.19-.42-1.74-.25-3.5-.09-5.25.05-.55,0-1.3.63-1.42.76-.14,1.02.63,1.27,1.21.19.44.36.89.48,1.35.35,1.31.66,2.63,1.01,3.94.34,1.29.81,1.58,2.05,1.36,1.1-.2.8-.99.75-1.68-.02-.32-.08-.64-.1-.95-.1-1.6.02-3.2.23-4.78.07-.54.13-1.25.73-1.39.69-.16.86.56,1.09,1.04.41.86.83,1.73,1.19,2.62.31.76.66.84,1.11.15.56-.87,1.05-1.79,1.65-2.64.27-.39.36-1.37,1.05-.92.57.37-.08,1.03-.34,1.46-1.01,1.63-2.12,3.2-3.15,4.81-.45.7-1.75,1.32-1.18,2.08.47.64,1.8.22,2.75.2.66-.02.96-.49,1.16-1.05.38-1.05.83-2.08,1.1-3.16.34-1.37,1.17-2.72.71-4.16-.34-1.06.14-.96.73-.67,2.16,1.06,4.49,1.04,6.8,1.18.92.06,1.34-.42,1.15-1.33-.15-.71.32-2.01-1.31-1.45-.54.19-1.18-.2-.82-.66.85-1.08-.02-1.55-.5-2.2-1.89-2.54-3.21-5.34-3.85-8.44-.32-1.56-.15-1.75,1.44-1.99,1.75-.27,2.03-.46,1.63-2.05-1.16-4.54-3.38-8.44-7.34-11.16-.93-.64-1.2-.49-1.17.72.05,1.7-.16,3.35-.62,4.97-.09.31-.25.63-.6.64-.36.01-.51-.32-.65-.61-.94-1.99-1.54-4.09-1.12-6.27.29-1.54-.15-2.42-1.55-2.97-.52-.2-.98-.53-1.49-.77-.69-.32-.85.01-.73.64.29,1.57.66,3.13.86,4.71.19,1.5.27,3.03-.25,4.51-.17.47-.41.89-.99.86-.45-.02-.71-.34-.88-.7-.63-1.32-.92-2.72-1.01-4.17-.13-1.93.05-3.84.49-5.71.22-.92.04-1.55-.89-1.89-.37-.14-.73-.33-1.1-.48-1.39-.54-1.51-.49-1.48,1,.05,3.12.22,6.23-.38,9.33-.17.89-.23,1.97-1.33,1.96-.99-.01-.97-1.12-1.09-1.87-.49-2.99.05-5.89.85-8.75.23-.82.88-1.82.62-2.42-.38-.87-1.68-.69-2.58-.99-1.88-.62-1.76.1-2.06,1.57-.1.51.13.94.31,1.38.83,2.03,1.04,4.19,1.14,6.34.08,1.84-.16,3.68-.83,5.42-.24.62-.63,1.27-1.41.79-.94-.58-1.13-.06-1.17.68-.13,2.39-.22,4.79-.33,7.18Zm44.43,22.07s0,0,0-.01c1.44,0,2.88.01,4.32,0,.47,0,1.03-.01,1.16-.61.5-2.3,1.41-4.51-.08-6.9-1.3-2.08-2.43-4.34-2.91-6.8-.51-2.64-1.68-4.97-3.01-7.26-1.04-1.79-1.96-3.66-2.92-5.5-.26-.5-.49-1.02-.14-1.58.43-.69,1.09-.58,1.72-.49.55.08,1.07.35,1.62.39,1.16.08,1.63-.53,1.17-1.59-1.08-2.49-2.24-4.95-3.37-7.42-.24-.53-.57-.96-1.21-1.03-1.48-.15-2.72-.91-3.98-1.58-.57-.31-1.12-.61-1.81-.43-2.27.6-4.09-.36-5.68-1.79-.79-.71-1.49-1-2.56-.83-2.07.32-3.93-.32-5.63-1.55-1.32-.96-2.38-2.14-3.28-3.46-.56-.81-1.21-1.22-2.21-1.06-2.49.38-4.5-.72-6.42-2.12-1.44-1.05-2.62-2.33-3.58-3.83-.17-.26-.36-.56-.74-.47-.39.1-.35.49-.4.78-.43,2.2-.85,4.39-1.26,6.59-.32,1.72-.32,1.84,1.51,2.29,5.84,1.44,10.91,4.42,15.97,7.51,3.86,2.36,6.41,5.7,8.14,9.77.53,1.26.93,2.56,1.14,3.9.1.67.43,1,1.11.95.64-.04,1.27-.08,1.91-.14,2.23-.21,4.46-.36,6.69.06,2.21.42,2.62.88,2.18,3.08-.7,3.43-2.08,6.55-4.76,8.93-.92.82-1.7,1.66-1.74,3-.02.57.06.93.66,1.04,2.32.4,2.51,2.35,2.91,4.08.21.92.18,1.91.13,2.87-.05,1,.43,1.24,1.29,1.23,1.36-.02,2.72,0,4.08,0Zm-29.3-50.39c1.65-.54,2.69.3,3.59,1.6.54.78,1.22,1.48,1.92,2.13,1.63,1.53,3.5,2.62,5.82,2.24,1.47-.24,2.53.05,3.61,1.16,1.31,1.35,2.92,2.31,4.92,1.19.61-.34,1.03,0,1.49.36,1.08.84,2.34,1.36,3.64,1.77.16.05.39-.1.59-.16-.07-.14-.11-.32-.22-.41-.91-.78-1.81-1.58-2.76-2.29-7.35-5.5-14.68-11.02-22.08-16.44-3.67-2.69-7.51-5.13-11.55-7.25-1.63-.85-3.37-1.45-5.14-1.95-.61-.17-1.35-.41-1.79.16-.39.51.15,1.04.38,1.53,1.11,2.3,2.72,4.12,5.04,5.26,1.35.66,2.29,1.62,2.74,3.12.44,1.46,1.24,2.8,2.27,3.91,2.03,2.19,4.21,4.19,7.55,4.08Zm32.45-25.9c0-.16-.01-.8,0-1.44.01-.52-.07-.96-.68-1.06-.52-.08-1.1-.48-1.53.12-.34.47-.03.88.23,1.3.96,1.58,1.14,3.3.82,5.08-.26,1.49-1.11,2.07-2.56,1.85-.49-.07-.99-.1-1.34.3-.44.51-.74.48-1.02-.13-.18-.4-.56-.68-.94-.65-1.07.06-2.02.11-2.47-1.2-.15-.43-.81-.43-1.3-.32-.93.21-1.86.44-2.79.66-.42.1-.69.35-.82.77-.86,2.74-1.85,5.44-1.78,8.38.02.76.15,1.36.98,1.7,3.1,1.27,6.16,2.63,9.25,3.91.47.2,1.15.66,1.51.04.38-.64.85-1.43.4-2.23-.22-.4-.67-.67-1.03-.98-2.1-1.83-3.1-4.21-3.41-6.91-.04-.38-.09-.85.36-1.04.49-.2.71.24.92.55,1.05,1.6,2.5,2.67,4.33,3.2.75.22,1.43.29,1.62-.75.17-.9.84-1.05,1.63-1.03.72.02,1.44.02,2.15,0,.3,0,.68.05.81-.32.13-.36-.19-.57-.4-.79-2.31-2.39-3.15-5.3-2.96-9.02Zm21.3,76.28s0,0,0,.01c2.08,0,4.16-.01,6.23,0,.86,0,1.16-.39.99-1.19-.12-.55-.37-1.08-.4-1.63-.06-1.41-.83-2.07-2.1-2.52-4.06-1.45-8.08-3.01-12.12-4.51-1.05-.39-1.33-.19-1.2.91.3,2.54.72,5.06,1.02,7.6.12,1.02.62,1.34,1.57,1.32,2-.04,4-.01,5.99-.01ZM27.24,44.58c-.18,1.57.04,2.9.34,4.23.13.56.3,1.11.74,1.47,1.61,1.3,3.26,2.57,4.89,3.85.11.09.33.17.42.12.28-.15.18-.4.06-.61-.16-.28-.32-.56-.53-.8-3.26-3.8-3.52-8.17-2.66-12.86.77-4.17,2.14-8.17,3.21-12.26.2-.78.68-1.47,1.38-1.91,2.28-1.44,3.81-3.61,5.47-5.64.89-1.09.74-1.48-.41-2.24-1.06-.71-1.45.22-1.93.74-6.68,7.43-10.79,15.95-10.99,25.91Zm-3.58-1.72c.08.65.22,1.92.39,3.19.16,1.22.96,1.98,1.93,2.6.17.11.51.16.64.06.14-.11.22-.46.15-.64-.63-1.79-.49-3.63-.31-5.46.59-6.04,2.18-11.73,5.5-16.92,1.81-2.84,3.7-5.59,6-8.05.33-.35.7-.73.28-1.23-.42-.5-.91-.62-1.44-.13-.76.7-1.59,1.35-2.28,2.11-2.92,3.2-5.43,6.69-7.48,10.51-2.24,4.16-3.39,8.6-3.36,13.95Zm7.34,1.19c-.14,2.3.33,4.44,1.59,6.4.9,1.4,1.94,2.75,2.24,4.46.07.42.38.69.7.93,2.62,1.95,5.24,3.92,7.88,5.83.69.5,1.15.19,1.25-.69.11-1.03-.37-1.85-.95-2.63-1.21-1.64-2.82-2.86-4.59-3.76-4.35-2.21-7.75-9.62-5.73-15.18.54-1.5,1.05-3.01,1.77-4.44.28-.57.53-1.17.69-1.78.15-.57-.91-1.67-1.63-1.75-.68-.07-.71.52-.84.94-1.1,3.83-2.25,7.65-2.38,11.67Zm5,60.43h0c1.03,0,2.07,0,3.1,0,3.11,0,3.15-.05,3.05-3.24-.09-2.77-1.5-4.13-4.15-3.96-1.75.12-3.49.29-5.24.1-.98-.1-1.49.26-1.6,1.25-.17,1.42-.44,2.83-.58,4.25-.13,1.37.02,1.54,1.37,1.58,1.35.05,2.7.01,4.05.01Zm23.64,0h0c.4,0,.8,0,1.2,0,3.89,0,3.88,0,3.29-3.94-.29-1.97-.6-3.95-.78-5.93-.13-1.4-1.32-1.44-2.16-1.91-.58-.33-.88.16-1.09.59-1.43,2.85-2.94,5.67-4.24,8.58-1.14,2.56-1.03,2.61,1.87,2.62.64,0,1.28,0,1.92,0Zm-3.22-93.03c.36-2.39-.45-4.72-1.37-7.03-.14-.36-.32-.8-.76-.78-.13,0-.29.53-.34.83-.95,5.17-2.34,10.26-3.06,15.47-.16,1.18-.16,2.39-.2,3.58-.01.38-.02.85.47.98.45.12.74-.21.99-.51.31-.37.61-.74.87-1.14,2.28-3.4,3.57-7.1,3.39-11.41Zm-21.36,75.13c-.51-.04-1.22-.09-1.94-.14-.69-.04-.89.34-.59.88.83,1.54,1.71,3.06,2.93,4.35,1.06,1.12,1.99,2.29,1.91,3.96-.01.33.14.66.55.6.37-.06.44-.4.44-.73.01-1.76,1-2.96,2.29-3.99,1.34-1.07,2.16-2.54,2.91-4.04.57-1.15.43-1.38-.89-1.33-2.47.1-4.93.27-7.61.43Zm13.72-25.24c-.2-3.07-1.56-5.3-4.07-6.77-1.79-1.04-3.69-1.89-5.51-2.88-1.3-.7-2.17-1.8-2.86-3.12-1.13-2.17-1.76-4.43-1.82-6.87,0-.29-.16-.58-.25-.87-.36.15-.35.5-.42.8-.87,3.84,1.52,9.51,4.96,11.72,1.61,1.04,3.26,2.02,4.63,3.37,1.55,1.52,2.66,3.22,1.81,5.54-.07.2-.11.62-.05.65.71.29,1.42.59,2.16.74.53.1.88-.34,1.04-.81.18-.52.26-1.07.36-1.49Zm-13.31,24.35c2.64-.15,5.1-.3,7.56-.44.24-.01.48-.04.71-.1.94-.27,1.7-1.89,1.3-2.96-.4-1.08-1.26-.35-1.83-.24-3.71.69-7.41.93-11.14.13-1.34-.29-1.45-.12-1.16,1.12.5,2.13.59,2.21,2.84,2.4.63.05,1.27.07,1.73.1Zm3.07-54.03c2.38-.22,4.9-1.54,7.23-3.3,1.02-.77,1.97-1.62,2.65-2.74.46-.74.15-1.14-.45-1.57-.58-.42-.96-.34-1.39.21-1.84,2.38-4.69,3.56-6.77,5.69-1.04,1.06-2.57.69-3.33-.47-.64-.99-.18-2.22.93-2.44.33-.07.64.05.78.39.1.24.01.52-.23.58-.52.15-.96.32-.54.95.34.52.83.75,1.44.48.8-.36,1.29-.94,1.19-1.87-.11-1.04-1.04-1.85-2.14-1.88-1.74-.06-3.47,1.58-3.48,3.29,0,1.73,1.27,2.71,4.1,2.69Zm8.08-17.77c0-.32,0-.64,0-.96.05-1.91-.03-1.95-1.94-2.15-1.94-.21-3.62.4-5.18,1.45-1.1.74-1.17.96-.17,1.75,2.32,1.82,4.71,3.56,7.07,5.32.25.19.54.43.82.21.28-.23.08-.6,0-.9-.38-1.55-.66-3.12-.61-4.73Zm.88.31c.07.68.14,1.64.29,2.58.11.71.29,1.41.5,2.09.28.88.3,2.26,1.25,2.32.57.04.44-1.49.59-2.3,1.23-6.65,1.21-6.66.04-12.24-.09-.44-.05-1.09-.58-1.15-.35-.04-.49.57-.63.93-.93,2.41-1.38,4.91-1.46,7.77Zm-.07,52.28c-.39.29-.17.58-.06.83,1.14,2.46,2.36,4.89,3.28,7.45.1.28.27.61.51.76.41.26.92.33,1.35.06.47-.3.14-.7.02-1.05-.32-.96-.99-1.83-.62-2.96.17-.51-.27-.88-.6-1.23-1.1-1.16-2.2-2.32-3.31-3.47-.16-.16-.38-.27-.57-.39Zm-17.05,31.59c.14-.39-.04-.94-.82-1.15-1-.27-.98.58-1.15,1.13-.54,1.75-1.03,3.51-1.55,5.26-.24.81.04,1.13.89,1.2,1.07.08,1.67-.33,1.84-1.38.25-1.57.49-3.15.79-5.06Zm-23.55-30.05c-.15-1.16.02-2.46-.46-3.66-.08-.2-.29-.35-.44-.53-.1.2-.25.39-.28.6-.3,2.11-.58,4.23-.86,6.34-.09.66.11,1.26.44,1.81.15.26.39.6.63.64.35.06.42-.38.5-.65.45-1.46.51-2.95.46-4.55ZM41.45,27.04c.83.02,4.59-3.14,4.66-3.92.05-.58-.4-.83-.77-1.11-.34-.26-.8-.45-1.05-.04-.91,1.45-2.14,2.56-3.46,3.6-.28.22-.22.57-.07.88.15.3.36.51.69.6Zm-2.17-2.14c.08,0,.16.03.23.03,1.25-.09,3.81-2.5,3.99-3.76.08-.56-.29-.86-.68-1.14-.53-.38-.89-.05-1.2.32-.97,1.15-1.93,2.3-2.87,3.47-.13.17-.24.44-.21.63.06.38.45.36.73.45Zm9.43-2.26c-.15-.53-.61-.86-1.05-1.19-3.15-2.43-6.31-4.84-9.47-7.26-.18-.13-.41-.33-.6-.07-.27.36.06.57.29.75,3.31,2.61,6.62,5.21,9.93,7.82.12.1.26.19.39.26.27.14.42.03.49-.31Zm-31.01,47.01c-.17-1.16-.37-2.57-.59-3.97-.04-.24-.17-.46-.46-.4-.12.02-.27.18-.29.3-.31,2.06-.19,4.1.42,6.1.04.12.2.27.32.29.29.06.44-.18.46-.41.07-.55.08-1.1.13-1.91Zm-9.49,31.23c.1.58.27,1.68.49,2.78.08.39.32.77.82.66.37-.08.45-.44.41-.75-.18-1.43-.5-2.83-1.11-4.14-.06-.13-.22-.29-.34-.29-.34,0-.25.3-.27.5-.02.24,0,.48,0,1.25Zm3.27-34.07c0-.79.02-1.59-.01-2.38,0-.19-.16-.53-.25-.53-.3,0-.3.31-.36.53-.55,2.02-.67,4.07-.46,6.14.02.19.18.51.3.53.29.03.33-.29.38-.51.33-1.24.37-2.51.39-3.78Zm2.68,33.92c.08,1.19.03,2.34.72,3.3.12.16.38.25.59.29.3.06.46-.2.45-.43-.06-1.52-.44-2.98-1.03-4.39-.04-.11-.26-.22-.37-.2-.1.02-.23.2-.25.32-.06.39-.08.79-.11,1.1ZM49.6,29.87c-.12-.85-.12-1.78-.89-2.15-.78-.38-1.17.54-1.72.89-.19.12-.37.29-.51.48-.07.09-.08.37-.05.38.95.32,1.91.62,2.87.88.06.02.22-.35.3-.48Zm-29.23,70.37c.03.46.03,1.02.1,1.56.04.36-.01.88.56.84.42-.02.71-.38.85-.75.47-1.23-.09-2.33-.54-3.42-.08-.19-.3-.45-.47-.45-.46,0-.34.43-.38.7-.07.47-.08.95-.12,1.52Zm3.12-31.35c-.14-1.08.1-2.21-.75-3.09-.71.96-.62,2.06-.47,3.14.09.67-.01,1.9.58,1.86,1.06-.07.42-1.25.64-1.9Zm36.9,17.91c-.27-1.53-.77-3.1-1.61-4.55-.1-.18-.4-.39-.55-.36-.24.05-.26.38-.18.6.6,1.54,1.22,3.08,1.84,4.62.05.14.2.37.25.35.25-.08.23-.32.25-.66Zm13.68,9.42c-.16-.7-.5-1.32-.94-1.88-.22-.29-.34-.9-.78-.74-.47.18-.07.68-.04,1.03.09.81.41,1.52,1.15,1.95.11.07.32.08.43.02.1-.06.12-.24.18-.37Zm-35.95-14.79v-.04c.31,0,.63.02.94,0,.23-.02.46-.08.69-.13-.18-.32-.49-.19-.74-.2-.55,0-1.1.03-1.65.07-.13,0-.25.1-.37.15.14.05.28.13.43.14.23.02.47,0,.7,0Zm11.05-49.22c-.09-.41-.32-.75-.72-.81-.66-.1-.63.54-.77.91-.14.37.11.56.47.54.46-.02.94-.01,1.02-.64Zm14.04,51.97c.1.61.3,1.18.76,1.63.04-.2.18-.46.1-.6-.29-.52-.12-1.29-.76-1.57-.18-.08-.11.34-.11.54Zm-19.03-52.94c-.25.05-.51.2-.47.43.03.17.28.37.48.44.29.11.44-.1.41-.38-.03-.24-.14-.45-.42-.5Zm9.74,42.32c.02-.55-.32-.83-.78-.99-.05-.02-.25.21-.23.26.15.39.06.97.68,1.02.1,0,.21-.18.33-.29Zm13.93,20.3s-.12.01-.14.05c-.03.05-.06.15-.03.19.1.16.2.13.24-.06.01-.05-.05-.12-.07-.18Z"/>
  <path class="cls-1" d="m16.44,88.1c-.06.52-.14,1.47-.27,2.42-.08.57-.24,1.12-.98,1.12-.61,0-1.06-.26-1.3-.86-.8-2.01-1.39-4.07-1.4-6.26,0-1.2.13-2.38.35-3.56.11-.6.32-1.08,1.02-1.1.57-.01.79.4,1.02.85.73,1.45,1.55,4.97,1.57,7.39Zm-.98-.14c-.02-1.99-.33-3.79-.93-5.54-.1-.28-.37-.73-.51-.72-.3.03-.43.41-.48.74-.31,1.84-.17,3.68.34,5.45.24.84.13,2.29,1.18,2.29.58,0,.26-1.53.4-2.23Z"/>
  <path class="cls-1" d="m9.14,87.69c-.1,1.02-.17,2.05-.31,3.07-.05.39-.22.79-.7.83-.43.04-.75-.18-.98-.54-.08-.13-.16-.27-.22-.42-1.36-3.34-1.73-6.74-.54-10.21.09-.27.34-.65.56-.68.48-.08.61.4.75.76.92,2.31,1.43,4.69,1.43,7.2Zm-1.03-.15c.1-1.75-.13-3.14-.58-4.5-.04-.13-.19-.31-.3-.32-.25-.03-.45.15-.49.39-.21,1.42-.17,2.84.18,4.22.18.72.08,1.99.86,1.94.65-.04.26-1.33.34-1.73Z"/>
  <path class="cls-1" d="m28.4,85.97c-.07,1.19-.09,2.38-.23,3.56-.1.85-.68,1-1.32.42-.48-.44-.75-1.02-.99-1.61-1.07-2.53-1.12-5.1-.28-7.68.18-.55.25-1.44,1.06-1.36.71.07.82.9,1.01,1.48.57,1.68.63,3.43.75,5.18Zm-.92-.07c-.13-1.35-.07-2.7-.48-3.99-.07-.2-.28-.36-.42-.54-.12.19-.3.36-.36.56-.36,1.31-.44,2.64-.09,3.97.2.79.01,2.08.98,2.09.57,0,.28-1.35.37-2.09Z"/>
  <path class="cls-1" d="m18.96,83.43c.06-1.03.11-2.06.18-3.08.02-.32.11-.65.48-.71.33-.05.61.13.8.41.18.26.37.52.48.81,1.12,2.96,1.39,6,.89,9.12-.06.38-.12.86-.55.97-.61.15-.77-.42-.99-.82-1.14-2.09-1.36-4.36-1.29-6.69Zm2.16,3.22c-.05-.53-.03-1.26-.19-1.94-.13-.58-.05-1.62-.62-1.6-.61.02-.38,1-.38,1.57,0,.71.06,1.43.18,2.13.1.59.08,1.5.77,1.53.37.02.21-.96.25-1.69Z"/>
  <path class="cls-1" d="m7.03,77.05c-.01.43-.28.78-.81.83-.43.04-.79-.23-.84-.64-.08-.63.27-1.05.93-1.05.43,0,.67.32.72.86Z"/>
  <path class="cls-1" d="m16.07,93.73c0,.46-.27.75-.66.86-.54.15-.93-.14-1.04-.65-.1-.45.19-.75.62-.83.53-.11.92.09,1.09.63Z"/>
  <path class="cls-1" d="m27.13,76.44c-.46-.08-.72-.35-.73-.78-.02-.54.26-.9.82-.92.47-.02.73.29.71.73-.02.49-.24.91-.8.98Z"/>
  <path class="cls-1" d="m22.82,76.93c-.44-.08-.74-.32-.75-.75-.02-.53.27-.87.82-.87.45,0,.69.33.73.73.04.55-.29.83-.8.89Z"/>
  <path class="cls-1" d="m11.55,92.98c.51.04.83.34.78.9-.04.44-.34.7-.8.64-.44-.06-.68-.37-.71-.8-.03-.47.22-.72.73-.74Z"/>
  <path class="cls-1" d="m13.79,77c-.45-.1-.69-.36-.64-.8.05-.4.26-.74.7-.79.45-.04.73.28.75.68.04.54-.32.81-.81.91Z"/>
  <path class="cls-1" d="m28.21,92.93c.02.5-.24.78-.63.87-.52.11-.95-.13-.96-.68,0-.4.32-.67.76-.7.42-.03.74.11.84.52Z"/>
  <path class="cls-1" d="m32.07,93.11c.02.48-.27.71-.68.73-.3.01-.61-.12-.66-.5-.06-.5.27-.68.68-.72.32-.02.6.11.66.48Z"/>
  <path class="cls-1" d="m18.93,92.88c.39.12.72.33.64.8-.08.45-.39.65-.83.52-.42-.13-.61-.45-.51-.89.08-.35.38-.43.7-.43Z"/>
  <path class="cls-1" d="m22.79,93.92c-.38-.1-.75-.22-.66-.74.07-.36.37-.54.66-.53.43.01.69.29.65.76-.03.39-.35.45-.65.51Z"/>
  <path class="cls-1" d="m8.54,94.07c-.1.33-.34.58-.66.53-.41-.05-.72-.33-.67-.8.04-.36.32-.56.65-.52.42.05.7.31.68.78Z"/>
  <path class="cls-1" d="m10.49,76.22c0,.33-.12.61-.47.68-.47.09-.77-.16-.79-.6-.01-.33.27-.56.61-.58.33-.02.6.12.65.5Z"/>
  <path class="cls-1" d="m18.97,76.35c-.19.3-.46.41-.79.31-.49-.14-.61-.5-.39-.9.16-.29.52-.34.84-.18.31.15.47.41.34.77Z"/>
  <path class="cls-1" d="m30.75,76.16c-.09.41-.35.53-.7.48-.4-.05-.52-.37-.42-.68.05-.16.36-.35.54-.35.31,0,.61.16.57.54Z"/>
  <path class="cls-1" d="m52.61,100.62c.42.18.61,1.37.26,1.69-.08.07-.35.09-.4.04-.34-.48-.35-1.03-.23-1.58.05-.21.18-.26.37-.14Z"/>
  <path class="cls-1" d="m62.76,90.61c-.42,0-.76-.2-.78-.64-.02-.44.29-.69.73-.7.35-.01.58.19.65.53.11.48-.16.7-.6.82Z"/>
  <path class="cls-1" d="m57.42,78.1c-.05.28-.22.41-.49.32-.24-.07-.36-.28-.32-.53.04-.26.19-.44.48-.33.24.09.33.29.33.54Z"/>
</svg>