<?xml version="1.0" encoding="UTF-8"?>
<svg id="Layer_1" data-name="Layer 1" xmlns="http://www.w3.org/2000/svg" viewBox="0 0 94.24 92.73">
  <defs>
    <style>
      .cls-1 {
        fill: #ba4a30;
        stroke: #231f20;
        stroke-miterlimit: 10;
        stroke-width: .25px;
      }

      .cls-2, .cls-3, .cls-4 {
        stroke-width: 0px;
      }

      .cls-3 {
        fill: #f9faf5;
      }

      .cls-4 {
        fill: #e3b75e;
      }
    </style>
  </defs>
  <path class="cls-3" d="m30.39,18.83l-3.97,4.08-2.62,3.98h-3.12l-2.51,1.52-.94,4.22,1.22,3.55-1.22.46-5.02,9.1-6.4,14.88-4.67,21.52-.83,8.02.29.79,1.54.32,1.44.58,81.63-.12s-2.81-38.33-.85-41.86,5.69-8.38,5.69-8.38l-1.2-1.52-6.07,2.35.04-1.83,10.52-3.69.56-2.13-.86-1.15-15.57,5.34-2.54,6.49-7.28,20.52-13.58-6.19-6.61-5.85.48-10.57,9.33.41,4.03,9.93,4.01-13.87-6.66.4-3.75-1.28,7.66-4.57,3.38,1.05s1.15-23.53-18.81-22.74L35.41.32l-8.37,4.26,3.35,14.24Z"/>
  <path class="cls-1" d="m43.44,68.94c-1.15-.04-2.26-.23-3.36-.57-.47-.15-1.03-.04-1.47.16-.03.02-.08.04-.11.06-.74-.2-1.48-.41-2.23-.61-.4-.11-.85-.07-1.27.08-.35-.23-.7-.46-1.08-.66-.64-.33-1.49-.18-2.07.22-.42.29-.84.99-.2,1.32.4.21.78.44,1.16.69-.07.25-.01.49.3.65.17.09.34.17.51.25-.03.1-.03.21.02.31.25.49.58.83,1.08,1.08.42.21.9.34,1.28.63.76.58,1.1,1.62,1.41,2.48.36,1.01,2.5.57,2.82-.29.21-.55.39-1.1.48-1.68.02-.1.02-.21.03-.31.04,0,.08.01.12.02.62.08,1.61-.25,1.9-.84.14-.28.15-.52.09-.72.56-.09,1.31-.36,1.49-.95.05-.17.04-.31,0-.43.01-.04.04-.07.05-.11.08-.51-.5-.78-.93-.8Z"/>
  <path class="cls-4" d="m44.55,9.82c.29.14-.22-.18-.24-.18-.03-.02-.04-.04-.08-.08-.1-.09-.19-.19-.29-.29-.28-.3-.54-.63-.8-.95-.67-.82-1.38-1.54-2.22-2.2-.05-.04-.12-.08-.17-.12-.12-.28-.23-.56-.35-.83-.37-.86-.79-1.67-1.6-2.21-.42-.28-.92-.46-1.42-.52-.3-1.04-1.53-2.12-2.64-1.51-1.65.9-3.41,1.61-5.26,2-.87.19-1.23.76-1.23,1.38-.41.06-.83.13-1.22.26-.21.07-.65.18-.69.44-.15,1.01.16,1.95.49,2.89.32.92.65,1.84.97,2.76.63,1.78,1.26,3.56,1.89,5.33,0,0,0,0,0,0-.1,1.2,1.66,2.33,2.71,1.77,3.87-2.04,7.86-4.15,12.24-4.78.73-.1,1.3-.67,1.28-1.43-.02-.84-.68-1.42-1.38-1.76Z"/>
  <path class="cls-4" d="m54.43,60.77c-.08-.24-.4-.41-.78-.52,0-.57-.29-1.16-.76-1.48-3.38-2.34-6.6-4.88-9.7-7.58-.11-.21-.27-.41-.47-.6-1.54-1.43-3.11-2.82-4.71-4.17-.29-.24-.66-.39-1.03-.43-.35-.33-.75-.53-1.15-.44-.75.17-1.51.33-2.26.5-.11.02-.21.06-.29.11-2.14-.24-4.24-.83-6.18-1.76-1.16-.7-2.32-1.41-3.48-2.11-.23-.14-.46-.18-.67-.14-.88-.97-1.79-1.92-2.77-2.79-.13-.12-.26-.24-.4-.37-.02-.11-.04-.23-.07-.34-.22-.8-.75-1.83-1.67-1.99-.75-.13-1.15.55-1.05,1.22-.35.16-.61.47-.68.92-.18,1.07.49,2.54,1.65,2.78.2.04.37.04.54.03.13.3.3.57.48.77,1.04,1.2,2.23,2.21,3.56,3.06.31.38.67.72,1.05.98.08.05.15.11.23.17.13.36.35.68.65.88.9.63,1.81,1.23,2.73,1.82.46.43.89.85,1.44,1.4,1.6,1.59,3.44,3.34,5.8,3.57.17.02.23-.07.23-.2,5.32,2.99,10.89,5.5,16.66,7.5.63.22,1.32.25,1.81-.15.45,0,1.5-.03,1.3-.64Z"/>
  <path class="cls-4" d="m29.5,74.58c-.77-.12-1.74.41-2.37,1.02-.15.29-.37.57-.63.8-1.92,3-3.87,5.99-6.24,8.65-1.14,1.28-2.41,2.38-3.7,3.5-1.23,1.07-2.43,2.27-3.08,3.79.02,0,.04,0,.06,0,.42-.03.83-.05,1.25-.1.13-.01.24.08.3.19.1,0,.19.02.29.03.06,0,.11.04.16.06.39-.21.78-.4,1.16-.63.06.04.15.06.26.08,1.36.16,2.72.32,4.09.48,1.48.17,2.69.28,4.05-.5.45-.26.86-.61,1.24-.99.07.33.32.58.67.61.13.36.51.53.88.36.22-.1.32-.3.35-.52.03-.01.07-.02.1-.03.18-.1.32-.29.37-.5.06-.28.08-.59.1-.87.05-.6.06-1.2.03-1.81-.01-.22-.14-.43-.32-.54.28-.58.52-1.16.74-1.7.88-2.16,1.47-4.43,1.94-6.7.23-1.1.61-2.31.65-3.43.04-1.21-1.46-1.11-2.34-1.24Z"/>
  <path class="cls-4" d="m84.37,49.87c-.13-.68-.75-.75-1.32-.89-.65-.16-1.3-.37-1.93-.61-1.03-.4-2.01-.9-2.93-1.49.04-.25.05-.51,0-.79-.04-.21-.36-.24-.77-.16-.34-.22-1.29.1-1.47.18-.71.33-1.5.81-1.74,1.6-.05.17-.09.34-.11.51-.08.4-.17.81-.25,1.21-.11.52-.31,1.07,0,1.56.28.44.72.83,1.06,1.23.38.44.76.89,1.14,1.34,1.25,1.5,2.45,3.05,3.6,4.63.19,1.02.83,1.98,1.64,2.58.16.11.18.13.06.05.07.05.14.11.2.17.03.03.03.03.05.04,0,.01,0,.02.01.03.2.6.66,1.44,1.26,1.74.5.26.76-.2.7-.68-.31-2.81.61-5.64.49-8.5,0-.22-.05-.44-.12-.67.26-.29.45-.63.49-1.03.06-.63.08-1.42-.04-2.05Z"/>
  <path class="cls-4" d="m28.09,47.87c0-1.1-2.37-.39-2.38.56-.01,8.21-.02,16.42-.03,24.62,0,.51.52.62,1.07.51,0,.04,0,.09.03.13.03.08.07.14.13.2.06.06.12.1.2.13.07.04.15.06.24.05.06,0,.11-.01.17-.02.11-.03.2-.08.28-.16.11-.12.18-.27.18-.44v-.67s0,0,0,0c.05-.09.09-.19.09-.29.01-8.21.02-16.42.03-24.62Z"/>
  <path class="cls-4" d="m30.66,65.13c.06-.2.24-.28.43-.24.32.05.64.19.96.32,0-.14,0-.28,0-.41-.23-.02-.45-.07-.6-.22-.41-.42.14-.86.52-.98.02,0,.04-.01.06-.02-.04-4.19-.04-8.38.02-12.56.02-1.1-2.42-.71-2.43.17-.12,8.15-.04,16.3.22,24.45.03.89,2.47.45,2.44-.56-.09-2.83-.15-5.65-.2-8.48-.78-.13-1.68-.54-1.41-1.47Z"/>
  <g>
    <path class="cls-4" d="m44.01,65.86c.14-.11.36-.06.48.08.08-.02.16-.04.2-.05.21-.04.42-.07.63-.03.44.09.77.51.78.96,0,.07-.01.13-.03.2,0,.02.02.04.03.06.02.05.02.1.02.15,0-2.68.02-5.36.03-8.04,0-1.06-2.18-2.15-2.19-.78,0,2.48-.02,4.97-.03,7.45.02,0,.05,0,.07,0Z"/>
    <path class="cls-4" d="m45.14,68.17s-.05,0-.08,0c-.26.11-.53.17-.78.14-.21-.02-.32-.18-.33-.34,0,0-.01,0-.02-.01-.03,7.68-.05,15.36-.08,23.04,0,1.06,2.18,2.15,2.19.78.03-8.14.06-16.27.08-24.41-.05.46-.52.8-.99.8Z"/>
  </g>
  <path class="cls-4" d="m48.3,60.54c-.16,9.96-.1,19.93.16,29.89.01.55.24,1.29.75,1.6.4.24.87.17.85-.4-.27-9.96-.32-19.93-.16-29.89,0-.55-.26-1.3-.75-1.6-.41-.25-.85-.16-.85.4h0Z"/>
  <path class="cls-4" d="m51.5,92.16c.8-.06,1.6-.11,2.4-.16,0-.02.01-.04.01-.07.59-9.99.71-20.01.35-30.01-.04-1.13-2.51-.77-2.47.4.36,9.85.25,19.71-.33,29.54,0,.11.01.21.04.29Z"/>
  <path class="cls-4" d="m59.11,91.8s.04,0,.06.01c-.09-8.08-.17-16.16-.26-24.24-.61-.79-1.17-1.63-1.66-2.5-.42.11-.76.43-.75,1l.28,25.79c.78-.03,1.55-.05,2.33-.05Z"/>
  <path class="cls-4" d="m63.17,90.32c-.02-.09-.07-.17-.14-.24.05-.35,0-.74,0-1.06,0-.85-.02-1.69-.02-2.54-.02-1.57-.03-3.14-.04-4.71-.02-2.39-.05-4.77-.07-7.16-.11-.18-.21-.35-.32-.53-.34-.55-.68-1.09-1.02-1.64-.3.16-.86.46-.86.78.03,3.02.06,6.04.09,9.06.01,1.45.03,2.9.04,4.35,0,.72.01,1.45.02,2.17,0,.42,0,.85.01,1.27,0,.13.04.44.06.72-.07.1-.12.22-.11.34,0,.04.02.07.02.11-.03.04-.07.07-.08.11,0,.02-.02.05-.03.07v.08s.05.03.07.05c.06.04.15.05.24.05.12.09.24.14.39.15.4.03.79.05,1.19.08.15,0,.34-.08.44-.18.03-.04.07-.08.1-.13.06-.1.08-.2.09-.32.02-.3,0-.6-.07-.89Z"/>
  <path class="cls-4" d="m22.03,71.37c.22.32.46.63.72.92.6-.21,1.22-.64,1.23-1.04.04-8.4.07-16.81.11-25.21,0-.8-2.27.1-2.27.86l-.1,24.04c.1.14.22.28.32.43Z"/>
  <path class="cls-4" d="m17.4,64.57c.18.5.53.88.88,1.27.11.12.11.27.05.39.04.06.08.11.12.17.62-.07,1.24-.47,1.24-1.07v-22.88c0-1.33-2.45-.95-2.45.24v21.69c.07.04.13.1.16.19Z"/>
  <path class="cls-4" d="m15.63,49.93c0-.22,0-.45,0-.67,0-.48,0-.95-.01-1.43-.01-1.6-.03-3.2-.04-4.8.04-.08.07-.17.07-.26v-1.18c0-.16-.07-.33-.18-.44s-.29-.19-.44-.18c-.16,0-.33.06-.44.18-.11.12-.18.27-.18.44v.73s-.06.01-.08.02c-.05.01-.19.04-.35.08,0,.06-.01.11-.04.16-.17.26-.37.51-.57.74-.06.07-.14.13-.2.2.01,1.19.02,2.37.03,3.56,0,.22,0,.44,0,.66.03,0,.05-.02.08-.02.19,0,.35.17.35.35v2.05c0,.16-.11.29-.26.33.03.03.06.07.06.13.04.26.09.52.14.78.31-.03.66-.11.7-.11.37-.08.75-.17,1.1-.33.14-.06.25-.11.29-.26.06-.21,0-.5,0-.72Z"/>
  <path class="cls-4" d="m15.5,52.33v-3.18c0-.97-1.18-1.1-1.9-.66v1.62c0,.17-.12.3-.28.33.03.04.07.07.08.13.25,1.64.68,3.26.8,4.91.43-.06.83-.3,1.07-.66.2-.29.24-.61.24-.95,0-.51,0-1.03,0-1.54Z"/>
  <path class="cls-4" d="m36.76,55.85c0-.73-1.03-.79-1.21-.19v-.27c0-.8-1.25-.81-1.25,0v6.62c0,.5.49.69.85.57.27.32.72.41,1.22.33.26-.04.46-.35.46-.6-.02-2.15-.05-4.3-.07-6.45Z"/>
  <path class="cls-4" d="m40.97,57.77c-.11,0-.21.04-.31.1,0-.33-.3-.61-.62-.61-.35,0-.61.29-.62.62-.11,1.82-.08,3.64.09,5.45.03.34.27.62.62.62.26,0,.52-.2.6-.46.36.04.67-.18.71-.59.15-1.5.2-3.01.16-4.52,0-.34-.28-.62-.62-.62Z"/>
  <path class="cls-4" d="m40.98,72.84c-.34.02-.62.27-.62.62v1.58c0,.33.29.64.62.62.34-.02.62-.27.62-.62v-1.58c0-.33-.29-.64-.62-.62Z"/>
  <path class="cls-4" d="m35.69,72.18c-.11-.18-.3-.32-.52-.31-.34.02-.63.27-.62.62,0,.71,0,1.41,0,2.12,0,.05,0,.1,0,.15h0s0,0,0,0c0,.06,0,.11.02.17.1.3.37.49.69.45.14-.02.26-.09.35-.18.13.02.25,0,.37-.07.19-.11.3-.32.31-.54.02-.6.02-1.2.01-1.8,0-.32-.28-.63-.62-.62Z"/>
  <path class="cls-4" d="m40.66,88.15c-.25.01-.46.15-.56.37-.02,0-.04-.01-.06-.01-.34.02-.62.27-.62.62v2.4c0,.33.29.64.62.62.14,0,.27-.06.37-.14.08.04.16.06.25.05.34-.02.62-.27.62-.62v-2.67c0-.33-.29-.64-.62-.62Z"/>
  <path class="cls-4" d="m36.81,88.43c-.11-.11-.29-.19-.44-.18-.16,0-.33.06-.44.18-.05.05-.07.11-.1.16-.12-.13-.28-.21-.45-.21-.34.02-.62.27-.62.62v2.77c0,.33.29.64.62.62.3-.01.55-.23.6-.52.15.05.3.06.44,0,.23-.1.38-.32.38-.57,0-.82.1-1.63.19-2.44.02-.15-.08-.34-.18-.44Z"/>
  <path class="cls-4" d="m32.18,87.62c-.12,0-.22.05-.32.11-.06-.27-.32-.5-.6-.49-.36.02-.6.27-.62.62-.04.59-.1,1.17-.17,1.76,0,.03,0,.07-.01.1,0,.07-.01.09,0,.05,0-.04,0-.02,0,.05,0,.05-.01.09-.02.14-.02.14-.04.27-.06.41-.05.3-.1.59-.16.89-.06.32.09.69.44.77.29.07.64-.08.74-.38.05.14.15.28.28.34.26.14.54.09.76-.1.27-.25.25-.73.28-1.07.03-.28.05-.57.06-.85.03-.58.05-1.16.05-1.74,0-.33-.29-.64-.62-.62Z"/>
  <path class="cls-2" d="m44.14,92.52c-12.87,0-25.74,0-38.61-.02-.99,0-2.06.3-2.97-.4.85-.8,1.89-.4,2.84-.43,2.16-.07,4.32-.05,6.47-.02.85,0,1.49-.22,2.11-.86,4.54-4.64,8.6-9.67,12.42-14.91.92-1.26.91-1.36-.38-1.87-3.8-1.5-6.26-4.34-7.99-7.89-2.8-5.73-4.55-11.76-4.76-18.18-.01-.4-.02-.8-.05-1.2-.02-.23-.03-.51-.35-.51-.13,0-.31.11-.38.23-.22.33-.4.69-.58,1.04-5.53,10.79-8.76,22.27-10.12,34.29-.34,3.01-.98,5.99-.76,9.05.02.25-.05.51-.29.57-.39.09-.64-.23-.68-.52-.08-.55-.09-1.12-.04-1.67,1.05-11.01,2.8-21.87,6.73-32.28,2.61-6.91,6.08-13.38,9.89-19.67.67-1.11,1-2.06.56-3.33-.51-1.46-.51-2.97.12-4.45.94-2.18,2.49-3.29,4.87-3.04,1.19.13,1.69-.26,2.23-1.21,1.15-2.02,2.55-3.89,4.34-5.39.89-.75.96-1.47.63-2.52-1.11-3.59-1.97-7.24-2.74-10.92-.41-1.94-.39-2,1.34-3.08,1.9-1.19,3.91-2.18,6-2.97,1.69-.64,1.84-.59,3.1.78,2.93,3.16,5.88,6.31,8.79,9.51.86.94,1.76,1.46,3.1,1.42,6.3-.19,10.53,3.26,13.65,8.26,2.69,4.3,3.37,9.27,3.89,14.21.16,1.49-.37,1.85-1.64.97-1.49-1.03-2.52-.67-3.76.36-1.29,1.07-2.79,1.85-4.39,2.42-.21.07-.38.25-.57.37.2.13.38.33.59.38,1.71.45,3.44.72,5.21.48.87-.11,1.74-.25,2.6-.41.9-.17,1.19.27,1.07,1.06-.17,1.1-.35,2.21-.62,3.29-.76,3.1-1.56,6.19-2.36,9.29-.18.7-.4,1.38-.63,2.06-.1.29-.24.63-.62.6-.38-.02-.48-.38-.58-.68-.21-.6-.4-1.21-.57-1.83-.61-2.15-1.27-4.29-1.81-6.46-.39-1.56-1.03-2.46-2.89-2.5-1.9-.03-3.8-.43-5.72-.46-.98-.02-1.43.35-1.53,1.36-.25,2.63-.55,5.24-.39,7.89.06,1.05.46,1.78,1.27,2.43,4.97,3.95,10.35,7.22,16.22,9.65,1.83.76,1.86.74,2.6-1.11,2.38-5.94,4.08-12.11,6.25-18.12.49-1.35,1.02-2.7,1.38-4.08.39-1.52,1.34-2.46,2.62-3.24,1.44-.88,2.91-1.68,4.54-2.13,3.08-.85,6.16-1.68,9.26-2.45.71-.18,1.61-.5,2,.63.37,1.08.1,2.26-.79,2.76-.55.31-1.18.48-1.79.66-2.39.7-4.66,1.67-6.91,2.71-.43.2-.86.42-1.27.67-.2.12-.32.37-.19.61.14.26.41.23.62.12.86-.43,1.7-.88,2.56-1.31.57-.29,1.13-.61,1.73-.82,1.01-.35,1.68.26,2.25.97.52.64.13,1.21-.24,1.74-1.43,2.02-2.86,4.05-4.32,6.04-.54.73-.72,1.43-.73,2.39-.06,4.79-.55,9.57-.6,14.37-.09,7.2.35,14.38.67,21.57.08,1.68.12,3.35.15,5.03,0,.51-.14.92-.82.86-5.34-.47-10.69-.17-16.04-.21-8.07-.07-16.15-.02-24.22-.02v.03Zm14.5-50.05c-.01.13-.03.27-.04.4l.03-.35c-.01-.08-.02-.15-.05-.23-.2-.61.22-1.4-.55-1.83-.05-.03-.18,0-.19.04-.38.81,0,1.41.57,1.94.04.04.15.02.22.03Zm.3-6.5c1.15.02,1.81-.85,2.58-1.47.37-.3.2-.69-.18-.97-.79-.57-1.55-.45-1.89.47-.23.63-.71,1.25-.47,2.02-.18-.06-.26-.01-.23.15,0,0,.1,0,.14,0,.31-.1-.13.08.05-.19Zm-20.61,5.78c2.07-2.39,2.07-5.31,2.07-8.22,0-.34-.22-.63-.56-.65-.44-.02-.76.24-.76.72,0,2.14-.27,4.25-.73,6.35-.13.61-.28,1.24.02,1.86-.19-.06-.25.07-.15.08.31.04-.08.12.11-.13Zm-18.13-4.47s-.04.06-.06.09c.03-.05.06-.1.09-.15-.28,1.4.68,1.82,1.72,2.06,3.21.73,5.67-.86,6.35-4.11.2-.93.33-1.89.38-2.84.15-2.94.25-5.89.36-8.83.02-.4.05-.8.03-1.19-.02-.29.06-.71-.37-.76-.19-.02-.44.13-.6.27-1.09.93-1.63,1.98-1.31,3.55.56,2.74.78,5.53-.03,8.28-.98,3.33-3.19,4.52-6.56,3.62Zm34.91,23.66c0-.25-.02-.43-.31-.18l.31.19c-.04.98.72,1.56,1.18,2.28,2.35,3.71,4.48,7.53,6.41,11.48.14.29.25.65.59.69.61.07.47-.51.6-.82.85-2.15,1.68-4.3,2.49-6.47.6-1.6.59-1.65-.96-2.29-3.11-1.27-6.09-2.77-8.98-4.48-.41-.24-.79-.56-1.32-.39Zm-8.41,30.71s0,.06,0,.09c5.92,0,11.83,0,17.75,0,.64,0,1.28-.01,1.92-.05.58-.03.86-.35.77-.94-.06-.39-.13-.79-.21-1.18-2.08-9.24-6.14-17.62-11.19-25.57-.46-.72-1.02-1.04-1.88-1.27-4.71-1.27-9.37-2.73-13.76-4.87-8.67-4.24-16.78-9.31-23.21-16.68-.62-.72-1.03-.87-1.57.06-.66,1.12-1.08,2.27-1.14,3.6-.34,7.8,1.61,15.06,5.19,21.9,1.95,3.73,5.04,6.13,9.14,7.21,1.63.43,3.28.77,4.95.86,1.16.07,2.36.49,3.51-.11-.12-1.63-1.5-2.13-2.61-2.82-2.45-1.53-3.88-3.73-4.6-6.48-.53-2.04-.15-2.64,1.89-2.9.71-.09,1.45-.14,2.15-.05,2.7.33,5.4.62,8.07,1.13,1.33.26,2.7.13,4,.66,1.39.58,1.61.86,1.23,2.32-.53,2.05-1.88,3.52-3.58,4.64-1.1.72-1.98,1.6-2.72,2.66-.5.7-.77,1.29.47,1.44.84.1,1.67.41,1.86,1.28.33,1.53.61,3.09.66,4.64.06,1.67-.21,3.36-.23,5.04-.02,1.89-.47,2.37-2.31,2.46-3.7.17-7.35-.18-10.95-.96-1.32-.29-2.17,0-2.61,1.32-.1.3-.31.56-.45.84-.83,1.6-.78,1.72,1.01,1.72,6.16.02,12.31,0,18.47,0Zm36.99-15.71c-.07,0-.13,0-.2,0,0-3.03-.02-6.07.01-9.1.01-1.16-.29-2.16-.87-3.16-2.34-4.03-5.64-7.34-8.3-11.13-.78-1.12-1.18-1.01-1.63.42-1.41,4.5-3.02,8.92-4.68,13.33-1.21,3.21-2.41,6.42-3.64,9.63-.36.94-.41,1.82,0,2.77,1.6,3.67,2.68,7.52,3.55,11.41.28,1.26.86,1.69,2.12,1.67,4.15-.06,8.3-.01,12.46-.04,1.81-.01,1.9-.05,1.83-1.93-.17-4.63-.43-9.25-.65-13.87Zm-30.41-46.24c-1.26-.18-2.54-.32-3.79-.54-.62-.11-1.35-.27-1.44-1.04-.07-.62.47-1.01.98-1.24,2.3-1.02,4.62-1.86,7.09-.5.3.17.6.62.96.06.73-1.14.36-2.87-.86-3.23-2.86-.84-5.79-1.4-8.53.4-2.11,1.39-4.37,1.75-6.83,1.39-.87-.13-1.71-.35-2.56-.56-1.4-.35-2.26.03-2.82,1.15-1.47,2.93.65,6.28,3.3,6.28,2.17,0,2.55.53,2.56,2.69.01,1.77-.27,3.5-.82,5.19-.61,1.9-.6,1.91,1.48,2.1,4.29.41,8.59.82,12.89,1.19.74.06,1.59.55,2.23-.18.29-.33-.42-2.55-.99-2.83-.97-.49-1.81-1.28-3.03-1.28-1.03,0-2.08-.14-3.08-.37-5.44-1.2-7.34-5.8-7.75-10.28-.04-.47.03-1.04.51-1.26.56-.26.82.3,1.13.63,2.84,3.1,6.53,4.48,10.52,5.26,1.26.24,2.51.36,3.8.06,1.05-.25,1.61-.54,1.06-1.75-.43-.96-.29-1.98.71-2.51.95-.51,1.65.28,2.31.83.54.45.83,1.24.17,1.61-1.01.58-.52-.59-.8-.9-.37-.44-.82-.89-1.4-.51-.44.29-.39.84-.15,1.3.33.66.82,1.2,1.42,1.6.99.67,2.01,1.31,3.05,1.9.84.48,1.21.25,1.04-.74-.64-3.77-1.14-7.58-2.77-11.12-1.37-3-3.46-5.35-6.09-7.26-1.9-1.38-2.12-1.3-2.81.83-.17.53-.37,1.06-.61,1.56-.42.89-.44,1.44.79,1.6,2.65.36,4.03,2.53,4.15,5.39.15,3.72-1.23,5.06-4.98,5.06Zm-35.24,7.21c-.13.07-.27.12-.37.21-1.05,1.02-1.15,2.19-.21,3.34,2.08,2.54,4.46,4.79,7.06,6.78,7.97,6.12,16.65,10.92,26.36,13.72.95.27,1.84.88,2.91.55-.48-.91-.88-1.86-1.46-2.71-.34-.51-.92-.88-1.43-1.25-4.82-3.56-9.41-7.39-13.72-11.53-.63-.6-1.15-.67-1.91-.43-2.73.89-5.37.43-7.89-.76-3.37-1.59-6.28-3.76-8.4-6.9-.25-.38-.38-.91-.94-1.03Zm20.3,50.9c.64,0,1.27,0,1.91,0,.16,0,.32,0,.48,0,1.77-.09,1.87-.18,1.64-1.92-.05-.42-.11-.78.15-1.11.5-.63.57-1.28.15-1.98-.26-.44-.25-.88-.03-1.36.71-1.53-.9-2.86-.39-4.45.16-.51-.71-.73-1.28-.77-2.38-.16-4.77-.29-7.15-.49-.99-.08-1.42.35-1.7,1.24-.86,2.82-1.75,5.62-2.7,8.41-.32.95-.04,1.31.87,1.48,2.66.48,5.32,1.04,8.05.96Zm-18.29,3.83s0,0,0,0c1.36,0,2.71-.02,4.07,0,.81.02,1.31-.3,1.73-1,2.66-4.42,4.15-9.29,5.57-14.2.16-.56-.03-.89-.58-1.1-1.87-.73-2.54-.57-3.81,1.18-3.42,4.72-7.06,9.25-11.09,13.47-.22.23-.44.46-.63.72-.4.55-.21.9.44.91,1.43.03,2.87,0,4.3,0ZM42.06,8.06c-.11-.17-.23-.38-.39-.56-1.84-1.99-3.7-3.96-5.53-5.97-.6-.66-1.2-.6-1.94-.31-2.09.82-4.04,1.9-5.97,3.01-.58.33-1.05.73-.85,1.52.77,3.09,1.52,6.19,2.28,9.29.15.61.52.51.86.2,3.18-3.01,6.85-5.18,11.02-6.51.3-.1.6-.21.52-.67Zm51.28,27.24c0-.76-.57-.81-1.15-.67-3.95.94-7.91,1.8-11.68,3.39-2.79,1.18-4.15,3.28-4.81,6.07-.21.88-.02,1.3.85,1.6,2.33.81,4.64,1.69,6.94,2.57.69.27,1.22.2,1.66-.43,1.37-1.96,2.74-3.91,4.12-5.87.19-.28.28-.56.07-.88-.25-.36-.62-.56-1.02-.44-.53.16-1.03.42-1.52.68-1.13.59-2.24,1.22-3.37,1.81-.83.44-1.19,0-1.29-.77-.12-.87.17-1.58.93-2.05.47-.29.98-.54,1.48-.77,2.38-1.13,4.83-2.07,7.35-2.83.7-.21,1.4-.44,1.45-1.43Zm-9.11,15.71c.19-.92.13-1.49-.65-1.78-2.47-.9-4.94-1.83-7.41-2.74-.37-.13-.91-.32-1.1.08-.48,1-.86,2.05-1.2,3.1-.23.71.31,1.18.7,1.69,2.66,3.49,5.32,6.99,7.99,10.48.18.23.31.65.71.5.33-.12.3-.51.31-.82.23-3.59.45-7.17.66-10.52Zm-51.62-24.04c-.06-2.31.13-4.63-.31-6.92-.27-1.43-.43-1.46-1.59-.65-.77.53-.8,1.15-.82,2.02-.1,4.38-.17,8.77-.59,13.13-.36,3.66-2.2,5.24-5.82,5.77-.22.03-.53-.01-.56.25-.02.19.13.47.29.59,1.1.78,2.23,1.54,3.35,2.29.63.42,1.15.21,1.74-.2,1.91-1.3,2.82-3.21,3.33-5.35.86-3.59,1.04-7.25.99-10.93Zm9.08,15.78c-.79,0-1.27-.02-1.75,0-1.28.08-2.05,1.06-2.52,1.96-.41.79.83,1.14,1.34,1.66.83.85,1.74,1.63,2.65,2.4,1.51,1.29,3.03,2.57,4.56,3.83.44.36.96.4.96-.35.01-2.63.26-5.23.51-7.84.07-.78-.31-1.14-1.1-1.21-1.66-.14-3.32-.33-4.66-.46Zm-15.27-12.94c-.13-1.27-.24-2.54-.4-3.8-.03-.22-.2-.42-.3-.62-.19.12-.42.21-.56.38-.65.78-.78,1.54-.44,2.62.75,2.35-.02,4.32-1.72,5.21-1.16.61-2.26.32-2.88-.75-.63-1.09-.36-2.63.58-3.23.71-.45,1.38-.3,1.97.23.32.29.46.69.12,1.05-.31.33-.53.03-.76-.2-.74-.77-1.12-.19-1.35.45-.24.68.07,1.25.64,1.66.55.39,1.07.16,1.55-.16,1.21-.82,1.66-3.06.88-4.32-.77-1.23-2.6-1.42-4.05-.43-2.1,1.44-2.65,5.07-1,7.05,1,1.2,2.24,2.11,3.93,1.82,1.66-.29,2.61-1.42,3.19-2.93.49-1.29.58-2.64.61-4.01Zm8.7-8.14c-.07-1.4-.1-2.36-.17-3.31-.03-.46-.03-1.1-.65-1.08-.65.02-1.25.37-1.26,1.17,0,.47.07.95.12,1.43.51,4.29.47,8.59.1,12.88-.35,4.04-.61,8.18-4.17,11.05-.38.3-.16.7.34.85.49.14.92,0,1.38-.19,1.86-.74,2.8-2.31,3.57-3.98.88-1.9,1.11-3.98,1.38-6.03.19-1.44.09-2.8-.83-4.09-.97-1.36-1.3-3-.46-4.53.83-1.5.89-3.01.67-4.16Zm10.47-9.75c-.04-.13-.07-.29-.14-.42-1.05-1.82-2.36-2.33-4.41-1.69-2.3.72-4.34,1.94-6.35,3.23-1.34.86-2.63,1.8-3.63,3.05-.38.47-1.03,1-.42,1.64.55.59,1-.12,1.42-.38,3.61-2.26,7.53-3.74,11.65-4.71.46-.11.94-.16,1.4-.26.23-.05.45-.16.49-.45Zm-1.77,57.77c0-.42-.21-.54-.45-.55-3.58-.17-7.11-.76-10.62-1.45-.29-.06-.68-.12-.78.27-.05.19.05.47.17.65.72,1.07,1.66,1.91,2.79,2.55,1.34.75,2.49,1.69,3.13,3.16.36.83.83.95,1.31.08.94-1.7,2.22-3.08,3.89-4.11.25-.16.43-.45.56-.59Zm3.26-53.19c-.05-.79-.07-1.59-.16-2.38-.07-.64-.44-1.04-1.13-.93-.54.08-1.28.14-1.19.88.26,2.13-.77,4.2-.16,6.36.36,1.27-.44,2.41-1.66,2.76-1.15.33-2.07-.37-2.05-1.58,0-.19.17-.47.33-.55.28-.15.43.12.48.35.12.59.29,1.14,1.06.89.57-.18.93-.61.99-1.23.07-.65-.3-1.05-.82-1.32-1.08-.58-2.55-.22-3.18.77-.67,1.05-.46,2.47.5,3.24,1.82,1.46,5.21.56,5.91-1.63.59-1.82,1.01-3.69,1.07-5.63Zm-4.35,51.75c.57-.03,1.21-.05,1.84-.1.4-.03.78-.13,1.05-.48.25-.32.45-.66.35-1.09-.12-.54-.58-.44-.95-.44-1.03.01-2.06.09-3.09.07-3.42-.09-6.81-.43-10.12-1.32-.38-.1-.88-.25-1.05.18-.18.46.08.96.46,1.27.23.18.57.24.87.31,3.49.78,7.03,1.24,10.64,1.6Zm-4.55-33.53c.02-1.15,0-1.56-.3-1.85-.3-.3-.73-.42-1,.02-.15.25-.15.61-.19.92-.47,3.83-1.01,7.64-3.89,10.59-.27.27-.25.57.2.66,1.35.29,3.69-.88,3.88-2.06.45-2.76,1.21-5.47,1.29-8.28Zm12.07-19.4c0-.4,0-.56,0-.72-.05-1.4-.3-1.67-1.42-1.64-1.34.03-.98.99-.93,1.73.16,2.26-.14,4.46-.72,6.63-.14.52-.54,1.2.03,1.51.48.26,1.01-.29,1.45-.64.54-.43.68-1.04.86-1.66.54-1.78.41-3.64.72-5.21Zm-.19,22.12c1.39.02,3.14-.85,4.41-2.09.34-.33.87-.65.74-1.15-.18-.67-.9-.5-1.42-.63-.71-.18-1.22.2-1.74.6-.95.74-1.92,1.44-3.09,1.81-.3.1-.66.17-.7.54-.04.42.36.46.63.57.44.17.91.28,1.17.36Zm-9.07,27.92c.34,0,.98.02,1.61-.01.25-.01.68.12.67-.34,0-.1-.35-.24-.56-.29-3.3-.9-6.69-1.21-10.09-1.39-.16,0-.32,0-.47.04-.12.04-.31.16-.31.23,0,.13.11.33.22.37.44.17.89.32,1.34.42,2.4.55,4.85.73,7.59.96Zm-2.71-47.06c0,.13-.02.69,0,1.24.02.34.1.62.57.36,1.49-.82,2.55-3.24,2.11-4.84-.09-.34-.27-.54-.65-.53-.99.02-1.8.69-1.93,1.68-.07.55-.06,1.11-.1,2.08Zm8.76,17.04c1.17,0,2.18-.25,3.03-.86.5-.36,1.63-.61,1.21-1.35-.37-.65-1.4-.95-2.33-.71-.15.04-.28.15-.41.24-.81.53-1.69.86-2.65.94-.93.08-.77.55-.4,1.1.4.62,1.01.69,1.56.64Zm-11.22-15.75c.06,0,.12,0,.18,0,0,.8-.04,1.6.01,2.39.03.49-.28,1.34.53,1.31.63-.02.62-.85.65-1.38.11-1.59.19-3.19.23-4.78.01-.43.17-1.09-.48-1.14-.74-.05-1.15.44-1.14,1.21,0,.8,0,1.6,0,2.39Zm15.02-1.2s-.02.23,0,.47c.04.38.31.66.57.3,1.09-1.47,1.91-3.09,1.88-4.98-.01-.84-.78-.91-1.4-.98-.69-.08-.68.49-.72.94-.12,1.34-.21,2.67-.34,4.25Zm-4.92,14.3c.12-.02.45-.02.74-.13.41-.16,1.02-.19,1.06-.77.03-.46-.46-.58-.79-.79-.67-.43-1.32-.9-2.01-1.29-.52-.3-.93-1.25-1.5-.85-.49.35.06,1.19.19,1.78.38,1.75.76,2.06,2.31,2.04Zm-2.25-16.4c0-.79.02-1.19,0-1.58-.02-.5-.11-.98-.8-.88-.46.07-.99.1-1.03.75-.05,1.03-.09,2.06-.11,3.09-.01.57.33.87.86.95.63.1.85-.33.93-.82.1-.63.13-1.26.15-1.5Zm10.49,21.56c1.86-.11,3.49-1.4,4.09-3.17.2-.58.02-.91-.64-.86-.48.03-.92.15-1.22.59-.66.99-1.49,1.82-2.44,2.54-.26.19-.5.45-.34.76.07.13.42.12.55.15Zm6.69,6.25s-.03,0-.04,0c0-.88,0-1.75,0-2.63,0-.57-.29-.92-.88-.85-.52.06-.57.49-.51.9.12.87.27,1.73.41,2.6.15.99.25,2,.87,2.84.05-.95.11-1.9.16-2.86Zm.78-.23s.03,0,.04,0c0,.16,0,.32,0,.48.05,1.03-.02,2.07.28,3.08.6-.87.27-1.89.49-2.83.18-.78.27-1.57.37-2.36.05-.39.03-.8,0-1.19-.02-.24-.19-.41-.46-.44-.31-.04-.49.21-.51.4-.1.95-.14,1.91-.2,2.86Zm1.82.39s-.22.33.13.53c.11-.21.26-.4.31-.63.27-.99.53-1.98.74-2.97.06-.26.12-.66-.33-.69-.3-.02-.38.28-.41.5-.15,1.01-.28,2.03-.44,3.26Zm-7.39-16.42c-.14-.41-.37-.83-.89-.94-.58-.13-.63.32-.64.72,0,.36-.2.88.38.93.46.04.95-.08,1.15-.71Zm-5.78.56c.39-.12.78-.11.67-.58-.08-.33-.26-.57-.65-.5-.42.07-.79.29-.73.73.02.16.51.26.72.35Z"/>
  <path class="cls-2" d="m60.83,78.66c0,.85-.77,1.55-1.74,1.52-.96-.03-1.4-.61-1.45-1.5-.06-.93.66-1.7,1.56-1.7.83,0,1.63.83,1.64,1.69Zm-1.74-.67c-.34.1-.56.34-.52.68.06.49.42.62.86.49.35-.1.5-.36.37-.72-.12-.33-.36-.48-.71-.45Z"/>
  <path class="cls-2" d="m63.74,87.29c-.04.9-.76,1.56-1.72,1.56-1,0-1.75-.81-1.71-1.83.04-.93.72-1.43,1.81-1.34,1.09.1,1.66.67,1.62,1.61Zm-.97-.09c-.11-.42-.43-.63-.85-.6-.47.03-.69.34-.58.79.11.47.49.55.91.47.35-.06.52-.29.52-.66Z"/>
  <path class="cls-2" d="m58.12,71.77c.04,1.03-.6,1.81-1.48,1.8-.92,0-1.77-.94-1.76-1.92,0-.82.69-1.47,1.55-1.5.95-.03,1.65.65,1.69,1.62Zm-.86,0c-.12-.4-.33-.74-.82-.6-.3.09-.59.31-.57.65.03.42.27.78.74.77.48-.01.62-.4.65-.82Z"/>
</svg>