<?xml version="1.0" encoding="UTF-8"?>
<svg id="Layer_1" data-name="Layer 1" xmlns="http://www.w3.org/2000/svg" viewBox="0 0 86.07 96.84">
  <defs>
    <style>
      .cls-1, .cls-2, .cls-3, .cls-4 {
        stroke-width: 0px;
      }

      .cls-2 {
        fill: #f9faf5;
      }

      .cls-3 {
        fill: #737e43;
      }

      .cls-4 {
        fill: #e3b75e;
      }
    </style>
  </defs>
  <path class="cls-2" d="m1.73,94.92s-4.5-36.18,7.62-55.97l4.13,1.61,3.46-.84,3.78.12,5.24-9s-14.35-6.29-14.92-20.59c-.57-14.3,0,0,0,0l1.17-.69,5.5,4.58,4.37.44-.07-.89-5.98-7.42,3.11,1.03,6.19,4.61-.75-4.37-.96-6.53,2.46.77,5.26,7.06.89.27s7.94-7.36,14.54-6.74,9.33,7.07,9.33,7.07l2.83,6.62,5.77,4.57,4.4-.08.49.71-3.02,5.65-6.47,4.23-2.21,1s3.47,9.14,2.88,10.33-5.56-1.04-5.56-1.04l-1.74,2.8-3.4-1.06-6.57-4.23-.3.9,3.03,5.3,2.68,2.34,1.44.48-1.84,2.67.89,1.1,3.62,1.41,1.44,1.89,1.64,3.87,5.95-2.66,6.5-4.09,2.93-1.24,5.53-1.53-1.07-2.49-3.23-1.75-1.67-3.11-1.48-7.5,2.21-1.11,13.25-.54.65,2.97-1.44,5.48-2.03,3.29-2.43,2.47-.65,1.74,3.27.55,1.84,1.87,1.1,3.83.34,2.03-.65,6.95-1.23,1.44h-4.68l-2.38-.29h-1.54l4.02,9.07-2.33,1.94-2.73.99-3.37-.2-6.2,7.56,4.99,11.62H2.4l-.67-1.28"/>
  <path class="cls-4" d="m82.98,39.62c-3.52.46-7.03-.24-10.55-.25-.54,0-1.1-.03-1.59.23-.57.29-.94.83-.96,1.48-.03.99.7,1.67,1.45,2.18,0,.34.13.68.43.98.79.79,1.76,1.36,2.7,1.95.66.42,1.48.97,1.73,1.58.4.96,1.24,1.33,2.2.9.86-.39,1.03-1.26,1.22-2.07.07-.29.15-.47.32-.71.15-.22.47-.52.72-.74,1.17-1.02,2.7-1.83,3.62-3.27.56-.88-.15-2.41-1.3-2.26Z"/>
  <path class="cls-3" d="m22.11,64.21c.03-.74-.73-.96-1.34-.94-1.35.04-2.36.81-3.28,1.69-1.27.55-2.55,1.1-3.82,1.65-.2.09-.45.27-.63.49-.44,0-.89.12-1.24.38-.45.34-.8,1.12-.16,1.49,1.41.81,2.42,2.1,3.65,3.14.67.57,1.41,1.01,2.22,1.36.82.35,1.57.68,2.26,1.27.45.37,1.28.24,1.76.01.5-.24.86-.66.81-1.24-.3-3.09-.37-6.2-.22-9.31Z"/>
  <path class="cls-3" d="m18.87,76.98c-.17-.29-.4-.47-.67-.61.01-.07-.02-.14-.14-.18-.74-.27-1.47-.55-2.21-.82-.26-.15-.52-.31-.77-.49-1.5-1.03-2.98-2.1-4.46-3.15-.08-.06-.24-.07-.42-.06,0-.08,0-.17-.01-.25-.02-.39-1.47-.12-1.45.39.15,3.3.33,6.59.55,9.88.02.34.88.11,1,.06l.5-.23c.2-.05.39-.13.52-.24,1.15-.52,2.29-1.05,3.44-1.57.69-.32,1.39-.61,2.07-.95.29-.15.58-.31.83-.52.16-.14.4-.54.59-.61.11-.04.36-.19.44-.34.13-.09.24-.2.18-.3Z"/>
  <path class="cls-3" d="m5.71,73.26c.04-.68-1.07-.63-1.39-.15-.26-.03-.57.04-.75.19-.43.33-1.01.43-1.44.77-.44.34-.72.82-.87,1.34-.17.57-.24,1.17-.29,1.78-.21.13-.37.32-.45.56-.11.33,0,.57.14.81-.12.14-.15.31.02.49.06.06.11.14.16.2,0,.1-.02.2-.03.3-.09.33-.25.65-.26.99-.03.51.18.99.49,1.38.76.96,1.81,1.76,2.71,2.59.27.25.74.15,1.03-.09.16.09.31.19.48.26.45.19,1.24-.14,1.14-.7-.63-3.54-.85-7.13-.66-10.72Z"/>
  <path class="cls-3" d="m4.22,67.53c-.5-.26-1.01-.5-1.52-.75-.32-.16-.75-.12-1.03.1-.11.09-.25.21-.26.36,0,.13.04.27.17.33.2.1.39.19.59.29-.07.02-.14.03-.2.06-.19.11-.5.42-.28.65.01.01.02.02.03.03,0,.02,0,.04,0,.06-.03.06-.06.11-.09.17-.01.02-.02.02-.04.06-.02.02-.03.04-.04.06-.03.04-.06.09-.08.14-.13.27-.17.55.01.8.15.21.57.22.79.15.79-.28,1.58-.55,2.36-.83.17-.06.36-.13.48-.27.09-.1.17-.24.13-.38-.16-.49-.57-.8-1.01-1.03Z"/>
  <path class="cls-3" d="m18.71,60.52c-.28-.6-.95-.65-1.47-.94-.34-.2-.62-.48-.94-.7-.3-.2-.63-.35-.97-.48-1.2-.46-2.44-.83-3.68-1.2,0,0,0,0,0,0-.03-.12-.21-.15-.44-.13-.28-.09-.56-.17-.84-.26-.09-.03-.38.01-.66.09-.43.01-1.08.2-1.09.49,0,.22,0,.44,0,.67-.08.12-.09.23,0,.31-.03,2.48,0,4.96.09,7.43.02.39,1.26-.14,1.38-.24,1.15-.94,2.59-1.59,3.88-2.32,1.35-.76,2.7-1.52,4.04-2.28.34-.08.8-.24.7-.44Z"/>
  <path class="cls-3" d="m6.67,60.21c-.03-.77-.09-1.54-.21-2.3-.07-.47-.15-.99-.44-1.38,0-.09.02-.18.03-.27.04-.65-.97-.6-1.33-.2-.27.05-.53.16-.74.33-.48.4-.63,1.01-.79,1.59-.32,1.22-.62,2.46-.73,3.72-.25.12-.54.37-.42.65.6,1.44,1.66,2.54,3.06,3.23.42.21,1.06-.1,1.15-.55.33-1.58.47-3.19.41-4.81Z"/>
  <path class="cls-3" d="m27.62,72.31c-.28-.45-.44-.98-.6-1.48-.05-.16-.11-.32-.17-.47,0-.08,0-.16-.01-.25,0-.08-.07-.14-.15-.18-.06-.15-.14-.3-.21-.45-.05-.33-.16-.63-.54-.72-.4-.09-1.22.09-1.15.64.21,1.7-.12,3.41,0,5.11.02.26.47.29.64.28.28-.03.53-.16.71-.37.22-.06.43-.17.52-.36.02-.05.04-.1.07-.15,0,0,.01,0,.03-.01.01,0,.09-.04.12-.05.03,0,.12-.03.13-.03.11-.03.2-.06.3-.1.28-.11.61-.32.68-.63.06-.3-.22-.54-.36-.77Z"/>
  <path class="cls-3" d="m69.59,21.27c0-.53-.9-.5-1.23-.45-.37.06-.75.11-1.12.17-1.61.09-3.28-.54-4.75-1.26-.9-.67-1.72-1.47-2.43-2.29-.7-.81-1.34-1.66-1.97-2.52-.58-1.42-1.3-2.8-1.96-4.19,0-.1-.01-.2-.01-.31,0-.2-.18-.31-.45-.36-.2-.54-.41-1.06-.66-1.54-1.21-2.35-3.07-4.21-5.41-5.42-.14-.07-.34-.09-.57-.07-.08-.07-.14-.16-.22-.23-.19-.16-.53-.19-.91-.14-.92-.67-1.95,0-2.92.2-.03,0-.05,0-.08.01-.67,0-1.35,0-2.02.09-1.38.19-2.64.82-3.86,1.46-.74.39-1.4.84-2.03,1.33-.99.49-1.99.94-3.02,1.34-.3.12-.52.5-.33.79.03.04.07.06.1.09-.46.25-.9.51-1.29.87-.1.09-.16.18-.19.27-.29.12-.54.33-.52.61.07.95.14,1.89.21,2.84.07.98.21,1.98.18,2.96-.03.97-.38,1.82-.78,2.69-.24.53-.49,1.07-.74,1.6-.17-.09-.71.04-1.06.19-.23-.27-.48-.53-.76-.76-.14-.11-.43-.06-.66.01-1.06-1.51-2.32-3.16-3.94-3.97-.89-.44-1.89-.47-2.86-.55-1.12-.09-2.22-.33-3.28-.72-2.13-.79-3.98-2.19-5.39-3.96-.05-.06-.12-.1-.2-.12-.16-.17-1.33.01-1.4.32-.49,2.21.42,4.4,1.27,6.41.22.52.46,1.04.71,1.55-.17.31-.16.65.26.95.15.1.27.23.41.35.57,1.07,1.2,2.11,1.87,3.12,1.18,1.76,2.52,3.41,4,4.94.73.75,1.47,1.48,2.45,1.88.98.4,2.05.52,3.09.63,0,0,0,0,.01,0,.02.13.13.24.28.31.32.14.79-.07,1.02-.27,1.84-1.6,3.84-2.99,5.97-4.18.02-.01.04-.03.06-.05.36.1.79.03,1.15-.12.5,0,1-.05,1.5-.17.78-.19,1.6-.68,2.41-.66.34,0,.72-.05,1.06-.18,1.41-.09,2.82-.17,4.23-.11.68.03,1.36.1,2.03.19.78.49,1.62.88,2.52,1.14,1.38.39,2.82.56,4.17,1.04,2.31.82,4.27,2.54,5.46,4.67.33.58,1.87.2,2.57-.27,1.08-.45,1.92-1.18,2.71-2.05.54-.13,1.03-.38,1.47-.72.51-.15.97-.35,1.19-.45.99-.46,1.71-1.23,2.27-2.15.68-1.1,1.36-2.3,1.84-3.5.11-.27.14-.49.13-.68.24-.16.42-.36.42-.6Z"/>
  <path class="cls-3" d="m38.27,74.87c.12-.87.08-1.75.02-2.64-.03-.43-1.12-.25-1.39.12-.39-.03-.83.1-1.13.3-.46.3-.61.85-1,1.22-.06.06-.14.11-.21.17-.65-.07-1.33.21-1.66.83-.08.15-.12.31-.17.47-.17.02-.32.06-.4.09-1.1.47-2.19.93-3.29,1.41-.5.22-1.44.77-1.12,1.4-.07.13-.08.27.11.35,1.87.84,3.56,1.96,5.08,3.33,1.37,1.23,2.69,2.49,4.48,3.07.36.12,1.21-.12,1.16-.6-.32-3.16-.48-6.33-.48-9.51Z"/>
  <path class="cls-3" d="m52.73,78.49c.05-.16-.06-.23-.19-.28-.73-.33-1.48-.63-2.22-.94-1.26-.93-2.51-1.86-3.77-2.79-.15-.11-.45-.12-.78-.05-.1-.09-.21-.19-.31-.28-.65-.63-1.29-1.26-1.94-1.87-.05-.05-.13-.09-.23-.1-.01-.07-.02-.13-.03-.2-.09-.54-2.28-.05-2.17.58.15.85.26,1.7.37,2.56-.12.1-.2.23-.2.38.06,2.8-.08,5.6-.44,8.38-.04.33.51.38,1.06.28,0,.12,0,.23,0,.35-.02.47,2.07.07,2.16-.46.06-.33.3-.54.56-.72.29.01.6-.02.67-.04,2.38-.67,4.55-1.83,6.41-3.43.22-.06.44-.14.63-.26.12-.08.52-.36.28-.53-.06-.04-.11-.08-.16-.12.14-.12.26-.26.31-.44Z"/>
  <path class="cls-3" d="m55.5,62.22c.06-1.03-1.87-.72-2.13,0-.22.59-.63.92-1.17,1.23-.73.41-1.5.76-2.25,1.13-.76.37-1.53.72-2.31,1.07-.78.35-1.65.62-2.39,1.05-.42.25-.72.66-.7,1.09-.11.04-.21.09-.32.12-.4.14-1.03.46-.9.99.08.33.46.46.81.47.03.04.06.09.11.13,2.78,2.14,6.53,2.89,8.93,5.54.46.51,2.12.29,2.1-.56-.1-4.08-.03-8.16.21-12.24Z"/>
  <path class="cls-3" d="m65.73,65.48c-1.2-.81-2.62-1.13-3.78-2.02-.32-.25-.78-.2-1.16-.09-.02-.18-.03-.37-.05-.55-.08-.69-2.26-.22-2.17.58.42,3.72.51,7.47.27,11.21-.06.9,1.97.35,2.17-.28.05-.15.11-.28.18-.41.56-.07,1.18-.34,1.25-.72.06-.3.23-.54.43-.76.47-.24.96-.44,1.41-.65.69-.33,1.66-.72,2.05-1.42.19-.34.23-.82.21-1.28.2-.21.37-.45.46-.69.45-1.17-.33-2.27-1.27-2.9Z"/>
  <path class="cls-3" d="m69.79,75.43c-.18-.43-.35-.85-.53-1.28-.37-.89-2.05-.51-2.19.38-.02.13-.01.06-.06.17.04-.1-.12.1,0,0-.07.06-.15.11-.22.16-.03.01-.16.08-.17.09-.5.24-1.01.46-1.52.68-1.1.49-2.19.98-3.29,1.47-.12.06-.27.18-.39.32-.85.06-1.78,1.01-.8,1.51-.03.07-.06.15-.08.23-.09.58.46.83.92.97.39.12.77.26,1.13.45.8.42,1.51.98,2.09,1.66.36.41,1.02.37,1.47.15.27-.13.59-.42.62-.74.25-.12.46-.3.56-.51.12-.25.12-.22.35-.4.22-.18.46-.33.68-.52.29-.25.55-.5.75-.83.19-.3.23-.64.34-.97.1-.3.33-.52.49-.79.21-.34.31-.71.26-1.11-.05-.39-.26-.76-.4-1.12Z"/>
  <path class="cls-3" d="m66.46,89.71c-.37-.2-.62-.55-.82-.94.07-.1.14-.21.18-.35.45-1.72-1.87-2.39-2.75-3.5.16-.18.31-.37.47-.55.45-.51-.6-.6-.84-.56,0,0-.12.02-.17.03-.02,0-.04,0-.05,0-.12,0-.24-.04-.35-.08-.25-.1-.46-.24-.67-.39-.42-.32-.83-.65-1.29-.9-.04-.39-.6-.4-.91-.35-.28.04-.58.12-.82.27-.14.09-.41.25-.42.43,0,.06,0,.13,0,.19,0,.02,0,.04,0,.06-.07,1.87-.09,3.77.52,5.56.11.32.67.31.93.27.17-.03.38-.08.59-.15,0,.05,0,.1-.01.14-.59-.06-1.49.24-1.61.75-.11.48-.1,1.01.12,1.43-.09.09-.16.19-.16.29-.09,1.31.04,2.61.43,3.86.11.34.67.33.93.29.4-.05.93-.22,1.16-.57.62-.94,1.71-1.41,2.62-2.04,1.08-.74,2.07-1.58,2.97-2.53.22-.23.34-.5,0-.68Z"/>
  <path class="cls-3" d="m55.68,87.99c.1-2.06.11-4.12.05-6.18-.02-.65-2.2-.23-2.17.58,0,.02,0,.05,0,.07-.16.02-.31.07-.42.12-1.75.9-3.46,1.88-5.16,2.87-.83.48-1.65.97-2.47,1.46-.4.24-.89.46-1.09.92-.18.42-.02.83.32,1.1.65.5,1.55.47,2.21.98.67.53,1.12,1.2,1.92,1.58.73.35,1.48.5,2.13,1.01.56.44,1.09.82,1.77.99.03.3.14.6.36.88.35.46,2.08.05,2.1-.56,0-.09,0-.17,0-.26.12-.1.21-.21.22-.33.04-.46.02-.9-.08-1.35-.02-.1-.09-.17-.19-.23.09-.26.18-.5.23-.73.21-.96.23-1.96.27-2.93Z"/>
  <path class="cls-3" d="m37.64,87.49c.28-.19.42-.45.23-.79-.38-.66-1.48-1.04-2.15-1.29-.87-.32-1.77-.53-2.65-.82-.31-.11-.61-.23-.91-.37-1.41-.96-2.79-1.98-4.11-3.07-.19-.15-.66-.09-1.11.05-.03-.2-.06-.4-.08-.6-.06-.44-2.26.01-2.17.58.12.81.23,1.63.34,2.44-.27.13-.47.29-.48.45-.15,2.14,0,4.27.44,6.36,0,1.48-.08,2.95-.24,4.43-.05.47,1.76-.15,1.92-.25,1.86-1.22,3.73-2.44,5.59-3.66.43-.03.9-.2,1.24-.41.6-.36,1.2-.73,1.79-1.09.18-.05.36-.11.51-.17.1-.04.65-.3.59-.5l1.26-.77c.08-.05.41-.3.19-.41-.07-.03-.13-.07-.2-.11Z"/>
  <path class="cls-3" d="m22.83,81.56c-.04-.87-1.3-.68-1.8-.33-.42.29-.67.72-.96,1.11-.24.01-.49.07-.65.16-1.51.76-3,1.6-4.55,2.27-1.16.5-2.41.57-3.46,1.24-.17.05-.34.12-.48.22-.3.21-.64.79-.14,1.02,0,0,.02,0,.03.01-.14.22-.12.45.2.63,3.46,1.97,6.93,3.95,10.39,5.92.35.2.81.17,1.17.03.26-.1.79-.37.77-.72-.17-3.85-.34-7.7-.52-11.55Z"/>
  <path class="cls-3" d="m16.72,95.53c-.3-.5-.71-.79-1.21-1.08-.54-.31-1.08-.62-1.61-.95-1.1-.68-2.17-1.4-3.22-2.17-.22-.16-.51-.17-.79-.14,0-.15,0-.31,0-.46,0-.16-.32-.23-.41-.25-.25-.04-.56,0-.81.07-.36.1-.95.31-.96.76-.02.99-.02,1.98,0,2.97,0,.24.01.48.02.73,0,.19-.02.43.06.61.24.51,1.04.33,1.48.27,1.86-.26,3.82.1,5.68.45.39.07.87-.05,1.21-.22.13-.06.7-.37.55-.61Z"/>
  <path class="cls-3" d="m6.2,92.08c.58-.56.43-1.33.08-1.97-.21-.39-.7-.4-1.1-.32-.12.02-.25.06-.39.11-1.16.05-2.32.66-3.34,1.1-.33.15-.85.51-.57.92.42.6.67,1.32.74,2.06.03.31-.01.63.09.94.16.46.56.68,1.04.68.28,0,.6-.05.89-.18,0,.01,0,.02,0,.03.11.46.92.39,1.24.29.41-.12.96-.37.93-.88-.05-.86-.01-1.72.09-2.58.09-.06.19-.13.27-.21Z"/>
  <path class="cls-3" d="m38.96,95.02c-.66-.68-.63-1.7-.58-2.59.01-.2-.06-.33-.23-.44-.45-.27-1.03-.2-1.52-.02-.65.07-1.28.35-1.7.81-.14.16-.23.38-.17.56-.16.04-.32.08-.48.12-.62.18-1.22.42-1.8.7-.97.21-1.93.49-2.7,1.15-.19.16-.3.45-.12.66.2.24.59.24.87.22.18-.01.36-.02.54-.04.17.02.36,0,.54-.04,1.98-.13,3.96-.21,5.93,0,.39.04.9-.12,1.19-.37.19-.16.46-.49.22-.74Z"/>
  <path class="cls-3" d="m50.08,94.54c-.3-.25-.71-.31-1.07-.44-.3-.11-.6-.24-.86-.4-.63-.37-1.15-.86-1.71-1.33-.33-.27-.69-.5-1.07-.7-.15-.08-.29-.15-.44-.22-.02-.01-.04-.02-.05-.03,0,0-.02-.01-.04-.02-.07-.04-.14-.08-.2-.13.01.01-.09-.08-.13-.11-.03-.05-.13-.17-.09-.11-.11-.16-.17-.35-.38-.52-.22-.17-.48-.25-.76-.25-.05-.42-.67-.64-1.03-.61-.56.05-1.05.35-1.19.92-.18.76.06,1.52.31,2.24.25.7.41,1.36.37,2.11-.02.42-.01.83.34,1.12.41.34.96.29,1.45.29.84,0,1.68,0,2.53,0h2.53c.58,0,1.17-.04,1.57-.52.33-.4.34-.96-.08-1.3Z"/>
  <path class="cls-3" d="m68.8,95.12h0c.02-.05.06-.09.07-.15.04-.11.05-.22.01-.33-.03-.12-.09-.21-.18-.28-.08-.09-.18-.16-.29-.2-.08-.02-.17-.04-.25-.07-.2-.03-.39-.01-.58.04-.09.04-.19.07-.28.11-.09.04-.16.12-.23.18-.02,0-.04,0-.06,0-.14.02-.3.04-.44.09-.15.03-.28.09-.4.18-.12.06-.22.15-.31.26-.08.09-.14.2-.16.32-.04.11-.05.22-.01.33.03.07.06.13.1.2.1.13.22.22.37.28.08.02.17.04.25.07.14.02.28.01.42-.01.02.02.05.03.07.06-.01-.01-.03-.03-.04-.04.06.07.13.14.21.17.11.07.23.11.36.12.14.02.29.02.43-.01.15-.01.29-.06.43-.13.22-.12.46-.29.55-.54.02-.07.04-.15.06-.22.01-.16-.02-.3-.11-.42Z"/>
  <path class="cls-1" d="m35.96,96.6c-10.55,0-21.11,0-31.66,0-2.66,0-2.65-.03-3.33-2.65-.61-2.33-.87-4.71-.93-7.11-.27-11,.89-21.86,3.36-32.58,1.17-5.08,3.31-9.83,5.24-14.65.4-1,1-1.13,1.88-.73.36.17.76.28,1.09.49,1.09.68,2.15.76,3.37.21,1.34-.6,2.84-.57,4.25-.21,1.13.29,1.6-.11,1.96-1.08.81-2.19,1.92-4.23,3.39-6.04.71-.87.52-1.23-.43-1.75-4.82-2.65-8.44-6.52-11.12-11.29-1.23-2.18-1.96-4.55-2.26-7.03-.11-.87-.16-1.76-.08-2.63.1-1.07.88-1.35,1.66-.65.41.37.7.87,1.09,1.27,1.89,2.03,4.04,3.65,6.9,3.99.34.04.84.22,1-.29.11-.34-.22-.57-.44-.79-1.71-1.69-3.28-3.5-4.67-5.46-.32-.45-.63-.93-.89-1.42-.1-.18-.13-.49-.04-.67.17-.35.54-.31.83-.17.65.3,1.3.61,1.92.98,2.06,1.23,4,2.65,5.87,4.15.18.14.47.35.61.29.4-.18.14-.52.05-.79-.81-2.52-1.38-5.1-1.36-7.76,0-.74-.46-1.8.43-2.18.67-.28,1.22.6,1.77,1.02,2,1.52,3.54,3.45,4.86,5.57,1.33,2.12,1.31,2.08,3.39.5,1.21-.92,2.47-1.78,3.77-2.55,1.93-1.15,4.04-1.86,6.23-2.43,3.55-.93,6.59-.31,9.27,2.29,1.57,1.52,2.85,3.08,3.56,5.24,1.09,3.36,2.71,6.5,5.65,8.71,1.37,1.04,2.79,1.74,4.63,1.58,1.12-.09,2.57-.38,3.19,1,.53,1.18-.39,2.13-.96,3.06-1.97,3.24-4.89,5.44-8.13,7.27-.49.27-.98.55-1.5.76-.96.37-1.15.9-.65,1.84,1.17,2.21,1.82,4.6,2.27,7.04.06.31.2.61.23.93.14,1.35-.35,1.81-1.64,1.46-1.08-.29-2.15-.63-3.18-1.04-.97-.39-1.52-.17-1.77.85-.05.23-.17.45-.29.65-.45.78-.97,1.09-1.96.69-2.76-1.11-5.47-2.26-7.66-4.35-.21-.2-.49-.56-.78-.32-.27.23.02.59.15.85,1.36,2.65,2.79,5.21,5.67,6.58,1.39.66,1.36.84.38,2.11-.15.19-.31.37-.47.54-.58.61-.67,1.08.32,1.3.23.05.45.17.67.26,2.64,1.12,4.5,2.96,5.42,5.72.51,1.53.57,1.56,1.88.78,2.89-1.71,5.87-3.3,8.59-5.24,2.49-1.78,5.26-2.6,8.12-3.35.51-.13,1.25.06,1.45-.57.22-.71-.4-1.16-.87-1.57-.48-.41-1.02-.78-1.55-1.13-2.4-1.62-3.71-3.91-4.13-6.74-.22-1.5-.36-3.01-.57-4.52-.16-1.15.21-1.82,1.44-2,4.6-.68,9.21-.93,13.84-.37,1.12.14,1.57.62,1.66,1.85.32,4.83-1.47,8.73-4.86,12.02-.34.33-.73.63-1.01,1.01-.6.81-.38,1.27.65,1.35,1.1.09,2.3-.12,3.03,1.02.89,1.4,1.67,2.77,2.01,4.5.6,3.13.17,6.14-.41,9.16-.49,2.52-.83,2.75-3.36,2.68-1.68-.05-3.35-.16-5.02-.33-1.05-.11-1.1.31-.74,1.08.99,2.1,1.98,4.19,2.96,6.29.69,1.48.69,1.49-.71,2.44-1.81,1.23-3.69,2.28-5.99,2.04-.9-.1-1.51.25-2.08.89-1.49,1.67-2.96,3.36-4.54,4.94-.91.91-.86,1.7-.35,2.77,1.31,2.74,2.54,5.51,3.78,8.28,1.05,2.36,1.03,2.37-1.45,2.36-9.03-.04-18.07-.08-27.1-.11-1.6,0-3.2,0-4.8,0,0-.04,0-.08,0-.12Zm-5.77-58.23c-.05-.16.08-.15.06-.06-.08.3.19-.01-.13.02.15-.47.11-.93-.08-1.39-.76-1.88-.84-3.84-.77-5.83.02-.63.52-1.6-.36-1.83-.66-.17-1.18.66-1.65,1.18-.8.91-.46,1.95-.2,2.93.54,1.96,1.85,3.46,3.12,4.98Zm-1.95-20.33h.08s-.13.06-.13.06c-.2-1.81-1.14-3.47-2.28-4.6-2.31-2.28-4.85-4.39-7.69-6.04-.24-.14-.54-.5-.81-.21-.26.28.06.57.24.81,2.93,3.96,6.68,7.05,10.58,9.98Zm-16.65,49.8c-.16.5-.1.91.41,1.22,2.87,1.73,5.72,3.48,8.58,5.21.85.51,1.15.11,1.13-.74-.05-2.71-.1-5.41.15-8.12.17-1.83-.86-2.37-2.49-1.5-.42.22-.83.48-1.26.69-2.21,1.07-4.14,2.71-6.59,3.31.76-1.2,2.05-1.73,3.19-2.43,1.49-.93,3.06-1.73,4.59-2.6.36-.2.72-.44.42-.91-.25-.4-.67-.4-1.06-.21-.57.28-1.13.6-1.69.9-2.38,1.31-4.7,2.73-7.21,3.79-1.22.52-1.32.45-1.56-.83-.44-2.37-.48-4.76-.42-7.17.01-.59.31-1.62-.34-1.64-.53-.02-.3,1.09-.34,1.7-.13,2.07-.18,4.15-.35,6.22-.14,1.71-.47,1.87-1.89,1.13-.57-.3-1.11-.64-1.67-.94-.29-.15-.62-.25-.79.14-.12.28-.22.66.09.88.79.54,1.64.99,2.42,1.54.5.35,1.28.6,1.28,1.31,0,.78-.87.82-1.41,1.09-.64.31-1.31.6-2,.8-.9.26-1.29.8-1.34,1.72-.22,3.58-.7,7.14-.59,10.74.08,2.69-.44,2.92,2.77,1.85.37-.13.7-.39,1.08-.53.89-.33,1.15-.97,1.12-1.88-.09-2.95-.13-5.91-.2-8.87-.02-.74-.3-1.06-1.04-.61-.61.38-1.22.75-1.85,1.11-.21.12-.49.18-.62-.08-.12-.24.07-.45.26-.59.71-.51,1.42-1.04,2.16-1.51.45-.29.87-.87,1.47-.62.77.32.45,1.09.49,1.69.02.24-.01.48,0,.72.06,2.72.12,5.43.2,8.15.01.42-.12,1.06.62,1,.5-.04.92-.33.94-.9.02-.48-.04-.96-.04-1.43-.04-2.8-.11-5.59-.09-8.39.01-2.3.27-2.47,2.28-1.33,2.78,1.58,5.49,3.27,8.27,4.85.68.39,1.67,1.39,2.22.29.36-.72-1.01-.97-1.62-1.35-2.64-1.65-5.35-3.19-7.97-4.87-1.13-.73-1.04-.95.32-1.99Zm26.5,19.47c.58-.2.85.2.54.54-.53.57-1.25.98-1.93,1.4-2.98,1.87-5.97,3.71-8.95,5.57-.26.16-.66.31-.55.67.11.35.52.25.82.25,2.71.02,5.43.03,8.14.05,1.97.01,2.57.18,1.92-2.2-.04-.15-.05-.32-.08-.47-.25-1.35-.27-1.39-1.41-.78-1.84.98-3.69,1.9-5.63,2.65-.22.08-.5.23-.62-.06-.04-.11.19-.42.37-.51,2.21-1.12,4.49-2.08,6.63-3.35,1.2-.71,1.35-.59,1.63.91.16.86.24,1.74.37,2.61.07.46.05,1.05.7,1.06.64,0,.71-.58.72-1.04.02-1.28-.07-2.56-.04-3.83.04-1.66.56-1.95,2.1-1.24.29.13.57.3.82.49,2.5,1.84,5.37,3.17,7.6,5.39.31.31.66.42,1.07.42.48,0,1.05.02,1.24-.51.24-.65-.43-.73-.79-.96-3.08-1.86-6.17-3.69-9.23-5.57-1.11-.68-1.11-.96,0-1.63,2.8-1.69,5.62-3.36,8.47-4.98.97-.55,2.02-.95,3.05-1.39.87-.38,1.41-.15,1.4.87-.03,2.16.19,4.31-.09,6.47-.14,1.11-.17,2.23-.18,3.35,0,.63.44.6.79.3.77-.64,1.19-1.41,1.07-2.5-.24-2.3-.54-4.6-.37-6.93.12-1.75.27-1.89,1.8-1.08,1.34.71,2.6,1.56,3.91,2.32.46.27.96.23,1.25-.27.35-.58-.13-.86-.53-1.11-1.21-.78-2.47-1.48-3.63-2.32-1.1-.79-1.21-1.56-.26-2.32,2.14-1.71,4.66-2.75,7.13-3.86.11-.05.35,0,.43.1.22.23.03.43-.16.54-.48.29-.98.53-1.47.8-1.69.91-3.37,1.82-5.06,2.74-.59.32-.92.73-.2,1.24,1.3.93,2.63,1.82,3.94,2.73.69.48,1.19.13,1.66-.37.98-1.06,1.92-2.15,2.94-3.16.75-.74.96-1.39.18-2.24-.58-.63-.53-1.47-.55-2.27-.07-2.17-1.34-2.93-3.23-1.98-2.23,1.11-4.19,2.63-6.2,4.07-.8.58-1.08.4-1.2-.51-.32-2.3-.25-4.63-.36-6.94-.07-1.36-.15-2.72-.16-4.07-.02-2.31.4-2.6,2.49-1.76.59.24,1.17.51,1.76.76.35.15.75.53,1.08.24.4-.36.08-.91.05-1.36-.06-.72-.73-.76-1.21-.99-.78-.37-1.23-.95-1.48-1.77-.17-.57.54-1.39-.22-1.67-.58-.22-1.13.48-1.68.77-.56.3-1.08.69-1.64.99-.79.42-1,.95-.99,1.91.08,4.55-.43,9.1.06,13.65.14,1.29-.02,1.31-1.31.84-4.24-1.55-7.71-4.52-11.78-6.4-.68-.31-.58-.87-.1-1.37.96-.99,2.19-1.59,3.3-2.37,1.82-1.27,3.99-2.02,5.56-3.66l.07-.06-.02.11c-1.12-.11-1.97.6-2.87,1.05-14.65,7.28-29.31,14.56-43.9,21.95-1.39.71-3.58.57-4.01,2.52-.36,1.62.25,3.32.49,4.98.08.55.3,1.08.41,1.62.19.95.76,1.28,1.7,1.28,3.91,0,7.83.03,11.74.04.27,0,.75.12.73-.34,0-.24-.31-.54-.56-.7-1.66-1.11-3.31-2.24-5.02-3.26-1.78-1.06-1.85-.98-1.92,1.2-.02.56.01,1.12-.04,1.68-.02.27.02.73-.48.6-.16-.04-.36-.34-.36-.53-.02-1.36-.03-2.72.03-4.07.05-1.14.31-1.3,1.29-.74,2.29,1.3,4.76,2.44,6.61,4.3,1.65,1.66,3.4,2.13,5.56,1.92.63-.06,1.28-.03,1.92-.02.76.02,1.14-.21,1.11-1.1-.09-2.47-.07-4.94-.1-7.41-.03-2.24.15-4.47.39-6.69.11-1.04.6-1.2,1.45-.76.28.15.56.3.84.46,3.17,1.85,6.34,3.72,9.52,5.56.71.41,1.3.92,1.77,1.58-1.38-.62-2.77-1.21-4.12-1.87-2.51-1.23-4.86-2.73-7.18-4.28-1.57-1.05-1.78-.95-1.82,1-.08,3.51-.1,7.01-.12,10.52,0,.47.07.95.16,1.42.17.83.48.99,1.3.49,3.96-2.38,8.04-4.56,11.74-7.33ZM46.82,2.62c-5.57.42-10.2,2.88-14.25,6.62-.47.44-.59.96-.38,1.52,1.11,3.03.07,5.79-.97,8.58-.4,1.08-.91,1.12-1.79.7-.81-.38-1.51-.9-2.18-1.47-1.03-.88-2.08-1.75-3.09-2.66-.63-.56-1.31-.84-2.17-.81-3.52.13-6.31-1.39-8.72-3.83-.41-.42-.73-1.34-1.43-1.01-.63.3-.17,1.15-.21,1.75,0,.15.07.31.09.47.64,4.43,2.74,8.14,5.69,11.4,1.88,2.07,3.89,4.03,6.34,5.44,1.87,1.07,2.07,1.02,3.76-.4,1.91-1.61,3.91-3.03,6.39-3.65,2.73-.69,5.52-1.2,8.3-.83,5.55.75,11.15,1.56,14.82,6.59.55.76,1.2.66,1.89.3,2.13-1.1,4.22-2.27,6.03-3.87,1.57-1.39,2.91-2.97,3.85-4.85.53-1.06.34-1.44-.8-1.63-.47-.08-.96-.09-1.43-.05-1.69.15-3.09-.51-4.46-1.43-3.3-2.21-5.11-5.54-6.31-9.09-.99-2.94-2.78-4.94-5.19-6.63-1.16-.81-2.38-1.28-3.82-1.18Zm-3.74,50.96c-.09.72-.44,1.44-.86,2.12-1.15,1.88-2.75,3.29-4.56,4.53-1.24.85-1.24,1.39-.15,2.38,2.25,2.03,6.32.86,7.07-2.07.45-1.77,1.39-3.21,2.71-4.43.29-.27.67-.45,1.09-.22.41.22.48.61.48,1.02,0,1.18-.51,2.18-1.19,3.07-.63.82-1.37,1.56-2.04,2.34-.29.33-.32.74-.11,1.11.27.48.71.31,1.05.14,2.72-1.35,5.42-2.73,8.13-4.09.54-.27.89-.63.77-1.32-.62-3.63-4.78-6.94-8.19-6.21-.61.13-1.2.68-1.81.39-.66-.31-.45-1.13-.67-1.71-1.31-3.41-4.07-4.71-7.5-3.47-.6.22-1.15.55-1.73.81-1.25.57-1.43.47-1.76-.91-.04-.15-.03-.32-.07-.47-.54-2.6-1.88-3.69-4.51-3.6-1.38.04-2.69.42-3.91,1.03-.85.42-1.33.44-1.87-.57-1.5-2.8-5.13-4.2-8.21-3-1.52.59-2.66.46-4.01-.25-1.47-.78-1.56-.7-2.22.9-1.07,2.58-2.11,5.18-3.09,7.8-.23.61-.87,1.44-.24,1.96.69.56,1.5-.16,2.22-.41.69-.24.84-.86.91-1.54.16-1.6.56-3.14,1.23-4.61.3-.66.64-1.3,1.23-1.75.73-.55,1.44-.31,1.6.58.14.79.09,1.6-.13,2.38-.42,1.48-1.03,2.86-2.06,4.02-.44.49-.8.97-.59,1.71.39,1.39,1.72,2.46,3.18,2.48,1.45.02,1.76-.32,2.3-2.35.53-2.02,1.35-3.93,2.61-5.62.33-.45.67-1.01,1.31-.89.74.14.9.84,1.03,1.47.16.8.06,1.58-.24,2.35-.58,1.52-1.49,2.81-2.66,3.94-1.22,1.18-1.16,1.81.11,2.85,1.03.84,2.16.84,3.4.52,1.21-.32,1.22-1.26,1.41-2.22.53-2.62,2.12-4.61,4.04-6.36.35-.32.77-.63,1.29-.37.5.25.57.75.57,1.23,0,1.15-.4,2.19-.97,3.17-.76,1.33-1.84,2.41-2.93,3.46-1.13,1.09-1.08,1.66.18,2.61.66.49,1.4.76,2.22.83,1.37.11,1.64-.1,1.63-1.52-.01-2.64,1.07-4.79,2.84-6.65.46-.48,1.01-.82,1.71-.53.67.28.89.86.93,1.54.06,1.07-.28,2.04-.74,2.99-.67,1.38-1.55,2.61-2.6,3.72-.42.45-.63.88-.26,1.48.7,1.15,2.08,1.68,3.52,1.52,1.45-.16,1.39-1.16,1.59-2.22.58-3.03,2.41-5.18,5.16-6.51,1.31-.63,2.37.03,2.37,1.41Zm-2.06-28.34c-.67.03-1.23.03-1.78.08-1.74.16-1.84.19-2.14,1.94-.26,1.49-.52,3.01-.51,4.52.03,3.07.55,6.05,2.4,8.63.21.3.73.49.48.96-.23.44-.69.28-1.07.25-4.77-.43-9.23-1.78-13.25-4.46q-1.98-1.32-2.95.92c-.03.07-.06.15-.1.22-.57,1.03-.59,1.85.54,2.64.81.57,1.25,1.91,2.07,2.14.84.24,1.93-.51,2.94-.72,3.7-.76,5.66.36,6.91,4,.27.77.58.73,1.21.51,5.59-1.92,6.91-1.45,9.87,3.62.45.77.95.71,1.59.52.85-.26.54-.83.31-1.34-.99-2.16-1.57-4.49-3.02-6.47-1.33-1.81-2.07-3.96-2.53-6.17-.08-.38-.23-.86.26-1.03.48-.16.66.33.85.65,2.04,3.4,5.15,5.37,8.77,6.69q1.4.51,2.05-.89c.7-1.51.78-1.56,2.34-1.11.84.24,1.67.56,2.51.79,1.21.33,1.45.19,1.27-1.08-.45-3.2-1.54-6.19-3.32-8.9-.34-.52-.61-1.39-1.24-1.33-.66.07-.56,1-.72,1.55-1.23,4.09-2.54,4.72-6.48,3.02-.58-.25-1.15-.56-1.69-.89-1.04-.64-1.88-1.48-2.41-2.6-.51-1.06-.29-1.45.94-1.45,2.75,0,5.22.7,7.04,2.95.24.3.52.76.92.52.29-.17.48-.63.59-1,.3-.97-.42-1.26-1.12-1.5-2.26-.78-4.52-1.58-6.81-2.28-.94-.29-1.27-.78-1.21-1.73.11-1.85.08-1.86-1.71-2.07-.63-.07-1.27-.08-1.81-.12ZM9,51.15c-1.55.42-2.68.6-3.69,1.04-.9.4-1,1.43-.96,2.28.05.98.98.62,1.52.65,2.52.13,4.8,1.06,7.14,1.89,7.07,2.51,11.57,7.66,14.75,14.19.67,1.38.63,1.43,1.96.78,4.44-2.18,8.87-4.37,13.29-6.6.64-.32,1.89-.53,1.44-1.51-.39-.86-1.27,0-1.89.19-2.52.81-4.76.64-6.38-1.7-.51-.74-1.05-.85-1.82-.64-1.74.46-3.16-.14-4.27-1.45-.61-.72-1.21-1.14-2.22-1.05-1.86.17-3.47-.46-4.64-1.97-.47-.6-.89-.75-1.62-.49-2.25.81-4.07.15-5.45-1.77-.37-.52-.83-.69-1.44-.56-2.43.52-4.22-.27-5.3-2.56-.17-.36-.38-.72-.4-.71Zm71.74,14.01c.4.02.8.05,1.2.05,2.04.03,2.06-.04,2.58-1.96.52-1.94.23-3.97.79-5.9.12-.41-.04-.97-.23-1.38-.31-.66-.42-1.25-.38-2.03.14-2.4-1.85-4.29-4.27-4.3-3.4-.02-6.63.85-9.85,1.83-1.04.31-1.2.84-.74,1.78,1.12,2.3,2.18,4.62,3.27,6.94q2.24,4.76,7.64,4.98Zm-11.71,2.24c-.58.06-1.36-.46-1.75.21-.41.73-.2,1.55.36,2.23.1.12.18.26.28.39,1,1.34,1.28,1.4,2.61.29.82-.68,1.72-1.15,2.75-1.38.83-.19,1.65-.2,2.02.74.33.85-.06,1.55-.73,2.11-.85.71-1.87.84-2.93.84-.6,0-1.35-.3-1.61.58-.23.8-.17,1.6.37,2.27.52.66,1.26.93,2.09,1.03,1.86.21,3.41-.56,4.94-1.48.99-.6,1.24-1.25.68-2.36-1.63-3.29-3.14-6.63-4.71-9.96-1.39-2.96-2.78-5.93-4.2-8.88-.64-1.32-.7-1.33-1.93-.63-1.25.71-2.48,1.46-3.69,2.24-1.13.72-1.81,1.8-2.07,3.1-.16.81.25,1.37.99,1.71.66.31,1.03-.06,1.42-.52.41-.49.84-.96,1.3-1.4.77-.73,1.69-1.21,2.72-1.45.73-.17,1.5-.18,1.92.56.43.77-.03,1.39-.63,1.85-.51.38-1.05.75-1.62,1-.8.35-1.65.59-2.48.88-.38.13-.83.24-.88.7-.12,1.33.65,2.25,1.52,3.11.8.78,1.4.19,2.09-.26,1.21-.8,2.51-1.4,4.03-1.3.59.04,1.14.2,1.38.78.23.57-.01,1.08-.38,1.55-.99,1.28-2.35,1.55-3.88,1.46Zm-13.84-.08c0-1.51,0-3.03,0-4.54,0-.39.13-.86-.22-1.11-.39-.28-.76.07-1.05.32-1.98,1.64-4.27,2.79-6.44,4.13-1.02.63-2.02,1.28-3.03,1.92-.78.5-.72.93.08,1.36,1.26.68,2.53,1.36,3.75,2.1,1.91,1.16,3.77,2.4,5.68,3.54.97.58,1.31.38,1.21-.78-.2-2.31-.3-4.61.01-6.93Zm.48,17.77s-.06,0-.09,0c0-.8.03-1.6,0-2.4-.06-1.16-.27-1.32-1.29-.75-3.14,1.74-6.25,3.56-9.37,5.34-.61.35-.85.78-.12,1.22,2.89,1.71,5.62,3.68,8.65,5.15,1.32.64,1.63.43,1.76-1.14.2-2.47.33-4.94.48-7.42Zm21.82-45.49c0,.06,0,.12,0,.18,1.04,0,2.08.02,3.12,0,4.33-.12,4.23.81,4.42-4.53.06-1.63-.16-1.84-1.8-1.37-3.99,1.13-7.97,1.65-12.04.47-.98-.28-1.31.21-1.2,1.14.1.87.18,1.75.27,2.62.1,1.04.62,1.54,1.73,1.51,1.84-.05,3.67-.01,5.51-.01ZM31.86,13.65c-.15-.78-.22-1.58-.45-2.34-1.02-3.45-2.97-6.32-5.58-8.77-.23-.22-.49-.42-.76-.58-.55-.34-.91-.17-.95.48-.02.47.05.95.08,1.43.24,3.32,1.3,6.39,2.78,9.33.79,1.57,1.52,3.16,2.58,4.58.56.75.96.67,1.32-.18.53-1.26.97-2.53.97-3.94Zm45.68,27.01s0-.06,0-.1c-1.27,0-2.55-.05-3.81.02-.89.05-2.16-.58-2.57.41-.4.96.57,1.89,1.19,2.7.28.38.64.71,1.01,1,1.43,1.11,3.08,1.97,3.94,3.72.3.6,1.11.56,1.31-.08.58-1.78,2.07-2.78,3.18-4.1.66-.79,1.26-1.64,1.81-2.51.39-.61.25-1.06-.59-1.06-1.83,0-3.66,0-5.48,0Zm-11.42,27.9c.67-1.47-.22-2.49-1.37-3.09-1.72-.91-3.55-1.6-5.39-2.25-.63-.22-.7.5-.66.96.31,3.18.27,6.37.39,9.55.04,1.1.36,1.22,1.33.53,1.43-1.02,2.83-2.07,4.41-2.85,1.16-.58,2.11-1.25,1.28-2.84Zm-56.91,7.51c0,1.91,0,3.35,0,4.79,0,.93.43,1.12,1.21.74,2.57-1.28,5.14-2.56,7.72-3.84.71-.35.8-.73.06-1.14-1.32-.74-2.68-1.42-3.98-2.2-1.3-.78-2.54-1.66-3.82-2.47-.38-.24-.81-.7-1.27-.36-.32.23-.17.74-.14,1.14.09,1.27.17,2.55.23,3.35Zm-.35-14.63s.04,0,.06,0c0,1.19,0,2.38,0,3.57,0,.66.32.86.9.54,2.57-1.41,5.15-2.82,7.71-4.26.79-.44.83-1.01.03-1.37-2.45-1.12-4.91-2.22-7.52-2.96-.77-.22-1.22.01-1.2.91.03,1.19,0,2.38,0,3.57Zm50.04,31.52c0,.89-.02,1.29,0,1.69.02.37-.17.84.3,1.05.46.22.72-.14.98-.44.95-1.09,2.16-1.87,3.3-2.74q3.12-2.38,1.32-5.83c-.07-.14-.12-.29-.2-.43-.3-.52-.66-.66-1.11-.17-.92.99-1.79,2.03-2.77,2.96-1.29,1.22-2.11,2.57-1.81,3.92Zm-25.73-62.05c.1,2.64.42,5.25,1.55,7.68.4.86.86,1.74,1.95,1.94.31.05.69.12.88-.19.09-.15.02-.46-.07-.65-1.94-3.97-2.09-8.13-1.3-12.39.08-.45.4-.99-.03-1.34-.5-.41-1.05.03-1.57.15-.66.15-.81.7-.95,1.25-.28,1.17-.53,2.34-.46,3.55ZM6.23,60.27c0-.87-.02-1.74,0-2.62.02-.8-.16-1.35-1.1-1.49-1.07-.16-1.42.4-1.58,1.29-.29,1.64-.62,3.27-.87,4.91-.15.98,1.71,2.71,2.72,2.62.44-.04.47-.38.5-.68.12-1.34.22-2.69.32-4.03Zm38.28,35.56c1.48.03,2.68.05,3.83-.32.28-.09.69-.21.77-.42.13-.31-.24-.54-.5-.72-1.19-.79-2.35-1.64-3.6-2.34-1.07-.6-2.03-2.25-3.13-1.66-.84.45-.18,2.21-.16,3.39.03,2.03.06,2.03,2.11,2.08.32,0,.64,0,.67,0Zm-12.02-67.69c.17-.6.16-1-.13-1.11-.25-.09-.62.07-.91.19-.78.31-.98,1.02-1.08,1.74-.3,2.07-.37,4.15.05,6.2.34,1.66,1.08,3.18,2.38,4.33.28.25.68.52,1.06.27.32-.21.14-.58.02-.87-1.46-3.55-1.92-7.22-1.38-10.74Zm21.7,1.73c0-.34-.12-.78-.58-1.06-2.13-1.28-4.47-2.01-6.84-2.66-.79-.22-1.07.46-1.27,1.1-.2.63.17.87.65,1.04,2.39.84,4.78,1.67,7.18,2.49.68.23.82-.21.86-.91Zm5.1,52.26c-.77.03-.75.48-.76.86-.06,1.76.12,3.5.34,5.24.04.3-.03.68.38.76.36.07.56-.25.77-.47.82-.87,1.63-1.75,2.42-2.64,1.15-1.3,1.15-1.31-.4-2.19-.96-.55-1.93-1.09-2.75-1.55Zm-22.38-22.57c.08-.03.16-.05.23-.09,2.13-1.36,3.91-3.04,4.87-5.42.31-.78-.18-1.27-.95-1.08-1.91.48-4.68,4.04-4.65,5.98,0,.32.06.64.5.61Zm-12.44,10.21c.01-1.03.23-2.02-.58-2.78-.21-.2-.4-.56-.74-.39-.16.08-.29.39-.3.6-.15,2.45-.29,4.9-.4,7.35,0,.2.16.58.27.59.29.02.63-.05.88-.19.46-.26.49-.76.53-1.25.1-1.34.22-2.68.33-3.93Zm4.95-13.75c.04.41.02.83.42,1.06.1.06.33.02.41-.06,1.44-1.62,2.77-3.3,2.9-5.59.02-.3-.04-.65-.42-.76-.35-.1-.63.06-.85.29-1.36,1.43-2.19,3.11-2.44,5.06Zm33.15,39.88c2.21.07,3.27-1.68,4.58-2.99.37-.37.12-.93-.22-1.29-.35-.38-.72-.13-1.05.12-1.27.97-2.54,1.93-3.8,2.91-.3.23-.78.47-.6.92.17.42.68.27,1.07.33ZM27.13,48.39c-.15.04-.33.05-.43.14-1.5,1.36-2.6,2.99-3.18,4.94-.06.19.09.44.15.66.22-.08.5-.1.64-.26.65-.69,1.31-1.39,1.88-2.15.57-.76,1.11-1.56,1.23-2.54.04-.3.08-.63-.29-.79Zm.79-11.24c-.1-.18-.2-.39-.33-.59-.51-.81-.95-1.65-1.27-2.55-.17-.47-.07-1.29-.74-1.28-.55,0-.8.72-1.09,1.18-.28.44-.81.93-.23,1.47.94.86,2.03,1.52,3.17,2.09.23.12.43.02.48-.31Zm-8.17,9.95c-.08-.26-.14-.58-.3-.83-.04-.06-.51,0-.61.13-1.11,1.55-2,3.21-2.32,5.11-.07.4.3.55.61.27,1.4-1.23,2.29-2.76,2.61-4.68Zm56.59-12.84c1.22-.19,2.63-.39,4.04-.63.19-.03.52-.31.5-.4-.07-.27-.38-.22-.61-.21-1.43.05-2.86.05-4.29.18-.95.08-1.98-.31-2.82.46.92.57,1.98.38,3.18.6Zm-18.36,59.98c-.07-.5.37-1.21-.31-1.46-.49-.17-.76.45-1.08.78-.44.46-.87.93-1.25,1.44-.18.24-.35.56.09.77,1.29.62,2.48-.09,2.55-1.53Zm11.47-27.72c.81.03,1.37-.04,1.84-.32.47-.28,1.1-.6.97-1.2-.16-.73-.89-.49-1.38-.41-.61.1-1.21.34-1.79.59-.34.15-.81.37-.76.8.07.65.7.44,1.12.54ZM1.84,68.64c-.09,1.51.11,1.64,1.44,1.03.43-.2.85-.43,1.27-.66.35-.2.42-.47.04-.7-.61-.37-1.21-.75-1.86-1.06-.48-.23-.72.08-.78.55-.04.31-.08.63-.11.84Zm10.2-24.14c-.05-.2-.03-.66-.21-.76-.26-.13-.57.14-.72.44-.59,1.12-1.03,2.29-1.18,3.55-.02.2.03.52.17.62.22.16.42-.08.56-.27.79-1.02,1.1-2.23,1.39-3.58Zm53.59,15.84c1.18-.31,2.31-.79,3.19-1.74.09-.09.14-.38.09-.42-.18-.12-.42-.27-.61-.24-1.19.22-2.18.83-2.98,1.73-.09.1-.16.31-.12.42.03.1.24.14.42.24Zm6.49,11.58c.6,0,1.13-.1,1.6-.41.39-.26.82-.55.65-1.11-.2-.63-.73-.47-1.16-.32-.51.18-1,.42-1.48.68-.26.14-.56.36-.5.71.1.53.58.36.88.44Zm-46.16-1.63c-.33-.05-.39.19-.42.41-.05.46-.1.93-.1,1.4,0,.53-.18,1.12.23,1.56.09.1.48.05.65-.06.64-.42.53-1.07.38-1.69-.11-.45-.25-.9-.42-1.34-.05-.12-.22-.19-.33-.29Zm21.89-12.61c-.06-.31-.26-.47-.48-.29-.86.73-1.42,1.67-1.66,2.78-.04.2.16.46.43.24.88-.72,1.42-1.66,1.7-2.72Zm19.39,38.21c.52-.12,1.4.26,1.29-.8-.04-.42-.2-1.08-.76-1.02-.74.07-1.41.66-1.58,1.29-.18.65.62.45,1.04.53Zm-17.63-47.38c-.18-.56-.77-.76-1.32-1-.23-.1-.52,0-.48.26.1.62.22,1.33.85,1.58.34.13.67-.31.94-.84Zm1.38-14.77c-.47.02-.78.34-.87.7-.21.89.56.75,1.04.85.31.06.73.02.75-.33.03-.6-.37-1.01-.92-1.22Zm-4.41-1.44c.05-.62-.17-.95-.8-.89-.23.02-.51.05-.49.36.03.52.36.9.81,1.07.46.17.41-.3.48-.54Z"/>
  <path class="cls-1" d="m41.22,82.74c-.2-3.19-.43-6.62-.6-10.04-.03-.67-.39-1.56.36-1.98.64-.36,1.12.4,1.67.67,3.68,1.8,6.83,4.41,10.25,6.62,1,.64,1.03,1.13.06,1.81-1.1.78-2.3,1.43-3.48,2.1-1.95,1.1-4.05,1.87-5.96,3.07-1.88,1.18-2.3.91-2.3-1.29,0-.24,0-.48,0-.95Zm.52-3.8c0,1.45-.05,2.97.02,4.48.06,1.27.26,1.41,1.22.83,2.26-1.36,4.73-2.32,7.04-3.58.63-.34,1.23-.75,1.81-1.16.51-.36.49-.76-.03-1.13-2.99-2.12-5.93-4.33-9.2-6.04-1-.52-1.32-.33-1.26.79.1,1.91.26,3.82.4,5.8Z"/>
  <path class="cls-1" d="m38.93,77.36c.11,2.49-.02,4.89.29,7.28.1.79-.22.99-.97.64-3.71-1.72-7.12-3.95-10.5-6.22-.82-.55-.79-1.16,0-1.69,1.2-.79,2.43-1.54,3.65-2.29,1.63-1,3.28-1.99,4.91-2.99.34-.21.66-.47,1.02-.62,1.24-.52,1.8-.17,1.8,1.19,0,1.6-.14,3.19-.21,4.69Zm-.47.79s-.05,0-.07,0c0-1.67-.01-3.35,0-5.02.01-1.03-.41-1.06-1.15-.57-1,.65-2.01,1.28-3.04,1.9-1.7,1.03-3.41,2.05-5.12,3.07-.92.55-.79,1,.07,1.51,2.67,1.59,5.29,3.25,7.97,4.83.96.57,1.29.38,1.33-.71.05-1.67.01-3.34.01-5.01Z"/>
  <path class="cls-1" d="m22,93.99c-4.1-1.95-8.18-3.91-12.06-6.28-.62-.38-.89-.78-.1-1.17,3.35-1.66,6.72-3.29,10.09-4.92.21-.1.55-.21.64.02.14.36-.24.49-.5.65-2.11,1.29-4.29,2.44-6.54,3.47-.51.23-1.03.44-1.52.7-.98.52-1.04.89-.03,1.44,2.3,1.27,4.67,2.4,6.98,3.65,1.16.63,2.57.99,3.01,2.5l.02-.06Z"/>
  <path class="cls-1" d="m21.98,94.05c.68-.82.53-1.79.5-2.74-.09-2.7-.19-5.4-.27-8.1-.02-.55.02-1.11.06-1.67.02-.23.1-.51.41-.46.27.04.29.32.3.54.15,3.97.33,7.94.42,11.91.03,1.3-.74.9-1.4.45l-.02.06Z"/>
  <path class="cls-1" d="m6.66,91.93c-.18.75.1,2.18-.43,2.1-.96-.14-.42-1.36-.45-2.11-.03-.65-.17-1.91.37-1.86,1.06.1.27,1.24.51,1.87Z"/>
  <path class="cls-1" d="m53.29,41.13c-.06.65-.33.96-.93.9-.16-.01-.32-.03-.47-.08-2.74-1.03-4.95-2.79-6.76-5.07-.19-.24-.32-.58-.05-.86.28-.3.56-.11.84.05,2.13,1.23,4.26,2.46,6.38,3.69.56.32,1.11.66.98,1.37Z"/>
</svg>