<?xml version="1.0" encoding="UTF-8"?>
<svg id="Layer_1" data-name="Layer 1" xmlns="http://www.w3.org/2000/svg" viewBox="0 0 84 90.39">
  <defs>
    <style>
      .cls-1, .cls-2, .cls-3 {
        stroke-width: 0px;
      }

      .cls-2 {
        fill: #f9faf5;
      }

      .cls-3 {
        fill: #e3b75e;
      }
    </style>
  </defs>
  <path class="cls-2" d="m83.16,76.06c-.17-2.84-.56-5.39-1.05-7.61-1.12-6.36-4.23-18.42-13.95-29.39-3.97-4.47-8.1-7.71-11.64-10.01l-3.03-1.25,2.52-4.27.44-2.46-3.35-.55,1.35-2.61-1.14-5.17-.65-2.17c.3-.4.83-.98,1.64-1.18,1.39-.35,2.7.66,3.36,1.18,3.55,2.74,8.52,11.47,9.17,12.63,2.76-9.19-1.63-18.53-9.17-21.63-5.67-2.33-12.55-.9-17.59,3.55l-6.07,3.06-2.78,6.18h-6.57l1.07,13.9-3.04.89-1.61,2.61-1.97,1.11-9.24-1.46-7.25,1.52-2.61,7.31,1.24,15.18,5.4,34.17h75.48c.76-3.53,1.37-8.15,1.05-13.52Zm-53.23-29.34l-2.35-.4-.94,2.5,4.69,8.91-7.79,12.71-9.6-17.63-1.47-4.29,3.34-5.56c-.17-.89-.33-1.79-.5-2.68-.33-.65-.65-1.3-.98-1.95l6.94.48-.05,1.55,6.8-1.9,4.73.28-1.75.76-3.46,1.45,2.38,5.78Z"/>
  <path class="cls-3" d="m82.19,65.38l-.23-.3c-.19-.19-.41-.31-.66-.39-.22-.07-.44-.13-.66-.2-.2-.06-.4-.07-.6-.03-.2,0-.39.07-.56.18-.17.09-.32.22-.42.39-.13.15-.22.31-.27.51-.02.13-.04.27-.05.4,0,.27.07.52.2.76l.23.3c.19.19.41.31.66.39l.66.2c.2.06.4.07.6.03.2,0,.39-.07.56-.18.17-.09.32-.22.42-.39.13-.14.22-.31.27-.51.02-.13.04-.27.05-.4,0-.27-.07-.52-.2-.76Z"/>
  <g>
    <path class="cls-3" d="m75.21,52.35c-5.86,4.77-12.06,8.9-18.37,13.03-6.38,4.17-12.76,8.33-19.13,12.5-1.61,1.05-.11,3.65,1.51,2.59,6.52-4.26,13.03-8.51,19.55-12.77,6.4-4.18,12.64-8.4,18.57-13.23,1.5-1.22-.64-3.33-2.12-2.12Z"/>
    <path class="cls-3" d="m72.47,47.19c-5.98,3.7-10.84,8.9-16.61,12.89-5.88,4.06-12.21,7.4-18.12,11.42-1.59,1.08-.09,3.68,1.51,2.59,5.91-4.02,12.24-7.36,18.12-11.42,5.77-3.99,10.64-9.19,16.61-12.89,1.64-1.02.13-3.61-1.51-2.59Z"/>
    <path class="cls-3" d="m69.31,42.94c-4.88,4.39-9.88,8.67-15.26,12.44-2.69,1.88-5.5,3.47-8.39,5.02-3.01,1.62-5.78,3.58-8.54,5.6-1.54,1.13-.05,3.73,1.51,2.59,2.76-2.01,5.53-3.98,8.54-5.6,3.03-1.63,5.96-3.3,8.77-5.28,5.45-3.85,10.53-8.18,15.48-12.64,1.44-1.29-.69-3.41-2.12-2.12Z"/>
    <path class="cls-3" d="m52.57,51.38c-5.12,2.75-10.21,5.58-15.25,8.48-1.67.96-.16,3.56,1.51,2.59,5.04-2.9,10.13-5.73,15.25-8.48,1.7-.91.19-3.5-1.51-2.59Z"/>
    <path class="cls-3" d="m77.65,57.71c-6.28,4.87-12.76,9.48-19.41,13.83-6.48,4.23-13.09,8.35-20.2,11.44-1.77.77-.24,3.35,1.51,2.59,7.25-3.15,14-7.37,20.59-11.7,6.73-4.41,13.26-9.11,19.62-14.04,1.52-1.18-.61-3.29-2.12-2.12Z"/>
    <path class="cls-3" d="m54.01,81.97c-.05.08-.08.12-.09.15-.1.07-.21.13-.32.18-.16.07-.34.11-.5.16-.66.21-1.31.41-1.97.64-1.37.47-2.71.99-4.04,1.55-1.27.54-2.51,1.15-3.77,1.7-1.1.48-2.39.95-3.61.74-.8-.13-1.62.21-1.85,1.05-.2.72.24,1.71,1.05,1.85,3.42.57,6.31-1.32,9.34-2.59,1.48-.63,2.99-1.18,4.52-1.68,1.42-.47,3.07-.79,3.84-2.23.9-1.71-1.69-3.22-2.59-1.51Z"/>
    <path class="cls-3" d="m35.39,60.04c-.72-.98-1.45-1.96-2.17-2.94-.09-.17-.22-.32-.39-.42-.14-.13-.31-.22-.51-.27-.36-.1-.84-.05-1.16.15-.32.21-.6.51-.69.9-.08.37-.08.84.15,1.16.72.98,1.45,1.96,2.17,2.94.09.17.22.32.39.42.14.13.31.22.51.27.36.1.84.05,1.16-.15.32-.21.6-.51.69-.9.08-.37.08-.84-.15-1.16Z"/>
    <path class="cls-3" d="m35.62,66.43c-1.48-2.06-3.48-3.64-5.37-5.3-.59-.52-1.55-.62-2.12,0-.52.57-.63,1.57,0,2.12.92.81,1.86,1.61,2.77,2.44.41.38.82.76,1.21,1.17.19.2.37.4.55.6.09.1.17.21.25.31.04.06.09.12.13.17.23.33.5.58.9.69.36.1.84.05,1.16-.15.63-.41,1.03-1.37.54-2.05Z"/>
    <path class="cls-3" d="m35.17,71.63c-2.71-1.81-5.39-3.66-8.04-5.56-.64-.46-1.7-.13-2.05.54-.41.77-.14,1.56.54,2.05,2.65,1.9,5.33,3.75,8.04,5.56.65.44,1.69.15,2.05-.54.4-.75.16-1.59-.54-2.05Z"/>
    <path class="cls-3" d="m34.86,78.24c-.88-.3-1.69-.94-2.46-1.49-.88-.63-1.78-1.24-2.68-1.84-1.84-1.21-3.72-2.36-5.64-3.44-1.68-.95-3.2,1.64-1.51,2.59,1.98,1.12,3.92,2.3,5.81,3.56,1.83,1.21,3.58,2.8,5.68,3.52.77.26,1.64-.3,1.85-1.05.23-.82-.28-1.58-1.05-1.85Z"/>
    <path class="cls-3" d="m34.86,83.75c-.4-.4-.87-.49-1.29-.4-2.21-1.06-4.39-2.19-6.49-3.45-2.31-1.38-4.53-3-7.17-3.67-1.87-.48-2.67,2.42-.8,2.89,2.46.63,4.54,2.23,6.69,3.51,2.4,1.43,4.87,2.72,7.41,3.88,1.01.46,2.24-.08,2.26-1.3,0-.56-.2-1.06-.6-1.46Z"/>
    <path class="cls-3" d="m25.21,87.23s-.03-.02-.05-.03c-.04-.02-.07-.04-.09-.05,0,0,0,0-.01-.01-.07-.06-.15-.13-.22-.19-.33-.29-.65-.58-.99-.85-.74-.6-1.5-1.17-2.29-1.7-1.53-1.01-3.16-1.83-4.86-2.51-.73-.29-1.68.32-1.85,1.05-.2.87.27,1.53,1.05,1.85.08.03.15.06.23.09.02,0,.17.08.2.09.19.08.38.17.56.26.42.2.83.41,1.24.63.79.43,1.56.9,2.3,1.41.78.54,1.18.84,1.89,1.46.86.75,1.66,1.5,2.88,1.52.78,0,1.54-.7,1.5-1.5-.04-.81-.65-1.48-1.48-1.5Z"/>
    <path class="cls-3" d="m55.6,21.05c-.37-.37-.99-.64-1.56-.69.09-.41.12-.87.17-1.23.44-3.08.56-8.39-3.56-8.75-1.98-.17-4.16.09-6.09.53-1.72.39-4.22,1.09-5.19,2.73-1.59.5-3.33.62-4.96.66-.73.02-1.31.6-1.46,1.26-.38,0-.77,0-1.15.05-.09.01-.18.03-.26.05-.24-.27-.6-.44-1.09-.4-.8.06-1.61.11-2.41.17-.65.04-1.38,0-1.96.34-1.23.72-.86,2.53-.85,3.73,0,.76.68,1.57,1.5,1.5,1.21-.11,2.43-.27,3.65-.41.26.32.64.52,1.09.47.47-.06.94-.11,1.41-.17,4.07.9,7.9,2.61,11.94,3.6,2.02.5,4,.96,5.93,1.76,1.72.71,3.37,1.26,4.56-.61.83-1.3,1.57-3.32.3-4.59Z"/>
  </g>
  <path class="cls-1" d="m6.92,89.51c-1.1-.05-1.42-.71-1.57-1.72-1.05-7.11-2.04-14.24-2.86-21.38-.23-1.97-.55-3.93-1.05-5.88-.55-2.15-.73-4.42-.79-6.65-.12-4.47-.59-8.93-.51-13.42.04-2.12.42-4.12,1.54-5.96.83-1.36,1.95-2.29,3.54-2.64,1.02-.23,2.05-.55,3.07-.4,3.22.47,6.5.13,9.73.8,1.25.26,2.87.02,3.68-1.53.55-1.04,1.46-1.77,2.57-2.01,1.26-.27,1.43-.97,1.33-2.08-.15-1.83-.09-3.66-.36-5.49-.25-1.73-.15-3.51-.24-5.26-.05-1,.32-1.5,1.39-1.39.87.09,1.76.11,2.63.14,1.42.06,1.91.24,2.35-1.59.63-2.66,2.23-4.74,4.41-6.38.84-.63,1.73-1.19,2.76-1.4,1.37-.27,2.51-.89,3.59-1.78,2.62-2.15,5.66-3.24,9.06-3.26,1.28,0,2.52-.33,3.82-.18,4,.43,6.66,2.88,9.01,5.8,3.66,4.55,4.37,9.83,3.58,15.42-.25,1.74-.57,3.47-.87,5.2-.04.23-.18.42-.46.43-.34,0-.35-.29-.39-.5-.06-.39-.07-.8-.08-1.19-.04-4.85-2.3-8.69-5.47-12.13-1.51-1.65-3.63-1.85-5.57-2.45-.56-.17-.92.13-.76.79.65,2.58,1.03,5.17.36,7.82-.16.62.11,1.07.71,1.34.51.22,1,.5,1.51.73.88.41,1.19,1,.72,1.92-.47.92-.81,1.93-1.38,2.78-.67,1-.42,1.58.55,2.08.42.22.77.57,1.18.82,5.55,3.33,9.55,8.2,13.27,13.33,2.16,2.97,4.28,5.99,5.97,9.27,5.86,11.4,8.25,23.43,6.53,36.21-.33,2.43-.59,2.7-3.23,2.69-19.67-.03-39.33-.07-59-.1-3.84,0-7.67.02-11.51-.02-.99-.01-2.13.26-2.84-.81,8.46,0,16.93-.02,25.39-.03.64,0,1.28,0,1.92-.02.56-.02.9-.31.92-.88.02-.64.05-1.28-.04-1.91-.4-2.79-.31-5.58-.13-8.37.33-5.11.33-10.22.2-15.33-.05-2.07-.52-4.12-.39-6.21.02-.38.01-.9-.5-.91-.87-.02-1.82-.11-2.6.19-.69.26-.25,1.14-.28,1.74-.04.7-.46,1.17-.81,1.7-5.55,8.3-10.48,16.98-15.8,25.42-.59.94-1.03,1.98-1.55,2.97-.15.27-.37.63-.7.48-.34-.15-.23-.52-.07-.82.91-1.68,1.76-3.41,2.75-5.04,2.23-3.69,4.5-7.35,6.8-11,.56-.89.75-1.65.18-2.64-2.17-3.82-4.28-7.66-6.15-11.64-.5-1.07-1.44-2.11-2.78-1.79-1.3.32-2.77.3-3.89.89-1.65.88-2.94,1.05-4.67.13-1.64-.87-2.74.13-2.44,1.92,1.29,7.88,2.05,15.83,3.17,23.73.36,2.52.58,5.07,1.55,7.46Zm22.37-36.45c.05.03.1.07.16.09.02,0,.06-.03.09-.05-.1,0-.19.01-.29.02.45-1.1-.08-1.97-.67-2.82-.06-.09-.29-.15-.38-.11-.09.05-.19.27-.16.37.33.88.63,1.77,1.26,2.5Zm16.01-2.99l-.1.1.03-.08c.17-1.41-.33-2.68-.86-3.92-.25-.58-.62-1.11-.97-1.64-.12-.19-.33-.39-.6-.25-.11.06-.23.26-.21.38.39,2.06.48,4.27,2.7,5.4Zm19.03-41.67h.08s-.14.02-.14.02c-.85-3.09-3.28-4.81-5.77-6.35-2.76-1.71-4.37-1.31-6.35,1.21-.19.24-.5.48-.24.79.11.13.44.13.67.11,1.44-.09,2.86-.11,4.29.14,2.96.53,5.27,2.16,7.46,4.08Zm-25.65,2.59c1.56-2.11,3.52-3.8,6.02-4.54,1.97-.58,2.83-1.89,3.43-3.6.12-.34.53-.69.18-1.06-.31-.33-.77-.18-1.13-.05-4,1.35-6.87,3.96-8.52,7.86-.2.46-.26.92.07,1.36l-.1-.04.05.08ZM12.96,51.21l.11-.02-.15-.04c.3-1.13-.49-1.13-1.23-1.18-2.78-.16-5.57-.3-8.35-.48-2-.13-2.01-.15-1.93,1.76.04.79.12,1.59.23,2.38.08.55.27,1.09.71,1.48.25.22.58.35.85.16.14-.1.24-.45.18-.63-.31-.91-.54-1.84-.52-2.8,0-.47.05-1.01.65-1.12.54-.1.89.27,1.16.68.71,1.07.72,2.23.5,3.45-.12.65.37,1,.9,1.26.72.35,1.39.19,2.03-.23.64-.42.37-.94.18-1.47-.24-.68-.44-1.37-.67-2.04-.17-.5-.18-.95.37-1.2.51-.23.94-.04,1.25.39.58.79.87,1.69.92,2.67.03.72.38,1.01,1.09.82.66-.18.93-.56.65-1.24-.25-.6-.35-1.23-.26-1.87.11-.83.57-1.09,1.34-.72ZM38.33,12.44c.92.52,1.47-.3,2.15-.6,4.47-1.94,9.07-3.02,13.96-2.22,1.01.17,2.12.35,2.96.88,1.2.77,2.2-.68,2.97-.21.69.43-.2,1.9,1.02,2.65,1.21.75,1.89,2.13,2.6,3.38.78,1.39,1.51,2.8,2.03,4.32.06.18.33.39.51.39.27,0,.26-.32.3-.53.47-2.86-.2-5.53-1.3-8.14-2.18-5.2-7.67-8.23-13.19-7.24-5.45.98-10.52,2.69-14.04,7.35l.1.13-.07-.17Zm.49,10.47l.1-.13-.07.08c.13.92-.5.82-1.06.78-1.91-.13-3.61.53-5.27,1.34-.41.2-1.02.43-.89.92.09.33.72.13,1.1.07,2.54-.37,4.72.45,6.68,2,.25.2.51.47.27.8-.1.14-.4.2-.61.2-2.55.07-5.1.12-7.66.17-2.55.05-3.03-.52-3.03-3.07,0-1.31.88-1.8,1.71-2.37,1.36-.92,2.98-1.08,4.54-1.39.21-.04.48-.06.45-.36,0-.06-.28-.13-.43-.14-2.15-.11-4.3-.24-6.45-.31-1.12-.03-1.81.45-1.75,1.71.05,1.28-.08,2.57.07,3.83.2,1.67.02,2.05-1.53,2.35-1.37.27-2.25,1.15-2.81,2.37-1.04,2.25-1.02,4.65-.91,7.05.03.65.49.8,1,.6,1.11-.42,2.47-.29,3.34-1.18.66-.67-.02-1.69.18-2.54.08-.31.08-.63.13-.95.31-1.85.94-2.51,2.75-2.78,1.03-.15,2.08-.16,3.07.22,1.19.46,2.38.92,3.55,1.44,1.41.63,2.88.95,4.42.87,2.28-.12,2.74-.7,2.32-2.97-.09-.47-.32-1.02.14-1.33.39-.26.66.29,1,.45.91.42,1.91.58,2.72-.04.8-.61.57-1.57.4-2.45-.77-3.85-3.24-5.6-7.47-5.26Zm-23.27,16.07c-.12-.06-.23-.12-.36-.17-.01,0-.1.1-.09.11.16.22.32.16.49,0-.09.23-.12.48.08.65,1.17,1.09.96,2.17.14,3.4-.66.99-1,2.19-1.66,3.18-.95,1.42-.88,2.71-.18,4.23,1.2,2.61,2.66,5.12,3.67,7.78,1.33,3.46,3.28,6.55,5.02,9.77.55,1.02.83,1,1.44,0,1.82-3,3.59-6.03,5.63-8.9.75-1.05.64-2.06-.02-3.12-1.2-1.89-2.09-3.95-3-5.98-.67-1.51-.29-2.73.88-3.59.55-.41,1.66-.19,1.67-1.04,0-.63-.57-1.27-.89-1.91-.14-.28-.31-.56-.43-.85-.7-1.65-.62-1.85,1.03-2.38.68-.22,1.37-.41,2.05-.65.29-.1.65-.27.51-.66-.04-.12-.4-.17-.63-.19-2.96-.29-5.65.84-8.38,1.67-.96.29-1.88,1.16-2.34-.55-.08-.29-.54-.26-.86-.23-1.31.14-2.51-.39-3.77-.57Zm44.71,50.48v.03c6.71,0,13.42,0,20.13,0,1.82,0,1.91-.04,2.11-1.53.76-5.57.91-11.15-.02-16.71-.46-2.78-2.08-4.14-4.9-4.33-1.7-.12-3.34.17-4.94.76-3.92,1.44-7.16,3.85-9.85,7-3.22,3.78-5.84,7.99-8.47,12.19-.29.47-.58.95-.91,1.4-.07.1-.31.16-.42.11-.1-.04-.21-.28-.18-.38.16-.45.32-.9.56-1.3,2.55-4.15,5.22-8.23,8.27-12.04,1.66-2.07,3.57-3.89,5.82-5.31,4.09-2.58,8.3-4.58,13.27-2.46.47.2.8.04.7-.53-.13-.71-.31-1.4-.48-2.1-2.11-8.73-6.76-16.14-12-23.25-.46-.62-.86-.68-1.16.13-.6,1.64-1.71,2.7-3.48,2.87-1.02.1-1.24.74-1.47,1.58-.51,1.84-1.66,3.14-3.64,3.32-.83.08-1.28.43-1.73,1.04-1.04,1.4-2.4,2.1-4.17,1.56-.51-.16-.91-.17-1.17.4-.98,2.15-2.61,2.36-4.57,1.5-.61-.27-1.02-.22-1.37.42-.96,1.74-2.59,1.94-4.34,1.75-.4-.04-.78-.19-1.18-.23-2.14-.18-3.07.62-3.05,2.76.01,1.43.31,2.87.23,4.29-.38,6.71-.16,13.42.08,20.12.06,1.68.06,3.36.21,5.03.17,1.91.22,1.92,2.21,1.92,6.63,0,13.26,0,19.89,0Zm-24.59-45.79c-1.12-.02-2.55.49-3.37,1.94-.57,1-1.29,1.27-2.36,1.12-.63-.09-1.28.01-1.85.36-.92.57-.91,1.42.12,1.82.93.36,1.39,1.03,1.69,1.88.31.9.63,1.81.84,2.75.23,1.05.93,1.43,1.88,1.53.48.05,1.01.04,1.27-.43.24-.42-.13-.74-.38-1.04-.95-1.14-1.43-2.5-1.6-3.94-.1-.81-.5-1.93.62-2.28.94-.3,1.34.67,1.75,1.33.8,1.31,1.37,2.69,1.41,4.27.04,1.45.41,1.78,1.8,1.91.48.05,1.03.13,1.36-.26.38-.45,0-.89-.26-1.29-.74-1.15-1.31-2.38-1.7-3.69-.07-.23-.18-.45.03-.67.16.17.37.31.48.5.56.97,1.1,1.95,1.66,2.91.07.11.26.21.39.21.32,0,.34-.27.32-.5-.17-1.87-.93-3.54-1.81-5.16-.11-.19-.32-.35-.17-.62.19.12.42.2.56.36,1.6,1.81,2.38,3.93,2.39,6.35,0,1.37.29,1.64,1.63,1.73.47.03.96-.02,1.41-.15,1.96-.56,2.29-1.76.92-3.26-.16-.18-.36-.33-.5-.51-1.53-1.94-2.44-4.11-2.52-6.59-.02-.47.08-.99.63-1.17.42-.14.78.09,1.1.34,1.2.92,1.84,2.21,2.24,3.6.37,1.3.63,2.64.87,3.97.25,1.39,1.36,1.68,2.45,1.93.82.19,1.6-.05,2.1-.81.7-1.05.32-1.96-.4-2.83-.88-1.07-1.41-2.32-1.79-3.63-.44-1.52-.21-2.81.5-3.07.75-.28,1.6.62,2.03,2.26.34,1.31.56,2.66.87,3.98.47,1.99,2.43,2.6,3.99,1.25.97-.84,1.04-1.32.16-2.33-1.43-1.64-2.13-3.54-2.19-5.69-.02-.54-.02-1.19.6-1.44.75-.3,1.21.23,1.56.77,1.01,1.56,1.73,3.21,1.92,5.1.16,1.65,1.02,1.97,2.37.98,1.63-1.19,1.87-3.14.57-4.73-1.18-1.44-2.09-3.04-2.49-4.86-.18-.79-.64-1.94.44-2.32,1.02-.36,1.5.72,1.91,1.46.85,1.54,1.52,3.17,1.85,4.91.16.83.52,1.33,1.43,1.23,1.12-.13,2-.71,2.38-1.76.36-1.01.93-2.09-.04-3.14-1.95-2.11-3.7-4.42-5.98-6.21-.56-.44-1.14-1.22-1.81-1.01-.91.29-.46,1.37-.68,2.09-.05.15-.04.32-.06.47-.9,5.85-5.21,8.69-10.92,7.2-1.15-.3-2.32-.57-3.5-.76-1.53-.25-2.89.11-3.79,1.47-1.39,2.12-1.36,2.13-4.28,2.17Zm-4.79-28.08q-5.12-.2-4.96,3.08c.11,2.4.28,2.25,2.13,2,.63-.08,1.27-.06,1.91-.04,7.87.14,15.28,2.22,22.44,5.34,2.07.9,2.18.9,3.26-1.14.19-.35.32-.73.51-1.08.53-.96.35-1.57-.71-2.06-1.88-.89-3.83-1.58-5.82-2.18-6.67-2-13.42-3.53-18.76-3.92ZM1.13,42.82c0,1.2-.06,2.4.01,3.59.12,1.95.28,2.09,2.3,2.23,2.15.15,4.31.17,6.44.4,1.25.13,1.96-.39,2.47-1.38.96-1.83,1.85-3.71,2.87-5.51.59-1.05.11-1.6-.65-2.19-.93-.72-1.42-.14-1.94.54-1.17,1.52-2.26,3.09-3.09,4.82-.08.17-.38.23-.57.35-.06-.22-.22-.46-.17-.65.27-1.02.93-1.84,1.46-2.73.23-.39.78-.78.46-1.25-.28-.41-.89-.19-1.36-.2-.71,0-1.43.12-2.14.13-1.63.02-2.06-.37-2.32-2.03-.05-.31-.12-.63-.11-.95.01-.54-.79-1.35.06-1.53.61-.13.7.9.84,1.51.07.31.08.63.1.95.04.63.29,1.06.98,1.14.73.09,1.2-.19,1.49-.89.76-1.85.14-4.57-1.33-5.96-.69-.66-1.42-.6-2.21-.29-1.72.68-2.52,2.13-3.11,3.73-.74,2-.57,4.09-.47,6.16ZM49.65,10.26c-2.43.28-5.38.88-8.18,2.06-.65.28-1.25.69-1.85,1.08-.19.12-.44.36-.43.52.03.34.39.44.69.52.15.04.31.07.47.1,4.13.8,8.36,1.15,12.29,2.82.07.03.15.05.23.07.57.13.91-.06.96-.68.11-1.29-.14-2.54-.36-3.79-.45-2.58-.68-2.76-3.81-2.7Zm-13.59,28.75c-1.11-.06-2.19-.2-3.2.57-.61.46-1.44.68-2.19.93-2.47.84-2.44.56-1.19,3.04.25.5.56.97.88,1.42.3.42.69.72,1.12.14,1.5-2.02,3.55-2.57,5.93-2.24.62.09,1.06-.04,1.29-.72.74-2.18,2.36-3.1,4.59-3.09.71,0,.8-.33.49-.89-.12-.21-.25-.41-.36-.62-.72-1.37-.74-1.4-1.86-.44-1.59,1.36-3.39,2.07-5.5,1.9Zm13.62,1.36c3.69,0,6.42-2.06,7.3-5.54.31-1.23.37-2.52.59-3.78.15-.85-.23-1.38-.9-1.77-.53-.31-1.04-1-1.69-.6-.5.31-.21,1.03-.22,1.57-.04,4.85-1.94,7.34-6.42,8.52-.55.14-1.55-.05-1.55.6,0,.57.97.68,1.59.8.47.09.95.14,1.29.19Zm-12.83,34.94s-.06,0-.09,0c0-1.6-.06-3.2.01-4.79.2-4.39.05-8.78-.03-13.18,0-.4-.01-.8-.1-1.19-.04-.19-.24-.45-.41-.49-.43-.11-.54.27-.55.57-.04.88-.15,1.78-.02,2.63.41,2.62.34,5.26.41,7.89.13,4.72-.19,9.43-.4,14.14-.11,2.57.21,5.11.41,7.66.03.41.11.82.66.78.54-.04.6-.41.54-.85-.02-.16-.04-.32-.05-.48-.13-4.23-.26-8.47-.39-12.7Zm17.01-45.14c-.04-.41-.04-1.29-.22-2.14-.12-.58-.67-.94-1.27-.87-.69.09-.44.73-.45,1.15-.01,1.44,0,2.87-.55,4.24-1.09,2.71-3.66,4.29-6.16,3.78-.42-.08-.96-.58-1.21.03-.17.41.23.89.6,1.22.59.51,1.31.52,2.03.53,4.31.03,7.27-3.03,7.22-7.93Zm-21.4-17.41c-.08.39.15.64.46.71,1.01.24,2.06.42,3.06.15.81-.22.72-1.17.92-1.81.54-1.67,1.19-3.28,2.06-4.8.13-.22.47-.56.04-.8-.16-.09-.46-.01-.66.07-2.76,1.19-4.7,3.17-5.75,6.01-.05.15-.09.3-.13.46Zm17.12,15.23c.14,2.66-.15,3.78-1.26,4.85-1.27,1.23-2.75,1.48-4.4.89-.11-.04-.4.11-.4.15.02.21.04.49.18.62,1.17,1.13,2.7,1.38,4.18.67,1.28-.61,2.1-1.65,2.64-2.95.7-1.69.48-3.44.43-5.18-.02-.71-.43-1.07-1.06-.97-.68.11-.38.73-.38,1.15,0,.32.05.63.06.76Zm-15.17-13.4c-.22.16-.67-.24-.88.27.3.08.59.2.89.24,5.84.92,11.56,2.32,17.21,4.05.38.12.77.22,1.16.27.25.04.46-.12.47-.39,0-.14-.06-.35-.17-.41-.48-.27-.98-.52-1.49-.72-2.09-.81-4.26-1.31-6.47-1.64-3.54-.53-7.04-1.35-10.71-1.68Zm-25.12,23.98c-.13.64-.14,1.11.27,1.27.53.22,1.15.11,1.58-.28,1.46-1.33.9-2.97.34-4.38-.48-1.22-.85-2.87-2.77-2.83-.86.02-.89.41-.53,1.05.95,1.68,1.93,3.35,1.12,5.16Zm39.48-9.81c-.12-.83-.24-1.7-.39-2.56-.12-.69-.53-1.14-1.23-1.29-.22-.05-.5-.15-.67-.06-.38.18-.2.52-.09.81.43,1.03.83,2.08.93,3.2.15,1.69-.5,2.56-2.03,2.99-.44.12-1.33-.34-1.24.55.05.54.85.68,1.39.74,1.27.15,2.78-1.01,3.13-2.44.15-.61.13-1.26.2-1.94Zm-34.93,4.03c-.55.18-1.67-.66-2.14.28-.33.66.54,1.4.85,2.12.32.74.93.77,1.6.59,1.05-.29,1.77-1.03,2.5-1.77.22-.22.45-.46.36-.82-.1-.41-.48-.38-.77-.39-.71-.03-1.43,0-2.4,0Zm20.11,2.07c-1.43.06-2.56.66-3.34,1.89-.32.52-.21.89.45.97.56.07,1.14.12,1.55-.34,1.15-1.28,2.71-1.51,4.28-1.74.23-.03.45-.09.68-.13-.19-.04-.38-.1-.57-.13-1.01-.17-2.02-.34-3.05-.52Zm-17.97,2.91c.77-.07,1.35-.49,1.87-1,1.03-1,1.34-2.54,2.52-3.44.06-.04.05-.31-.02-.35-.11-.08-.3-.13-.44-.1-.23.04-.45.13-.67.22-1.88.81-2.32,2.95-3.77,4.18-.29.25.21.45.51.49ZM52.37,1.55c.02-.47-.35-.43-.64-.44-1.42-.06-3.25,1.83-3.27,3.38,0,.13.1.37.17.38.22.03.54.06.66-.07,1.01-1,1.98-2.03,2.96-3.05.05-.05.07-.13.11-.21Zm-19.59,32.24c-.04-.28-.23-.4-.47-.43-1.91-.23-3.9,1.53-3.97,3.54,0,.21.09.53.24.61.15.08.54-.03.62-.17.77-1.43,1.77-2.62,3.36-3.19.11-.04.16-.24.23-.36Zm3.33,4.32h0c.39,0,.79.03,1.18,0,.78-.06,2.05-.22,2.02-.8-.05-1.04-1.24-.52-1.94-.61-.54-.07-1.11-.03-1.64.07-.6.11-1.62.2-1.57.76.07.98,1.12.38,1.72.58.07.02.16,0,.23,0Zm21.2,8.08c-.13-1.65-.78-2.98-1.69-4.21-.07-.1-.3-.17-.41-.14-.1.03-.2.25-.19.37.16,1.52.56,2.95,1.45,4.21.11.16.39.21.59.31.09-.21.18-.41.24-.55Zm-30.66-10.25c0,.11,0,.19,0,.27,0,.31-.05.72.28.83.46.15.46-.32.53-.59.28-1.01.74-1.93,1.37-2.77.13-.17.28-.52.2-.61-.23-.26-.59-.19-.89-.09-1.49.5-1.28,1.85-1.49,2.96Zm-6.25.89c-.18-.33.2-.97-.38-1.14-.43-.12-.53.46-.75.74-.2.24-.39.49-.55.76-.25.42-1.16.66-.66,1.25.39.46,1.21.32,1.79.1.76-.28.44-1.06.56-1.71Zm14.34,15.75c-.09-1.34-.58-2.56-1.45-3.63-.07-.09-.38-.12-.38-.11-.46,1.26.31,2.27.73,3.35.08.21.24.41.4.57.1.1.28.2.4.18.1-.01.18-.2.3-.36Zm25.09-15.46c-.07.12-.22.25-.21.36.14,1.45.81,2.67,1.68,3.79.05.06.25,0,.39-.02-.09-1.19-.6-2.24-1.11-3.29-.1-.21-.24-.41-.38-.58-.1-.11-.25-.18-.37-.26Zm-10.02,6.84c-.08.11-.22.2-.24.32-.16.7.59,2.84,1.03,3.04.17.08.24.05.31-.16.16-.43-.51-2.85-.89-3.12-.06-.04-.14-.06-.22-.09Zm-35.76,10.46c.25-.04.47-.07.46-.39-.02-.48-.17-.99-.56-1.2-.53-.27-.36.32-.38.51-.05.43-.17.96.48,1.08Zm17.08-26.15c.48-.02.89-.04.95-.54.03-.25-.18-.47-.42-.47-.46.01-.94.11-.97.69,0,.11.32.24.44.32Zm10.25,7.24c-.36-.29-.67-.17-.96-.11-.24.05-.27.22-.04.29.21.07.46.04.69.01.11-.01.2-.12.32-.2Zm-4.24-7.78c-.13-.21-.34-.27-.56-.19-.1.04-.24.22-.21.28.1.24.33.27.54.19.1-.04.16-.18.23-.28ZM4.33,53.14c-.05-.13-.11-.26-.16-.4-.05.05-.15.1-.15.15,0,.14,0,.31.07.42.08.11.21.02.24-.17Zm9.28-14.86c-.06-.02-.13-.08-.18-.06-.21.06-.21.15-.02.24.05.02.13-.01.18-.04.02-.01,0-.09.01-.13Z"/>
  <path class="cls-1" d="m5.86,88.76c-.09.44.14.87.44,1.18.16.17.37.26.61.27.09,0,.17,0,.26-.01.04,0,.08,0,.13,0,.06,0-.07-.02,0,0,.02,0,.05.01.07.02l.08-.61c-.07,0-.13.01-.2.01-.04,0-.07,0-.11,0-.02,0-.03,0-.05,0,.03,0,.07.01.02,0-.03,0-.06-.02-.09-.03-.04-.01.06.03.01,0-.01,0-.03-.02-.04-.02-.05-.03,0,0,0,0,0,0-.03-.03-.04-.04-.03-.03.01.01.02.02,0-.01-.02-.03-.03-.04-.02-.03-.03-.05-.04-.08-.02-.05.02.05,0,.02,0-.01-.01-.03-.02-.04-.02-.06-.04-.12-.06-.17-.06-.16-.12-.31-.23-.44s-.33-.12-.44,0c-.12.13-.11.31,0,.44.04.05-.04-.06,0,0,0,.01.02.02.02.04,0,.02.02.03.02.05.02.04,0,0,0-.02.02.06.05.13.07.19.05.17.12.32.23.46.23.28.61.31.95.28.16-.01.29-.11.31-.27s-.08-.28-.22-.34c-.16-.07-.35-.05-.52-.04-.04,0-.07,0-.11,0-.02,0-.05,0-.06,0,.03,0,.06.01.01,0,0,0-.05-.01-.05-.02.04.02.05.02.03.01,0,0-.02,0-.03-.01-.01,0-.06-.03-.02-.01.02.02.02.02,0,0,0,0-.02-.01-.02-.02-.03-.03-.05-.05-.08-.08-.01-.01-.02-.03-.03-.04-.02-.03.04.05,0,0-.05-.07-.09-.13-.13-.21,0-.02-.02-.03-.03-.05,0,0,0-.02-.01-.03v.03s-.02-.09-.03-.12v-.02s0-.03,0,0c0,.03,0,.03,0,0v-.02s0-.04,0-.06c0-.06-.01.07,0,0,.03-.16-.05-.35-.22-.38-.16-.04-.35.05-.38.22h0Z"/>
  <path class="cls-1" d="m12.46,87.84s0,.08-.01.12c0,.05,0-.05,0,0,0,.02,0,.05-.01.07-.02.08-.04.15-.06.23,0,.02-.02.04-.02.06.01-.03.01-.02,0,0-.02.04-.04.07-.06.11,0,.02-.02.03-.03.05-.02.02-.03.05,0,.01-.02.03-.05.06-.08.09-.11.13-.23.25-.32.4-.04.07-.08.16-.11.24-.02.05,0,.01,0,0,0,0-.02.03-.02.04-.02.05.03-.03,0,0-.01.01,0,0,.01,0,.03-.03.07-.04.12-.04l.27.47c.27-.56.58-1.09.93-1.6.09-.13.03-.35-.11-.43-.16-.08-.33-.03-.43.11-.35.51-.66,1.04-.93,1.6-.05.1-.06.21,0,.32.05.09.16.17.27.15.15-.02.26-.07.35-.19.06-.08.1-.18.14-.28.01-.03,0,0,0,0,.01-.02.02-.05.04-.07.01-.02.02-.04.03-.05.02-.02.03-.04,0,0,.06-.07.12-.14.18-.21.15-.17.26-.35.34-.56.08-.2.11-.41.12-.62.01-.16-.15-.32-.31-.31-.18,0-.3.14-.31.31h0Z"/>
  <path class="cls-1" d="m38.63,46.88c-.37-.26-.84-.7-1.33-.52-.45.17-.58.77-.61,1.19-.04.47.06.95.17,1.41.11.52.23,1.04.35,1.55l.57-.24c-.14-.31-.27-.63-.41-.94-.11-.26-.19-.49-.17-.78.04-.57.35-1.09.46-1.64.08-.39-.53-.56-.6-.17-.12.63-.46,1.22-.48,1.87-.01.34.09.63.22.94.15.35.3.69.45,1.04s.64.09.57-.24c-.09-.4-.18-.8-.27-1.2-.08-.38-.19-.76-.22-1.15-.03-.31-.04-.75.17-1.01.08-.1.2,0,.3.06.18.12.36.25.54.37.33.23.64-.31.32-.54h0Z"/>
  <path class="cls-1" d="m52.88,87.77s0,.04,0,0c0,.02,0,.04-.01.06,0,.04-.02.07-.03.11,0,.02-.01.04-.02.05,0,0-.03.08-.02.04.01-.03-.01.02-.01.03,0,.02-.02.03-.03.05-.07.14-.16.28-.26.41-.21.29-.4.58-.55.91-.07.15-.05.34.11.43.14.07.36.05.43-.11.16-.35.37-.65.58-.96s.39-.64.42-1.03c.01-.16-.15-.32-.31-.31-.18,0-.3.14-.31.31h0Z"/>
</svg>