<?xml version="1.0" encoding="UTF-8"?>
<svg id="Layer_1" data-name="Layer 1" xmlns="http://www.w3.org/2000/svg" viewBox="0 0 86.51 97.04">
  <defs>
    <style>
      .cls-1, .cls-2 {
        stroke: #231f20;
        stroke-miterlimit: 10;
        stroke-width: .25px;
      }

      .cls-1, .cls-3 {
        fill: #5c6888;
      }

      .cls-2 {
        fill: #ba4a30;
      }

      .cls-4, .cls-5, .cls-6, .cls-3 {
        stroke-width: 0px;
      }

      .cls-5 {
        fill: #f9faf5;
      }

      .cls-6 {
        fill: #5d4837;
      }
    </style>
  </defs>
  <path class="cls-5" d="m.14,94.78s3.3-27.08,5.46-30.37,9.55-21.38,18.95-30c0,0-8.73-1.53-8.69-12.03,0,0,3.01-14.86,29.95-20.73,0,0,12.35-2.9,16.62,1.14s3.92,5.34,3.92,5.34c0,0,.49,2.94-2.37,4.59s0,0,0,0l.86,2.95,2.69,6.53.42,2.43,2.97,4.21,1.84,3.21.77,2.33h-9.4l-2.12,2.54-1.48-.33-3.09-1.81-5.09-4.99.64,3.74,1.19,3.86,3.14,3.5-2.61,2.49-5.88-4.2-3.56,3.84,17.15,14.6,5.38.09-2.12-3.05-2.58-1.93-2.05-5.57.44-1.75,15.41.26-1.35,5.27-4.25,4.23-.98,2.2,3.21,1.38.38,3.8.5,1.67-.5,2.02-.86,7.01s12.77,20.38,12.9,22.83l-1.12.53L.14,94.78Z"/>
  <g id="pulcinella">
    <path class="cls-6" d="m49.77,17.97c-.83-.18-1.45.16-1.96.69-.9.34-1.82.59-2.78.74-.79.12-1.65.24-2.05.98-.34,0-.68.07-1,.24-.4.22-.7.56-1,.9-.07.08-.09.14-.05.24,0,.02.03.04.04.06-3.39,1.66-6.64,3.62-9.67,5.91-.29.22-.24.54-.04.74-.21.15-.42.3-.61.46-.62.51.24,1.19.8.77.5.11,1.29.26,2.02.23.55.21,1.08.51,1.59.8.91.51,1.83.98,2.79,1.4,1.91.82,3.9,1.53,5.4,3.02.37.36,1.21.04,1.08-.52-.68-2.83-.3-5.75.69-8.46.46-1.26,1.04-2.48,1.69-3.66.35-.65.73-1.28,1.11-1.91.09-.15.23-.42.4-.69.19-.08.32-.24.38-.4.41-.17.83-.35,1.23-.55.44-.22.46-.87-.07-.98Z"/>
    <path class="cls-2" d="m74.41,51.54c-.09-.26-.23-.44-.41-.63-.13-.13-.44-.12-.75-.07-2.11-.82-4.62.06-6.82-.41-.26-.06-.57-.03-.87.03-.05-.06-.11-.11-.16-.17-.03-.06-.08-.12-.16-.17-.47-.28-1.39.05-1.85.21-.19.07-1.23.44-.89.74.02.01.03.03.04.04,0,.01,0,.03-.02.05-.05.09-.03.15.05.2.14.11.29.21.43.32.22.35.41.74.61,1.1.36.64.8,1.09,1.44,1.45,1.39.78,2.08,2.09,2.75,3.48.19.39,1.26.08,1.55,0,.28-.08,1.39-.33,1.35-.77-.09-.96.71-1.75,1.26-2.45.65-.83,1.3-1.65,1.95-2.48.3-.13.56-.3.5-.48Z"/>
    <g>
      <path class="cls-1" d="m52.01,60.71c-1.49-.75-2.42-2.44-3.47-3.67-1.19-1.4-2.46-2.72-3.79-4-.28-.27-.82-.35-1.34-.28-.09-.19-.17-.38-.24-.56-.06-.17-.13-.34-.19-.5-.14-.67-.44-1.33-.75-1.94-.29-.57-1.17-.66-1.9-.45-.07-.09-.11-.19-.18-.28-.64-.8-2.64-.27-2.79.75-.05.32-.11.66-.18,1.01-.44.11-.87.33-1.09.58-2.38,2.66-4.25,5.25-4.86,8.84-.67,3.91-1.15,7.87-1.72,11.8-.18,1.23,1.87.8,2.4.45,2.02-1.33,4.04-2.66,6.06-4,.4-.26.8-.53,1.2-.79.54.04,1.13-.07,1.48-.23.63-.29,1.07-.85,1.12-1.46.1-.07.21-.13.31-.21.36.54,1.57.28,1.97.13.3-.11.6-.24.9-.36.78.13,1.84-.25,2.06-.89,1.65-.76,3.26-1.61,4.82-2.56.44-.27.82-1.05.19-1.37Z"/>
      <path class="cls-1" d="m50.03,47.6c-3.11-2.51-6.22-5.01-9.33-7.52-.17-.13-.5-.16-.89-.12-.61-.59-1.21-1.18-1.82-1.77-2.57-2.5-5.17-4.98-7.35-7.85-.52-.69-2.47.19-2.79.75-.49.84-1.83,1.44-1.5,2.53-.07.1-.13.2-.19.3-.08.06-.16.11-.23.17-.88.96-1.97,1.9-2.7,2.97-.17.25-.23.52-.24.8-.28.21-.41.44-.24.66.4.5.69,1.02.93,1.61.09.23.4.32.77.33.14.28.3.54.48.79-.03.09-.01.18.1.27.09.07.18.14.27.21.05.06.1.12.15.18.06.06.15.11.26.13,2.36,1.82,4.87,3.51,7.55,4.81,1,.49,2,.74,3.01.86,1.44.8,2.83.9,4.55.94,2.42.06,4.83.11,7.25.17.32,0,2.64-.66,1.96-1.21Z"/>
    </g>
    <path class="cls-3" d="m22,76.64c-.55-1.1-1.09-2.21-1.64-3.31-.14-.28-.52-.38-.96-.37-.1-.22-.21-.44-.32-.66-.67-1.32-1.55-2.51-2.61-3.55-2.11-2.06-4.75-3.5-7.32-4.9-.06-.03-.15-.05-.24-.06,0-.11,0-.22-.02-.31-.11-.34-.49-.46-.81-.49-.71-.06-1.53.17-2.12.56-.17.11-.34.25-.37.45-.02.13-.01.27,0,.4.04.28.16.55.31.79,0,.04-.01.07-.02.11-.05.24-.13.47-.19.7-.49.18-.87.45-.89.79-.03.82-.17,1.62-.42,2.4-.06.18.03.28.17.34-.12.13-.19.27-.13.42.33.81,1.23,1.08,1.97,1.41.95.43,1.91.86,2.86,1.29.15.14.32.28.49.41.79.6,1.58,1.19,2.32,1.84,1.54,1.35,2.92,2.87,4.13,4.52.47.63,2.06-.01,2.5-.37.74-.6,1.52-1.13,2.39-1.53.21-.1,1.1-.5.9-.9Z"/>
    <path class="cls-3" d="m76.8,80.27c-.34-.63-.69-1.26-1.03-1.88-.23-.42-.43-.94-.8-1.27-.05-.13-.11-.26-.17-.39-.41-1.1-3.09-.36-2.92.66-.18.1-.35.2-.5.29-2.01,1.22-3.63,2.97-5.06,4.81-2.99,3.83-5.23,8.17-6.71,12.8-.33,1.02,1.67.73,2.06.56.31-.13.62-.09.92.04.51.22,1.03.2,1.55.01.34-.13,1.04-.46,1.04-.92,0-2.94,2.01-5.75,3.77-7.97.35-.44.71-.85,1.08-1.26.18-.06.35-.13.49-.21.7-.39,1.09-1.12,1.49-1.8.79-.72,1.63-1.38,2.5-2.01.97.34,2.82-.45,2.27-1.46Z"/>
    <path class="cls-3" d="m64.49,14.04c.5-.54.62-1.27-.51-1.32-3.05-.13-6.1-.1-9.09.57-2.98.67-5.85,1.89-8.71,2.95-5.54,2.03-10.93,3.99-14.62,8.86-1.09,1.43,1.65,1.6,2.38.7,2.91-3.58,7.72-4.99,11.85-6.66,4.71-1.9,9.6-4.55,14.82-3.51.16.04.33.07.51.09.28.03.61-.02.92-.12.14.03.29.05.43.09.68.16,1.56,0,2.05-.55.33-.37.32-.84-.03-1.09Z"/>
    <path class="cls-3" d="m59.47,73.26c.01-.51-.44-.84-.94-.85-.28,0-.57-.02-.85-.02-.38-.51-1.43-.48-2.12-.11-.26-.02-.53-.03-.79-.06-.8-.08-2.07.4-1.97,1.37.3,3.02.37,6.04.21,9.07-.03.55.4.81.94.85-.02.27-.05.53-.06.8-.22,3.65-.08,7.31.15,10.96.07,1.13,2.95.56,2.91-.52-.26-7.28,2.39-14.25,2.53-21.5Z"/>
    <path class="cls-3" d="m51.13,65.43c-.02-.63.04-1.21.17-1.83.04-.7-.5-.97-1.12-.95-.83-.31-2.29.16-2.37,1.08,0,.05-.02.1-.02.15-.55.12-1.31.34-1.49.42-.6.25-1.02.88-.68,1.49.26.48-.11,1.24-.24,1.71-.16.58-.3,1.17-.41,1.77-.2,1.04-.33,2.09-.41,3.14-.17,2.29-.06,4.6.14,6.88.17,1.85.42,3.68.69,5.52-.33.26-.54.62-.5,1.03.28,2.91.59,5.82,1.62,8.58.07.19.2.33.37.44.05.18.12.36.21.52.55.95,1.67,1.12,2.65.84.47-.13,1.49-.72,1.18-1.38-.27-.58-.5-1.17-.73-1.77.11-.19.16-.4.13-.63-.64-4.91.1-9.65.12-14.56,0-2.41-.14-4.82-.3-7.23-.03-.42-.08-.88-.13-1.36.28-.2.48-.47.51-.81.05-.62.11-1.24.16-1.86.01-.14-.01-.26-.05-.37.31-.21.52-.48.51-.81Z"/>
  </g>
  <path class="cls-4" d="m43.51,96.4c-13.43-.22-26.86-.43-40.28-.68-3.22-.06-3.28-.12-3.21-3.45.34-15.37,4.33-29.65,12.75-42.61,2.97-4.57,6.18-8.95,9.76-13.04,1.1-1.26,1.54-1.52-.48-2.51-1.61-.78-2.91-1.98-3.94-3.44-3.86-5.47-3.5-9.89.17-14.46,3.23-4.01,7.19-7.03,11.7-9.37,4.56-2.35,9.35-4.13,14.29-5.5C47.99.31,51.82.1,55.64,0c2.95-.07,5.65.93,8,2.78,1.16.91,2.04,2.05,2.58,3.4.86,2.15.83,4.28-.87,6.03-.82.85-.81,1.52-.34,2.52,1.39,2.97,2.54,6.04,3.36,9.22.27,1.03.76,1.87,1.48,2.68,1.87,2.12,3.2,4.58,4.15,7.24.38,1.06.21,1.3-.93,1.14-2.46-.34-4.93-.43-7.41-.5-1.04-.03-1.72.2-2.24,1.3-.9,1.9-1.53,2.01-3.41,1.1-2.5-1.22-4.48-3.04-6.15-5.24-.19-.25-.42-.63-.73-.49-.28.13-.18.56-.12.86.62,2.96,1.93,5.57,3.9,7.86,1.19,1.37,1.15,1.53-.23,2.63-.31.25-.66.45-.96.72-.89.81-1.7.63-2.54-.12-1.07-.96-2.21-1.85-3.27-2.81-.76-.68-1.42-.6-2.06.11-.38.41-.8.8-1.1,1.26-.9,1.38-.86,1.75.42,2.79,3.53,2.87,7.11,5.69,10.64,8.56,1.49,1.21,2.96,2.44,4.38,3.74.7.64,1.43,1,2.37.89.84-.1,2.11.36,2.43-.4.4-.97-1-1.18-1.57-1.76-2.49-2.55-4.82-5.15-4.84-9.03,0-1.63.03-1.73,1.7-1.89.56-.05,1.12-.07,1.68-.04,3.44.19,6.87.13,10.31.06.72-.01,1.45-.03,2.15.12.88.19,1.43.65.94,1.72-.36.79-.56,1.66-.82,2.49-.66,2.13-1.87,3.87-3.66,5.21-.51.38-1.07.73-1.48,1.21-.94,1.09-.78,1.89.66,2.23,1.62.39,2.01,1.35,1.93,2.78-.06,1.11-.12,2.21.57,3.22.35.52.49,1.3.16,1.85-.99,1.65-.62,3.54-1.08,5.27-.32,1.2-.09,2.25.59,3.39,3.95,6.57,8.34,12.89,11.45,19.95,1.31,2.96,1.28,3.04-1.92,2.99-7.99-.13-15.99-.31-23.98-.41-5.43-.06-10.86-.01-16.29-.01,0-.07,0-.14,0-.2Zm8.91-46.3v-.14s0,.08,0,.08c.11.23.29.37.55.39,0,.31.14.48.46.48.66,1.77,2.27,2.83,3.27,4.35.28.43.68.31,1.02.01.4-.36.62-.81.09-1.19-1.47-1.05-2.63-2.53-4.42-3.13.02-.33-.15-.47-.47-.47-.06-.27-.21-.42-.5-.37Zm-2.89-31.84c-.92-.02-1.68.46-2.5.76-5.46,2.04-10.27,5.14-14.67,8.92-.41.35-1.22.59-1.06,1.17.19.71,1.05.53,1.66.63,1.59.26,3.1.74,4.56,1.42,1.89.87,3.75,1.78,5.53,2.87.3.18.68.58,1.02.2.15-.17.06-.61.01-.91-.78-5.35.77-9.93,4.54-13.78.37-.38.95-.64.88-1.33.16.03.4.2.36-.18-.11.08-.21.16-.32.24Zm-13.01,33.01c-3.61,4.87-5.21,10.51-6.16,16.38-.2,1.26-.32,2.53-.44,3.79-.07.79.35.99,1.03.67.5-.24.98-.54,1.49-.77,1.13-.49,1.54-1.25,1.64-2.55.25-3.1,1.08-6.11,1.77-9.14.05-.23.19-.43.28-.65.08-.18.21-.28.38-.18.12.07.28.23.27.32-.1.71-.22,1.41-.35,2.12-.46,2.43-.97,4.84-1.36,7.28-.18,1.11.13,1.27,1.17.73,1.34-.7,2.63-1.5,4-2.14,1.15-.54,1.44-1.37,1.24-2.52-.42-2.43-.85-4.86-1.23-7.3-.13-.86-.56-1.25-1.4-1.29-1.4-.07-1.85-.98-2.02-2.22-.12-.86.13-1.77-.35-2.58l.11.13-.07-.1Zm37.28,24.34l.03.03c-.21-1.64-1.28-2.21-2.79-2.28-1.35-.06-2.71-.15-4.06-.26-3.98-.31-7.96-.21-11.95-.3-.9-.02-1.25.25-1.3,1.2-.37,6.81.51,13.54,1.08,20.29.07.82.44,1.31,1.35,1.32,2.31.02,4.62.07,6.93.11.86.02,1.24-.4,1.46-1.23.84-3.17,2.7-5.74,4.87-8.12,1.89-2.07,3.97-3.95,6.37-5.39.97-.58.96-1.06.45-1.88-.76-1.21-1.32-2.56-2.45-3.5Zm-50.2,19.57s0-.04,0-.05c.32,0,.64,0,.96,0,6.71.12,13.42.26,20.13.36,1.65.02,1.64-.03,1.24-1.58-.24-.93-.48-1.85-.66-2.79-1.42-7.71-1.24-15.41-.05-23.13.1-.68.6-1.57-.02-2.04-.64-.48-1.34.24-1.94.57-13.3,7.14-26.59,14.28-39.87,21.45-2.35,1.27-2.33,1.3-2.51,4.02-.02.24-.04.48-.05.72-.06,1.97-.05,1.99,1.93,2.03,6.95.15,13.9.3,20.84.45ZM59,16.12c-3.5-.5-7.27,1.42-10.4,4.88-2.65,2.92-3.8,6.45-3.78,10.32.01,1.74.19,3.66,1.57,4.9,2.36,2.14,4.91,4.08,7.39,6.1,1.13.92,1.76-.2,2.45-.7.87-.63,0-1.09-.37-1.51-3.11-3.57-4.1-7.86-4.23-12.44,0-.32-.01-.65.09-.94.06-.18.31-.33.5-.41.08-.03.3.13.36.25.14.28.24.58.33.89,1.15,4.05,3.94,6.67,7.51,8.58,1.37.73,1.61.73,2.16-.71.59-1.53,1.61-1.8,3.01-1.73,2.07.11,4.15.04,6.22.35.99.15,1.13-.32.8-1.1-.65-1.55-1.34-3.14-2.47-4.36-1.86-2.01-2.85-4.37-3.43-6.97-.07-.31-.19-.61-.31-.91-1.98-5.26-.68-4.08-7.39-4.51Zm1.28-.77c.96,0,1.91,0,2.87,0,.59,0,1-.31.69-.87-.58-1.06-.16-1.72.54-2.53,1.83-2.11,1.92-4.24.4-6.56-1.23-1.88-3.02-3.01-5.1-3.77-1.41-.52-2.7-.5-4.12.16-3.06,1.43-5.8,3.33-8.52,5.3-5.65,4.1-10.25,9.09-13.42,15.35-.47.93-.9,1.87-1.18,2.87-.09.31-.17.74.09.87.16.09.56-.21.82-.38.33-.22.64-.47.95-.72,4.27-3.46,9.09-5.9,14.25-7.67,3.78-1.3,7.66-2.2,11.71-2.05Zm-43.91,7.78c-.11,2.48.95,4.52,2.19,6.51,1.18,1.9,2.82,3.24,4.85,4.11,1.08.47,1.86.08,2.16-1.04.08-.3.05-.63.08-.95.29-3.38,1.23-6.54,2.76-9.59,2.43-4.85,5.72-9.01,9.65-12.7,2.74-2.58,5.83-4.71,8.83-6.95.26-.19.66-.42.53-.71-.14-.31-.57-.11-.87-.04-8.14,1.94-15.86,4.88-22.57,10.01-2.55,1.95-4.7,4.32-6.37,7.08-.8,1.32-1.32,2.73-1.25,4.26Zm45.74,48.77c3.28.19,5.98.35,8.68.51,1.07.06,1.62-.14,1.89-1.47.39-1.9-.05-3.98,1.1-5.74.15-.23.19-.73.04-.92-1.03-1.32-.74-2.83-.78-4.32-.05-1.51-.37-1.79-1.91-1.73-2.23.09-4.45.23-6.68.36-2.56.15-5.04.67-7.48,1.43-.73.23-1.37.54-1.55,1.32-.71,3.19-1.47,6.37-1.58,9.65-.02.69.22.94.98.92,2.62-.06,5.24-.02,7.29-.02Zm-18-23.33c1.53.06,3.04-.04,4.51-.46.91-.26.96-.58.22-1.25-.36-.32-.76-.58-1.14-.87-6.06-4.57-12.11-9.15-17.15-14.9-.9-1.03-1.13-1-2.08.07-1.69,1.92-3.29,3.91-5.01,5.8-.73.81-.81,1.4-.04,2.23,1.9,2.06,3.84,4.03,6.28,5.5,4.45,2.67,9.32,3.63,14.4,3.88Zm31.37,47.32v.19c2.71,0,5.43.01,8.14,0,1.91-.01,1.93-.04,1.11-1.87-1.81-4.01-3.97-7.83-6.34-11.53-.96-1.5-1.15-1.56-2.63-.61-2.92,1.87-5.38,4.25-7.46,7.03-1.1,1.47-2.12,3-2.67,4.79-.52,1.71-.39,1.95,1.45,2,2.79.06,5.59.02,8.38.02Zm-45.6-30.53c.24-1.03-.3-1.18-1.18-1.22-6.14-.27-11.98-1.69-17.34-4.8-2.87-1.67-2.21-1.37-3.46,1.1-.7,1.4-.66,1.45.91,2.21,3.13,1.5,5.88,3.52,8.28,6.02,1.94,2.02,3.74,4.16,5,6.68.48.96.98,1.05,1.86.54,1.24-.73,2.53-1.35,3.79-2.04.65-.35,1.17-.76,1.18-1.63.03-2.32.34-4.61.95-6.85ZM1.14,86.15c-.07,1.77.09,1.9,1.55,1.11,3.93-2.13,7.85-4.29,11.75-6.47,1.23-.69,1.24-.76.41-1.99-2.31-3.39-5.55-5.71-9.07-7.65-1.38-.76-1.56-.64-1.98.84-1.35,4.69-2.11,9.5-2.66,14.16Zm44.07-6.86c-.18,4.11.22,7.91.9,11.7.21,1.19.52,2.34,1.03,3.43.46.99,1.81,1.52,2.8,1.05.93-.44.38-1.24.3-1.89-.95-7.65-.78-15.31-.27-22.97.15-2.24.62-4.42,1.14-6.6.23-.95-.1-1.18-1.01-.79-1.03.44-2.01.97-3.03,1.44-.65.3-.94.79-.97,1.5-.18,4.47-1.18,8.88-.89,13.13Zm-23.58-2.85c-.24-.46-.5-1.06-.84-1.59-2.55-3.93-5.63-7.35-9.64-9.85-.95-.59-1.95-1.09-2.94-1.61-.86-.45-1.5-.35-1.85.68-.49,1.44-.97,2.87-1.53,4.28-.38.95-.11,1.34.82,1.77,3.51,1.65,6.48,4.05,9.09,6.91.69.76.93,2.11,1.95,2.32,1.1.23,2.01-.82,3.02-1.25.51-.22.99-.52,1.48-.78.31-.16.47-.41.44-.89Zm-2.13-14.75c.62.32.95-.07,1.16-.68.47-1.35.89-2.72,1.41-4.05,1.33-3.41,2.76-6.78,4.03-10.21,1.08-2.93.98-2.96-1.41-4.88-.57-.46-.9-.49-1.26.2-2.56,4.86-5.26,9.65-6.96,14.9-1.19,3.67-.88,4.14,3.04,4.72Zm7.37-31.3c-.03.3-.15.68.26.78.18.04.49-.09.62-.24,1.41-1.64,3.57-2.76,3.63-5.35.01-.53.33-1.06.56-1.57,2.37-5.12,5.38-9.79,9.65-13.55,3.72-3.28,7.6-6.34,11.99-8.7.26-.14.71-.23.58-.61-.05-.14-.57-.19-.86-.17-1.88.12-3.58.76-5.12,1.83-2.68,1.87-5.36,3.76-7.85,5.89-5.1,4.37-9.24,9.47-11.93,15.68-.83,1.92-1.32,3.92-1.52,6Zm-1.11,32.59c1.59.06,1.64.07,1.98-1.66.77-3.93,1.97-7.73,3.25-11.5,1.21-3.56,1.05-2.64-1.69-4.29-1.33-.8-1.43-.77-2.04.72-1.63,3.99-3.24,7.99-4.76,12.02-1.62,4.27-1.4,4.54,3.25,4.73Zm-2.58-22.37c-.15-.64-.54-1.06-1.03-1.33-.58-.32-.85.26-1.12.59-4.15,4.98-7.75,10.33-10.91,15.98-.57,1.03-.3,1.61.64,2.11.91.49,1.8,1.02,2.7,1.54.81.47,1.3.3,1.55-.66,1.6-6.16,4.7-11.66,7.61-17.24.18-.35.38-.68.55-.99Zm27.25,40.42c0,2.39-.03,4.78.01,7.17.04,2,.31,3.98.75,5.92.3,1.34.79,1.66,1.95,1.45,1.13-.2.71-1.08.67-1.7-.19-2.7-.44-5.4-.66-8.11-.62-7.65-.75-15.28.97-22.84.12-.51.51-1.16-.13-1.5-.56-.3-1.03.26-1.48.57-.5.34-.63.85-.73,1.43-1.03,5.82-1.77,11.66-1.35,17.59Zm-9.22-23.92c.41,2.59.81,5.18,1.25,7.76.14.86.76.66,1.28.42,2.24-1.01,4.47-2.05,6.72-3.06,1.01-.45.71-1.06.26-1.7-1.65-2.35-3.74-4.33-5.69-6.41-.45-.47-.84-.5-.96.22-.19,1.19-.78,1.86-2.04,1.87-.54,0-.92.25-.81.89Zm-8.5-26.41c-.68.02-.84.27-.55.72.17.27.39.51.61.74,3.5,3.62,7.3,6.9,11.31,9.95.83.63,1.2.4,1.56-.43.28-.67.79-1.19,1.28-1.71,1.1-1.16,1.1-1.2-.13-2.14-3.31-2.53-6.89-4.61-10.74-6.21-1.1-.46-2.24-.83-3.33-.91Zm-3.1,32.53c.78-.02.84-.84,1-1.5.76-3.03,2-5.86,3.56-8.56.68-1.17,1.37-2.34,2.13-3.45.61-.88.34-1.26-.59-1.45-.23-.05-.45-.15-.68-.22-2.21-.72-2.55-.57-3.21,1.63-.71,2.36-1.38,4.73-2.02,7.11-.46,1.69-.85,3.39-1.25,5.1-.17.71-.06,1.28,1.06,1.35Zm40.19-13.25c1.27,0,2.55,0,3.82,0,.55,0,1.19.07,1.55-.43.51-.72.96-1.59.71-2.44-.27-.92-1.22-.47-1.86-.48-3.81-.06-7.62.67-11.43-.03-.7-.13-1.03.16-1,.9.07,1.4.53,1.89,2.02,2.05,2.06.22,4.11.45,6.19.43Zm-5.23.52c-.18,0-.42-.02-.66-.03-.75-.01-1.07.27-.65,1,.2.34.46.65.66.99,1.16,1.96,3.33,2.91,4.72,4.66.35.44.99.29,1.08-.32.25-1.79,1.56-2.69,2.84-3.65.44-.33.83-.74,1.21-1.15.21-.22.44-.5.27-.84-.17-.34-.53-.29-.83-.29-2.87-.06-5.74.04-8.65-.37Zm-12.08,8.6c.02-.53-.24-.84-.45-1.17-1.45-2.28-2.94-4.53-4.32-6.85-.74-1.24-1.67-1.73-3.11-1.61-1.79.15-1.84.14-.96,1.66.16.27.29.58.51.79,2.37,2.24,4.52,4.68,6.66,7.14.16.18.31.36.49.52.27.24.59.23.85,0,.16-.15.26-.36.34-.48Zm3.79-2.68c-.17-.27-.28-.49-.43-.67-1.66-2.14-3.43-4.19-5.36-6.09-.34-.33-.69-.68-1.22-.66-.4.01-.83,0-1.11.32-.33.38-.06.73.16,1.06,1.54,2.41,3.08,4.83,4.62,7.24.29.46.58,1.07,1.28.64.79-.49,1.64-.94,2.05-1.84Zm-15.79-1.26c2.73.11,3.2-.51,2.38-3.16-.14-.45-.33-.91-.6-1.29-.65-.91-2.87-1.94-3.55-1.6-1.14.57-.8,1.8-1.04,2.76-.15.6-.07,1.27,0,1.9.08.8.52,1.33,1.38,1.38.48.03.96,0,1.44,0Zm20.97,2.24c-.38-.61-1.01-1.1-1.6-1.62-.49-.42-.92-.52-1.42.04-1.64,1.84-3.48,3.45-5.7,4.58-.13.06-.3.27-.28.35.09.25.37.32.57.22,2.56-1.29,5.21-2.33,8.02-2.95.24-.05.38-.25.41-.62Zm4.33-11.71c-.38.02-.71-.1-.98.15.21.05.43.16.64.13.41-.05.86.17,1.22-.18-.32-.04-.63-.08-.87-.11Z"/>
  <path class="cls-4" d="m63.97,23.86c0,1,.05,1.96-.02,2.91-.06.78-.55,1.35-1.3,1.55-.8.22-1.47-.18-1.8-.86-.96-1.97-1.95-3.86-4.26-4.55-.09-.03-.18-.26-.18-.4,0-.29.27-.38.49-.37,1.76.09,3.23.8,4.41,2.09.43.47.75,1.03,1.15,1.53.08.11.26.22.37.2.09-.01.2-.21.22-.34.29-2.26-1.56-5-3.97-5.84-.29-.1-.68-.1-.65-.52.02-.38.39-.45.68-.54,3.16-.95,5.2.68,5,4-.02.4-.09.79-.14,1.15Z"/>
  <path class="cls-4" d="m73.8,75.61c.23.55.34,1.09-.33,1.43-6.66,3.33-10,9.34-12.76,15.82-.3.7-.59,2.13-1.02,1.89-.95-.52,0-1.48.27-2.2,1.47-3.9,3.41-7.55,6.13-10.75,2.04-2.39,4.34-4.45,7.29-5.67.19-.08.3-.33.45-.5,0,0-.03-.03-.03-.03Z"/>
</svg>