<?xml version="1.0" encoding="UTF-8"?>
<svg id="Layer_1" data-name="Layer 1" xmlns="http://www.w3.org/2000/svg" viewBox="0 0 95.94 97.64">
  <defs>
    <style>
      .cls-1, .cls-2, .cls-3 {
        stroke-width: 0px;
      }

      .cls-2 {
        fill: #f9faf5;
      }

      .cls-3 {
        fill: #e3b75e;
      }
    </style>
  </defs>
  <path class="cls-2" d="m33.31,96.82l.23-18.2-2.71.46-6.64-2.77-10.62-13.38-6.75-12.88-4.63-13.89.13-12.74,5.05-1.6-.57-2-3.1-1.5-1.86-1.71-1.3-4.64.29-3.67,13.89-.92.79,3.04-1.79,4.31-3.73,4.36-.55,1.19-.41,2.01,4.19.47-.62,5.26.95.72,3.16-3.87,2.07,1.2.26,1.43-.64,8.89,2.64,4.97,4.85,5.72,4.18,2.95,1.2-4.71,2.5-2.27-2.96-7.98-1.25-10.73-4.44-.98-4.35-3.1-2.2-2.85.21-2.3,2.88,1.76,3.79-.12,1.6-1.7.71-7.11.65-3.78,4.51-3.42s11.21-4.66,16.94,11.74c5.74,16.4,0,0,0,0,0,0,1.6,4.36,6.68,2.21s4.52-.73,4.52-.73c0,0,2.25,9.42-6.89,13.66l-.02.75s21.45,12.15,34.65,39.3c0,0,7.39,21.97,6.66,29.14h-62.19"/>
  <path class="cls-3" d="m59.92,13.8c-2.83.83-5.8,1.7-8.74.92-.17-.05-.33-.05-.48-.04-1.58-3.88-3.46-7.66-6.46-10.64,0-.09-.02-.17-.05-.26-.5-1.47-2.01-1.76-3.34-2.15-.1-.03-.19-.05-.29-.08-.69-.43-1.42-.74-2.27-.79-.26-.02-.48.04-.65.14-.49-.07-.98-.13-1.47-.16-2.68-.13-5.35.75-6.99,2.94-.15.2-.2.45-.18.7-1.16,1.55-1.32,3.91-1.34,5.72-.01.99.07,2.05.06,3.1-.35.19-.6.53-.62,1.04,0,.27-.01.53-.02.8-.15.1-.28.21-.4.37-.26.35-.34.76-.36,1.18-.27.07-.57.12-.84.16-.93.12-1.91.21-2.83.01-.36-.08-.67-.02-.92.13-.01,0-.03-.01-.04-.02-.04-.01-.07-.04-.1-.05-.34-.31-.68-.61-1.03-.92-.46-.41-1.14-.5-1.64-.1-.46.37-.67,1.08-.32,1.61.06.09.13.17.2.25,0,0,0,0,0,0,0,0,0,0,0,0,.37.49.82.89,1.34,1.2.02.02.05.04.07.07-.1.51.16,1,.59,1.33.86.65,1.71,1.29,2.57,1.94.79.6,1.56,1.17,2.52,1.46.85.26,1.86.39,2.75.36.73-.03,1.47-.26,1.97-.78,2.15-.11,4.31-.2,6.47-.21,1.76,1.09,3.83,1.27,5.84,1.63,2.35.43,4.66,1.01,6.94,1.73,2.22.7,4.41,1.11,6.48-.3,1-.68,1.72-1.56,2.3-2.54.19-.14.35-.36.43-.66.02-.08.03-.16.05-.25.05-.11.1-.21.15-.32.63-.88,1.06-2.04,1.4-3,.49-1.39.74-2.84.84-4.31.06-.81-.84-1.42-1.58-1.21Z"/>
  <path class="cls-3" d="m13.71,14.21c-.13-.47-.51-.77-.95-.86-.17-.09-.36-.14-.56-.13-1.55.07-3.1.14-4.64.21-.65.03-1.3.08-1.96.08-.11-.04-.2-.08-.28-.15-.48-.38-1.09-.41-1.53-.15-.22-.02-.44-.04-.66-.04-.18,0-.33.03-.47.08-.33-.13-.71-.14-1.06.06-.56.32-.83,1.15-.45,1.71.21.31.44.61.68.9-.1.41-.01.87.3,1.19.86.89,1.95,1.42,3.01,2.02.8.45,1.65,1,1.9,1.81.48,1.53,2.81.9,2.41-.66-.1-.4.26-.86.55-1.19.49-.55,1.02-1.07,1.39-1.72.26-.44.48-.95.75-1.12.25-.16.47-.32.67-.49,0,0,0,0,.01,0,.66-.15,1.05-.91.87-1.54Z"/>
  <path class="cls-3" d="m67.32,39.27c-.61,0-.99.36-1.13.8-.04,0-.08-.01-.13-.01-.09,0-.17.01-.25.03-.06.11-.13.22-.23.31-.19.18-.41.3-.64.43-.27.74.1,1.74,1.12,1.74.61,0,.99-.36,1.13-.8.04,0,.08.01.13.01,1.61,0,1.61-2.5,0-2.5Z"/>
  <path class="cls-3" d="m46.46,69.39c-.07-.06-.13-.12-.2-.18-.13-.45-.53-.86-.79-1.23-.34-.48-.68-.96-1.03-1.43-.69-.95-1.38-1.9-2.09-2.84-.1-.14-.25-.21-.4-.24-.22.74-.7,1.35-1.11,1.99-.48.75-.89,1.56-1.27,2.36-.52,1.09-.71,2.49-1.52,3.42.02.12.08.24.16.34,1.38,1.75,2.48,3.71,3.27,5.79.17.44.91.69,1.14.15,1.11-2.56,2.43-5.01,3.95-7.36.14-.22.1-.58-.1-.76Z"/>
  <path class="cls-3" d="m46.88,84.73c-.03-.08-.07-.16-.14-.23-1.34-1.47-2.62-2.99-3.84-4.56-.54.62-1.09,1.24-1.58,1.91-.6.82-.97,1.74-1.47,2.62-.34.59-.77,1.18-1.37,1.5-.03.14-.03.28,0,.43.11.51.47,1.03.71,1.49.3.59.6,1.18.89,1.77.6,1.18,1.19,2.36,1.79,3.55.04.08.09.13.14.18.15.46.91.59,1.12.11,1.12-2.56,2.75-4.83,4.81-6.71.26-.24.22-.64,0-.88-.35-.39-.71-.79-1.06-1.18Z"/>
  <path class="cls-3" d="m62.75,42.27c-.18.01-.35,0-.5,0-.55-.54-1.42-.73-2.1-.24-.45.33-.69.93-.57,1.45-.13.06-.26.13-.37.18-.49.22-.98.45-1.46.68-.22.11-.44.24-.66.36-.2-.24-.5-.39-.91-.39-.92,0-1.31.82-1.18,1.52-.03.02-.06.03-.08.05-1.23.73-2.41,1.54-3.57,2.39-.07-.08-.14-.16-.22-.23-1.1-.95-2.56.22-1.96,1.51.05.11.07.23.08.34-.07.05-.13.11-.19.17-.22-.19-.49-.31-.78-.31-.87,0-1.62.2-2.4.56-.69.31-.74,1.21-.39,1.79-.52.41-1.09.74-1.68,1.03-.2-.2-.48-.33-.84-.33-.39,0-.69.15-.89.38-.71.08-1.36.57-1.61,1.23-.23.07-.47.14-.7.21-.29.08-.58.17-.86.25-.19-.15-.44-.25-.76-.25-.7,0-1.09.47-1.18,1-.11-.05-.22-.1-.34-.14-1.31-.52-1.97,1.26-1.12,2.11-.14.05-.27.14-.34.27-.03,0-.06,0-.09,0-.03-.05-.06-.11-.09-.16-.36-.56-1.43-.21-1.14.48.02.05.05.1.07.15,0,0,0,0,0,0,.04.07.08.14.11.2.04.08.08.17.12.25-.04.08-.06.16-.06.27.04,1.72.07,3.43.11,5.15,0,.07.03.13.05.18,0,0,0,.02,0,.03-.06.43.02.8.19,1.14-.19.03-.38.14-.47.3-.19.32-.05.65.22.86.25.18.35.57.47.84.2.49.44.95.71,1.4.28.47.67,1.16,1.33.77.39-.23.47-.87.64-1.25.76-1.74,1.95-3.24,2.85-4.9.12-.22.09-.43-.01-.59.05-.14.03-.31-.08-.46-.96-1.36-1.92-2.72-2.88-4.08,0-.01-.02-.02-.03-.03,1.44.68,2.81,1.51,4.09,2.46.57.42,1.36.06,1.71-.45,1.37-2.01,2.93-3.89,4.63-5.63.74.02,1.46-.37,2.03-.86.11-.1.22-.2.32-.31,0,.01,0,.02,0,.04.26.82.56,1.63.87,2.44.81,1.43,1.69,2.82,2.61,4.19.41-.26.59-.87.8-1.33.32-.7.63-1.4.95-2.1.64-1.42,1.29-2.84,1.93-4.26.1-.21.09-.45-.01-.63.02-.18-.04-.34-.16-.48-.01-.26-.14-.5-.34-.68-.15-.13-.3-.26-.45-.39l-.44-.38c-.1-.09-.2-.18-.31-.25-.12-.07-.26-.1-.41-.1.65-.65,1.31-1.29,1.96-1.94.05-.05.1-.11.14-.17,1.4-.74,2.83-1.42,4.27-2.15.33-.17.63-.39.88-.66.17,0,.33.02.51,0,1.6-.09,1.61-2.59,0-2.5Zm-10.94,9.86c-.29.24-.71.48-.92.81,0,.01,0,.03-.02.04-.09-.05-.18-.08-.28-.09.22-.28.41-.57.58-.87.24.06.49.06.74.03-.03.03-.06.05-.09.08Z"/>
  <path class="cls-3" d="m48.46,69.1c.06-.09.11-.18.17-.27.1-.16.2-.32.31-.48.19-.27.3-.61.44-.92.16-.33.34-.65.52-.98.41-.71.78-1.44,1.2-2.15.41-.68.83-1.35,1.22-2.04,0-.01.02-.02.03-.03-.04-.07-.09-.14-.16-.2,0-.02,0-.03-.02-.05-.65-1.17-1.3-2.33-1.99-3.47l-.6-1.06s0-.02.01-.03c-.42-.57-.84-1.14-1.27-1.71-.16-.21-.02-.41.18-.47-.2-.01-.39.05-.52.23-.33-.13-.78,0-.85.4-.07.43-.18.85-.3,1.26-.36.47-.72.94-1,1.47-.35.66-.62,1.36-.86,2.07-.29.44-.53.91-.54,1.44-.01.01-.02.03-.03.05-.06.08-.09.17-.1.25-.22.22-.3.58-.03.87.2.22.39.46.58.69.43.75.88,1.49,1.35,2.21.64.97,1.3,1.96,2.09,2.82.04.05.09.06.14.09Z"/>
  <path class="cls-3" d="m53.88,63.55c-.3-.09-.66.01-.76.41-.11.43-.23.86-.36,1.28-.02.03-.05.05-.07.09l-1.66,3.08c-.19.35-.48.77-.69,1.2-.17.08-.3.24-.37.41-.11.28.03.55.13.81.11.28.22.57.33.85.23.59.45,1.19.68,1.78.45,1.19.9,2.37,1.36,3.56.05.12.12.22.2.29,0,.29.19.56.53.59.26.28.82.27,1-.1.71-1.41,1.41-2.82,2.27-4.14.77-1.19,1.75-2.29,2.07-3.71.02-.1.02-.19,0-.28,0,0,0-.02,0-.03-1.66-1.94-3.17-3.99-4.64-6.08Z"/>
  <path class="cls-3" d="m63.48,61.32c-.29-.62-.69-1.16-1.1-1.7-.42-.57-.8-1.15-1.15-1.76-.69-1.24-1.23-2.55-1.76-3.86-.13-.31-.42-.53-.77-.44-.01,0-.02.01-.03.02-.23,0-.45.14-.51.45-.16.81-.65,1.47-1.05,2.16-.46.79-.86,1.6-1.21,2.44-.34.82-.62,1.65-.84,2.51-.09.35-.29.84-.22,1.21.48.66.98,1.31,1.49,1.96.14.13.29.26.42.4.38.4.68.87,1.06,1.28.31.33.65.62.97.93.08.08.16.16.23.24.04.05.09.1.13.15.01.02.03.03.04.05-.02-.03-.02-.03,0,0,.06.09.12.18.18.27.03.05.05.09.08.14.01.03.02.04.02.04,0,0,0,0,.01.05.11.32.43.53.77.44.25-.07.44-.31.45-.57.18-1.01.76-1.85,1.26-2.72.57-.98,1.07-1.99,1.51-3.03.01-.03.01-.05.02-.08.07-.18.07-.38-.02-.57Z"/>
  <path class="cls-3" d="m52.19,79c0-.1,0-.21-.07-.32-1.16-2.21-2.3-4.43-3.42-6.66-.09-.17-.22-.24-.35-.27-.27.52-.63.96-1.02,1.4-.5.57-.88,1.17-1.24,1.84-.66,1.21-1.24,2.47-2.06,3.58-.12.26-.08.6.16.78,0,.12.05.25.15.37,1.51,1.71,3.02,3.41,4.53,5.12.27.3.66.2.89-.04.12-.07.23-.18.28-.35.27-.86.59-1.7.98-2.52.2-.41.41-.81.64-1.21.24-.41.5-.83.57-1.31.02-.14,0-.28-.05-.41Z"/>
  <path class="cls-3" d="m39.98,78.2s-.01-.07-.03-.1c-.5-1.01-.99-2.02-1.47-3.03-.07-.14-.13-.29-.2-.43-.71-.94-1.22-2.01-1.85-3-.02,0-.04,0-.06.01-.24-.18-.61-.2-.83.04-.52.57-1.06,1.12-1.63,1.64-.24.22-.24.66,0,.88.02.02.04.02.06.04-.15,1.46-.32,2.92-.44,4.38-.06.74-.12,1.49-.07,2.22.03.43.17.73.41.97-.01.13,0,.25.08.36.73.97,1.44,1.95,2.15,2.94.28.4,1.02.42,1.14-.15.22-1.08.76-2.07,1.24-3.05.49-1,1.03-1.98,1.71-2.87.2-.26.05-.68-.21-.84Z"/>
  <path class="cls-3" d="m60.16,72.57c-.3-.1-.66-.01-.78.38-.13.43-.27.85-.41,1.27-.02.03-.05.05-.07.08l-1.78,3.01c-.2.34-.51.75-.74,1.17-.18.07-.31.23-.39.4-.12.28,0,.55.1.82.1.29.19.58.29.87.2.6.41,1.2.61,1.8.41,1.2.81,2.41,1.22,3.61.04.13.11.22.19.29,0,.29.17.56.51.61.25.29.8.3,1.01-.06.76-1.38,1.52-2.76,2.43-4.05.82-1.16,1.84-2.22,2.21-3.63.03-.1.03-.19.01-.28,0,0,0-.02,0-.03-1.59-2-3.01-4.11-4.39-6.26Z"/>
  <path class="cls-3" d="m66.29,73.97c0-.16.09-.27.21-.31-.11-.64-.21-1.29-.27-1.93-.11-1.07-.06-2.09.13-3.15.18-1.02.43-2.03.4-3.08,0-.12.05-.21.12-.26-.26-.66-.51-1.33-.75-1.99-.11-.32-.39-.55-.75-.47-.01,0-.02.01-.03.01-.23,0-.45.13-.53.43-.19.8-.7,1.44-1.14,2.12-.49.77-.92,1.57-1.3,2.4-.37.8-.68,1.63-.94,2.47-.1.34-.32.83-.27,1.2.45.68.93,1.35,1.41,2.01.14.14.28.27.4.42.37.42.65.9,1.01,1.32.29.34.63.64.94.97.08.08.15.16.22.25.04.05.08.1.12.15.01.02.03.03.04.05-.02-.03-.02-.03,0,0,.06.09.12.18.17.28.02.05.05.1.07.15.01.03.02.04.02.04,0,0,0,0,.01.05.1.32.41.55.75.47.15-.04.28-.14.37-.28-.3-1.07-.41-2.2-.42-3.31Z"/>
  <path class="cls-3" d="m45.6,97.35c.73-.07,1.46-.06,2.19-.07,1.47,0,2.95.03,4.42.03.12,0,.2.05.26.11,0-.03.01-.07,0-.1,0,0,0-.02,0-.03-1.51-2.06-2.86-4.22-4.16-6.42-.3-.11-.66-.04-.79.35-.14.42-.3.84-.46,1.25-.03.03-.05.05-.08.08l-1.9,2.94c-.22.34-.54.73-.78,1.14-.18.06-.32.21-.4.38-.06.13-.07.26-.05.39.57.08,1.15,0,1.73-.06Z"/>
  <path class="cls-3" d="m58.06,89.39c-.24-.64-.6-1.21-.96-1.78-.37-.6-.71-1.21-1.01-1.85-.59-1.29-1.03-2.63-1.46-3.98-.1-.32-.37-.56-.73-.49-.01,0-.02.01-.03.01-.23,0-.46.11-.54.41-.22.79-.76,1.41-1.22,2.08-.52.75-.98,1.53-1.39,2.34-.4.79-.75,1.6-1.03,2.44-.12.34-.35.82-.31,1.19.43.7.88,1.38,1.33,2.06.13.14.26.28.39.43.35.43.61.92.96,1.35.28.35.6.66.9,1,.07.08.14.17.21.25.04.05.08.1.12.16.01.02.03.04.04.05-.02-.03-.02-.03,0,0,.06.09.11.19.16.28.02.05.04.1.06.15.01.03.02.04.02.04,0,0,0,0,.01.05.09.33.38.56.73.49.25-.05.46-.28.5-.54.26-.99.9-1.78,1.47-2.61.64-.93,1.22-1.9,1.74-2.91.01-.03.02-.05.03-.08.09-.17.1-.38.03-.57Z"/>
  <path class="cls-3" d="m56.62,97.1c.71-.03,1.41-.07,2.13-.04.5.02,1,.05,1.49.07.82-.11,1.64-.14,2.47-.13-1.11-1.62-2.14-3.29-3.14-4.98-.3-.11-.66-.04-.79.35-.14.42-.3.84-.46,1.25-.03.03-.05.05-.08.08l-1.9,2.94c-.09.15-.21.31-.33.47.2,0,.4,0,.6-.01Z"/>
  <path class="cls-3" d="m69.32,90.53c-.24-.64-.6-1.21-.96-1.78-.37-.6-.71-1.21-1.01-1.85-.59-1.29-1.03-2.63-1.46-3.98-.1-.32-.37-.56-.73-.49-.01,0-.02.01-.03.01-.23,0-.46.11-.54.41-.22.79-.76,1.41-1.22,2.08-.52.75-.98,1.53-1.39,2.34-.4.79-.75,1.6-1.03,2.44-.12.34-.35.82-.31,1.19.43.7.88,1.38,1.33,2.06.13.14.26.28.39.43.35.43.61.92.96,1.35.28.35.6.66.9,1,.07.08.14.17.21.25.04.05.08.1.12.16.01.02.03.04.04.05-.02-.03-.02-.03,0,0,.06.09.11.19.16.28.02.05.04.1.06.15.01.03.02.04.02.04,0,0,0,0,.01.05.09.33.38.56.73.49.25-.05.46-.28.5-.54.26-.99.9-1.78,1.47-2.61.64-.93,1.22-1.9,1.74-2.91.01-.03.02-.05.03-.08.09-.17.1-.38.03-.57Z"/>
  <path class="cls-3" d="m64.1,45.35c-.31-.06-.66.07-.72.47-.07.44-.16.87-.25,1.31-.02.03-.05.05-.06.09l-1.4,3.21c-.16.37-.41.81-.59,1.25-.17.09-.28.26-.34.44-.09.29.08.55.2.8.13.27.26.55.4.82.28.57.55,1.14.83,1.71.55,1.14,1.1,2.29,1.65,3.43.06.12.14.21.22.27.03.28.24.54.58.54.29.25.84.2.99-.19.58-1.46,1.17-2.93,1.91-4.32.67-1.25,1.55-2.43,1.74-3.87.01-.1,0-.19-.02-.28,0,0,0-.02-.01-.03-1.82-1.79-3.5-3.71-5.14-5.67Z"/>
  <path class="cls-3" d="m40.6,95.31c-.24-.64-.6-1.21-.96-1.78-.37-.6-.71-1.21-1.01-1.85-.59-1.29-1.03-2.63-1.46-3.98-.1-.32-.37-.56-.73-.49-.01,0-.02.01-.03.01-.23,0-.46.11-.54.41-.22.79-.76,1.41-1.22,2.08-.45.65-.85,1.34-1.22,2.04,0,0,0,0,0,0,.34,1.33.21,2.71.21,4.06,0,.23-.18.34-.36.34-.01.09-.03.19-.03.29,0,.08.03.28.01.36.02.01.04.02.05.03-.03-.01-.01,0,0,0,.06-.06.13-.1.24-.1.7-.02,1.4.03,2.09.1.39-.04.77-.07,1.16-.1.55-.04,1.13-.09,1.67.02.23.05.29.25.23.42.37.04.74.08,1.11.11.25-.43.5-.86.72-1.3.01-.03.02-.05.03-.08.09-.17.1-.38.03-.57Z"/>
  <path class="cls-3" d="m67.76,38.23c-.37.62-.71,1.24-1.01,1.9-.37.8-.68,1.63-.94,2.47-.1.34-.32.83-.27,1.2.45.68.93,1.35,1.41,2.01.14.14.28.27.4.42.37.42.65.9,1.01,1.32.29.34.63.64.94.97.08.08.15.16.22.25.04.05.08.1.12.15.01.02.03.03.04.05-.02-.03-.02-.03,0,0,.06.09.12.18.17.28.02.05.05.1.07.15.01.03.02.04.02.04,0,0,0,0,.01.05.1.32.41.55.75.47.25-.06.45-.3.48-.55.22-1,.83-1.82,1.37-2.67.38-.6.73-1.22,1.06-1.85-2.18-2.01-3.39-4.94-5.86-6.65Z"/>
  <path class="cls-3" d="m62.75,43.75c-.26-.63-.65-1.18-1.03-1.74-.18-.26-.35-.53-.51-.8-.5-.11-.93-.09-1.29.32-.34.39-.57.87-.91,1.26-.26.3-.55.46-.85.55-.24.16-.51.28-.86.33-.41.06-.82.03-1.23,0-.26-.02-.48-.04-.7.12-.38.27-.62.7-.88,1.07-.02.03-.05.06-.07.09.35.51.71,1.02,1.07,1.53.14.14.28.27.4.42.37.42.65.9,1.01,1.32.29.34.63.64.94.97.08.08.15.16.22.25.04.05.08.1.12.15.01.02.03.03.04.05-.02-.03-.02-.03,0,0,.06.09.12.18.17.28.02.05.05.1.07.15.01.03.02.04.02.04,0,0,0,0,.01.05.1.32.41.55.75.47.25-.06.45-.3.48-.55.22-1,.83-1.82,1.37-2.67.6-.96,1.15-1.95,1.63-2.97.01-.03.02-.05.03-.08.08-.17.09-.38,0-.57Z"/>
  <path class="cls-3" d="m29.27,65.29c-1.68-2.27-3.84-4.14-6.36-5.43-.54-.28-1.03.21-.89.74-.06.22-.03.46.15.61.22.18.43.37.64.56.09.09.18.17.28.25,1.66,1.56,3.1,3.35,5.02,4.61.21.14.6.11.76-.1.1-.13.16-.26.18-.39,0,0,0,0,0,0,.27-.16.43-.58.22-.86Z"/>
  <path class="cls-3" d="m27.08,69.8c-1.55-1.22-3.38-1.96-5.34-2.13-.34-.03-.62.31-.62.62,0,.24.13.41.31.52-.03.06-.05.12-.06.17-.04.32.15.58.45.69.8.28,1.61.53,2.43.75.82.23,1.7.58,2.55.41.43-.08.64-.76.28-1.04Z"/>
  <path class="cls-3" d="m72.9,59.36c-.34.02-.62.27-.62.62v2.45c0,.33.29.64.62.62.34-.02.62-.27.62-.62v-2.45c0-.33-.29-.64-.62-.62Z"/>
  <path class="cls-3" d="m80.27,63.91s0,0,0,0c0,0,0-.02,0-.03-.07-.65-.29-1.25-.6-1.81-.11-.97-.58-1.94-.94-2.82-.46-1.12-.96-2.21-1.52-3.28-.04-.07-.08-.12-.13-.16-.22-.76-1.4-.43-1.2.35.19.73.45,1.44.73,2.13-.31.1-.56.38-.41.73.02.05.05.1.07.15h0s.05.08.07.13c.17.36.37.71.59,1.04.52.9,1.05,1.79,1.6,2.66.05.08.12.14.19.19.13.35.24.7.35,1.06.19.65,1.28.56,1.23-.17,0-.06-.02-.11-.03-.17Z"/>
  <path class="cls-1" d="m50.56,97.35s0,0,0,0c0,0,.02,0,.03,0,.01,0,.02,0,.03,0,0,0,.01,0,.02,0,.02,0,.04,0,.07,0,.05,0,.1,0,.14,0,.1,0,.2-.01.29-.02-.08,0-.17,0-.25,0h18.17s.03-.02.05-.03c.65-.14,1.3-.01,1.95-.01.06,0,.1.02.15.04h23.33c.45-.17.92-.2,1.4-.19-.03-.13-.05-.27-.05-.41v-.4h-.03c-.12-2.67-.61-5.29-1.02-7.92-1.08-7.06-2.8-13.92-5.86-20.42-4.01-8.53-9.34-16.19-15.32-23.41-4.98-6.01-10.76-11.14-17.46-15.19-2-1.21-2.02-1.14-.02-2.51,4.39-3.01,6.12-7.21,5.45-12.44-.2-1.56-.5-1.74-2.06-1.25-.99.31-1.94.74-2.92,1.06-4.19,1.38-5.58.76-7.25-3.27-.95-2.3-1.97-4.55-3.57-6.48C41.99-.15,35.63-1.34,30.42,1.61c-1.24.7-2.06,1.76-2.56,3.07-.46,1.21-.64,2.47-.62,3.76.04,1.93-.27,3.83-.69,5.7-.42,1.86-.91,2.18-2.83,2.21-1.33.02-2.5-.45-3.64-1.05-.48-.26-1-.58-1.54-.09-.49.44-.47,1-.35,1.55.26,1.19.73,2.29,1.59,3.18,2.15,2.21,4.51,4.11,7.71,4.48,1.28.15,1.74.74,1.81,2,.11,1.83.37,3.66.67,5.47.56,3.39,1.39,6.73,2.63,9.95.22.58.65,1.2-.14,1.68-1.5.91-2.01,2.39-2.44,3.96-.45,1.62-.59,1.65-2.06.69-4.66-3.05-7.01-7.76-8.89-12.72-.84-2.22.05-4.57.09-6.86,0-.39.15-.78.22-1.18.12-.58-.09-1.11-.32-1.62-.74-1.64-2.15-1.83-3.34-.47-.31.36-.58.77-.88,1.14-.45.54-.78,1.7-1.3,1.54-.86-.27.09-1.19-.08-1.85-.14-.53-.1-1.09-.03-1.66.29-2.3.1-2.49-2.12-2.58-.6-.02-1.37.29-1.7-.48-.31-.72-.07-1.46.41-2.02.67-.79,1.4-1.53,2.18-2.22,2.67-2.37,3.44-5.48,3.45-8.86,0-1.48-.25-1.67-1.71-1.47-1.43.2-2.86.25-4.3.24-1.84-.01-3.68-.11-5.51.14C.25,7.76-.12,8.24.02,12.06c.13,3.6,1.52,6.32,5.05,7.67.51.2,1.06.35,1.43.84.53.69.36,1.35-.47,1.6-.91.28-1.85.48-2.77.75-.92.27-1.49.82-1.56,1.87-.35,4.85-.77,9.62.54,14.5,3.06,11.38,8.4,21.55,15.51,30.84,3.43,4.48,7.64,7.91,13.42,9.03,2.08.4,2.1.56,2.02,2.7-.17,4.87-.38,9.74-.61,14.61-.02.5-.1.93.17,1.18.8,0,1.59-.05,2.39-.05,0,0,.01,0,.02,0,0,0,0,0,0,0,2.56,0,5.12-.03,7.68-.1,2.56-.07,5.14-.14,7.7-.14,0,0,0,0,0,0Zm26.12-47.51c6.19,8.01,11.41,16.56,14.51,26.27,1.93,6.03,2.83,12.28,3.7,18.52.08.55.13,1.11.21,1.66,0,0,0,0,0,0h-24.89s-.02-.06-.03-.1c-1.72-8.6-4.11-17.08-3.72-25.99.22-5,1.19-9.82,3.03-14.46.99-2.48,2.35-4.73,4.63-6.27,1.38-.93,1.57-.91,2.54.34Zm-8.83-10.19c.27.26.3.57.03.81-.63.55-1.28,1.09-2.19,1,.61-.47.87-1.22,1.37-1.78.25-.28.53-.29.8-.03Zm-10.68-8.73c.09.1.23.2.24.3.01.17-.14.24-.31.17-.06-.02-.14-.13-.13-.16.05-.11.13-.21.2-.31Zm-1.84-1.02c.27-.19.64.76.63,1.78.02.34-.09.62-.46.65-.3.03-.33-.26-.39-.48-.02-.07-.04-.16-.03-.23.07-.58-.39-1.27.26-1.72Zm-25.95-6.36c-1.39.24-2.73.01-3.96-.58-2.55-1.23-4.87-2.77-6.09-5.48-.19-.42-.48-.95.01-1.3.35-.25.72.15,1.08.28.67.24,1.34.54,2.04.65,3.32.52,4.5-.29,5.15-3.55.38-1.88.48-3.8.55-5.71.15-3.79,1.59-5.41,5.16-6.48,6.44-1.93,10.69,1.57,13.08,5.35,1.03,1.62,1.72,3.41,2.48,5.18,1.55,3.62,3.37,4.47,7.22,3.4,1.08-.3,2.13-.69,3.2-1,1.52-.45,1.81-.21,1.79,1.42,0,.16-.02.32-.04.48-.25,4.23-1.84,7.72-5.52,10.07-1.52.97-2.88,1.09-4.68.31-6.85-2.99-14-4.31-21.48-3.03Zm22.06,5.11c-1.18.12-2.03,1.12-1.94,2.31.07,1.04.91,1.56,1.83,1.09.18-.09.36-.34.4-.54.05-.28-.2-.38-.46-.34-.9.16-1.01-.3-.71-.95.32-.7.91-.86,1.59-.5.47.24.62.71.65,1.2.05.98-.46,1.66-1.24,2.17-.85.56-1.67.4-2.46-.12-1.7-1.12-2.08-4.19-.76-5.8.41-.5.87-.65,1.47-.48,1.49.41,2.63,1.47,4.01,2.1.62.28.22,1,.19,1.44-.15,1.06.24,1.98.34,2.92.04.37.27.84-.19,1.05-.45.2-.98.06-1.36-.23-.49-.37.01-.68.21-.96.47-.67.82-1.38.78-2.21-.06-1.3-1.14-2.28-2.35-2.16Zm-20.15,6.11c-.35-2.28-.7-4.57-1.04-6.85-.14-.95-.22-1.9-.03-2.86.09-.43.31-.74.78-.72.38.02.55.33.53.66-.21,3.26.35,6.53-.24,9.78,0,0,0,0,0,0Zm.73,2.49c-.23-.83-.2-1.74-.72-2.48.85.16.66,1.5,1.69,1.46,1.27-.05,2.55-.08,3.82-.16.17-.01.46-.3.46-.45,0-.74-.32-1.41-.82-1.93-.48-.5-1.02-.15-1.54.08q-2.21.99-2.42-1.34c-.21-2.31-.11-4.63-.03-6.94.05-1.49.17-1.56,1.74-1.57,2.09-.01,2.27.18,1.61,1.94-.58,1.55.11,2.81.71,4.09.41.87,1.21.96,1.66.15.88-1.59,2.04-2.83,3.63-3.7.15-.08.27-.41.23-.6-.07-.38-.44-.45-.75-.43-1.51.11-2.73.79-3.69,1.96-.16.2-.28.68-.65.38-.27-.21-.12-.6,0-.89.71-1.74,2.38-2.74,4.18-2.37,1.87.39,3.72.9,5.58,1.34.84.2.98.61.58,1.38-1.13,2.15-.7,4.13.68,6.04,1.15,1.6.97,1.84-.18,3.52-.98,1.44-2.02,2.38-3.88,1.98-.54-.12-.69-.3-.41-.76.17-.27.38-.51.59-.75,1.71-1.92,2.3-4.15,1.87-6.67-.08-.45.1-1.08-.48-1.21-.61-.14-.71.48-.88.91-1.03,2.65-3.05,4.43-5.31,6-1.91,1.32-4.14,1.55-6.34,1.86-.64.09-.78-.38-.91-.86Zm5.11,2.58s-.49-.03-.96-.11c-.48-.08-1.17-.22-1.16-.66,0-.53.75-.41,1.17-.52,3.31-.89,5.8-2.95,7.92-5.54.22-.27.39-.81.86-.48.17.12.17.6.12.89-.37,2.53-4.09,6.61-7.95,6.42Zm1.61,1.86c-.52,1.21-1.29,1.78-2.44,1.35-2.47-.09-3.01-.57-3.35-2.86-.03-.21.08-.44.12-.66.22.05.47.06.65.17,1.33.81,2.78,1.17,4.33,1.09.74-.04,1.03.12.69.92Zm-2.94,2.2c.4.03.83-.02,1.19.12,1.16.42,1.63-.05,2.14-1.11,1.2-2.48,3.61-3.66,6.36-3.15.87.16,1.28.07,1.72-.68.48-.82,1.07-1.6,1.74-2.28,1.51-1.53,3.26-2.35,5.39-1.31.83.4,1.15.19,1.29-.65.06-.39.19-.79.37-1.13.79-1.45,2.55-1.89,3.85-.89,1.96,1.51,3.83,3.14,5.78,4.67.9.7.84,1.39.3,2.26-1.18,1.91-3.3,2.35-5.19,1.07-.71-.48-.79-1.14-.8-1.88-.02-1.13-.14-2.24-.71-3.24-.21-.37-.55-.63-.98-.54-.41.08-.68.41-.76.83-.27,1.33.08,2.55.84,3.64.59.84.82,1.71.56,2.71-.23.89-.75,1.38-1.71,1.31-.94-.07-1.19-.65-1.13-1.49.08-1.24-.12-2.4-1.11-3.28-.36-.32-.76-.64-1.28-.45-.58.21-.5.75-.5,1.22,0,1.17.62,2.12,1.13,3.12.79,1.55.13,3.55-1.36,4.27-1.16.56-2.04.16-2.26-1.11-.19-1.1-.28-2.22-.41-3.33-.06-.55-.07-1.12-.4-1.61-.28-.42-.62-.77-1.16-.67-.54.1-.78.53-.82,1.04-.08.89,0,1.77.34,2.59.39.96.8,1.91,1.26,2.84.5,1.01.03,1.69-.73,2.26-.47.35-1.04.42-1.6.22-.72-.26-.55-.86-.53-1.41.04-1.38-.12-2.72-.9-3.9-.22-.34-.52-.67-.95-.64-.6.05-.69.59-.77,1.05-.25,1.49.16,2.83.86,4.14.7,1.29.51,2.29-.42,3.21-.5.5-1.08.67-1.75.5-.74-.19-.63-.82-.66-1.36-.07-1.64-.51-3.15-1.47-4.49-.32-.45-.72-.94-1.37-.78-.77.19-.86.87-.89,1.52-.07,1.68.62,3.1,1.58,4.43.35.48,1.08.88.55,1.63-.62.86-1.53,1.06-2.54,1.04-.83-.02-.99-.59-1.21-1.23-.33-.98-.76-1.93-1.18-2.88-.2-.43-.47-.84-.74-1.23-.3-.41-.71-.67-1.23-.51-.56.18-.64.7-.61,1.17.12,1.67.93,3.02,1.99,4.27.41.48,1.4.85.56,1.72-.68.7-1.58.6-2.23-.34-1.24-1.77-2.47-3.63-2.45-5.88.03-3.71,1.36-5.66,5.02-5.4Zm5.33,9.9c.44-.6,1-.72,1.68-.63,1.38.17,2.34-.49,2.88-1.68.42-.93.97-1.28,2.03-1.2,1.48.12,2.01-1.43,3.04-1.99,1-.55,2.53.01,3.48-1.12.25-.31.58-.6.71-.96.45-1.26,1.09-1.95,2.62-1.71,1.2.18,1.91-.74,2.18-1.83.21-.85.57-1.02,1.34-.67.94.42,1.98.42,2.99.55-.61,1.22-1.9,1.57-2.92,2.23-4.56,2.97-9.03,6.05-13.07,9.72-1.84,1.67-3.61,3.4-5.21,5.29-.68.81-1.21,1.12-2.13.26-1.29-1.21-2.89-1.98-4.49-2.72-.45-.21-.78-.47-.23-1.04.62-.63,1.1-1.29,2.16-1.22,1.15.08,2.23-.28,2.96-1.28Zm-.79-3.2c-.69-1.08-1.31-2.2-1.06-3.56.04-.21.2-.29.36-.16,1.07.88,1.17,2.19,1.54,3.37-.09.26-.16.48-.24.69-.2-.11-.49-.17-.6-.34Zm5.15-3.56c-.43.15-.45-.25-.52-.52-.08-.3-.12-.6-.17-.83,0-.31.03-.57.29-.61.29-.05.36.22.41.44.07.3.14.61.15.91,0,.21-.04.57-.15.61Zm8.73-6.57c-.06-.22.04-.58.26-.52.55.15.61.67.65,1.16-.06.14-.14.41-.18.4-.59-.09-.62-.61-.73-1.04Zm4.65-2.89c0,.12-.13.25-.2.38-.07-.21-.19-.42-.21-.64-.01-.12.13-.25.24-.45.07.28.16.49.17.71Zm-9.51,4.94c-.05.15-.16.53-.2.52-.37-.06-.32-.41-.33-.66,0-.2.13-.59.16-.59.39.05.29.4.36.73Zm-14.08,10.2c-.06-.04-.12-.07-.15-.13-.49-.77-1.23-1.45-1-2.5,0-.03.14-.08.16-.06.64.79,1.3,1.57.99,2.69ZM5.08,8.04c1.97-.2,3.93-.08,5.9,0,.15,0,.41.1.41.15,0,.28-.27.26-.46.27-1.02.07-2.04.12-3.06.17,0-.03,0-.06,0-.08-.94,0-1.89.02-2.83-.01-.21,0-.41-.18-.61-.28.22-.07.43-.2.66-.22ZM.96,11.61c-.06-.78-.31-1.61.24-2.29.13-.16.59-.1.88-.07,3.81.41,7.61.47,11.39-.3,1.14-.23,1.35.04,1.24,1.26-.18,1.95-.32,2.13-2.29,2.22-1.59.07-3.18.01-4.77.01v.04c-1.83,0-3.66,0-5.49,0-.6,0-1.15-.16-1.21-.87Zm4.1,7.13c-1.78-.75-3.12-1.93-3.66-3.85-.32-1.12-.07-1.48,1.08-1.5,1.75-.04,3.51-.01,5.27-.01v-.07c1.68,0,3.35.01,5.03,0,.83,0,.98.35.64,1.04-.58,1.18-1.59,1.97-2.52,2.85-1.17,1.09-2.41,2.15-2.31,3.99.01.21-.03.49-.35.46-.12-.01-.29-.18-.31-.3-.28-1.61-1.6-2.06-2.86-2.59Zm-2.71,8.48c.54-3.38-.25-3.3,3.43-4.08,1.81-.39,3.66-.3,5.49-.37.65-.03,1.38-.05,1.35.9-.03.87-.53,1.2-1.41,1.24-1.67.09-3.34.29-5.01.45-.48.05-.96.08-1.43.16-.3.05-.77.08-.72.45.05.32.51.22.79.2,2.07-.12,4.14-.28,6.22-.39.49-.03,1.21-.49,1.4.36.2.9-.18,1.5-1.15,1.75-1.26.33-2.54.26-3.81.36-.4.03-.8,0-1.2,0v.1c-.96,0-1.92-.04-2.88.01-.87.05-1.19-.36-1.06-1.15Zm.91,1.99c2.8-.02,5.6,0,8.37-.46.45-.07.83.1.86.58.06.85-.12,1.71-1.09,1.85-1.58.22-3.18.28-4.77.41,0,.02,0,.04,0,.06-1.12,0-2.24-.02-3.35,0-.85.02-1.11-.42-1.07-1.19.03-.71.19-1.25,1.06-1.26Zm-1.09,4.34c.06-.69.37-.98,1.05-1.01,2.63-.11,5.27-.24,7.9-.38.77-.04,1.23.24,1.25,1.06.02.73.07,1.5-.87,1.72-1.72.41-3.48.52-4.77.49-1.26,0-2.07.03-2.86,0-1.51-.06-1.83-.45-1.7-1.87Zm2.47,10.44c-.57-1.99-1.21-3.97-1.74-5.97-.41-1.54-.29-1.68,1.26-1.7,2.16-.03,4.31.01,6.45-.32,2.56-.4,2.97-.65,2.61-3.22-.46-3.31,1.99-5.01,3.54-7.21.38-.54,1.03-.22,1.37.34.3.49.35,1.05.23,1.61-.19,2.47-.41,4.93-.56,7.4-.06.94-.41,1.65-1.11,2.28-3.23,2.88-6.66,5.45-10.54,7.43-.95.49-1.26.24-1.51-.63Zm2.86,7.14c-.93-1.22-1.34-2.72-1.77-4.16-.32-1.08.71-1.48,1.47-1.89,2.46-1.33,4.81-2.84,6.98-4.61,1.17-.96,2.31-1.96,3.48-2.93.7-.59,1.19-.59,1.58.42.58,1.48,1.29,2.92,1.99,4.35.36.74.45,1.33-.35,1.84-.81.52-1.21.41-1.53-.56-.35-1.05-.46-2.2-1.16-3.12-.29-.39-.61-.82-1.16-.57-.42.19-.35.66-.37,1.14.16,1.27.37,2.63,1.23,3.73.53.67.57,1.27.23,1.97-.31.66-.88.91-1.57.86-.71-.05-.84-.57-.97-1.16-.21-.93-.33-1.89-.8-2.75-.24-.44-.56-.83-1.12-.65-.55.18-.61.67-.49,1.18.24,1.02.6,1.99,1.11,2.9.43.78.42,1.52-.12,2.23-.2.26-.47.43-.81.4-.43-.03-.47-.38-.52-.68-.19-1.12-.62-2.15-1.26-3.08-.41-.59-.88-1.29-1.72-.92-.77.34-.79,1.14-.69,1.88.18,1.24.89,2.18,1.74,3.06.94.98.66,1.89-.64,2.19-1.14.26-2.07-.18-2.74-1.06Zm4.28-2.3c-.02.11-.18.26-.27.26-.66,0-1.72-2.06-1.42-2.71.09-.2.17-.26.35-.15.52.16,1.48,1.97,1.34,2.6Zm21.71,12c-.08,2.31-.02,4.63-.02,6.94-.04,0-.09,0-.13,0,0,3.11.04,6.22-.02,9.33-.03,1.54-.22,1.58-1.75,1.28-4.93-.96-8.79-3.69-11.98-7.41-4.34-5.06-7.59-10.82-10.73-16.66-.41-.76-.34-1.21.65-1.16,1.24.06,2.09-.55,2.82-1.5.9-1.16,2.76-1.25,3.3-2.91.12-.37.72-.23,1.11-.25,1.06-.05,1.93-.53,2.2-1.54.44-1.62,1.99-1.69,3.06-2.41.51-.34.89.11,1.2.47,1.7,1.93,3.59,3.63,5.9,4.8.62.31.89.86,1.08,1.5.32,1.07.75,2.13,1.44,3.01,1.5,1.93,1.95,4.12,1.87,6.51Zm.13,35.47c-.12-.32-.11-.81-.05-1.62.41-5.82.47-11.65.76-18.69,0-4.62,0-10.46,0-16.29,0-.24-.02-.48,0-.72.08-1.12.29-1.31,1.33-.9,2.02.8,3.91,1.87,5.37,3.51.55.62.87.83,1.45.09,4.19-5.34,9.39-9.56,14.96-13.35,3.5-2.38,7.13-4.57,10.66-6.9.79-.53,1.3-.39,1.84.24,1.56,1.82,3.12,3.63,4.67,5.47.44.53.41.91-.32,1.28-2.55,1.31-4.05,3.59-5.16,6.1-3.39,7.66-4.14,15.7-3.21,23.94.63,5.56,2.02,10.99,3.18,16.45.1.47.22.93.33,1.4h-35.8Z"/>
  <path class="cls-1" d="m64.23,42.48c.2-.15.43-.19.67-.21-.22.07-.45.14-.67.21Z"/>
  <path class="cls-1" d="m80.9,64.1c-.06.54.08,1.03-.4,1.18-.49.16-.94-.13-1.29-.44-2.39-2.1-3.58-4.81-3.92-7.93-.03-.32-.09-.64-.05-.95.12-.88-.53-2.19.56-2.51.84-.25,1.32.97,1.77,1.69,1.78,2.79,2.72,5.9,3.33,8.96Zm-4.79-7.79c.33,2.7.93,5.16,2.91,7.04.16.15.43.33.61.3.26-.04.22-.35.17-.57-.59-2.41-1.37-4.76-2.63-6.92-.2-.34-.41-.78-.87-.62-.16.06-.15.57-.19.77Z"/>
  <path class="cls-1" d="m71.39,61.48c.03-1.36.36-2.67.74-3.96.11-.35.22-.82.71-.83.47,0,.66.4.76.77.41,1.46.66,2.94.4,4.46-.09.55-.18,1.11-.38,1.62-.31.76-.21,2.13-1.13,2.07-.69-.04-.69-1.44-.94-2.24-.18-.59-.12-1.25-.17-1.88Zm.94-.33c0,.4-.01.72,0,1.03.01.21,0,.49.3.47.11,0,.27-.18.31-.3.12-.37.27-.76.27-1.14-.01-.57.29-1.57-.36-1.57-.69,0-.4,1.02-.53,1.51Z"/>
  <path class="cls-1" d="m37.42,7.21c-.61,1.17-1.07,2.46-2.02,3.44-.32.33-.76.14-1.04-.19-.62-.73-1.21-1.48-1.81-2.22-.6-.74-.53-1.47.06-2.16.72-.82,1.29-2.24,2.35-2.17,1.18.08,1.44,1.72,2.23,2.57.14.15.14.43.23.72Zm-2.49,2.15c.65-.47.91-1.23,1.19-1.93.4-.99-.31-1.71-1-2.15-.71-.46-1.03.42-1.44.83-.16.17-.28.38-.43.56-.47.59-.07,1.04.29,1.44.4.45.63,1.1,1.38,1.25Z"/>
  <path class="cls-1" d="m30.77,66.71c-.06.4-.41.43-.71.43-1.32-.03-2.49-.57-3.57-1.26-2.43-1.54-4.02-3.84-5.44-6.27-.18-.31-.44-.75.01-1.06.36-.25.77-.11,1.13.08,1.77.95,3.36,2.15,4.85,3.49,1.19,1.07,2.29,2.23,3.25,3.51.24.31.49.63.47,1.09Zm-7.65-6.62s-.06.08-.09.12c.04-.04.09-.07.13-.11-.17.28-.31.59-.12.89,1.25,1.99,2.79,3.68,4.97,4.68.27.12.63.4.86.1.34-.43-.14-.69-.37-.96-1.58-1.82-3.5-3.24-5.38-4.72Z"/>
  <path class="cls-1" d="m26.85,71.78c-2.49-.24-4.7-1.37-6.5-3.29-.55-.58-.22-1.04.46-1.19.45-.1.95-.13,1.41-.07,2.09.29,3.92,1.21,5.63,2.42.46.33.92.71.73,1.36-.23.79-.93.73-1.72.77Zm-4.5-3.61s-.36-.11-.48.25c-.05.14.16.44.33.57,1.28.96,2.7,1.63,4.3,1.86.21.03.59-.02.64-.14.14-.32-.13-.56-.39-.73-1.26-.84-2.6-1.49-4.4-1.81Z"/>
  <path class="cls-1" d="m39,35.11c-.97-.02-1.16-.78-1.45-1.41-.34-.77-.1-1.41.58-1.84.74-.46,1.52-.84,2.26-1.29.88-.54,1.68-1.18,2.3-2.02.11-.15.45-.25.62-.19.15.06.34.4.29.56-.66,2.44-2.01,4.43-3.99,5.99-.17.14-.44.14-.62.2Z"/>
</svg>