<?xml version="1.0" encoding="UTF-8"?>
<svg id="Layer_1" data-name="Layer 1" xmlns="http://www.w3.org/2000/svg" viewBox="0 0 78.6 100.9">
  <defs>
    <style>
      .cls-1 {
        stroke: #231f20;
        stroke-miterlimit: 10;
        stroke-width: .25px;
      }

      .cls-1, .cls-2 {
        fill: #ba4a30;
      }

      .cls-3, .cls-4, .cls-2, .cls-5, .cls-6 {
        stroke-width: 0px;
      }

      .cls-4 {
        fill: #f9faf5;
      }

      .cls-5 {
        fill: #f1e0be;
      }

      .cls-6 {
        fill: #fff;
      }
    </style>
  </defs>
  <path class="cls-5" d="m18.97,31.07c-.26-.24-.58-.44-.91-.57-.12-.29-.29-.56-.52-.77-.49-.45-1.09-.73-1.77-.73-.66,0-1.31-.02-1.97,0-.26,0-.54.02-.79.1-.22.07-.49.17-.69.29-.38.22-.73.57-.96.95-.06.11-.11.25-.15.35-.06.15-.11.24-.15.38-.05.18-.08.51-.09.69,0,.04,0,.08,0,.11,0,.26.05.53.1.78.05.32.2.63.35.92.1.2.24.37.38.55.14.19.28.37.46.52.33.28.67.56,1.07.74.4.18.8.36,1.23.43.43.07.89.15,1.33.11.34-.03.69-.07,1.03-.15.23-.06.44-.15.65-.24.21-.09.43-.17.63-.29.29-.17.55-.39.81-.61.24-.23.42-.49.52-.8.16-.3.23-.62.22-.96,0-.61-.27-1.35-.73-1.77Z"/>
  <g>
    <path class="cls-4" d="m11.94,25.94S-4.76,71.26,2.01,100.14h72.8"/>
    <path class="cls-4" d="m11.94,25.94l-8.47-2.29,10.63-1.65S18.01-.57,39.93,9.92l2.22-.37L49.62.8l1.22,1.1-4.96,7.39-2.92,4.11,2,4.24-.35,4.58-1.18,3.26.9,5.91,2.48-.21h2.17l.07,2.97,2.71-2.09.64.66-2.24,8.24,5.26-2.96,1.08,1.19-7.59,9.88-3.4,5.99,6.08,3.97s20.05,13,22.06,19.31,3.07,7.89,3.07,7.89l1.33,5.98-1.55,5.79-3.73,1.24"/>
  </g>
  <path class="cls-1" d="m61.15,77.93c-1.32-1.13-4.78-.67-6.91-.72-.94-.77-2.81-.57-3.4.51-.14.11-.31.35-.19.49-.46.44-.05,1.13.11,1.6-.26,2.13,2.65,3.69,3.69,5.37.56-.34.66.53.51.88.78.4,2.56.03,2.83-.88-.05-.55.1-1.05.36-1.5.34-.17.72-.43.53-.73.76-.92,1.93-1.41,2.55-2.43.25-.77,1.51-2.8-.08-2.6Z"/>
  <path class="cls-2" d="m37,9.2c-.25-.09-.51-.15-.76-.23-.1-.2-.26-.39-.56-.53-1.3-.61-2.92-.83-4.33-.94-1.33-.11-2.68-.06-4,.13-.46-.26-1.52.09-2.14.43-.08.02-.15.04-.23.07-1.12.26-2.22.66-3.31,1.26-.33.19-.65.49-.5.8-1.51.98-2.66,2.31-3.63,3.9-1.37,2.25-2.51,4.63-3.43,7.09-.29.78,2.11.55,2.76-.2.5.06,1.2-.13,1.46-.22,1.02-.37,2.03-.77,3.03-1.19.75.04,1.94-.51,2.17-.81.05-.07.1-.14.16-.2,1.12-.51,2.23-1.03,3.33-1.56.45-.16.9-.38,1.32-.63,2.62-1.27,5.4-2.49,7.08-4.99.16-.23.35-.51.51-.81.35-.09.68-.24.92-.42.3-.21.73-.74.15-.95Z"/>
  <path class="cls-2" d="m47.94,2.27c-.38,2.04-1.97,3.7-3.25,5.25-.38.46-.78.9-1.17,1.35-1.52.42-2.72,1.83-3.85,2.96-.26.1-.51.22-.66.39-.24.27-.5.53-.76.78-1.53,1-3.35,1.57-4.59,2.94-.77.25-1.55.47-2.33.67-.25.07-1.25.32-1.31.68-.04.25.22.31.47.31-.05.02-.11.04-.16.06-3.81,1.56-7.53,2.93-11.58,3.76-3.9.8-7.96,1.74-11.98,1.53-.57-.09-1.15-.12-1.76-.08-.44.03-1.32.3-1.55.76-.19.39-.02.74.45.79.63.07,1.25.11,1.88.12.85.2,1.7.58,2.5.8,1.19.32,2.41.5,3.64.58,2.36.15,4.74-.17,7-.85.24.02.48.02.72,0,.03.03.06.06.1.09.55.36,1.55-.02,2.05-.28.3-.16.61-.31.91-.47.56.13,1.36-.16,1.77-.39.34-.2.68-.38,1.03-.57.12-.04.24-.07.36-.11.09-.03.2-.06.32-.11.14,0,.28,0,.42-.03,2.44-.09,5.22-1.32,6.89-3.01.18-.18.32-.39.41-.6.69-.34,1.36-.69,2.03-1.07.51-.14.97-.3,1.05-.35,2.25-1.24,4.18-2.92,5.95-4.77.86-.9,1.69-1.83,2.5-2.77.37-.44.6-.96.42-1.34.51-.57,1.02-1.14,1.5-1.73,1.39-1.67,3.05-3.46,3.46-5.67.2-1.07-2.72-.59-2.89.38Z"/>
  <path class="cls-2" d="m10.64,51.89c-1.76.23-5.21-1.6-6.13.12-.77.76,1.4,4.68,2.43,4.77.5-.57,5.21-4.79,3.7-4.89Z"/>
  <path class="cls-2" d="m5.72,57.1c-.33-.51-1.01-1.02-.91-1.7-.62-.98-2.09.39-1.18,1.26-1.06.03-.62,2.92.28,2.71.73-.18,2.23-1.5,1.81-2.27Z"/>
  <path class="cls-2" d="m9.61,61.52c-2.74-4.05-2.53-4.71-5.62-.4-1.87,1.65,3.45.93,4.45,1.17.34.6,2.15-.14,1.17-.77Z"/>
  <path class="cls-2" d="m12.1,53.83c-.63-1.15-4.45,3.26-4.41,3.7,4.59,8.15,3.9,1.36,4.41-3.7Z"/>
  <path class="cls-2" d="m16.11,57.21c-.94-1.12-.76-2.94-1.68-3.92-1.79-2.14-1.51,3.06-1.75,4.28-.57,3.56-.89,6.54,2.41,2.08.56-.81,2.1-1.4,1.02-2.44Z"/>
  <path class="cls-2" d="m20.37,53.38c-1.37-.09-4.81-2.1-5.18-.19.25,1.08,1.37,5.64,3.12,3.93.21-1.27,4.45-3.14,2.06-3.74Z"/>
  <path class="cls-2" d="m19.54,62.26c-.5-1.1-.76-2.53-1.63-3.36.13-.69-1.37-.48-1.46.12-.08,1.28-2.88,2.48-2.01,3.55,1.5-.49,4.31,1.29,5.11-.31Z"/>
  <path class="cls-2" d="m23.45,54.89c-1.3-1.41-3.01,1.53-4.11,2.31-1.29,1.3.44,3.94,1.15,5.24v-.05c2.63,1.85,2.65-5.83,2.96-7.49Z"/>
  <path class="cls-2" d="m28.1,57.84c-1.05-.8-.43-3.61-2.31-3.02-2.24-.74-1.13,2.63-1.63,3.88-.13,1.18-1.57,4.61.85,3.03.62-1.12,5.02-2.96,3.09-3.9Z"/>
  <path class="cls-2" d="m33.12,55.53c-1.04-.16-2.13.33-3.21.3-.21-.75-1-1.15-1.59-.51-.33.86.77,1.81,1.14,2.59.95.76,3.25-1.69,3.66-2.38Z"/>
  <path class="cls-2" d="m33.97,58.24c.19-.39.55-1.19.02-1.43-.64-1.93-2.64,1.75-3.32,2.42,1.35,3.89,2.22,1.1,3.3-.98Z"/>
  <path class="cls-2" d="m31.79,62.14c-1.05-.72-1.71-3.41-3.23-2.26-.61,1.13-2.98,1.98-2.84,3.12,1.52-.47,5.17,1.27,5.66-.41.16-.09.59-.24.41-.44Z"/>
  <path class="cls-2" d="m27.13,64.54c-5.1-.8-15.06-2.21-5.61,3.94.87-.09,7.36-3.28,5.61-3.94Z"/>
  <path class="cls-2" d="m28,67.71c0-.21-.04-.4-.16-.56-.04-.01-.08-.01-.13-.02,1.66-2.51-6.37,2.91-5.67,3.46,1.6.69,1.93,4.1,3.81,3.46,1.73-.14,1.6-1.65,1.37-2.94-.05-1.14,1.09-2.37.77-3.39Z"/>
  <path class="cls-2" d="m23.38,73.96c-1.85-4.6-4.16-2.89-6.37.59,1.49.07,5.64.92,6.37-.59Z"/>
  <path class="cls-2" d="m20.17,69.15c-1.07-.72-4.07-5.94-4.39-2.98-.58,6.19-.95,10.72,4.39,2.98Z"/>
  <path class="cls-2" d="m14.71,64.57c-2.08-.89-2.78,3.56-4.22,4.68,3.36,11.08,4.98.87,4.22-4.68Z"/>
  <path class="cls-2" d="m12.37,64.03c-2.29-.21-10.16-1.51-5.4,2.17.9.77,1.48,3.16,2.89,1.86.4-1.2,3.45-3.33,2.51-4.03Z"/>
  <path class="cls-2" d="m11.36,73.91c-2.33-5.66-3.89-6.07-5.81.1-.25.57,6.42.88,5.81-.1Z"/>
  <path class="cls-2" d="m7.23,68.4c-.98-1.05-2.15-4.72-3.8-3.03.11.16.23.33.34.49-.77,1.91-.05,5.42-.31,7.89.03.29,1.41-.04,1.45-.39.1-1.91,2.14-3.18,2.32-4.97Z"/>
  <path class="cls-2" d="m20.69,76.89c-2.08-.89-2.78,3.56-4.22,4.68,3.36,11.08,4.98.87,4.22-4.68Z"/>
  <path class="cls-2" d="m18.36,76.35c-2.29-.21-10.16-1.51-5.4,2.17.9.77,1.48,3.16,2.89,1.86.4-1.2,3.45-3.33,2.51-4.03Z"/>
  <path class="cls-2" d="m17.34,86.22c-2.33-5.66-3.89-6.07-5.81.1-.25.57,6.42.88,5.81-.1Z"/>
  <path class="cls-2" d="m13.22,80.71c-.98-1.05-2.15-4.72-3.8-3.03.11.16.23.33.34.49-.77,1.91-.05,5.42-.31,7.89.03.29,1.41-.04,1.45-.39.1-1.91,2.14-3.18,2.32-4.97Z"/>
  <path class="cls-2" d="m26.23,81.14c-2.81-4.97-4.19-6.18-3.79.79-.24,3.61-.26,6.61,2.92,1.76.54-.88,2.19-1.65.87-2.55Z"/>
  <path class="cls-2" d="m31.66,76.61c-1.44-.25-6.27-1.07-6.81.31-.16,1.13,2.15,5.77,3.84,3.85.07-.99,2.72-2.61,2.75-3.46.24-.13.48-.48.22-.71Z"/>
  <path class="cls-2" d="m30.62,85.72c-.68-1.03-1.14-2.41-2.2-3.13.07-.7-1.59-.3-1.62.31.05,1.29-2.94,2.82-1.86,3.78,1.62-.68,4.97.74,5.68-.95Z"/>
  <path class="cls-2" d="m34.17,77.91c-1.61-1.23-3.2,1.9-4.33,2.81-1.29,1.46.93,3.86,1.87,5.06v-.05c3.14,1.51,2.3-6.13,2.46-7.82Z"/>
  <path class="cls-2" d="m7.11,76.26c-1.64.23-4.86-1.6-5.71.12-.71.76,1.3,4.68,2.26,4.77.47-.57,4.86-4.79,3.45-4.89Z"/>
  <path class="cls-2" d="m2.52,81.46c-.31-.51-.94-1.02-.85-1.7-.57-.98-1.95.39-1.1,1.26-.99.03-.58,2.92.26,2.71.68-.18,2.08-1.5,1.69-2.27Z"/>
  <path class="cls-2" d="m6.14,85.89c-2.55-4.05-2.36-4.71-5.24-.4-1.74,1.65,3.22.93,4.15,1.17.32.6,2.01-.14,1.09-.77Z"/>
  <path class="cls-2" d="m8.47,78.19c-.59-1.15-4.14,3.26-4.11,3.7,4.28,8.15,3.63,1.36,4.11-3.7Z"/>
  <path class="cls-2" d="m33.6,69.89c0-1.61-2.13-2.93-2.85-4.42-.52-.21-1.97.17-1.16.83.18,1.35-1.96,9.19.55,7.35.97-1.2,3.46-2.18,3.46-3.77Z"/>
  <path class="cls-2" d="m37.36,66.13c0-.18-.51-.1-.65-.07.48-.13.77-.77.22-1.02-.44-.92-6.21-1.62-5.36-.13,1.19.93,2.94,5.46,4.45,3.22.51-.28,1.1-1.36,1.33-1.93h0s.01-.04.01-.07Z"/>
  <path class="cls-2" d="m38.55,74.32c-.5-.62-1.29-.82-1.74-1.47-.48-.55-.58-1.74-1.49-1.71.32-1.68-3.7,2.11-4,2.78-2.21,1.45,8.15,2.19,7.24.41Z"/>
  <path class="cls-2" d="m38.17,69.02s-.08-.08-.14-.1c1.14-1.2-.17-1.56-.98-.66-.1.75-.8,1.26-1.18,1.88.75.85,1.3,2.03,1.93,3.04,2.59.64.81-2.91.37-4.16Z"/>
  <path class="cls-2" d="m39.77,80.66c-.76-1.14-1.94-1.88-2.73-2.97.18-1.07-2.16-.69-1.61.19h0c.7,5.26-1.62,13.37,3.95,3.53.36-.15.64-.44.4-.75Z"/>
  <path class="cls-2" d="m40.82,78.87c-.26-.54-.52-1.07-.77-1.61.34-.17.11-.48-.21-.4-.26-.83-2.7-.46-2.16.38.18.59,1.12,1.23,1.56,1.76.13.83,1.59.65,1.57-.13Z"/>
  <path class="cls-2" d="m42.25,85.12c-.8-.64-.79-1.74-1.11-2.48.3-.82-1.23-.48-1.39,0,.09,1.12-3.53,5.11-.48,3.67.86-.06,4.27.44,2.98-1.18Z"/>
  <path class="cls-2" d="m25.34,89.17c-5.1-.8-15.06-2.21-5.61,3.94.87-.09,7.36-3.28,5.61-3.94Z"/>
  <path class="cls-2" d="m26.34,92.69c.05-.15-.02-.27-.13-.35,0-.21-.04-.4-.16-.56-.04-.01-.08-.01-.13-.02,1.66-2.51-6.37,2.91-5.67,3.46.94.76,1.98,2.01,2.39,3.18.09.3.46.36.82.35.17,1.08,2.4,1.07,1.74-.06.02.02.05.04.07.07-.13-.12-.24-.24-.34-.38,1.1-.45.48-1.76.5-2.64.11-1.06.59-2.03.9-3.04Z"/>
  <path class="cls-2" d="m21.81,99.05c-.1-.11-.21-.21-.34-.28.47-.98-1.38-2.61-2.22-2.9-1.3-.93-3.16,2.29-4.03,3.32.13,0,.27.02.43.03-.26.8,3.07.86,3.26.26.44,0,.87-.02,1.25-.08.4.51,1.82.46,1.65-.35Z"/>
  <path class="cls-2" d="m18.38,93.78c-1.07-.72-4.07-5.94-4.39-2.98-.58,6.19-.95,10.72,4.39,2.98Z"/>
  <path class="cls-2" d="m12.92,89.2c-2.08-.89-2.78,3.56-4.22,4.68,3.36,11.08,4.98.87,4.22-4.68Z"/>
  <path class="cls-2" d="m10.58,88.66c-2.29-.21-10.16-1.51-5.4,2.17.9.77,1.48,3.16,2.89,1.86.4-1.2,3.45-3.33,2.51-4.03Z"/>
  <path class="cls-2" d="m9.6,98.71c-2.14-5.73-4.08-6.33-5.83,0-.58.33-.22,1.02.38.93,1.08-.45,6.85,1.06,5.45-.94Z"/>
  <path class="cls-2" d="m5.44,93.03c-.98-1.05-2.15-4.72-3.8-3.03.11.16.23.33.34.49-.77,1.91-.05,5.42-.31,7.89.03.29,1.41-.04,1.45-.39.1-1.91,2.14-3.18,2.32-4.97Z"/>
  <path class="cls-2" d="m31.81,94.53c0-1.61-2.13-2.93-2.85-4.42-.52-.21-1.97.17-1.16.83.18,1.35-1.96,9.19.55,7.35.97-1.2,3.46-2.18,3.46-3.77Z"/>
  <path class="cls-2" d="m36.17,89.49c-.25-.38-.86-.19-1.18,0-.62-.67-6.04-1.45-5.22.04,1.19.93,2.94,5.46,4.45,3.22.8-.75,1.85-2.11,1.95-3.27Z"/>
  <path class="cls-2" d="m35.01,97.48c-.48-.55-.58-1.74-1.49-1.71.05-.04.09-.09.14-.13-.71-1.02-2.39,1.19-3.12,1.78-2.37,1.9.06,1.74,1.72,1.8,1.45-.04,5.29.44,2.75-1.73Z"/>
  <g>
    <path class="cls-2" d="m38.39,91.14c-.06-.23.14-.6-.17-.66.22-.7-1.43-.1-1.59.36-.84.19-.98.96-1.38,1.57.09-.13,0,.01-.04.06,0,0,.01-.02.02-.03-.45.7-1,1.39-1.08,2.24-.19.19.22.4.34.56.68.66.56,1.83,1.31,2.35.17,1.04,1.33,1.6,2.22,1,.93-2.13.21-5.17.36-7.46Z"/>
    <path class="cls-2" d="m35.25,92.42s-.01.02-.02.03c0-.01.01-.02.02-.03Z"/>
  </g>
  <path class="cls-2" d="m44.43,94.6s0,0-.01,0c.26-.37-.29-.61-.58-.56-.18-.24-.4-.46-.58-.7,1.81-.87-1.89-2.45-2.47-3.39-2.76-2.34-1,7.3-1.38,8.83.75,1.84,4.5-3.26,5.02-4.18Z"/>
  <path class="cls-2" d="m43.65,89.95s0,0,0,0c-.17-.27-.21-.61-.48-.79.02.01.04.02.06.03-.44-.8-1.6-.69-1.78.23.23.49.79,1.17,1.29,1.41.47.08,1.23-.36.9-.88Z"/>
  <path class="cls-2" d="m43.9,97.89c-.55-.52-1.36.05-1.6.61,0,0,.02,0,.03-.01-1.19,1.25,1.98.51,1.57-.6Z"/>
  <path class="cls-2" d="m2.49,69.69c-2.32-1.16-1.08,2.94-1.63,4.17,2.01,1.58,1.7-2.95,1.63-4.17Z"/>
  <path class="cls-2" d="m49.74,58.25c-.11-.04-.25-.04-.39-.01.47-.34-.25-.32-.49-.24-.28-.95-1.74-1.3-2.45-2.03-.33-.1-1.42.1-1.37.48,0,0,0,0,0,0,.09.1.18.2.27.3-.28.12-.51.21-.3.37-.82,1.02,1.26,2.55,2.05,3.02.08.45.88.06,1.16-.01.46-.13.38-.76.71-1.07.08-.33,1.07-.56.82-.8Z"/>
  <path class="cls-2" d="m51.57,59.03c-1.38-1.82-2.46,1.69-3.02,2.71,3.36,5.72,3.45,1.12,3.02-2.71Z"/>
  <path class="cls-2" d="m49.78,65.06c-.57-.72-1.09-1.47-1.56-2.25l.03.05c-.31-.42-1.41-.12-1.45.39.54.96,2.19,3.82,2.98,1.82Z"/>
  <path class="cls-2" d="m54.69,60.89c0-.09-.2-.11-.44-.09,0-.29,0-.57.01-.86-2.55-.6-1.21,3.58-1.3,5.1.03.3,1.36-.05,1.44-.32.17-1.04,1.01-1.79,1.38-2.69,0-.63-1.03-.55-1.09-1.13Z"/>
  <path class="cls-2" d="m59.88,64.86c-.64-.87-1.54-1.7-2.67-1.72.19-.35.4-.86-.21-.84-1.48.05-1.55,2.11-2.04,3.18.17.7,1.29.06,1.81.16.88-.21,3.68.93,3.12-.79Z"/>
  <path class="cls-2" d="m55.23,67.34s-.09-.03-.13-.06c.57-1.63-7.65-1.36-5.31,0,.09.98.06,3.72,1.53,3.38,1.35.63,2.4-1.51,3.12-2.41.44.09,1.36-.5.79-.93Z"/>
  <path class="cls-2" d="m56.64,68.75c-.02-.13-.22-.21-.33-.22-1.17-1.06-2.19,1.36-2.95,2.06-1.13.27-.41,1.18.43.75,1.95.45,3.31-.52,2.84-2.59Z"/>
  <path class="cls-2" d="m60.8,68.99l-1.12-1.44c.14-.87-1.52-.52-1.45.16-.07.06-.08.15,0,.22.16.76-.53,2.49.47,2.63,1.85.81,4.21.95,2.12-1.57Z"/>
  <path class="cls-2" d="m65.45,69.24c-.11-.39-.62-.23-.89-.42-.92-.36-1.35-2.02-2.5-1.47-3.55-1.66.65,3.54,1.41,4.43.45.48,1.59.03,1.39-.68.16-.64.67-1.16.59-1.86Z"/>
  <path class="cls-2" d="m68.34,75.58c-.03-1.03.33-2.56-.28-3.34.1-.57-.77-.32-1.06-.18-.02-1.93-3.7,1.23-1.82,1.57.02.01.03.03.05.04.66.67,2.1,4.33,3.09,2.08.04-.04.03-.09.03-.15,0,0,0,0,0,0,0,0,0,0,0-.01Z"/>
  <path class="cls-2" d="m66.54,76.92c-.78-.73-1.5-1.63-1.88-2.55-.26-.62-1.08-.41-1.51-.12-.38.23.1.62.21.9.08.52.01,1.06.27,1.54-2.42.69,3.12,1.39,2.92.23Z"/>
  <path class="cls-2" d="m73.63,78.34c-5.03-.64-10.59-.76-2.73,4.36.45-.04,2.38-.91,3.91-1.83-.39-.84-.79-1.68-1.18-2.52Z"/>
  <path class="cls-2" d="m76.62,85.24c-.42-1.24-.92-2.45-1.47-3.64-1.84,1.12-4.11,2.9-3.73,3.21.94.76,1.98,2.01,2.39,3.18.45.71,1.73.24,2.32-.05,1.1-.49.39-1.81.48-2.7Z"/>
  <path class="cls-2" d="m72.75,88.17c-1.85-4.6-4.16-2.89-6.37.59,1.49.07,5.64.92,6.37-.59Z"/>
  <path class="cls-2" d="m69.54,83.36c-1.07-.72-4.07-5.94-4.39-2.98-.58,6.19-.95,10.72,4.39,2.98Z"/>
  <path class="cls-2" d="m61.61,87.35c.55-.32,1.33-.27,1.9.01.73-1.86.95-5.8.57-8.58-2.08-.89-2.78,3.56-4.22,4.68.56,1.86,1.08,3.11,1.54,3.89.07,0,.14,0,.21,0Z"/>
  <path class="cls-2" d="m55.61,87.61c.52,0,1.03.09,1.55.12.3-.36,1.1-.41,1.47-.2.51-.21,1.2,0,1.78-.14-2.04-4.67-3.5-5.01-5.21-.03.14.08.28.16.41.25Z"/>
  <path class="cls-2" d="m75.59,94.43c-1.15-1.02-2.11-4.03-3.68-3.77.02,2.81.06,5.65-.44,8.42,1.37-.79,4-2.48,4.13-4.02.13-.19.15-.38,0-.63Z"/>
  <path class="cls-2" d="m77.94,89.62c-.87-.14-5.06-1.04-4.38.45,2.8,3.75,4.93,6.56,4.38-.45Z"/>
  <path class="cls-2" d="m73.35,99.46c1.97,0,3.25-1.56,4.51-2.91-.03-.04-.06-.08-.08-.13-.12-.09-.3-.14-.48-.12.62-1.73-4.58,2.45-3.96,3.16Z"/>
  <path class="cls-2" d="m69.39,89.72c-1.44-.22-3.26-.5-4.93-.64-.06,1.42.03,2.84.36,4.22,2.04-.87,5.99-3.05,4.57-3.59Z"/>
  <path class="cls-2" d="m69.49,96.28c.4-1.5.3-3.04.29-4.59-.99.27-3.44,1.89-4.72,3.01.1.67.17,1.35.22,2.03.53.8,1.22,1.28,1.42,2.21.45.71,1.73.24,2.32-.05,1.02-.46.44-1.75.47-2.62Z"/>
  <path class="cls-2" d="m65.32,98.24c-.62,2.04-4.03.76-5.72,1.07-.12.16-.23.31-.33.43,1.4.04,7.53,1.26,6.05-1.49Z"/>
  <g>
    <path class="cls-3" d="m62.61,100.11c-7.03-.59-14.05-.09-21.07.04-11.91.22-23.81.48-35.72.74-3.42.08-3.84-.21-4.39-3.77-1.07-6.9-1.28-13.84-.85-20.8.71-11.52,2.73-22.84,5.48-34.02,1.18-4.79,3-9.43,4.55-14.13.56-1.72.59-1.73-1.21-2.08-2.43-.47-4.82-1.14-7.2-1.83-.55-.16-1.22-.29-1.11-.99.1-.69.83-.64,1.36-.66,2.08-.08,4.15-.11,6.23-.18.88-.03,1.75-.11,2.63-.16,1.04-.06,1.78-.43,2.21-1.49.57-1.4,1.31-2.74,1.97-4.1.87-1.81,1.83-3.57,3.16-5.07,3.56-4.01,7.98-5.67,13.32-4.71,2.68.48,5.35.94,7.77,2.27.78.43,1.35.18,1.94-.33,1.62-1.42,3.23-2.85,4.48-4.64.87-1.24,1.82-2.43,2.76-3.62.3-.37.69-.71,1.23-.49.59.24.85.75.81,1.34-.08,1.3-.55,2.49-1.2,3.61-1.49,2.56-2.99,5.11-4.85,7.41-.74.91-.98,1.66-.4,2.77,1.38,2.63,1.4,5.35.16,8.07-.75,1.64-.82,3.4-.74,5.17.07,1.58.46,1.97,2.01,2.01.38.01.77-.13,1.16-.2,1.89-.34,2.44.14,2.44,2.09,0,.31-.04.61-.06.92.49-.03.52-.47.68-.78.11-.21.15-.47.3-.64.46-.54,1.04-.69,1.72-.46.76.26.91.81.79,1.52-.28,1.74-.91,3.39-1.41,5.07-.2.66-.86,1.58-.32,1.94.49.32,1.12-.66,1.67-1.09.5-.39.97-.83,1.51-1.17.59-.38,1.22-.39,1.77.11.63.58.65,1.29.21,1.95-.39.59-.9,1.12-1.39,1.64-3.41,3.66-6.1,7.78-8.26,12.29-.52,1.09-.49,1.75.63,2.31,1.14.57,2.21,1.28,3.36,1.84,2.03.98,3.92,2.15,5.68,3.55,4.37,3.5,8.64,7.11,12.55,11.13,5,5.13,7.91,11.37,9.27,18.35.34,1.71.61,3.47-.07,5.2-.82,2.11-2.13,3.5-4.56,3.55-3.67.08-7.33.55-11.02.53ZM39.81,24.44c.93-.6,1.84-1.21,2.78-1.79,1.7-1.04,2.24-2.56,1.93-4.46-.04-.23-.05-.48-.32-.55-.28-.06-.43.15-.54.35-1.07,2.03-2.37,3.92-3.77,5.74-.11.14-.03.44-.03.66h-.17s.12.04.12.04Zm-13.45,14.47c-.08-.02-.18-.09-.23-.06-2.74,1.43-5.32,3.14-8.16,4.4-.1.05-.21.28-.18.39.08.25.31.26.56.23q4.34-.52,7.26-4.12c.25-.31.53-.59.79-.89l-.09-.1.04.16Zm-2.02-19.87c.92.14,1.71-.34,2.54-.59,1.22-.37,2.3-1.12,3.59-1.3-.48.96-1.47,1.19-2.32,1.56-6.82,2.97-13.93,4.64-21.39,4.65-.64,0-1.28,0-1.92.02-.14,0-.28.1-.42.15.08.12.13.29.24.36.2.13.43.22.66.29,5.49,1.59,11.02,1.7,16.58.45,5.53-1.24,10.44-3.91,15.27-6.77,3.58-2.12,6.53-4.87,8.74-8.38,1.27-2.03,2.43-4.13,3.62-6.21.2-.34.3-.74.43-1.11.08-.23.03-.48-.22-.57-.1-.04-.31.07-.4.17-.37.42-.77.83-1.06,1.3-1.74,2.82-4.01,5.18-6.49,7.34-3.38,2.95-6.87,5.75-11.39,6.82.92-.61,1.88-1.18,2.77-1.84,1.91-1.41,3.8-2.86,5.68-4.31.31-.24.66-.57.31-.98-.26-.3-.7-.43-1.08-.2-.33.2-.62.49-.9.76-2.84,2.84-6.17,4.95-9.78,6.67-1.04.5-2.24.79-3,1.78-.11.09-.46-.16-.36.24.1-.1.2-.2.31-.3Zm-7.16,23.11c2.88-.6,5.35-2.08,7.61-3.85,3.08-2.4,5.41-5.39,6.43-9.25.34-1.28.14-1.54-1.1-1.73-.79-.12-1.12.21-1.39.92-2.11,5.62-5.44,10.25-10.87,13.12-.33.17-.75.33-.66.85l-.12-.11.1.05Zm22.43-1.9c-.04-.22-.03-.46-.14-.64-.09-.15-.26-.07-.25.12.02.25.19.4.44.47-.81,1.4-.91,2.77-.09,4.26.68,1.25.95,2.65,1.19,4.09.49,2.9,1.05,5.82,2.29,8.53.14.31.33.6.66.58.15-.01.3-.34.41-.54.15-.28.28-.57.41-.87,2.55-5.91,5.81-11.36,10.33-16.01.27-.28.5-.62.66-.98.08-.17-.01-.46-.12-.65-.15-.27-.42-.18-.61-.04-.39.28-.76.58-1.13.89-1.04.87-2.07,1.76-3.1,2.64-.3.26-.61.63-1.03.41-.42-.22-.29-.68-.17-1.06.12-.38.29-.74.42-1.12.72-2.2,1.44-4.4,2.14-6.6.14-.43.43-1.01-.22-1.2-.6-.17-.75.48-.92.89-.69,1.7-1.35,3.41-2,5.13-.23.61-.45,1.2-.99,1.6-.37.27-.69,0-.69-.29,0-.55.14-1.1.26-1.64.4-1.87.81-3.74,1.23-5.61.13-.59.17-1.23-.51-1.38-.72-.16-.9.54-1.02,1.07-.4,1.71-.73,3.43-1.11,5.15-.14.62-.29,1.24-.48,1.85-.12.4-.41.79-.85.65-.27-.08-.29-.53-.23-.86.15-.78.37-1.56.44-2.35.04-.55.53-1.42-.32-1.61-.8-.18-.92.68-1.07,1.3-.09.39-.25.76-.31,1.15-.24,1.5-.45,3-.69,4.49-.03.22-.11.5-.27.61-.36.24-.55-.11-.76-.33-.63-.67-.76-1.79-1.83-2.08Zm-16.59,59.09c2.63,0,5.27.02,7.9,0,3.59-.04,7.19-.1,10.78-.17.78-.02,1.77.09,1.69-1.11-.24-3.59.98-7.32-.98-10.76-.19-.34-.23-.76-.33-1.15-2.21-8.74-4.42-17.49-6.63-26.23-.06-.23-.05-.49-.14-.7-.22-.5-.57-.52-.88-.11-.33.44-.6.94-.89,1.42-2.77,4.49-5.69,8.87-8.81,13.12-5.31,7.23-11.87,13.14-19.34,18.04-3.82,2.51-3.85,2.41-2.75,6.88.28,1.13.68,1.56,1.94,1.46,6.13-.52,12.29-.29,18.44-.68ZM1.28,84.37c-.09,1.73.17,4.28.37,6.83.13,1.59.3,1.67,1.7.76,5.24-3.4,10.2-7.14,14.51-11.69,6.14-6.48,10.98-13.89,15.6-21.47.12-.2.23-.42.35-.63.47-.76.04-1.38-.32-1.99-.43-.72-1.01-.25-1.48-.09-1.41.49-2.74.38-3.79-.67-.75-.75-1.38-.86-2.3-.38-1.27.66-2.64.53-3.46-.63-.77-1.09-1.47-1.07-2.54-.66-.76.29-1.79.14-2.26-.42-1.2-1.4-2.66-1.37-4.23-1.25-.31.02-.68,0-.94-.16-1.85-1.05-3.89-1.48-5.91-2.06-1.22-.35-1.36-.02-1.52.92-.21,1.26-.49,2.51-.72,3.76-1.8,9.59-3.15,19.22-3.05,29.83Zm58.67-13.58s0-.01,0-.02c.48-.03.96-.09,1.43-.1,2.43-.02,2.8.35,2.66,2.77-.21,3.75-1.54,6.99-4.4,9.52-.85.75-1.6,1.54-1.95,2.67-.23.75.03,1.05.75,1.07,2.16.05,4.31-.08,6.44-.45,1.99-.35,2.21-.53,2.72-2.44,1.1-4.16-.25-8.07-1.26-12-.49-1.89-2.42-2.66-3.69-3.95-.89-.91-1.94-1.66-2.86-2.55-3.84-3.71-8.48-6.22-13.12-8.72-.9-.48-1.31-.16-1.61.66-.22.58-.08,1.03.27,1.54,2.41,3.49,4.25,7.31,6.01,11.15.49,1.07,1.07,1.47,2.16,1.37,2.15-.19,4.29-.36,6.44-.54ZM11.5,40c-2.6.03-4.11,1.2-4.76,3.5-.24.85-.46,1.7-.65,2.55-.11.47-.22.95-.2,1.42.05,1.13,1.06,1.89,2.37,1.87,1.42-.02.8-1.08.86-1.76.1-1.29.26-2.55,1.09-3.61.35-.44.75-.93,1.37-.83.76.13.9.85,1.03,1.46.09.46.06.96,0,1.43-.13,1.05-.51,2.02-1.2,2.83-.73.86-.4,1.42.47,1.88.74.38,1.52.43,2.33.39,1.17-.07,1.95-.45,2.07-1.81.07-.77.43-1.53.75-2.26.27-.6.73-1.13,1.5-.8.7.3.79.95.68,1.62-.17,1.06-.76,1.89-1.44,2.71-.79.95-.45,1.79.74,2.09,1.69.44,2.65-.23,2.9-2.08.13-.97.35-1.89.98-2.66.31-.38.71-.68,1.24-.45.52.23.59.73.53,1.22-.14,1.05-.63,1.96-1.17,2.86-.63,1.05-.46,1.73.47,2.43,1.31.99,3.26.04,3.5-1.73.17-1.27.22-2.56,1.17-3.57.34-.36.74-.65,1.26-.49.63.19.8.73.79,1.33,0,1.19-.68,2.1-1.28,3.04-.81,1.29-.44,2.25,1,2.63,1.48.39,3.11-.41,3.71-1.83.22-.52.35-1.07.61-1.56.38-.73.59-2.15,1.54-1.75,1.13.47.28,1.64-.02,2.49-.31.91-1.13,1.56-1.28,2.55-.05.3-.07.68.25.83.12.05.46-.15.56-.32,1.33-2.28,2.64-4.57,3.93-6.86.53-.95.04-1.49-.82-1.85-1.59-.66-2.99-.27-4.21.82-.53.47-.84.52-1.36-.04-1.85-2.01-4.07-1.93-6.33-.87-.76.35-1.17.31-1.49-.46-.65-1.57-1.98-1.98-3.51-2-.96-.01-1.9.14-2.8.52-1.4.59-1.41.55-2.14-.91-.18-.36-.36-.71-.58-1.05-1.09-1.71-2.57-2.81-4.43-2.92Zm58.99,58.77s0,.03,0,.04c1.35-.09,2.71-.14,4.06-.27,1.24-.12,2.05-.81,2.38-2.02.55-2.01.98-4.02.34-6.12-.58-1.9-1-3.86-1.63-5.75-1.46-4.3-3.93-7.99-7-11.3-.21-.23-.48-.61-.77-.46-.47.25-.1.68-.03,1.03.22,1.01.48,2.02.71,3.02.52,2.21.41,4.43.11,6.66-.21,1.58-.73,2.96-2.54,3.35-.73.16-1.03.58-.94,1.38.32,3.01.56,6.03.89,9.04.16,1.49.34,1.6,1.8,1.56.88-.03,1.75-.1,2.63-.15Zm-12.33.02c0,.1,0,.2,0,.3,2,0,3.99,0,5.99,0,.63,0,1.11-.17,1.04-.95-.3-3.26-.61-6.52-.89-9.78-.07-.86-.53-1-1.3-.94-1.43.11-2.87.12-4.31.17-1.51.05-1.58.12-.96,1.44,1.17,2.45,2.2,4.96,3.12,7.51.16.45.3.9.41,1.36.03.11-.09.35-.2.38-.11.04-.35-.06-.4-.16-.3-.56-.59-1.13-.82-1.71-.96-2.45-2.02-4.87-3.07-7.28-.59-1.35-1.55-1.72-2.82-1.72-.56,0-1.11.08-1.67.17-1.68.26-2.08.89-1.34,2.43.32.66.55,1.06-.04,1.64-.18.18-.29.66-.18.88.81,1.66.16,3.45.51,5.16.16.82.45,1.11,1.18,1.11,1.91,0,3.83,0,5.75,0ZM36.82,9.21c-.14-.11-.3-.32-.5-.38-3.07-.81-6.11-1.77-9.38-1.1-7.01,1.44-9.79,6.79-11.91,12.76-.22.62.03.92.69.76.46-.11.92-.27,1.37-.43,4.89-1.75,9.53-4.03,14.04-6.6,1.88-1.07,3.51-2.48,5.07-3.97.28-.27.61-.53.62-1.05Zm6.66,63.82s.07,0,.1,0c0-3.51-.01-7.02,0-10.53,0-.89-.08-1.71-.43-2.56-1.24-2.94-2.42-5.91-2.94-9.08-.04-.26.02-.7-.45-.68-.36.01-.5.34-.65.62-1.01,1.81-2.02,3.62-3.04,5.43-.46.81-.47,1.6-.21,2.51,1.31,4.76,2.55,9.55,3.81,14.33,1.03,3.93,2.05,7.87,3.09,11.8.07.28.19.67.6.57.09-.02.13-.44.13-.67,0-3.91,0-7.82,0-11.73Zm-8.38-40.12c.01-.19-.02-.44.05-.66.09-.29.19-.69.41-.81.28-.15.58.12.76.41.22.33.44.67.68.99.87,1.15,1.83,2.21,3.09,2.96.39.23.95.56,1.15-.14.3-1.04,1.09-1.2,1.96-1.44,1.46-.41,1.49-.49.77-1.95-.69-1.4-1.03-2.86-1.03-4.38,0-1.11.17-2.22.28-3.33.03-.3.21-.65-.23-.77-.34-.09-.62.12-.82.38-.14.18-.32.42-.31.63.07,1.72-1.28,3.02-1.37,4.69-.02.29-.24.53-.4.42-1.38-.91-2.86.93-4.25-.2-.32-.26-.94-.26-1.38-.01-.64.35-.71-.09-1.01-.51-.67-.94-.96-.9-1.34.2-.97,2.79-2.04,5.54-3.67,8.02-.56.85-.17,1.29.52,1.72,2.18,1.34,4.53,2.32,6.94,3.17.93.33,1.47.15,1.99-.66.51-.79.25-1.28-.31-1.87-1.81-1.9-2.36-4.28-2.49-6.85Zm16.28,53.81c1.02-.1,1.97-.19,2.92-.3.73-.08.75-.53.37-.97-.46-.54-.99-1.04-1.55-1.48-1.29-1.03-2.2-2.35-2.68-3.9-.73-2.37-1.03-4.84-1.26-7.3-.06-.61-.18-1.38.62-1.63.94-.29.75-.82.45-1.46-1.48-3.19-3.21-6.25-4.94-9.31-.15-.26-.43-.69-.6-.66-.56.07-.37.61-.36.96.02,4.15.06,8.31.09,12.46,0,.8.07,1.58.39,2.34,1.5,3.62,3.67,6.91,5.31,10.46.27.59.68.86,1.25.77Zm-6.95,1.38h-.05c0,3.19,0,6.38,0,9.57,0,.65,0,1.36.89,1.4,1.35.06,2.71.1,4.04-.22.62-.15,1.16-.53.99-1.12-.36-1.26.1-2.56-.18-3.73-.5-2.11-.56-4.2-.39-6.32.05-.6-.16-1.1-.42-1.59-1.38-2.61-2.77-5.21-4.16-7.81-.1-.19-.23-.51-.5-.36-.14.08-.22.39-.22.6-.01,3.19,0,6.38,0,9.57Zm11.69-10.33c0-.06,0-.12,0-.17-1.36,0-2.71.04-4.07-.02-.86-.04-1.16.26-1.02,1.1.28,1.74,1.15,3.13,2.44,4.27.83.74,1.78,1.36,2.3,2.4.31.63.62.68.91,0,.63-1.52,1.71-2.66,2.97-3.68.81-.66,1.38-1.55,1.83-2.49.45-.93.23-1.35-.82-1.4-1.51-.07-3.03-.02-4.54-.02ZM31.89,26.68c2.19-.45,4.59-.78,6.36-2.64,1.88-1.98,3.49-4.17,4.66-6.65.24-.5.42-1.05.5-1.59.09-.58-.2-.94-.84-.65-.36.16-.65.46-1,.66-1.32.74-1.86,2.16-2.83,3.21-2.47,2.66-5.2,4.95-8.52,6.5-.26.12-.65.24-.53.62.05.15.39.24.62.29.47.1.94.16,1.59.26Zm18.38,47.72c.07,1.39.44,2.01,1.75,2.09,3.09.19,6.2.26,9.3.27,1.07,0,2.16-2.42,1.62-3.37-.23-.4-.57-.24-.83-.12-1.96.91-4.03.82-6.1.73-1.59-.08-3.19.02-4.75-.38-.71-.18-1.08,0-.99.79ZM15.26,37.3c-.05.95-.16,1.67-.12,2.38.08,1.2.68,1.53,1.74,1.07.82-.36,1.23-.82,1.03-1.83-.22-1.16-.22-2.38-.26-3.57-.07-2.47-.02-4.94.38-7.39.08-.49.37-1.29-.29-1.46-.74-.19-.73.67-.87,1.15-.92,3.23-1.56,6.51-1.61,9.65Zm21.95,8.34c.42.08.66.13.9.16.98.14.82-.43.63-1.01-.15-.46-.34-.98-.85-1.06-2.07-.33-3.95-1.24-5.91-1.89-.81-.27-1.19.21-1.52.79-.38.68-.93,1.31-.72,2.18.03.12.22.25.35.28,1.95.37,3.69,2.37,5.91.7.32-.24.92-.11,1.21-.14ZM15.97,27.02c.02-.27-.13-.45-.36-.54-.33-.13-.69-.03-.84.25-.23.41-.35.88-.49,1.34-.88,3.05-1.75,6.11-2.64,9.16-.48,1.65-.5,1.64,1.25,2.06,1.49.36,1.54.36,1.52-.97-.06-3.2.33-6.34,1.2-9.43.17-.61.25-1.25.37-1.87Zm-2.67.95c.08-.74.13-1.19-.33-1.35-.53-.18-.92.08-1.13.59-.09.22-.17.45-.24.67-1.11,3.4-2.22,6.8-3.32,10.21-.16.51-.58,1.17,0,1.51.46.27,1.03-.26,1.54-.46.74-.29.68-1.02.84-1.61.64-2.3,1.26-4.61,1.89-6.91.27-1,.56-1.99.75-2.66Zm12.77,17.74c.32-.09.47-.16.62-.17,1.72-.09,2.01-1.52,2.6-2.7.99-2,.99-1.98-.9-2.99-.74-.39-1.28-.45-1.83.27-.58.76-1.24,1.45-1.84,2.19-.32.41-1.11.79-.72,1.34.57.81,1.4,1.42,2.06,2.06Zm-5.72-16.28c.05.95.07,1.67.14,2.38.15,1.52.47,2.99,1.22,4.34.14.26.27.63.69.49.4-.13.68-.43.73-.85.02-.22-.08-.46-.14-.68-.8-2.69-1.24-5.43-.96-8.25.05-.46.12-1.04-.6-1.02-.55.02-.83.44-.87.97-.09.95-.14,1.9-.19,2.62Zm-1.69,4.59c0,1.44-.01,2.88,0,4.31,0,.38.06.83.6.86.94.04,2.2-1.45,1.78-2.21-1.58-2.95-1.63-6.13-1.58-9.34,0-.23.21-.62-.24-.67-.05,0-.18.39-.22.61-.31,2.14-.55,4.28-.35,6.45Zm8.27-8.35c.26-.04.43-.05.57-.1,3.36-1.16,6.34-2.93,8.8-5.51.1-.11.26-.29.23-.39-.12-.35-.39-.15-.56-.06-3.27,1.8-6.42,3.84-10.03,4.94-.17.05-.28.33-.41.51.2.13.38.3.59.38.29.12.6.17.81.23Zm-4.16,3.33c0,1.3.31,2.55.55,3.8.12.62.11,1.59.69,1.64.74.07.95-.94,1.34-1.51.23-.33.43-.74.26-1.13-.76-1.7-.98-3.53-1.29-5.33-.05-.31-.22-.62-.6-.64-.39-.03-.58.28-.63.57-.14.86-.22,1.74-.32,2.61Zm15.71,9.39c1.37-.57,1.69.56,2.28,1.24.22.26.44.8.88.34.7-.74.34-2.26-.65-2.66-1.27-.52-2.33-1.32-3.33-2.24-.38-.35-.71-1.16-1.25-.84-.45.26-.16,1.04.01,1.55.23.67.52,1.33.83,1.96.26.52.61.95,1.22.66Zm17.53,34.76c.52,0,1-.02,1.48,0,.97.04,1.92-.06,2.85-.32.45-.13,1.14-.2,1.11-.71-.05-.66-.75-.36-1.15-.33-1.51.09-3.03.21-4.53.39-1.34.16-2.71-.2-4.02.29,1.33.93,2.89.26,4.26.67ZM25.41,27.37c.06.35.12.83.21,1.29.14.69.12,1.81.77,1.85.85.05.94-1.11,1.21-1.8.62-1.59.39-1.87-1.32-2.15-.63-.1-.91.04-.87.8Zm-13.61,18.02c-.07-.57.03-1.19-.61-1.22-.39-.02-.64.46-.73.83-.23.98-.69,1.96-.26,3,.05.11.32.25.37.21,1.04-.71,1.04-1.86,1.23-2.82Zm16.49,6c.13-.07.31-.11.4-.22.45-.57.79-1.18.53-1.94-.03-.09-.33-.19-.38-.14-.59.49-.78,1.16-.74,1.9,0,.14.13.27.2.4Zm-10.76-2.26c.13-.07.34-.11.38-.22.18-.42.32-.86.43-1.3.02-.09-.14-.29-.25-.32-.11-.03-.34.06-.37.15-.15.43-.26.88-.38,1.32-.05.19,0,.31.2.36Zm22.62-23.7c-.33.25-1.01.13-.93.78.04.32.38.45.71.49.51.05.67-.29.72-.7.04-.34-.09-.59-.49-.58Zm5.9,6.61c-.01-.49-.34-.64-.75-.63-.26,0-.43.26-.33.47.16.33.38.76.66.85.3.09.37-.38.42-.68Zm-23.48,18.2c.48-.29.69-.69.73-1.16.02-.19-.13-.4-.2-.6-.44.24-.64.64-.68,1.12-.02.2.09.41.15.64Zm16.51-22.13c-.08-.1-.15-.27-.25-.3-.27-.06-.43.12-.44.37,0,.1.13.28.23.3.27.05.41-.13.46-.38Zm-4.26-.13c-.05-.13-.06-.32-.15-.39-.07-.05-.3,0-.37.09-.18.21-.07.4.17.45.1.02.23-.09.35-.15Z"/>
    <path class="cls-3" d="m33.18,15.5c-1.47.8-2.95,1.6-4.52,2.19-.37.14-.21.74.17.6,1.62-.61,3.15-1.43,4.66-2.26.35-.19.04-.73-.32-.54h0Z"/>
    <path class="cls-3" d="m23.74,19.36s.02,0,.04,0h-.08s.05,0,.07,0l-.07-.03s.05.02.07.04l-.06-.05s.06.05.08.08l-.05-.06c.05.06.08.13.11.19l-.03-.07s.03.08.05.12c.03.08.07.15.14.19.04.02.07.04.12.04.04,0,.08,0,.12,0,.08-.02.15-.07.19-.14s.06-.16.03-.24-.06-.16-.1-.24c-.03-.05-.05-.1-.09-.15-.07-.09-.13-.16-.22-.22s-.2-.08-.3-.09c-.08,0-.17.04-.22.09s-.1.14-.09.22.03.16.09.22.14.09.22.09h0Z"/>
    <path class="cls-6" d="m38.5,28.47c.4,0,.4-.62,0-.62s-.4.62,0,.62h0Z"/>
    <path class="cls-6" d="m34.39,28.16h.62c.08,0,.16-.03.22-.09s.1-.14.09-.22-.03-.16-.09-.22-.14-.09-.22-.09h-.62c-.08,0-.16.03-.22.09s-.1.14-.09.22.03.16.09.22.14.09.22.09h0Z"/>
  </g>
</svg>