<?xml version="1.0" encoding="UTF-8"?>
<svg id="Layer_1" data-name="Layer 1" xmlns="http://www.w3.org/2000/svg" viewBox="0 0 90.12 84.65">
  <defs>
    <style>
      .cls-1, .cls-2, .cls-3, .cls-4 {
        stroke-width: 0px;
      }

      .cls-2 {
        fill: #f2e7d1;
      }

      .cls-3 {
        fill: #f9faf5;
      }

      .cls-4 {
        fill: #ba4a30;
      }
    </style>
  </defs>
  <path class="cls-3" d="m62.44,22.08l-3.82,1.56,5.34,4.04,5.97,6.34,8.22,11.02,5.54,9.4,3.81,9.81,1.77,9.02v10.6l-61.23.12c-1.05-1.94.03-25.81-.44-30.36-.47-4.55,2.14-11.98,2.14-11.98l3.99-4.86-8.48,2.18,1.41-6.9,4.3.75,3.92-.67,2.72-2.59.73-2.66-3.87,2.66h-4.54l-3.48-1.87-6.59-2.79,5.09-7.35,6.51-4.01,3.64.68s6.5-.23,7.27,2.03l1.04.48c.11-.25.25-.4.38-.48,1.29-.89,4.01,2,9.5,4.77,2.38,1.2,3.67,1.56,5.03,1.65,1.75.11,3.2-.26,4.14-.59Z"/>
  <path class="cls-3" d="m6.11,65.4l5.01-6.76,3.89-2.17-.94-2.35-3.62-3.62-1.39-4.34.67-2.34,10.77-1.02,1.77,1.5.25,2.15-.25,3.88-3.97,4-1.01,2.45,4.98.79-.54,2.81.54,3.04-1.14,5.79-4.33,2.14,1.21,10.05s-11.07-7.68-11.91-15.97Z"/>
  <g>
    <g>
      <path class="cls-4" d="m82.62,54.35c-.85-2-1.76-3.98-2.72-5.94-.92-1.88-1.9-3.74-3.04-5.51-.57-.89-1.17-1.75-1.82-2.59-.64-.83-1.61-1.63-2.01-2.61-.13-.33-.4-.51-.71-.61,0-.04,0-.07-.01-.11-.19-.69-1.16-.76-1.72-.61-2.69.75-4.63,2.81-5.66,5.37-.5,1.26-.94,2.67-1.2,4.1,0,0-.02.02-.02.02-1.02,1.03-1.61,2.38-1.92,3.79-.2.92-.45,2.47-.25,3.62-.09.09-.18.19-.25.29-.84,1.13-.94,2.9-1.15,4.24-.37,2.39-.52,4.8-.57,7.22-.21.11-.37.24-.42.39-.42,1.22-.85,2.44-1.27,3.66-.42,1.22-.8,2.5-1.6,3.53-.75.95-1.77,1.67-2.71,2.42-.83.66-1.66,1.33-2.49,1.99-.12-.02-.25-.03-.38-.05-1.14-.19-2.27-.46-3.4-.7-.33-.07-.69-.04-1.05.04.05-.02.09-.05.14-.07.22-.13.57-.52.09-.58-.5-.06-.95-.23-1.35-.48-.02-.03-.04-.06-.06-.09-.05-.08-.14-.13-.26-.16-.82-.66-1.3-1.68-1.31-2.77.03-.16.04-.33.02-.51-.08-.59-2.81.1-2.9.78.15,1.07-1.46,2.35-1.93,3.29-.17.34-.29.69-.38,1.04-1.59,1.94-3.04,3.99-4.33,6.15-.24.4.84.3.96.28-.1.13-.19.26-.29.38-.2.25.4.3.48.3,3.17-.09,6.34-.19,9.51-.28,0,0,0,0,0,0,4.22.27,8.45.55,12.69.51,2.05-.02,4.11-.11,6.15-.31.86-.08,1.72-.18,2.58-.26,0,0,0,0,0,0,.89-.02,1.77-.04,2.66-.06.5.19,1.03.14,1.56-.06.55-.06,1.15-.21,1.55-.52.33-.26.41-.44.13-.53.74-.62,1.4-1.33,1.85-1.82,1.71-1.86,3.08-4.03,4.23-6.27,1.15-2.26,2.08-4.62,2.95-7,.82-2.25,1.81-4.56,1.8-6.97.66-2.12.71-3.87-.18-5.95Z"/>
      <path class="cls-4" d="m61.15,10.49c-.21-.45-.46-.88-.81-1.24-.87-.9-2.06-1.39-2.99-2.22-1.06-.94-1.87-1.97-3.21-2.55-1.22-.53-2.52-.66-3.84-.57-.13,0-.29.03-.45.05-3.61-2.81-7.97-4.21-12.52-2.92-.08,0-.17-.02-.25-.02-1.55-.07-3.58.39-4.21,2.01-.05.13-.07.28-.11.42-.76.67-1.4,1.46-1.85,2.38-.76,1.58-.95,3.94-.17,5.7-.1.12-.13.24-.04.34.18.22.37.4.57.55.31.4.7.74,1.17.98.17.09.53.07.95,0,.45.2.95.3,1.46.35,1.14.13,2.28.24,3.41.44,2.04.36,4.06.88,6.02,1.55,1.51.66,2.98,1.41,4.39,2.29.24.15.62.16,1.01.08,1.11.79,2.2,1.6,3.31,2.4.33.24.99.61,1.18.96.11.2-.02.43.11.67.22.39.65.51,1.06.62,1.57.42,3.36.54,4.94.19,2.73-.61,4.54-2.58,4.34-5.44-.18-2.65-1.62-5.18-3.49-7.04Z"/>
      <path class="cls-4" d="m18.1,82.51c-.4-.48-.87-.9-1.35-1.28-.02-.05-.02-.1-.06-.15-1.93-3.16-4.9-5.46-7.31-8.21.1-.17.13-.35.05-.53-.43-1.02-.98-1.99-1.64-2.88-.12-.16-.33-.26-.58-.31-.02-.63,0-1.26.04-1.88.09-1.35-2.84-.85-2.92.29-.02.36-.04.72-.04,1.08-.22.14-.4.32-.49.54-1.79,4.4-2.98,9-3.49,13.73-.06.51.48.78.93.79l15,.36c.58.01,2.65-.61,1.87-1.54Z"/>
      <path class="cls-4" d="m34.9,24.29c-1.06,0-2.11,0-3.17,0-.12,0-.26.04-.37.12-.06,0-.11.02-.14.03-.12.04-.29.14-.26.29.18.94.45,1.85.82,2.73.03.08.13.11.23.12.09.21.54.08.64-.04.44-.51.87-1.02,1.31-1.53.21-.25.43-.5.64-.75.18-.21.5-.48.52-.77,0-.13-.12-.19-.23-.19Z"/>
      <path class="cls-4" d="m21.73,49.99c.04-.54-.65-.48-1.25-.28-.11-.05-.23-.1-.37-.13-.72-.15-1.52.03-2.24.09-.05,0-.1,0-.15.01-.28-.06-.56-.13-.83-.17-1.38-.22-2.79-.22-4.18-.21-.05-.05-.1-.11-.15-.16-.5-.48-2.54.33-2.03.82.19.18.36.38.54.57.3,1.06,1.02,1.86,1.95,2.34.78,1.12,1.45,2.32,1.99,3.59.28.66,2.22.12,2.17-.58-.03-.38,0-.78.1-1.16.37-.05.75-.18,1.02-.41l2.16-1.74c.19-.15.34-.4.09-.57.31-.3.5-.67.55-1.05.34-.24.6-.56.62-.96Z"/>
    </g>
    <g>
      <path class="cls-2" d="m49.69,4.2c.14,4.37-1.72,8.41-3.55,12.27-.18.38.55.4.7.1,1.84-3.91,3.72-8,3.59-12.42-.01-.39-.75-.29-.74.05h0Z"/>
      <path class="cls-2" d="m49.98,3.97c1.74,1.95,2.76,4.46,2.8,7.08.02,1.44-.24,2.88-.78,4.21-.5,1.23-1.32,2.72-2.7,3.11-.41.12-.37.31.05.19,2.63-.75,3.75-3.7,4.06-6.18.39-3.13-.63-6.26-2.72-8.61-.14-.16-.76.16-.72.19h0Z"/>
      <path class="cls-2" d="m50.92,4.13c2.66,1.82,4.57,4.59,5.34,7.73.37,1.52.55,3.22.18,4.76-.23.98-.81,1.74-1.43,2.51s-1.29,1.5-2.25,1.79c-.44.13-.31.65.14.52,1.61-.48,2.83-1.99,3.68-3.37.97-1.57.9-3.61.62-5.37-.58-3.63-2.69-6.92-5.72-9-.28-.19-.9.19-.56.43h0Z"/>
      <path class="cls-2" d="m57.54,23.01c3.33-2.03,4.5-6.15,3.37-9.79-.64-2.06-1.94-3.72-3.43-5.25s-3.03-2.96-4.91-3.95c-.27-.14-.91.22-.56.41,1.7.89,3.11,2.15,4.46,3.5,1.44,1.44,2.79,2.97,3.52,4.9,1.35,3.56.45,7.8-2.92,9.86-.42.25.19.49.47.31h0Z"/>
      <path class="cls-2" d="m48.72,2.68c-3.07-.69-5.68,1.32-7.52,3.56-.92,1.12-1.91,2.35-2.19,3.81-.31,1.67.46,3.29,1.19,4.74.15.29.86.07.72-.19-.62-1.24-1.29-2.58-1.25-3.99s.89-2.62,1.74-3.7c1.64-2.07,3.97-4.41,6.88-3.76.29.06.86-.36.43-.46h0Z"/>
      <path class="cls-2" d="m44.13,16.16c-.04-2.43.08-4.9.83-7.22.33-1.03.79-2.02,1.38-2.93s1.75-2.58,3.02-2.4c.22.03.85-.33.45-.38-2.41-.35-4.19,2.56-5.03,4.41-1.24,2.73-1.43,5.76-1.37,8.72,0,.22.73.08.72-.19h0Z"/>
      <path class="cls-2" d="m37.74,14.12c-1.77-2.56-1.58-6.45-.14-9.12,1.9-3.5,6.15-3.65,9.59-2.85.16.04.79-.23.6-.27-3.39-.78-7.55-.69-10.07,2.08-1.24,1.36-1.73,3.26-1.9,5.05s.12,3.75,1.19,5.31c.12.17.77-.13.72-.19h0Z"/>
      <path class="cls-2" d="m37.43.41c-2.58,1.01-4.43,3.79-5.2,6.35-.7,2.35-.78,5.45,1.31,7.13.25.2.88-.16.56-.42-1.94-1.56-1.8-4.54-1.15-6.69.71-2.38,2.41-4.99,4.8-5.94.46-.18.05-.58-.32-.43h0Z"/>
      <path class="cls-2" d="m36.48,79.86c-.02,1.27-.04,2.54-.06,3.81,0,.1.72,0,.72-.19.02-1.27.04-2.54.06-3.81,0-.1-.72,0-.72.19h0Z"/>
      <path class="cls-2" d="m38.79,76.19c0,2.53,0,5.06,0,7.59,0,.34.73.21.73-.07,0-2.53,0-5.06,0-7.59,0-.34-.73-.21-.73.07h0Z"/>
      <path class="cls-2" d="m41.16,72.4c.27,3.64.33,7.3.18,10.95-.01.34.72.22.73-.07.15-3.69.09-7.39-.19-11.07-.02-.29-.75-.12-.72.19h0Z"/>
      <path class="cls-2" d="m44.1,74.49c-.27,2.95-.15,5.92.37,8.83.04.23.77.06.72-.19-.51-2.88-.64-5.82-.37-8.73.03-.27-.7-.13-.72.1h0Z"/>
      <path class="cls-2" d="m47.66,77.21c-.05,2.24.1,4.47.43,6.69l.72-.19c-.04-.09-.09-.17-.13-.26-.08-.16-.77.09-.72.19.04.09.09.17.13.26.07.14.75-.04.72-.19-.34-2.21-.48-4.45-.43-6.69,0-.09-.72,0-.72.19h0Z"/>
      <path class="cls-2" d="m50.34,77.1c-.08,2.3.09,4.59.53,6.85.02.13.75-.04.72-.19-.43-2.26-.61-4.55-.53-6.85,0-.08-.72,0-.72.19h0Z"/>
      <path class="cls-2" d="m54.22,75.45c-.12,2.76-.08,5.53.12,8.29.02.22.74.08.72-.19-.19-2.73-.24-5.46-.12-8.19.01-.29-.71-.14-.72.09h0Z"/>
      <path class="cls-2" d="m57.06,72.18c-.16,3.88-.1,7.76.17,11.63.01.16.74.03.72-.19-.27-3.87-.32-7.75-.17-11.63,0-.14-.71-.04-.72.19h0Z"/>
      <path class="cls-2" d="m61.34,83.45c.15-8.35-.06-16.59-.67-24.91,0-.13-.74,0-.72.19.61,8.32.82,16.57.67,24.91,0,.11.72.02.72-.19h0Z"/>
      <path class="cls-2" d="m64.78,83.5c.49-6.14.11-12.3-.2-18.44-.31-6.22-.63-12.43-.94-18.65-.02-.4-.75-.3-.74.05.31,6.22.63,12.43.94,18.65.31,6.14.7,12.3.2,18.44-.03.39.71.31.74-.05h0Z"/>
      <path class="cls-2" d="m68.01,84.08c.79-14.97.37-29.99-1.25-44.89-.03-.23-.75-.08-.72.19,1.62,14.87,2.04,29.85,1.26,44.79-.02.29.71.15.72-.09h0Z"/>
      <path class="cls-2" d="m71.95,83.45c.72-15.45.16-30.95-1.66-46.31-.04-.35-.77-.17-.72.19,1.81,15.31,2.37,30.76,1.65,46.16-.02.39.72.3.74-.05h0Z"/>
      <path class="cls-2" d="m75.51,78.5c.15-13.02.81-26.14-.61-39.11-.02-.22-.75-.06-.72.19,1.42,12.97.76,26.09.61,39.11,0,.2.72.07.72-.19h0Z"/>
      <path class="cls-2" d="m79.22,72.06c0-8.57,0-17.14,0-25.71,0-.38-.73-.27-.73.06,0,8.57,0,17.14,0,25.71,0,.38.73.27.73-.06h0Z"/>
      <path class="cls-2" d="m81.61,65.75c.25-4.65.42-9.3.48-13.96,0-.33-.72-.19-.73.08-.07,4.66-.23,9.31-.48,13.96-.02.32.71.19.73-.08h0Z"/>
      <path class="cls-2" d="m15.15,80.29c.02,1.22.02,2.45-.01,3.67,0,.16.72.05.72-.19.03-1.22.03-2.45.01-3.67,0-.17-.73-.04-.72.19h0Z"/>
      <path class="cls-2" d="m11.62,76.86c.01,2.31-.11,4.61-.38,6.91-.04.34.7.23.73-.07.27-2.29.39-4.6.38-6.91,0-.35-.73-.22-.73.07h0Z"/>
      <path class="cls-2" d="m8.11,71.75c.04,4.09-.03,8.18-.23,12.26-.02.37.72.27.73-.06.19-4.09.27-8.18.23-12.26,0-.38-.74-.27-.73.06h0Z"/>
      <path class="cls-2" d="m4.71,67.02c-.11,5.75-.06,11.5.16,17.25.01.38.75.27.73-.05-.22-5.75-.27-11.5-.16-17.25,0-.38-.73-.28-.73.05h0Z"/>
      <path class="cls-2" d="m1.33,75.68v8.28c0,.11.72.01.72-.19v-8.28c0-.11-.72-.01-.72.19h0Z"/>
    </g>
  </g>
  <path class="cls-1" d="m27.5,65.97c-.14-3.03-.28-6.07-.43-9.1-.22-4.35.19-8.62,1.65-12.76.62-1.74,1.4-3.4,2.47-4.91.27-.38.89-.83.63-1.19-.36-.49-1.02-.07-1.54.07-1.31.35-2.61.76-3.93,1.05-1.23.28-1.5.04-1.33-1.17.21-1.58.47-3.16.8-4.73.34-1.63.61-1.79,2.33-1.53.95.14,1.87.44,2.82.56,2.55.32,5.18-.99,6.27-3.11.13-.26.28-.69.16-.87-.25-.37-.53,0-.78.16-3.62,2.32-7.16,2.27-10.73-.2-1.44-1-3.18-1.48-4.82-2.1-1.74-.65-1.94-1.04-1.04-2.64,2.23-3.96,5.07-7.37,9.19-9.52,1.53-.8,1.6-.82,1.04-2.43C28.5,6.61,32.15.15,38.3.02c3.97-.08,7.86.01,11.18,2.62.59.46,1.27.62,2.01.67,1.29.09,2.53.47,3.62,1.15,3.37,2.08,6.3,4.64,8.51,7.96.26.4.51.82.71,1.25,1.93,4.01.47,7.88-3.62,9.62-1.27.54-1.31.66-.3,1.45,12.6,9.83,20.96,22.69,26.54,37.46,2.43,6.41,3.09,13.2,3.15,20.03.02,2.05-.09,2.12-2.22,2.13-4.64.03-9.27.02-13.91.03-11.41.03-22.81.06-34.22.1-3.59.01-7.18.01-10.76.14-1,.04-1.31-.35-1.38-1.16-.15-1.51-.35-3.02-.37-4.54-.05-4.32-.02-8.63-.02-12.95.09,0,.18,0,.27,0Zm24.62-44.94l.07-.1v.07c.23,1.16.45,2.32.72,3.47.04.17.29.33.47.43.05.03.25-.16.33-.29.55-.84.22-1.67-.03-2.51-.23-.78-.7-1.21-1.56-1.07Zm2.99,9.08c-.68-.05-1.28.04-1.4.87-.23,1.61.07,3.12.96,4.5.17.26.42.52.75.36.16-.08.25-.37.3-.59.33-1.42,0-2.81-.21-4.21,1.02,1.4.87,3.02.82,4.6-.04,1.09.52,1.4,1.47,1.34,1.15-.07,1.98-.65,2.41-1.69.41-1.01.45-2-.41-2.88-1.02-1.05-1.75-2.28-1.86-3.79-.03-.39-.07-.85.35-1.05.44-.21.76.11,1.01.42.8,1.01,1.46,2.09,1.88,3.32.66,1.91,2.07,2.33,3.52,1.06,1.23-1.07,1.26-1.71.09-2.89-1.3-1.31-2.73-2.46-4.2-3.56-2.24-1.67-4.6-1.7-6.76.04-1.57,1.26-2.94,2.73-3.19,4.88-.13,1.09-.46,1.15-1.33.48-1.62-1.24-2.97-1.16-4.57.02-.99.73-1.68,1.69-2.11,2.84-.68,1.83-.69,1.84-2.44,1.16-1.27-.49-2.67-.59-3.67.26-2.04,1.74-4.4,3.21-5.62,5.74-.62,1.29-1.24,2.6-1.66,3.97-.3.99-1.28,2.41-.22,3.03,1.02.59,2.16-.63,3.12-1.34.92-.68,1.41-1.48.78-2.66-.42-.79-.48-1.69-.32-2.57.11-.6.43-1.07,1.09-1.06.53,0,.86.4,1.03.88.33.94.24,1.9.06,2.84-.12.61-.06,1.09.55,1.41,1.33.7,2.74.22,3.39-1.15.4-.85.42-1.59-.16-2.45-.91-1.35-1.36-2.88-.87-4.55.16-.56.41-1.08,1.07-1.13.62-.04,1.05.34,1.33.86.31.56.54,1.16.52,1.82-.02.8.05,1.62-.12,2.39-.26,1.26.32,1.77,1.43,2,.79.17,1.58.22,2.37,0,.99-.27,1.73-.88,2.12-1.79.39-.91-.58-1.18-.98-1.71-1.25-1.65-1.6-3.46-.9-5.42.51-1.41,1.53-1.54,2.49-.35.41.5.67,1.08.84,1.7.35,1.25.55,2.51.28,3.79-.2.95.25,1.29,1.06,1.51,1.75.47,3.74-.29,5.05-1.97,1.05-1.34,1.04-1.59-.06-3.03-1.29-1.69-1.71-3.6-1.25-5.65.29-1.31.83-1.42,2.17-.61Zm-2.14,53.45v-.08c5.11,0,10.22-.06,15.33.03,1.65.03,2.81-.47,3.97-1.68,5.14-5.37,7.68-12.05,9.72-18.98,1.37-4.66,1.04-9.01-1.73-13.27-2.57-3.95-4.96-8.01-7.91-11.7-1.05-1.31-1.36-1.35-2.82-.64-.73.35-1.33.87-1.89,1.45-.95.99-1.6,2.18-2.23,3.39-2.98,5.76-4.35,11.96-5.12,18.34-.45,3.72-.95,7.45-2.45,10.95-.87,2.05-2.22,3.69-4.1,4.86-3.51,2.19-7.54,1.41-9.94-1.96-.41-.58-.65-1.27-.97-1.91-.14-.28-.3-.78-.47-.78-.42-.01-.61.43-.8.78-1.67,3.1-3.63,6.01-5.68,8.87-.28.39-.48.83-.7,1.25-.29.57-.07.93.53,1.01.55.07,1.11.06,1.67.06,5.19,0,10.38,0,15.57,0Zm-10.92-21.99c0,3.52.44,7.17,1.72,10.64,1.61,4.37,6.17,5.66,9.98,2.98,1.91-1.34,3.04-3.22,3.77-5.4,1.02-3.05,1.56-6.19,1.91-9.37.74-6.63,2.23-13.05,5.34-19.02,1.13-2.16,2.44-4.14,4.8-5.13.77-.32.96-.75.33-1.41-.88-.92-1.74-1.87-2.6-2.81-.46-.5-.84-.68-1.29.06-.82,1.34-2.05,1.97-3.63,1.86-.69-.05-.97.31-1.14.94-.56,2.06-1.93,3.06-4.07,2.92-.8-.05-1.36.13-1.7.94-1.31,3.07-3.77,3.89-6.86,3.34-.59-.11-1.08-.11-1.5.41-1.66,2.1-3.84,2.41-6.25,1.7-.7-.21-.95.07-1.27.64-1.37,2.39-1.65,2.55-4.39,1.86-.92-.23-1.45-.1-2.08.54-.89.91-1.86,1.74-3.19,2.02-1.8.38-1.76.42-1.89,2.26-.08,1.11-.04,1.82,1.29.92.45-.3,1.02-.13,1.3.26.54.78.81.87,1.43,0,1.08-1.52,1.33-1.51,2.65-.14.65.67.74.08.96-.26.55-.88,1.35-1.78,2.27-.96.96.87,1.29.46,2.05-.14,1.25-.99,2.24-.53,2.52,1.09.25,1.5.24,3.04-.06,4.53-.31,1.5-.34,3.01-.39,4.71ZM40.21.9c-1.11-.03-2.3-.03-3.48.23-4.41.99-7.18,6.04-5.6,10.28.45,1.22,1.09,2.09,2.61,1.92.95-.11,1.9.12,2.85.28,6.11.97,11.6,3.49,16.78,6.76,1.22.77,2.46,1.5,3.84,1.94,3.71,1.18,7-1.26,7.04-5.17.02-1.76-.61-3.28-1.62-4.67-1.85-2.55-4.15-4.64-6.7-6.46-1.46-1.04-3.06-1.75-4.86-1.85-.76-.04-1.4-.24-1.98-.71-2.57-2.08-5.6-2.6-8.88-2.54Zm5.85,26.37c-.03-2.9-.83-5.29-1.86-7.67-1.3-3-3.41-4.71-6.69-4.91-.54-.03-1.29-.54-1.57-.09-.34.54.55.81.82,1.25.37.59,1.25,1.2.81,1.84-.56.81-1.25-.19-1.88-.35-1.11-.28-2.2-.54-3.28-.1-.76.31-1.37.85-1.38,1.78,0,.95.61,1.4,1.41,1.71.97.38,1.87.3,2.73-.27.27-.17.58-.34.83.02.2.3.07.61-.08.89-.61,1.17-1.98,2-3.1,1.89-1.31-.13-2.51-1.18-2.72-2.65-.31-2.2-.3-4.35,1.95-5.71.2-.12.47-.29.33-.51-.09-.14-.43-.16-.66-.16-1.17,0-2.16.51-3.12,1.1-3.29,2.01-5.63,4.92-7.61,8.15-.8,1.31-.75,1.43.77,2.03,1.78.7,3.58,1.35,5.19,2.42,2.97,1.99,6.77,1.75,9.57-.55.43-.35.79-.79,1.21-1.15.16-.14.42-.25.62-.24.42.04.41.44.43.73.14,2.09-1.76,4.84-3.98,5.8-2,.86-4.02.88-6.08.23-.61-.19-1.4-.87-1.87.06-.42.82.39,1.27.91,1.74.12.11.26.19.37.31.52.56,1.84,1.26,1.48,1.61-.81.77-1.4-.5-2.06-.92-1.04-.65-1.09-.67-1.33.52-.08.39-.12.79-.22,1.17-.21.82.15,1.03.88.84,2.24-.59,4.47-1.16,6.69-1.8.52-.15,1.03-.45,1.46-.79,1.63-1.28,3.39-1.76,5.37-.98.75.3,1.15.2,1.42-.62.43-1.31,1.12-2.59,2.36-3.22,1.62-.83,2.12-2.03,1.88-3.41Zm-17.84,34.52c.03,3.69.34,7.26.84,10.82.24,1.68.85,3.24,1.57,4.76.63,1.31.71,1.3,1.7.1,1.17-1.41,2.36-2.82,3.55-4.22,1.76-2.07,3.48-4.17,4.89-6.5.29-.47.66-.9.58-1.52-.47-3.6.11-7.17.33-10.75.06-.9.67-2.44-.75-2.59-1.16-.12-1.29,1.4-1.58,2.36-.21.68-.17,1.44-.68,2.02-.1.11-.26.2-.4.22-.29.04-.45-.2-.46-.42-.04-.96-.02-1.92-.05-2.87-.01-.4-.04-.86-.53-.94-.46-.07-.69.31-.87.67-.51,1.02-.52,2.17-.83,3.24-.11.37-.21.85-.69.86-.61,0-.41-.55-.46-.9-.15-.94-.25-1.9-.41-2.84-.03-.19-.25-.42-.43-.5-.37-.16-.62.14-.76.41-.22.42-.39.88-.52,1.33-.15.54-.2,1.1-.35,1.64-.14.5-.16,1.26-.9,1.18-.61-.07-.42-.75-.47-1.18-.08-.63-.08-1.28-.19-1.9-.05-.29-.26-.7-.48-.77-.42-.13-.75.21-.9.61-.19.52-.33,1.06-.47,1.6-.55,2.05-.36,4.12-.27,6.1Zm52.29,21.69s0-.01,0-.02c2.32,0,4.64.03,6.96,0,1.75-.03,1.83-.06,1.78-1.72-.22-7.72-1.22-15.29-4.33-22.46-.16-.37-.31-.74-.49-1.09-.07-.13-.21-.29-.33-.3-.29-.04-.36.22-.4.44-.21,1.26-.29,2.55-.62,3.78-1.98,7.31-4.59,14.31-9.87,20-.3.32-.88.64-.53,1.15.16.23.72.22,1.11.23,2.24.02,4.48,0,6.72,0Zm-46.08-1.33c-.14,0-.03-.2.11-.4,2.5-3.71,5.06-7.37,7.13-11.35.32-.62.43-1.18.19-1.82-.11-.29-.14-.67-.47-.73-.14-.03-.39.25-.52.44-1.97,3.03-4.5,5.6-6.79,8.37-.61.74-1.19,1.51-1.68,2.33-.53.87.71,3.22,2.03,3.17Zm14.59-55.75c0-2.68-.74-5.14-1.87-7.56-.55-1.17-1.43-1.61-2.46-2.01-.2-.08-.5-.12-.67-.03-.45.24-.08.57.04.78,1.15,2.01,2.09,4.08,2.56,6.37.31,1.5.36,2.99.32,4.5-.02.65.19,1.06.91,1.11.77.06.95-.44,1.02-1.02.08-.71.1-1.42.15-2.13Zm-20.94,51.9c.04.72.06,1.27.09,1.83.21,4.01.02,3.5,4.09,3.44.99-.01,1.12-.32.46-1.12-1.18-1.42-2.08-3-2.92-4.63-.5-.97-.63-2.1-1.36-2.96-.78,1.14-.15,2.41-.36,3.44Zm21.77-51.98c0,.55-.01,1.11,0,1.66,0,.21-.08.52.28.51.13,0,.28-.13.37-.24,1-1.19,1.75-2.5,1.38-4.13-.42-1.83-.67-3.77-2.37-4.99-.26-.19-.65-.56-1.02-.19-.26.26-.05.6.08.88.91,2.07,1.26,4.25,1.28,6.49Zm-4.8,10.08c.01,1.01.21,1.94.74,2.76.26.4.58.87,1.09.8.63-.08.52-.71.55-1.15.07-.87.07-1.76-.23-2.6-.27-.79-.36-2.03-1.45-1.85-.88.15-.58,1.32-.71,2.03Zm-5.32,3.51c-.05-.74.09-1.47-.53-2.01-.23-.2-.46-.09-.59.09-.49.64-.25,1.33-.07,2.01.08.3.17.6.31.88.1.21.32.36.57.27.11-.04.19-.23.22-.36.06-.3.07-.62.1-.88Zm16.75-16.36c-.16-.42-.55-.55-.92-.6-.36-.05-.57.18-.5.56.07.39.36.46.69.39.27-.05.6,0,.73-.36Zm-22.47,19.15c-.07-.16-.17-.55-.23-.55-.39.04-.32.4-.31.66,0,.21.15.61.19.61.39-.05.28-.4.34-.72Z"/>
  <path class="cls-1" d="m9.95,84.4c-2.8,0-5.59.04-8.39-.02-1.56-.03-1.63-.11-1.54-1.68.31-5.5,1.78-10.7,4.31-15.59,1.73-3.35,3.76-6.51,6.67-8.99.66-.56,1.23-1.2,2.25-1.2,1.08,0,1-.79.79-1.55-.27-.99-1.07-1.58-1.78-2.2-2.31-2-3.46-4.54-3.63-7.56-.1-1.89.13-2.3,1.95-2.64,3.24-.6,6.52-.46,9.79-.22.61.05,1.23.35,1.8.62.78.37,1.27.97,1.11,1.91-.25,1.49-.39,3.02-.77,4.48-.46,1.76-1.55,3.13-3.12,4.1-.47.29-.92.65-1.31,1.04-.6.6-.46,1.21.33,1.41.53.13,1.11.1,1.66.15,1.83.16,2.64.69,2.22,2.29-.5,1.95.67,3.81-.25,5.79-.45.97.06,2.39-.16,3.69-.27,1.6-1.05,2.2-2.34,2.58-2.55.76-2.62.76-2.36,3.33.31,3.1.96,6.15,1.68,9.18.31,1.31.27,1.34-1.02,1.33-2.64-.01-5.27,0-7.91,0,0-.08,0-.16,0-.24Zm-.65-.58c0-.06,0-.11,0-.17,2.47,0,4.95.04,7.42-.02,1-.03,1.34-.84.75-1.64-.23-.31-.6-.52-.89-.79-1.05-.97-2.14-1.92-3.15-2.94-3.08-3.11-5.38-6.71-6.82-10.85-.13-.38-.28-.83-.69-.9-.17-.03-.47.39-.61.65-2.47,4.72-3.99,9.73-4.39,15.05-.11,1.43.1,1.57,1.67,1.59,2.23.02,4.47,0,6.7,0Zm8.77-26.46c-1.67-.06-3.47.31-5.22.84-2.62.8-3.63,2.66-2.9,5.21.81,2.83,1.72,5.64,2.89,8.34.76,1.76,1.72,3.41,2.85,4.96.18.25.41.6.76.42.31-.16.19-.55.16-.85-.12-1.35-.32-2.69-.35-4.04-.04-1.67.02-1.68,1.64-2.03,2.31-.51,2.35-.49,3.17-2.89.55-1.61-.47-3.39.48-4.98.02-.04-.03-.16-.08-.21-.76-.74-.51-1.38-.14-2.3.59-1.46.21-2.64-1.63-2.48-.47.04-.96,0-1.62,0Zm-1.74-8.44s0,.06,0,.09c1.44,0,2.88.05,4.31-.02,1.04-.05,1.85-1.44,1.55-2.73-.23-1.01-1.04-.32-1.58-.36-.79-.05-1.6.03-2.4.02-2.58-.02-5.08-.57-7.58-1.09-.36-.08-.87-.36-1.02.17-.27.96.1,1.9.34,2.82.22.82.97.71,1.58.76,1.59.13,3.19.23,4.78.34Zm-4.58.4c-.29.07-.78-.2-.98.28-.17.41.14.76.38,1.07.24.32.52.61.78.9,1.26,1.41,2.94,2.48,3.3,4.58.1.58.92.5,1.06-.02.45-1.65,1.83-2.34,2.99-3.29.49-.4.95-.86,1.35-1.34.29-.35.66-.77.38-1.28-.23-.41-.7-.31-1.08-.32-2.71-.09-5.43-.06-8.19-.58Zm-3.44,13.34c-.87.16-1.69,2.32-1.31,3.42,1.65,4.84,4.3,9.05,8.02,12.57.4.38.81.77,1.25,1.11.16.13.52.27.6.2.38-.35-.07-.53-.24-.72-3.42-3.65-5.21-8.15-6.69-12.81-.34-1.06-.66-2.13-.98-3.2-.1-.33-.27-.56-.64-.58Zm9.72-17.62c.89,0,1.6.03,2.31-.01.46-.03,1.13-.02,1.17-.56.06-.73-.73-.65-1.2-.83-.29-.11-.62-.1-.94-.1-2.22,0-4.43,0-6.65.04-.24,0-.74-.16-.67.37.05.34.41.44.73.49,1.8.25,3.58.71,5.24.61Z"/>
  <path class="cls-1" d="m55.57,31.1c-.17-.35-.35-.7-.52-1.05.17.35.35.7.52,1.05Z"/>
  <path class="cls-1" d="m28.85,36.33s0,0,.01,0c.02.01.04.03.05.04.03.03.06.05.09.08.07.05.13.11.2.16.13.11.26.23.39.36s.24.24.36.37c.13.14.27.27.46.32.16.04.35-.05.38-.22s-.05-.34-.22-.38c-.01,0-.07-.03-.03,0,.04.02-.02-.02-.02-.02-.03-.02,0,0,0,0-.02,0-.03-.03-.04-.04-.05-.05-.1-.11-.15-.16-.12-.12-.24-.25-.36-.36-.26-.25-.53-.47-.81-.69-.06-.05-.17-.05-.24-.03-.07.02-.15.08-.19.14-.09.17-.03.32.11.43h0Z"/>
  <path class="cls-1" d="m28.65,36.53c.05.04.1.07.15.11.02.01.05.05,0,0,.01,0,.02.02.03.02.03.02.05.04.08.06.1.08.19.16.28.24.18.17.35.35.51.54.11.13.33.12.44,0,.12-.13.11-.31,0-.44-.34-.41-.74-.76-1.17-1.07-.06-.04-.17-.05-.24-.03s-.15.08-.19.14c-.09.16-.03.33.11.43h0Z"/>
  <path class="cls-1" d="m53.77,30.31c.49-.06,1,.06,1.3.47.34.45.48,1.09.57,1.64.2,1.17.09,2.38.04,3.56-.02.4.61.4.62,0,.06-1.38.18-2.79-.14-4.14-.14-.58-.35-1.26-.8-1.67-.43-.39-1.02-.56-1.59-.48-.39.05-.4.68,0,.62h0Z"/>
</svg>