<svg width="1821" height="645" viewBox="0 0 1821 645" fill="none" xmlns="http://www.w3.org/2000/svg">
<path d="M1102.06 62.9462C1108.24 25.6052 1131.41 5.48404 1170.33 2.69572C1183.71 1.71603 1197.12 2.20587 1209.93 6.76517C1223.53 11.5882 1233.7 20.1793 1238.04 34.4977C1242.37 48.8162 1234.99 63.2477 1221.23 67.2795C1211.63 70.1055 1205.22 66.0737 1203.71 56.3145C1201.08 39.3208 1184.05 28.7704 1163.06 31.1442C1145.32 33.1413 1137.29 43.2395 1138.27 62.3057C1139.78 91.7339 1164.31 119.693 1196.67 129.376C1218.67 135.97 1237.96 134.84 1256.76 118.374C1287.96 91.0933 1304.99 79.1864 1307.21 76.9632C1312.49 71.6504 1374.16 11.0607 1440.02 16.2606C1453.62 17.3533 1483.72 22.5155 1517.33 54.9204C1527.39 69.1258 1535.75 73.2329 1553.76 70.8967C1611.6 63.4361 1665.77 77.0763 1715.77 107.183C1721.31 110.499 1727.07 113.551 1733.03 116.113C1744.14 120.936 1757.74 116.98 1764.94 107.296C1768.52 102.473 1769.31 97.3859 1766.82 91.8469C1764.52 86.6847 1759.89 86.9485 1755.44 86.9862C1751.3 87.0615 1747.19 86.6847 1743.35 85.0268C1736.42 81.9747 1732.57 76.4734 1732.35 69.0504C1732.27 66.6389 1732.76 64.6042 1733.63 62.8709C1736.19 57.8594 1741.84 55.9377 1744.03 55.2595C1757.85 50.8132 1792.86 68.4475 1811.24 99.7597C1817.72 110.8 1818.14 116.98 1816.52 121.765C1814.59 127.304 1808.94 131.562 1799.11 135.744C1793.8 138.005 1788.18 139.738 1782.57 141.17C1776.77 142.64 1776.2 144.75 1780.05 149.271C1789.43 160.274 1796.51 172.784 1803.82 185.181C1817.95 209.07 1822.21 235.031 1820.66 262.236C1819.3 285.485 1804.95 299.502 1781.78 302.705C1752.92 306.699 1727.75 296.751 1703.53 283.262C1663.48 260.955 1628.21 232.243 1595.32 200.479C1589.89 195.241 1585.03 189.438 1581.64 182.618C1578.93 177.192 1578.1 171.503 1578.78 166.227C1580.29 154.471 1589.89 147.387 1591.59 146.144C1610.24 132.315 1641.89 141.773 1656.96 157.297C1659.48 159.897 1664.64 166.868 1666.94 176.665C1669.65 188.346 1660.95 196.145 1649.39 192.604C1644.52 191.134 1640.12 188.27 1635.41 186.236C1630.51 184.088 1624.63 179.83 1620.53 185.407C1616.57 190.72 1621.54 195.618 1625.16 199.763C1646.41 224.142 1672.25 242.379 1701 256.773C1710.08 261.332 1719.54 263.48 1729.71 263.291C1754.5 262.802 1768.18 249.237 1769.23 224.406C1770.51 193.998 1757.06 169.845 1736.23 149.799C1700.93 115.849 1656.88 102.623 1609.11 99.722C1602.63 99.3076 1596.04 100.023 1589.59 99.1945C1558.7 95.2381 1531.35 106.768 1505.84 121.049C1483.87 133.37 1465.49 160.839 1488.13 193.847C1513.45 230.774 1544.46 261.52 1586.32 280.172C1626.33 297.995 1666.72 314.989 1704.51 337.521C1746.06 362.277 1782.65 392.271 1806.61 434.962C1815.84 451.353 1820.43 468.347 1819.68 485.454C1818.93 503.276 1812.67 516.276 1809.17 523.322C1791.16 559.796 1758.08 576.715 1747.19 582.103C1738.07 586.625 1709.7 599.361 1654.02 596.987C1568.65 593.369 1542.16 559.382 1462.66 555.086C1427.81 553.202 1391.08 555.086 1391.08 555.086C1373.11 555.991 1357.77 557.46 1345.87 558.854C1345.79 559.834 1345.56 561.115 1345 562.509C1343.83 565.524 1341.57 567.106 1341.35 567.747C1332.42 590.129 1314.75 605.578 1298.43 622.082C1296.77 623.777 1294.66 625.058 1292.67 626.34C1266.33 643.107 1236.83 646.574 1206.88 644.275C1183.03 642.467 1165.13 605.879 1176.29 584.929C1177.53 582.631 1179.79 580.747 1181.82 578.976C1204.58 559.118 1230.62 546.269 1260.83 542.765C1281.25 540.391 1301.63 538.13 1322.09 536.246C1329.06 535.606 1333.32 533.458 1334.79 525.884C1336.52 517.18 1339.57 508.74 1341.99 500.186C1342.51 498.302 1344.25 496.004 1342.59 494.459C1340.44 492.462 1338.14 494.648 1336.11 495.627C1326.27 500.45 1316.82 505.876 1305.63 507.421C1294.29 508.966 1283.63 509.833 1277.3 497.36C1274.88 492.613 1273.04 496.946 1271.23 498.302C1261.06 505.838 1250.43 511.943 1238.04 516.012C1209.82 525.281 1181.15 500.186 1184.31 469.515C1185.52 457.872 1189.59 446.794 1197.16 437.524C1212.19 419.099 1240.71 420.531 1253.56 440.275C1257.97 447.057 1253.75 452.785 1249.68 456.704C1243.8 462.356 1236.3 463.26 1229.3 457.344C1221.01 450.373 1219.46 450.825 1216.34 460.811C1211.14 477.616 1212.46 483.758 1222.55 489.485C1236.76 497.549 1257.1 495.024 1267.27 483.871C1271.23 479.538 1274.28 474.715 1276.35 469.1C1285.43 444.344 1304.72 432.551 1329.4 427.577C1347.3 423.997 1365.57 425.806 1383.54 423.771C1389.31 423.131 1389.5 426.22 1389.34 430.516C1388.97 443.101 1382.79 454.066 1379.77 465.935C1378.27 471.926 1375.29 477.654 1381.24 482.929C1386.78 487.79 1392.28 486.659 1398.27 483.683C1405.13 480.291 1412.59 479.161 1418.32 472.416C1425.25 464.277 1429.47 457.193 1426.46 445.965C1424.31 437.977 1432.71 429.084 1441.71 426.748C1449.81 424.638 1453.7 429.499 1457.05 435.565C1460.06 441.029 1458.71 445.663 1454.07 449.168C1442.73 457.796 1448.01 470.721 1445.52 481.61C1444.92 484.323 1448.19 485.039 1450.83 484.813C1457.05 484.323 1462.25 481.61 1465.34 476.297C1478.26 454.104 1497.1 435.037 1498.3 406.853C1498.83 394.72 1504.22 383.001 1511.38 372.639C1517.93 363.106 1529.88 359.376 1540.16 363.935C1545.89 366.497 1541.1 369.662 1539.97 371.961C1528.26 395.925 1516.69 419.965 1504.18 443.553C1498.38 454.48 1498.57 465.898 1498 477.465C1497.74 482.627 1501.09 484.775 1505.35 485.943C1510.44 487.338 1516.5 491.445 1520.38 485.378C1534.06 464.089 1553.27 445.663 1555.65 418.27C1556.25 411.525 1558.32 404.856 1560.39 398.337C1566.61 378.668 1568.57 377.538 1589.18 376.671C1596.75 376.37 1597.51 379.158 1594.53 385.111C1584.13 405.911 1574.41 427.049 1563.3 447.472C1557.53 458.022 1557.91 469.176 1556.29 480.216C1555.72 484.097 1557.46 486.094 1561.56 485.491C1567.29 484.662 1571.36 488.167 1575.39 491.219C1579.53 494.346 1583.41 498.152 1581.34 504.181C1580.85 505.575 1580.17 506.705 1579.35 507.609C1576.44 510.737 1571.43 511.189 1569.81 511.302C1544.08 513.148 1541.63 514.317 1537.79 511.34C1530.06 505.386 1527.73 501.317 1527.73 501.317C1524.83 495.853 1522.45 497.134 1519.52 499.734C1516.58 502.297 1512.66 503.465 1509.23 505.386C1502.49 509.192 1487.45 512.395 1478.98 506.027C1471.7 500.601 1469.48 496.531 1469.48 496.531C1466.62 490.691 1464.32 492.311 1460.25 494.12C1451.89 497.85 1444.46 503.804 1434.9 504.859C1428.11 505.612 1422.42 504.482 1419.56 497.662C1418.13 494.271 1416.21 493.291 1415.53 492.914C1412.4 491.256 1409.01 495.439 1402.31 498.529C1392.25 503.163 1377.1 504.294 1374.91 504.444C1373.9 504.52 1371.15 504.67 1369 506.63C1367.49 508.024 1366.96 509.72 1366.74 510.398C1365.46 514.354 1361.95 523.586 1357.09 536.209C1445.82 526.035 1506.18 536.02 1545.47 547.513C1554.25 550.075 1593.89 562.057 1644.49 561.191C1662.46 560.889 1688.27 560.55 1714.04 546.081C1726.66 538.997 1739.24 532.968 1748.4 521.25C1764.79 500.3 1762.11 476.599 1760.08 452.446C1755.37 396.378 1716.22 368.231 1672.63 344.304C1648.37 331.003 1622.75 320.038 1596.19 311.748C1565.97 302.328 1536.88 289.818 1509.91 273.654C1478.11 254.587 1453.28 227.948 1440.96 192.151C1427.44 152.7 1442.84 113.852 1480.9 87.1369C1491.86 79.4501 1492.24 75.5691 1481.88 66.3751C1466.62 52.848 1448.19 50.5118 1428.87 52.8103C1417.75 54.1291 1400.84 56.9174 1372.35 73.346C1353.02 84.4993 1339.39 94.899 1335.77 97.6873C1298.88 126.211 1280.46 140.492 1266.67 163.1C1262.87 169.355 1238.23 210.916 1249.87 246.863C1251.83 252.967 1256.01 265.665 1267.76 271.355C1273.72 274.219 1280.76 274.859 1288.52 273.164C1301.9 270.225 1304.61 264.422 1298.13 252.816C1292.4 242.492 1289.62 231.753 1295 220.449C1299.64 210.69 1306.72 208.618 1316.06 213.93C1335.47 224.971 1342.36 256.848 1329.36 275.311C1304.31 310.844 1258.42 306.247 1235.48 266.08C1219.09 237.368 1219.46 207.864 1231.22 178.021C1234.76 169.053 1234.38 166.642 1223.68 167.019C1185.03 168.338 1155.11 149.724 1131.11 121.614C1099.84 85.0268 1061.68 58.5377 1016.61 43.2019C992.69 35.0629 967.184 32.1616 942.129 41.9961C932.183 45.8771 931.58 46.4423 939.454 53.0364C953.922 65.1694 957.124 80.3921 951.85 97.5366C946.198 115.849 939.605 134.011 926.117 148.405C921.332 153.529 922.5 157.561 927.134 161.367C948.609 179.001 970.424 195.882 996.307 207.035C1022.45 218.301 1049.66 218.641 1075.95 212.423C1100.18 206.658 1103.23 195.882 1091.29 175.761C1077.08 151.796 1052.75 140.68 1028.52 130.055C1025.92 128.924 1015.11 130.092 1012.88 135.33C1011.34 139.022 1014.39 144.26 1016.5 147.84C1018.57 151.382 1022.08 155.564 1023.7 157.787C1026.26 161.367 1029.95 164.758 1025.88 169.506C1021.96 174.065 1017.48 178.059 1010.96 176.665C998.945 174.027 988.169 168.601 980.898 158.428C970.461 143.883 978.675 121.614 997.211 113.814C1010.81 108.087 1025.05 108.878 1038.47 113.626C1069.36 124.591 1095.58 142.941 1117.55 167.283C1123.5 173.877 1126.4 182.015 1128.14 190.38C1130.74 202.815 1122.71 215.023 1107.79 222.446C1090.08 231.226 1071.02 232.808 1051.77 231.942C997.739 229.568 952.678 205.226 911.084 173.161C904.943 168.413 901.062 168.79 895.109 172.935C856.981 199.461 815.161 216.757 768.329 218.226C744.48 218.98 720.405 217.925 700.776 200.14C693.278 193.357 692.035 185.859 693.73 177.268C695.577 168.036 700.361 160.199 707.181 153.492C728.016 133.031 752.053 117.545 779.406 107.446C793.158 102.36 807.512 101.003 821.754 105.638C836.787 110.499 847.901 126.965 844.887 139.135C841.458 152.926 819.719 167.961 806.081 165.964C795.456 164.419 791.99 156.393 798.169 147.463C800.09 144.674 802.351 142.075 804.385 139.362C808.077 134.35 809.961 131.826 809.735 130.055C809.132 125.571 799.713 122.745 793.497 121.991C761.736 118.11 734.797 158.39 732.424 161.63C716.035 183.749 722.063 195.919 749.604 201.044C802.238 210.765 846.319 191.172 885.653 157.749C889.722 154.321 889.232 151.344 886.896 147.124C879.963 134.501 874.425 121.237 870.092 107.484C863.461 86.3833 867.493 68.4475 885.351 54.1668C894.243 47.0452 893.527 43.9178 882.676 40.0367C847.185 27.3762 812.561 33.0659 780.197 48.9669C746.176 65.6969 714.415 85.8181 688.757 115.397C664.87 142.941 633.449 159.031 595.358 156.996C586.127 156.506 587.032 159.709 589.631 166.152C600.105 191.925 602.517 217.736 589.556 243.66C581.719 259.335 569.851 270.752 554.517 278.514C537.601 287.105 515.748 282.508 499.472 267.662C485.457 254.851 481.35 237.556 488.509 218.98C491.862 210.238 499.246 204.737 507.158 200.742C517.255 195.656 526.222 201.458 528.37 213.817C530.103 223.84 527.39 233.034 521.249 240.872C515.899 247.654 519.102 251.309 524.866 254.625C537.714 262.01 555.61 258.318 564.539 246.448C570.492 238.536 573.016 229.379 574.184 219.696C578.931 180.094 557.569 141.547 521.287 124.892C515.221 122.104 510.511 118.185 505.84 113.475C474.229 81.5602 439.153 55.4479 392.924 49.2307C372.881 46.5554 353.816 49.08 338.03 63.1346C328.837 71.3489 329.553 74.3633 339.726 81.2588C368.284 100.664 387.499 125.458 384.522 162.196C382.752 183.937 371.562 201.458 358.413 218.113C334.79 247.993 302.313 264.497 268.141 278.401C230.126 293.812 190.189 304.25 153.116 322.299C130.133 333.49 109.223 347.243 90.6488 364.952C82.6991 372.564 76.5579 380.627 71.9614 389.143C66.9128 398.488 46.2286 434.246 61.7135 470.268C64.0494 475.694 73.3931 497.436 95.0192 506.215C95.0192 506.215 130.02 520.421 206.352 445.475C206.88 444.985 208.236 443.629 207.935 442.272C207.708 441.217 206.465 440.426 204.581 439.823C183.558 432.927 176.324 416.424 175.307 396.378C174.478 380.025 178.133 364.387 187.363 350.521C190.641 345.585 194.635 341.327 201.115 340.762C207.671 340.197 211.664 342.533 211.627 349.843C211.551 360.092 210.61 370.491 212.079 380.514C214 393.665 224.361 402.105 233.291 410.847C236.154 413.673 238.904 410.131 240.863 407.832C246.892 400.824 253.447 394.155 258.609 386.543C283.777 349.504 314.633 317.664 347.035 286.992C374.99 260.541 404.943 236.802 435.461 213.591C440.359 209.861 444.503 205.189 449.438 201.571C456.258 196.598 463.492 200.064 463.793 208.505C464.019 215.438 462.437 222.069 457.727 227.646C451.774 234.73 446.575 242.53 440.019 248.973C410.255 278.25 395.712 315.102 387.009 354.779C384.221 367.439 382.902 380.439 381.132 393.288C380.19 400.108 382.187 402.821 390.249 401.917C425.024 398.036 457.162 385.3 489.564 373.468C513.676 364.651 536.696 353.046 560.508 343.588C597.204 328.968 630.774 308.432 665.812 290.76C711.966 267.512 760.38 255.341 811.694 253.231C818.853 252.929 825.974 251.686 833.057 250.631C852.799 247.654 872.014 250.593 888.252 261.596C911.385 277.271 934.858 292.079 959.912 304.438C965.413 307.151 969.444 311.484 971.027 317.287C972.986 324.446 975.924 325.2 982.48 321.846C1003.01 311.371 1024.26 310.505 1046.19 317.89C1056.66 321.394 1064.5 328.44 1072.68 335.11C1076.52 338.237 1079.5 339.594 1084.51 337.521C1106.47 328.516 1129.57 323.617 1153 320.188C1182.24 315.893 1200.93 337.484 1192.71 366.008C1190.53 373.619 1187.7 380.891 1184.16 387.975C1165.81 424.6 1159.18 462.996 1166.57 503.615C1169.96 522.229 1164.31 531.988 1148.44 537.565C1129.15 544.348 1106.7 526.223 1110.58 506.102C1114.38 486.32 1117.96 466.35 1124.9 447.284C1135.22 418.986 1139.7 389.671 1141.62 359.828C1142.49 346.565 1137.78 342.231 1124.59 344.379C1118.23 345.434 1111.97 347.469 1105.79 349.353C1090.84 353.912 1081.34 360.167 1081.53 379.723C1081.72 402.783 1071.47 424.939 1064.61 447.171C1058.93 465.596 1053.99 483.984 1054.29 503.465C1054.44 515.522 1048.04 524.528 1037.34 527.919C1027.62 531.009 1017.74 526.487 1010.02 519.78C1003.73 514.279 1004.56 507.308 1007.65 500.036C1026.6 455.649 1032.36 408.36 1037.15 360.958C1039.11 341.402 1021.96 329.948 1003.77 338.162C1000.34 339.707 996.835 340.799 993.331 342.005C980.069 346.602 970.122 352.518 966.958 369.21C961.871 396.001 951.058 421.586 948.609 449.092C947.479 461.753 945.859 474.451 947.404 487.036C949.25 502.184 940.81 513.261 933.916 524.716C929.583 531.951 891.04 530.18 886.218 523.322C882.714 518.311 883.844 513.375 886.331 507.911C896.428 485.868 910.217 465.445 915.115 441.142C916.472 434.435 918.054 427.765 919.938 421.171C926.983 396.491 926.569 372.602 917.715 347.846C911.31 329.948 906.676 312.163 890.965 299.54C884.711 294.528 878.871 289.818 870.921 287.821C856.642 284.279 842.589 279.758 828.234 276.593C803.971 271.28 780.574 277.158 757.441 283.714C686.76 303.647 619.32 331.832 552.709 362.616C501.13 386.43 446.537 402.746 392.359 419.739C376.497 424.713 376.422 424.939 377.628 441.971C378.796 458.361 379.926 474.752 381.772 491.068C383.392 505.499 375.179 517.821 362.369 518.687C352.649 519.366 340.328 505.951 340.705 494.12C340.931 486.659 342.401 479.161 343.757 471.776C345.603 461.677 347.864 451.654 349.974 441.594C353.101 426.635 353.176 428.217 337.992 429.122C307.362 430.93 278.879 444.118 248.173 444.91C243.765 445.023 241.429 447.849 239.206 450.863C218.371 479.086 192.111 502.259 167.508 526.939C156.092 538.432 142.19 548.304 127.722 553.391C121.807 555.463 105.644 561.191 86.8435 558.967C41.5191 553.542 17.7831 506.404 15.8617 502.447C-1.43167 466.764 4.70954 427.351 19.8553 401.578C25.0546 392.685 31.0075 386.769 42.6117 374.636C60.4702 355.985 80.6269 340.046 103.082 326.368C142.453 302.403 184.688 284.392 227.3 267.549C269.836 250.706 303.029 222.559 330.118 186.838C352.762 156.958 343.87 126.663 310.075 110.272C259.287 85.6674 207.482 89.6238 155.113 103.038C133.939 108.464 114.535 117.733 97.1667 130.808C74.7871 147.651 57.4184 167.885 52.9726 197.201C45.5881 245.808 81.2674 254.324 110.391 245.318C136.953 237.104 160.387 221.617 181.071 202.589C187.363 196.786 193.354 190.682 199.156 184.389C201.68 181.639 203.715 177.908 200.964 174.14C198.139 170.184 194.22 171.653 190.717 173.123C185.367 175.384 180.167 178.021 174.855 180.357C168.299 183.221 161.932 182.844 156.733 177.758C151.27 172.482 153.568 166.19 156.092 160.538C160.877 149.724 168.789 141.848 180.205 138.156C192.374 134.237 205.071 132.768 217.73 133.408C237.849 134.463 249.001 156.167 238.641 173.387C236.38 177.155 233.667 180.885 230.503 183.899C190.189 221.956 146.749 255.529 95.1322 277.233C76.784 284.958 57.9836 288.01 37.9399 285.033C14.5053 281.529 1.7708 267.625 0.263753 243.849C-2.18519 204.548 14.9951 172.897 38.4297 143.77C44.4202 136.347 45.5504 133.483 34.6997 131.599C27.7673 130.394 21.0233 127.191 14.6184 123.988C4.21975 118.826 1.62009 112.91 6.06588 102.134C16.3138 77.3024 36.6966 62.381 59.5283 50.4741C64.6146 47.8365 70.9818 49.193 76.6332 51.1147C83.1135 53.3378 88.991 56.3145 88.6896 64.3781C88.3882 72.9692 83.3773 78.282 75.2392 80.3921C71.9991 81.2211 68.4575 81.1457 65.029 81.1457C60.3572 81.1457 55.8737 81.6356 54.1029 86.7978C52.4829 91.5831 52.935 96.2178 56.1374 100.4C62.7308 109.142 77.2737 113.626 87.4463 109.18C97.1291 104.96 106.774 100.438 115.967 95.2381C157.072 72.0272 201.831 64.6418 248.21 63.9259C259.212 63.7752 270.288 64.6418 280.762 67.5809C288.335 69.691 291.5 67.4302 295.607 61.5521C317.346 30.3906 344.624 8.91294 385.54 13.4346C404.001 15.4693 421.784 20.4431 439.417 26.1328C461.57 33.2543 481.086 45.0105 499.058 59.6304C524.301 80.1284 549.695 100.476 576.558 118.864C580.25 121.388 584.018 123.498 588.501 124.478C628.023 133.144 675.721 101.418 682.578 61.7782C685.931 42.5236 677.04 30.4283 657.825 28.0544C637.442 25.5676 623.012 35.176 617.097 55.4856C615.289 61.7405 610.542 62.9462 605.229 63.097C590.837 63.5114 579.195 48.7032 582.51 34.1963C585.487 21.1213 594.228 12.8317 605.945 7.33037C634.014 -5.85767 683.37 2.24356 705.41 23.7966C711.288 29.524 715.733 35.7789 716.638 44.8598C717.994 58.6884 718.71 58.3869 730.691 51.5292C756.913 36.4948 783.814 23.0807 814.106 18.1446C846.733 12.794 878.23 15.62 908.145 30.4283C911.611 32.1239 914.173 32.3123 917.64 30.7674C962.964 10.9477 1007.69 14.4519 1051.8 34.7615C1068.91 42.6367 1085.34 51.7176 1102.03 62.9462H1102.06ZM288.524 414.276C304.762 414.276 320.435 410.583 336.071 406.853C347.788 404.064 353.44 397.094 355.776 385.187C360.334 361.825 366.325 338.689 363.424 314.536C363.122 311.899 364.78 308.093 362.52 306.85C359.129 305.003 357.358 309.148 355.286 311.07C326.991 337.069 301.296 365.367 279.18 396.83C275.375 402.256 266.709 408.36 269.422 413.334C272.21 418.458 281.93 414.163 288.561 414.313L288.524 414.276ZM1255.82 618.276C1257.97 617.485 1260.94 616.693 1263.69 615.412C1285.66 604.9 1297.79 584.402 1312.6 566.73C1316.63 561.906 1311.32 562.321 1308.53 562.283C1293.42 562.133 1278.5 563.489 1263.92 567.822C1251.68 571.477 1239.92 576.037 1231.03 585.72C1222.63 594.914 1226.28 610.439 1237.92 614.357C1243.39 616.204 1249.26 616.882 1255.82 618.238V618.276ZM926.569 93.128C927.059 84.8007 923.705 77.9052 919.147 71.2359C915.04 65.1694 911.951 64.8303 906.751 70.52C889.797 89.1716 892.472 109.707 903.699 133.483C906.487 139.399 910.029 137.402 912.817 133.257C920.955 121.124 925.966 107.861 926.569 93.128ZM1314.37 479.274C1330.04 479.425 1350.27 465.219 1355.25 450.976C1357.13 445.588 1354.83 443.742 1350.01 444.721C1334.3 447.924 1321.08 456.176 1309.09 466.387C1306.08 468.95 1306.19 473.32 1307.44 476.938C1308.6 480.291 1312.03 478.822 1314.33 479.274H1314.37Z" fill="black"/>
<path d="M482.217 452.634C492.012 445.55 500.264 438.353 511.453 435.867C530.103 431.759 541.255 442.084 537.262 460.396C535.378 469.063 532.853 477.616 531.12 486.32C529.764 493.14 531.61 496.908 539.861 494.685C558.059 489.749 567.892 475.845 565.594 457.457C564.539 448.791 570.756 439.898 579.685 437.185C587.898 434.698 592.57 438.919 596.187 445.588C599.503 451.654 597.129 455.95 592.57 459.982C582.473 468.912 587.861 481.233 585.939 491.935C585.412 494.836 589.292 494.459 591.628 494.421C599.54 494.271 603.986 488.882 607.603 483.004C615.439 470.155 622.786 457.005 630.359 444.005C634.466 436.922 634.767 429.009 635.559 421.209C637.48 401.954 644.186 384.659 656.695 369.776C661.254 364.35 675.307 364.274 679.451 369.663C681.938 372.903 679.3 375.465 678.095 378.103C666.302 403.537 654.698 429.084 642.491 454.292C637.103 465.445 638.422 476.976 638.346 488.543C638.346 493.404 641.7 495.288 645.806 495.062C651.232 494.723 658.654 498.642 661.555 491.935C664.531 485.077 668.525 478.257 666.378 469.477C663.778 458.927 669.015 452.747 679.602 450.336C683.897 449.356 688.041 448.828 690.377 453.35C692.487 457.457 695.69 461.941 691.583 466.613C685.479 473.584 688.418 482.401 686.497 490.239C685.706 493.366 688.607 495.891 691.47 495.288C700.361 493.404 710.76 492.537 714.189 482.251C723.645 453.689 746.816 444.684 772.963 439.371C787.958 436.319 793.158 440.953 797.001 457.721C798.847 465.671 799.638 473.848 801.145 481.912C802.464 488.958 805.855 493.216 813.917 490.126C815.801 489.41 817.873 488.995 819.908 488.769C826.2 488.091 830.645 491.219 833.094 496.531C835.732 502.259 832.303 506.291 827.857 509.569C812.335 520.986 793.798 515.748 786.225 496.871C782.872 488.543 781.139 487.187 775.375 495.062C770.552 501.618 764.675 507.572 758.533 512.96C745.912 524.038 724.173 521.551 714.528 508.024C711.777 504.181 709.592 504.218 706.239 506.743C701.341 510.435 696.217 513.827 691.206 517.406C680.883 524.716 668.676 522.493 662.61 511.453C659.822 506.366 657.524 507.496 653.907 509.908C647.05 514.467 640.08 518.876 631.339 518.725C621.468 518.537 614.196 513.601 609.713 505.424C607.264 500.94 605.493 501.618 601.951 503.352C594.265 507.044 587.408 512.32 579.044 514.769C569.814 517.482 562.542 515.673 559.076 506.065C557.079 500.526 555.045 500.639 551.767 504.708C544.872 513.299 535.867 518.65 525.393 521.551C513.45 524.905 507.987 520.873 506.555 508.589C505.689 500.978 508.326 494.384 511.491 487.903C517.218 476.147 517.934 463.561 518.574 450.901C518.876 445.287 516.803 445.513 512.584 447.171C496.571 453.35 481.84 477.126 483.535 494.459C484.214 501.355 483.761 508.212 480.446 514.43C476.791 521.325 470.499 524.792 463.341 521.589C456.672 518.612 453.771 513.073 456.823 504.67C462.135 490.201 465.413 475.167 464.547 459.417C464.208 453.501 461.909 449.168 456.936 447.171C451.548 445.023 449.137 450.26 446.726 453.614C437.231 466.99 427.36 480.216 430.751 498.415C431.881 504.482 429.018 510.021 423.517 513.299C418.28 516.427 412.478 517.783 407.128 513.714C402.08 509.87 404.868 504.859 406.299 500.526C409.389 491.106 413.458 481.987 416.057 472.416C418.582 462.996 418.808 453.237 411.046 445.626C407.882 442.536 405.131 439.672 406.827 435.075C408.711 430.064 412.855 427.615 418.017 427.502C422.349 427.426 426.908 427.162 429.508 432.249C432.258 437.6 432.823 446.191 438.06 447.434C441.715 448.301 446.99 441.142 451.887 438.165C467.259 428.82 478.977 434.171 482.179 452.672L482.217 452.634ZM775.827 459.153C762.64 462.356 752.656 468.234 744.593 477.202C741.843 480.254 736.531 483.833 740.185 488.204C743.614 492.311 749.83 491.708 754.314 488.807C764.712 482.025 772.059 472.718 775.864 459.153H775.827Z" fill="black"/>
<path d="M1442.13 418.119C1435.16 417.592 1428.11 416.499 1427.02 407.719C1425.93 398.902 1432.11 395.926 1439.38 394.381C1451.55 391.781 1460.7 396.001 1463.83 405.119C1466.02 411.563 1463.94 415.029 1457.54 416.122C1452.49 416.951 1447.4 417.479 1442.17 418.157L1442.13 418.119Z" fill="black"/>
<path d="M582.398 424.412C579.12 424.073 575.578 424.261 572.413 423.244C565.82 421.134 562.693 412.882 566.536 407.38C571.735 399.957 579.836 400.07 587.823 400.56C594.906 401.012 599.917 403.989 602.215 411.337C604.061 417.215 602.743 420.644 596.677 421.849C592.005 422.791 587.295 423.545 582.435 424.412H582.398Z" fill="black"/>
<path d="M689.737 435.452C685.856 434.849 681.975 434.359 678.095 433.794C675.458 433.417 673.046 432.249 671.916 429.725C669.806 425.128 671.087 417.667 675.721 415.142C682.654 411.374 692.073 412.015 699.118 414.992C704.996 417.479 709.705 422.49 707.105 429.272C704.657 435.791 695.351 434.962 689.699 435.452H689.737Z" fill="black"/>
</svg>
